<svg width="444" height="150" viewBox="0 0 444 150" fill="none" xmlns="http://www.w3.org/2000/svg">
<rect x="2.5" y="2.5" width="439" height="145" rx="32.5" fill="#AABB22" stroke="black" stroke-width="5"/>
<path d="M143.05 97.644H157.162C159.934 97.644 161.908 97.098 163.084 96.006C164.344 94.83 164.974 92.94 164.974 90.336V83.028C164.974 80.424 164.344 78.576 163.084 77.484C161.824 76.392 159.766 75.846 156.91 75.846H143.05C142.126 75.846 141.664 76.308 141.664 77.232V96.258C141.664 97.182 142.126 97.644 143.05 97.644ZM143.05 62.868H155.902C158.59 62.868 160.564 62.322 161.824 61.23C163.084 60.054 163.714 58.164 163.714 55.56V50.646C163.714 48.042 163.084 46.194 161.824 45.102C160.648 43.926 158.716 43.338 156.028 43.338H143.05C142.126 43.338 141.664 43.8 141.664 44.724V61.482C141.664 62.406 142.126 62.868 143.05 62.868ZM125.662 108.354V32.628C125.662 30.864 126.544 29.982 128.308 29.982H158.548C165.184 29.982 170.308 31.746 173.92 35.274C177.532 38.802 179.338 43.842 179.338 50.394V55.56C179.338 62.7 176.02 67.32 169.384 69.42C172.744 69.924 175.432 71.31 177.448 73.578C179.464 75.762 180.472 78.912 180.472 83.028V90.588C180.472 97.14 178.666 102.18 175.054 105.708C171.442 109.236 166.36 111 159.808 111H128.308C126.544 111 125.662 110.118 125.662 108.354ZM237.006 29.982H247.59C249.438 29.982 250.362 30.822 250.362 32.502V90.462C250.362 97.014 248.514 102.096 244.818 105.708C241.206 109.236 236.124 111 229.572 111H215.712C209.076 111 203.952 109.236 200.34 105.708C196.728 102.18 194.922 97.098 194.922 90.462V32.628C194.922 30.864 195.804 29.982 197.568 29.982H208.278C210.042 29.982 210.924 30.864 210.924 32.628V89.706C210.924 92.394 211.47 94.326 212.562 95.502C213.738 96.594 215.628 97.14 218.232 97.14H226.926C229.614 97.14 231.504 96.594 232.596 95.502C233.772 94.326 234.36 92.394 234.36 89.706V32.628C234.36 30.864 235.242 29.982 237.006 29.982ZM298.944 111H285.588C278.952 111 273.828 109.236 270.216 105.708C266.604 102.18 264.798 97.098 264.798 90.462V50.52C264.798 43.884 266.604 38.802 270.216 35.274C273.828 31.746 278.952 29.982 285.588 29.982H298.944C305.496 29.982 310.578 31.788 314.19 35.4C317.802 38.928 319.608 43.968 319.608 50.52V54.3C319.608 56.148 318.726 57.072 316.962 57.072H306.252C304.488 57.072 303.606 56.148 303.606 54.3V51.276C303.606 48.588 303.06 46.698 301.968 45.606C300.876 44.43 298.986 43.842 296.298 43.842H288.108C285.504 43.842 283.614 44.43 282.438 45.606C281.346 46.698 280.8 48.588 280.8 51.276V89.706C280.8 92.394 281.346 94.326 282.438 95.502C283.614 96.594 285.504 97.14 288.108 97.14H296.298C298.986 97.14 300.876 96.594 301.968 95.502C303.06 94.326 303.606 92.394 303.606 89.706V81.768C303.606 80.844 303.144 80.382 302.22 80.382H294.66C292.896 80.382 292.014 79.5 292.014 77.736V69.168C292.014 67.404 292.896 66.522 294.66 66.522H316.71C318.642 66.522 319.608 67.488 319.608 69.42V90.462C319.608 97.014 317.802 102.096 314.19 105.708C310.578 109.236 305.496 111 298.944 111Z" fill="white"/>
<path d="M163.084 96.006L163.764 96.7388L163.766 96.7371L163.084 96.006ZM163.084 77.484L162.429 78.2397L162.429 78.2397L163.084 77.484ZM161.824 61.23L162.479 61.9857L162.493 61.9736L162.506 61.9611L161.824 61.23ZM161.824 45.102L161.117 45.8091L161.142 45.8343L161.169 45.8577L161.824 45.102ZM173.92 35.274L173.221 35.9894L173.221 35.9894L173.92 35.274ZM169.384 69.42L169.082 68.4666L169.235 70.4089L169.384 69.42ZM177.448 73.578L176.7 74.2424L176.707 74.2494L176.713 74.2563L177.448 73.578ZM143.05 98.644H157.162V96.644H143.05V98.644ZM157.162 98.644C160.017 98.644 162.308 98.0906 163.764 96.7388L162.403 95.2732C161.507 96.1054 159.85 96.644 157.162 96.644V98.644ZM163.766 96.7371C165.313 95.2934 165.974 93.0761 165.974 90.336H163.974C163.974 92.8039 163.375 94.3666 162.401 95.2749L163.766 96.7371ZM165.974 90.336V83.028H163.974V90.336H165.974ZM165.974 83.028C165.974 80.296 165.316 78.0954 163.739 76.7283L162.429 78.2397C163.371 79.0566 163.974 80.552 163.974 83.028H165.974ZM163.739 76.7283C162.206 75.3997 159.849 74.846 156.91 74.846V76.846C159.682 76.846 161.442 77.3843 162.429 78.2397L163.739 76.7283ZM156.91 74.846H143.05V76.846H156.91V74.846ZM143.05 74.846C142.434 74.846 141.788 75.0007 141.303 75.4854C140.818 75.9701 140.664 76.6159 140.664 77.232H142.664C142.664 76.9241 142.74 76.8769 142.717 76.8996C142.695 76.9223 142.742 76.846 143.05 76.846V74.846ZM140.664 77.232V96.258H142.664V77.232H140.664ZM140.664 96.258C140.664 96.8741 140.818 97.5199 141.303 98.0046C141.788 98.4893 142.434 98.644 143.05 98.644V96.644C142.742 96.644 142.695 96.5677 142.717 96.5904C142.74 96.6131 142.664 96.5659 142.664 96.258H140.664ZM143.05 63.868H155.902V61.868H143.05V63.868ZM155.902 63.868C158.692 63.868 160.954 63.3069 162.479 61.9857L161.169 60.4743C160.173 61.3371 158.488 61.868 155.902 61.868V63.868ZM162.506 61.9611C164.053 60.5174 164.714 58.3001 164.714 55.56H162.714C162.714 58.0278 162.115 59.5906 161.141 60.4989L162.506 61.9611ZM164.714 55.56V50.646H162.714V55.56H164.714ZM164.714 50.646C164.714 47.914 164.056 45.7134 162.479 44.3463L161.169 45.8577C162.111 46.6746 162.714 48.17 162.714 50.646H164.714ZM162.531 44.3949C161.08 42.9439 158.824 42.338 156.028 42.338V44.338C158.607 44.338 160.216 44.9081 161.117 45.8091L162.531 44.3949ZM156.028 42.338H143.05V44.338H156.028V42.338ZM143.05 42.338C142.434 42.338 141.788 42.4927 141.303 42.9774C140.818 43.4621 140.664 44.1079 140.664 44.724H142.664C142.664 44.4161 142.74 44.3689 142.717 44.3916C142.695 44.4143 142.742 44.338 143.05 44.338V42.338ZM140.664 44.724V61.482H142.664V44.724H140.664ZM140.664 61.482C140.664 62.0981 140.818 62.7439 141.303 63.2286C141.788 63.7133 142.434 63.868 143.05 63.868V61.868C142.742 61.868 142.695 61.7917 142.717 61.8144C142.74 61.8371 142.664 61.7899 142.664 61.482H140.664ZM126.662 108.354V32.628H124.662V108.354H126.662ZM126.662 32.628C126.662 31.9001 126.843 31.5379 127.03 31.3506C127.218 31.1633 127.58 30.982 128.308 30.982V28.982C127.272 28.982 126.311 29.2417 125.616 29.9364C124.921 30.6311 124.662 31.5919 124.662 32.628H126.662ZM128.308 30.982H158.548V28.982H128.308V30.982ZM158.548 30.982C165.007 30.982 169.849 32.6956 173.221 35.9894L174.618 34.5586C170.767 30.7964 165.36 28.982 158.548 28.982V30.982ZM173.221 35.9894C176.588 39.2777 178.338 44.0274 178.338 50.394H180.338C180.338 43.6566 178.476 38.3263 174.618 34.5586L173.221 35.9894ZM178.338 50.394V55.56H180.338V50.394H178.338ZM178.338 55.56C178.338 58.9746 177.546 61.6957 176.037 63.7967C174.53 65.8953 172.241 67.4668 169.082 68.4666L169.685 70.3734C173.162 69.2732 175.851 67.4847 177.661 64.9633C179.471 62.4442 180.338 59.2854 180.338 55.56H178.338ZM169.235 70.4089C172.393 70.8826 174.859 72.1704 176.7 74.2424L178.195 72.9136C176.005 70.4496 173.094 68.9654 169.532 68.4311L169.235 70.4089ZM176.713 74.2563C178.502 76.1947 179.472 79.066 179.472 83.028H181.472C181.472 78.758 180.425 75.3293 178.182 72.8997L176.713 74.2563ZM179.472 83.028V90.588H181.472V83.028H179.472ZM179.472 90.588C179.472 96.9546 177.722 101.704 174.355 104.993L175.752 106.423C179.61 102.656 181.472 97.3254 181.472 90.588H179.472ZM174.355 104.993C170.981 108.289 166.179 110 159.808 110V112C166.54 112 171.903 110.183 175.752 106.423L174.355 104.993ZM159.808 110H128.308V112H159.808V110ZM128.308 110C127.58 110 127.218 109.819 127.03 109.631C126.843 109.444 126.662 109.082 126.662 108.354H124.662C124.662 109.39 124.921 110.351 125.616 111.046C126.311 111.74 127.272 112 128.308 112V110ZM244.818 105.708L245.517 106.423L245.517 106.423L244.818 105.708ZM212.562 95.502L211.83 96.1825L211.855 96.2096L211.882 96.2348L212.562 95.502ZM232.596 95.502L233.303 96.2091L233.303 96.2091L232.596 95.502ZM237.006 30.982H247.59V28.982H237.006V30.982ZM247.59 30.982C248.382 30.982 248.79 31.1641 248.997 31.3519C249.185 31.5234 249.362 31.842 249.362 32.502H251.362C251.362 31.482 251.077 30.5406 250.342 29.8721C249.625 29.2199 248.646 28.982 247.59 28.982V30.982ZM249.362 32.502V90.462H251.362V32.502H249.362ZM249.362 90.462C249.362 96.8209 247.575 101.616 244.119 104.993L245.517 106.423C249.454 102.576 251.362 97.2071 251.362 90.462H249.362ZM244.12 104.993C240.745 108.289 235.944 110 229.572 110V112C236.305 112 241.667 110.183 245.517 106.423L244.12 104.993ZM229.572 110H215.712V112H229.572V110ZM215.712 110C209.253 110 204.411 108.286 201.039 104.993L199.642 106.423C203.493 110.186 208.9 112 215.712 112V110ZM201.039 104.993C197.675 101.707 195.922 96.9169 195.922 90.462H193.922C193.922 97.2791 195.782 102.653 199.642 106.423L201.039 104.993ZM195.922 90.462V32.628H193.922V90.462H195.922ZM195.922 32.628C195.922 31.9001 196.104 31.5379 196.291 31.3506C196.478 31.1633 196.84 30.982 197.568 30.982V28.982C196.532 28.982 195.571 29.2417 194.877 29.9364C194.182 30.6311 193.922 31.5919 193.922 32.628H195.922ZM197.568 30.982H208.278V28.982H197.568V30.982ZM208.278 30.982C209.006 30.982 209.368 31.1633 209.556 31.3506C209.743 31.5379 209.924 31.9001 209.924 32.628H211.924C211.924 31.5919 211.665 30.6311 210.97 29.9364C210.275 29.2417 209.314 28.982 208.278 28.982V30.982ZM209.924 32.628V89.706H211.924V32.628H209.924ZM209.924 89.706C209.924 92.4874 210.482 94.731 211.83 96.1825L213.295 94.8215C212.459 93.921 211.924 92.3006 211.924 89.706H209.924ZM211.882 96.2348C213.329 97.5783 215.525 98.14 218.232 98.14V96.14C215.732 96.14 214.148 95.6097 213.243 94.7692L211.882 96.2348ZM218.232 98.14H226.926V96.14H218.232V98.14ZM226.926 98.14C229.697 98.14 231.926 97.5869 233.303 96.2091L231.889 94.7949C231.083 95.6011 229.531 96.14 226.926 96.14V98.14ZM233.303 96.2091C234.754 94.7581 235.36 92.5026 235.36 89.706H233.36C233.36 92.2854 232.79 93.8939 231.889 94.7949L233.303 96.2091ZM235.36 89.706V32.628H233.36V89.706H235.36ZM235.36 32.628C235.36 31.9001 235.542 31.5379 235.729 31.3506C235.916 31.1633 236.278 30.982 237.006 30.982V28.982C235.97 28.982 235.009 29.2417 234.315 29.9364C233.62 30.6311 233.36 31.5919 233.36 32.628H235.36ZM270.216 105.708L270.915 104.993L270.915 104.993L270.216 105.708ZM270.216 35.274L270.915 35.9894L270.915 35.9894L270.216 35.274ZM314.19 35.4L313.483 36.1072L313.491 36.1154L314.19 35.4ZM301.968 45.606L301.235 46.2864L301.248 46.3L301.261 46.3131L301.968 45.606ZM282.438 45.606L281.731 44.8989L281.731 44.8989L282.438 45.606ZM282.438 95.502L281.705 96.1825L281.731 96.2096L281.758 96.2348L282.438 95.502ZM301.968 95.502L302.675 96.2091L302.688 96.196L302.701 96.1824L301.968 95.502ZM314.19 105.708L314.889 106.423L314.897 106.415L314.19 105.708ZM298.944 110H285.588V112H298.944V110ZM285.588 110C279.128 110 274.287 108.286 270.915 104.993L269.517 106.423C273.369 110.186 278.776 112 285.588 112V110ZM270.915 104.993C267.551 101.707 265.798 96.9169 265.798 90.462H263.798C263.798 97.2791 265.658 102.653 269.517 106.423L270.915 104.993ZM265.798 90.462V50.52H263.798V90.462H265.798ZM265.798 50.52C265.798 44.0651 267.551 39.2754 270.915 35.9894L269.517 34.5586C265.658 38.3286 263.798 43.7029 263.798 50.52H265.798ZM270.915 35.9894C274.287 32.6956 279.128 30.982 285.588 30.982V28.982C278.776 28.982 273.369 30.7964 269.517 34.5586L270.915 35.9894ZM285.588 30.982H298.944V28.982H285.588V30.982ZM298.944 30.982C305.309 30.982 310.108 32.7317 313.483 36.1071L314.897 34.6929C311.049 30.8443 305.683 28.982 298.944 28.982V30.982ZM313.491 36.1154C316.858 39.4037 318.608 44.1534 318.608 50.52H320.608C320.608 43.7826 318.746 38.4523 314.889 34.6846L313.491 36.1154ZM318.608 50.52V54.3H320.608V50.52H318.608ZM318.608 54.3C318.608 55.0812 318.421 55.4814 318.223 55.6885C318.034 55.8869 317.678 56.072 316.962 56.072V58.072C318.01 58.072 318.977 57.7951 319.67 57.0695C320.354 56.3526 320.608 55.3668 320.608 54.3H318.608ZM316.962 56.072H306.252V58.072H316.962V56.072ZM306.252 56.072C305.536 56.072 305.18 55.8869 304.991 55.6885C304.793 55.4814 304.606 55.0812 304.606 54.3H302.606C302.606 55.3668 302.86 56.3526 303.544 57.0695C304.237 57.7951 305.204 58.072 306.252 58.072V56.072ZM304.606 54.3V51.276H302.606V54.3H304.606ZM304.606 51.276C304.606 48.5049 304.053 46.2767 302.675 44.8989L301.261 46.3131C302.067 47.1193 302.606 48.6711 302.606 51.276H304.606ZM302.701 44.9255C301.325 43.4439 299.085 42.842 296.298 42.842V44.842C298.887 44.842 300.427 45.4161 301.235 46.2864L302.701 44.9255ZM296.298 42.842H288.108V44.842H296.298V42.842ZM288.108 42.842C285.385 42.842 283.177 43.4527 281.731 44.8989L283.145 46.3131C284.051 45.4072 285.624 44.842 288.108 44.842V42.842ZM281.731 44.8989C280.353 46.2766 279.8 48.5049 279.8 51.276H281.8C281.8 48.6711 282.339 47.1193 283.145 46.3131L281.731 44.8989ZM279.8 51.276V89.706H281.8V51.276H279.8ZM279.8 89.706C279.8 92.4874 280.358 94.731 281.705 96.1825L283.171 94.8215C282.335 93.921 281.8 92.3006 281.8 89.706H279.8ZM281.758 96.2348C283.205 97.5783 285.4 98.14 288.108 98.14V96.14C285.608 96.14 284.024 95.6097 283.119 94.7692L281.758 96.2348ZM288.108 98.14H296.298V96.14H288.108V98.14ZM296.298 98.14C299.069 98.14 301.298 97.5869 302.675 96.2091L301.261 94.7949C300.455 95.6011 298.903 96.14 296.298 96.14V98.14ZM302.701 96.1824C304.049 94.731 304.606 92.4874 304.606 89.706H302.606C302.606 92.3006 302.072 93.921 301.235 94.8215L302.701 96.1824ZM304.606 89.706V81.768H302.606V89.706H304.606ZM304.606 81.768C304.606 81.1519 304.451 80.5061 303.967 80.0214C303.482 79.5367 302.836 79.382 302.22 79.382V81.382C302.528 81.382 302.575 81.4583 302.553 81.4356C302.53 81.4129 302.606 81.4601 302.606 81.768H304.606ZM302.22 79.382H294.66V81.382H302.22V79.382ZM294.66 79.382C293.932 79.382 293.57 79.2007 293.383 79.0134C293.195 78.8261 293.014 78.4639 293.014 77.736H291.014C291.014 78.7721 291.274 79.7329 291.969 80.4276C292.663 81.1223 293.624 81.382 294.66 81.382V79.382ZM293.014 77.736V69.168H291.014V77.736H293.014ZM293.014 69.168C293.014 68.4401 293.195 68.0779 293.383 67.8906C293.57 67.7033 293.932 67.522 294.66 67.522V65.522C293.624 65.522 292.663 65.7817 291.969 66.4764C291.274 67.1711 291.014 68.1319 291.014 69.168H293.014ZM294.66 67.522H316.71V65.522H294.66V67.522ZM316.71 67.522C317.522 67.522 317.947 67.7243 318.177 67.9536C318.406 68.1829 318.608 68.6081 318.608 69.42H320.608C320.608 68.2999 320.327 67.2761 319.591 66.5394C318.854 65.8027 317.83 65.522 316.71 65.522V67.522ZM318.608 69.42V90.462H320.608V69.42H318.608ZM318.608 90.462C318.608 96.8273 316.858 101.625 313.483 105.001L314.897 106.415C318.746 102.567 320.608 97.2007 320.608 90.462H318.608ZM313.491 104.993C310.117 108.289 305.316 110 298.944 110V112C305.677 112 311.039 110.183 314.889 106.423L313.491 104.993Z" fill="black"/>
</svg>
