<svg width="513" height="150" viewBox="0 0 513 150" fill="none" xmlns="http://www.w3.org/2000/svg">
<rect x="2.5" y="2.5" width="507.304" height="145" rx="32.5" fill="#775544" stroke="black" stroke-width="5"/>
<path d="M142.192 97.14H155.926C158.614 97.14 160.504 96.594 161.596 95.502C162.772 94.326 163.36 92.394 163.36 89.706V51.276C163.36 48.588 162.772 46.698 161.596 45.606C160.504 44.43 158.614 43.842 155.926 43.842H142.192C141.268 43.842 140.806 44.304 140.806 45.228V95.754C140.806 96.678 141.268 97.14 142.192 97.14ZM124.804 108.354V32.628C124.804 30.864 125.686 29.982 127.45 29.982H158.572C165.124 29.982 170.206 31.788 173.818 35.4C177.514 38.928 179.362 43.968 179.362 50.52V90.462C179.362 97.014 177.514 102.096 173.818 105.708C170.206 109.236 165.124 111 158.572 111H127.45C125.686 111 124.804 110.118 124.804 108.354ZM202.89 111H190.794C189.282 111 188.778 110.118 189.282 108.354L209.19 32.628C209.778 30.864 211.038 29.982 212.97 29.982H229.728C231.828 29.982 233.088 30.864 233.508 32.628L253.416 108.354C253.92 110.118 253.416 111 251.904 111H239.808C238.884 111 238.254 110.832 237.918 110.496C237.582 110.076 237.33 109.362 237.162 108.354L233.634 94.494H209.064L205.536 108.354C205.368 109.362 205.074 110.076 204.654 110.496C204.318 110.832 203.73 111 202.89 111ZM221.16 45.228L212.088 81.642H230.736L221.664 45.228H221.16ZM277.941 111H267.231C265.467 111 264.585 110.118 264.585 108.354V32.628C264.585 30.864 265.467 29.982 267.231 29.982H297.219C303.771 29.982 308.895 31.788 312.591 35.4C316.287 39.012 318.135 44.094 318.135 50.646V60.474C318.135 69.966 314.397 76.266 306.921 79.374V79.878L320.403 107.976C321.159 109.992 320.445 111 318.261 111H308.055C306.543 111 305.451 110.832 304.779 110.496C304.107 110.16 303.561 109.446 303.141 108.354L290.541 81.138H282.099C281.091 81.138 280.587 81.6 280.587 82.524V108.354C280.587 110.118 279.705 111 277.941 111ZM281.973 68.286H294.321C297.009 68.286 298.983 67.74 300.243 66.648C301.503 65.472 302.133 63.624 302.133 61.104V51.276C302.133 48.672 301.503 46.782 300.243 45.606C298.983 44.43 297.009 43.842 294.321 43.842H281.973C281.049 43.842 280.587 44.304 280.587 45.228V66.9C280.587 67.824 281.049 68.286 281.973 68.286ZM346.847 111H336.137C334.373 111 333.491 110.118 333.491 108.354V32.628C333.491 30.864 334.373 29.982 336.137 29.982H346.847C348.611 29.982 349.493 30.864 349.493 32.628V68.538H349.745C350.417 66.522 351.719 63.918 353.651 60.726L372.803 32.628C373.895 30.864 375.533 29.982 377.717 29.982H390.065C390.989 29.982 391.535 30.276 391.703 30.864C391.955 31.368 391.745 32.04 391.073 32.88L367.133 66.018L393.845 107.85C394.433 108.858 394.517 109.656 394.097 110.244C393.761 110.748 393.005 111 391.829 111H382.631C379.691 111 377.717 110.118 376.709 108.354L357.431 77.484L349.493 86.808V108.354C349.493 110.118 348.611 111 346.847 111Z" fill="white"/>
<path d="M161.596 95.502L162.303 96.2091L162.303 96.2091L161.596 95.502ZM161.596 45.606L160.863 46.2864L160.888 46.3136L160.915 46.3388L161.596 45.606ZM173.818 35.4L173.111 36.1071L173.119 36.1153L173.127 36.1234L173.818 35.4ZM173.818 105.708L174.517 106.423L174.517 106.423L173.818 105.708ZM142.192 98.14H155.926V96.14H142.192V98.14ZM155.926 98.14C158.697 98.14 160.925 97.5869 162.303 96.2091L160.889 94.7949C160.083 95.6011 158.531 96.14 155.926 96.14V98.14ZM162.303 96.2091C163.754 94.7581 164.36 92.5026 164.36 89.706H162.36C162.36 92.2854 161.79 93.8939 160.889 94.7949L162.303 96.2091ZM164.36 89.706V51.276H162.36V89.706H164.36ZM164.36 51.276C164.36 48.489 163.758 46.249 162.276 44.8732L160.915 46.3388C161.786 47.1469 162.36 48.687 162.36 51.276H164.36ZM162.329 44.9255C160.953 43.4439 158.713 42.842 155.926 42.842V44.842C158.515 44.842 160.055 45.4161 160.863 46.2864L162.329 44.9255ZM155.926 42.842H142.192V44.842H155.926V42.842ZM142.192 42.842C141.576 42.842 140.93 42.9967 140.445 43.4814C139.961 43.9661 139.806 44.6119 139.806 45.228H141.806C141.806 44.9201 141.882 44.8729 141.86 44.8956C141.837 44.9183 141.884 44.842 142.192 44.842V42.842ZM139.806 45.228V95.754H141.806V45.228H139.806ZM139.806 95.754C139.806 96.3701 139.961 97.0159 140.445 97.5006C140.93 97.9853 141.576 98.14 142.192 98.14V96.14C141.884 96.14 141.837 96.0637 141.86 96.0864C141.882 96.1091 141.806 96.0619 141.806 95.754H139.806ZM125.804 108.354V32.628H123.804V108.354H125.804ZM125.804 32.628C125.804 31.9001 125.985 31.5379 126.173 31.3506C126.36 31.1633 126.722 30.982 127.45 30.982V28.982C126.414 28.982 125.453 29.2417 124.758 29.9364C124.064 30.6311 123.804 31.5919 123.804 32.628H125.804ZM127.45 30.982H158.572V28.982H127.45V30.982ZM158.572 30.982C164.937 30.982 169.735 32.7317 173.111 36.1071L174.525 34.6929C170.676 30.8443 165.311 28.982 158.572 28.982V30.982ZM173.127 36.1234C176.574 39.413 178.362 44.1599 178.362 50.52H180.362C180.362 43.7761 178.454 38.443 174.508 34.6766L173.127 36.1234ZM178.362 50.52V90.462H180.362V50.52H178.362ZM178.362 90.462C178.362 96.8209 176.574 101.616 173.119 104.993L174.517 106.423C178.454 102.576 180.362 97.2071 180.362 90.462H178.362ZM173.119 104.993C169.745 108.289 164.944 110 158.572 110V112C165.304 112 170.667 110.183 174.517 106.423L173.119 104.993ZM158.572 110H127.45V112H158.572V110ZM127.45 110C126.722 110 126.36 109.819 126.173 109.631C125.985 109.444 125.804 109.082 125.804 108.354H123.804C123.804 109.39 124.064 110.351 124.758 111.046C125.453 111.74 126.414 112 127.45 112V110ZM189.282 108.354L190.244 108.629L190.247 108.619L190.25 108.608L189.282 108.354ZM209.19 32.628L208.242 32.3118L208.232 32.3425L208.223 32.3737L209.19 32.628ZM233.508 32.628L232.536 32.8596L232.538 32.871L232.541 32.8823L233.508 32.628ZM253.416 108.354L252.449 108.608L252.452 108.619L252.455 108.629L253.416 108.354ZM237.918 110.496L237.138 111.121L237.172 111.164L237.211 111.203L237.918 110.496ZM237.162 108.354L238.149 108.19L238.142 108.148L238.132 108.107L237.162 108.354ZM233.634 94.494L234.604 94.2473L234.412 93.494H233.634V94.494ZM209.064 94.494V93.494H208.287L208.095 94.2473L209.064 94.494ZM205.536 108.354L204.567 108.107L204.557 108.148L204.55 108.19L205.536 108.354ZM204.654 110.496L205.362 111.203L205.362 111.203L204.654 110.496ZM221.16 45.228V44.228H220.379L220.19 44.9863L221.16 45.228ZM212.088 81.642L211.118 81.4003L210.809 82.642H212.088V81.642ZM230.736 81.642V82.642H232.016L231.707 81.4003L230.736 81.642ZM221.664 45.228L222.635 44.9863L222.446 44.228H221.664V45.228ZM202.89 110H190.794V112H202.89V110ZM190.794 110C190.506 110 190.338 109.957 190.25 109.918C190.178 109.887 190.161 109.86 190.151 109.842C190.106 109.765 190.011 109.443 190.244 108.629L188.321 108.079C188.05 109.029 187.955 110.03 188.414 110.835C188.922 111.724 189.871 112 190.794 112V110ZM190.25 108.608L210.158 32.8823L208.223 32.3737L188.315 108.1L190.25 108.608ZM210.139 32.9442C210.38 32.2222 210.73 31.7567 211.15 31.4627C211.573 31.1664 212.157 30.982 212.97 30.982V28.982C211.852 28.982 210.84 29.2386 210.003 29.8243C209.163 30.4123 208.589 31.2698 208.242 32.3118L210.139 32.9442ZM212.97 30.982H229.728V28.982H212.97V30.982ZM229.728 30.982C230.647 30.982 231.264 31.1754 231.675 31.4627C232.069 31.7389 232.372 32.1707 232.536 32.8596L234.481 32.3964C234.225 31.3213 233.687 30.4301 232.822 29.8243C231.972 29.2296 230.91 28.982 229.728 28.982V30.982ZM232.541 32.8823L252.449 108.608L254.384 108.1L234.476 32.3737L232.541 32.8823ZM252.455 108.629C252.688 109.443 252.593 109.765 252.548 109.842C252.538 109.86 252.521 109.887 252.449 109.918C252.361 109.957 252.193 110 251.904 110V112C252.828 112 253.777 111.724 254.285 110.835C254.744 110.03 254.649 109.029 254.378 108.079L252.455 108.629ZM251.904 110H239.808V112H251.904V110ZM239.808 110C238.929 110 238.661 109.824 238.626 109.789L237.211 111.203C237.848 111.84 238.84 112 239.808 112V110ZM238.699 109.871C238.529 109.658 238.31 109.156 238.149 108.19L236.176 108.518C236.351 109.568 236.636 110.494 237.138 111.121L238.699 109.871ZM238.132 108.107L234.604 94.2473L232.665 94.7407L236.193 108.601L238.132 108.107ZM233.634 93.494H209.064V95.494H233.634V93.494ZM208.095 94.2473L204.567 108.107L206.506 108.601L210.034 94.7407L208.095 94.2473ZM204.55 108.19C204.394 109.124 204.147 109.589 203.947 109.789L205.362 111.203C206.002 110.563 206.343 109.6 206.523 108.518L204.55 108.19ZM203.947 109.789C203.899 109.837 203.653 110 202.89 110V112C203.808 112 204.738 111.827 205.362 111.203L203.947 109.789ZM220.19 44.9863L211.118 81.4003L213.059 81.8837L222.131 45.4697L220.19 44.9863ZM212.088 82.642H230.736V80.642H212.088V82.642ZM231.707 81.4003L222.635 44.9863L220.694 45.4697L229.766 81.8837L231.707 81.4003ZM221.664 44.228H221.16V46.228H221.664V44.228ZM306.921 79.374L306.537 78.4506L305.921 78.7068V79.374H306.921ZM306.921 79.878H305.921V80.1055L306.02 80.3106L306.921 79.878ZM320.403 107.976L321.34 107.625L321.324 107.583L321.305 107.543L320.403 107.976ZM304.779 110.496L304.332 111.39L304.332 111.39L304.779 110.496ZM303.141 108.354L304.075 107.995L304.063 107.964L304.049 107.934L303.141 108.354ZM290.541 81.138L291.449 80.7179L291.18 80.138H290.541V81.138ZM300.243 66.648L300.898 67.4037L300.912 67.3916L300.925 67.3791L300.243 66.648ZM300.243 45.606L300.925 44.8749L300.925 44.8749L300.243 45.606ZM277.941 110H267.231V112H277.941V110ZM267.231 110C266.503 110 266.141 109.819 265.954 109.631C265.766 109.444 265.585 109.082 265.585 108.354H263.585C263.585 109.39 263.845 110.351 264.54 111.046C265.234 111.74 266.195 112 267.231 112V110ZM265.585 108.354V32.628H263.585V108.354H265.585ZM265.585 32.628C265.585 31.9001 265.766 31.5379 265.954 31.3506C266.141 31.1633 266.503 30.982 267.231 30.982V28.982C266.195 28.982 265.234 29.2417 264.54 29.9364C263.845 30.6311 263.585 31.5919 263.585 32.628H265.585ZM267.231 30.982H297.219V28.982H267.231V30.982ZM297.219 30.982C303.583 30.982 308.43 32.7313 311.892 36.1152L313.29 34.6848C309.361 30.8447 303.959 28.982 297.219 28.982V30.982ZM311.892 36.1152C315.347 39.4918 317.135 44.2871 317.135 50.646H319.135C319.135 43.9009 317.227 38.5322 313.29 34.6848L311.892 36.1152ZM317.135 50.646V60.474H319.135V50.646H317.135ZM317.135 60.474C317.135 65.0924 316.226 68.8515 314.472 71.8077C312.724 74.7527 310.098 76.9702 306.537 78.4506L307.305 80.2974C311.22 78.6698 314.201 76.1833 316.192 72.8283C318.176 69.4845 319.135 65.3476 319.135 60.474H317.135ZM305.921 79.374V79.878H307.921V79.374H305.921ZM306.02 80.3106L319.502 108.409L321.305 107.543L307.823 79.4454L306.02 80.3106ZM319.467 108.327C319.814 109.253 319.677 109.584 319.619 109.666C319.555 109.755 319.271 110 318.261 110V112C319.435 112 320.6 111.741 321.251 110.822C321.907 109.896 321.748 108.715 321.34 107.625L319.467 108.327ZM318.261 110H308.055V112H318.261V110ZM308.055 110C306.572 110 305.679 109.828 305.226 109.602L304.332 111.39C305.223 111.836 306.514 112 308.055 112V110ZM305.226 109.602C304.874 109.425 304.453 108.979 304.075 107.995L302.208 108.713C302.669 109.913 303.341 110.895 304.332 111.39L305.226 109.602ZM304.049 107.934L291.449 80.7179L289.634 81.5581L302.234 108.774L304.049 107.934ZM290.541 80.138H282.099V82.138H290.541V80.138ZM282.099 80.138C281.462 80.138 280.797 80.2823 280.289 80.7473C279.766 81.2275 279.587 81.8844 279.587 82.524H281.587C281.587 82.3813 281.607 82.2993 281.621 82.2594C281.628 82.2402 281.634 82.2306 281.636 82.2271C281.639 82.2238 281.64 82.2226 281.641 82.2217C281.641 82.2215 281.661 82.2019 281.73 82.181C281.802 82.1588 281.92 82.138 282.099 82.138V80.138ZM279.587 82.524V108.354H281.587V82.524H279.587ZM279.587 108.354C279.587 109.082 279.406 109.444 279.219 109.631C279.031 109.819 278.669 110 277.941 110V112C278.977 112 279.938 111.74 280.633 111.046C281.327 110.351 281.587 109.39 281.587 108.354H279.587ZM281.973 69.286H294.321V67.286H281.973V69.286ZM294.321 69.286C297.111 69.286 299.374 68.7249 300.898 67.4037L299.588 65.8923C298.593 66.7551 296.907 67.286 294.321 67.286V69.286ZM300.925 67.3791C302.466 65.9408 303.133 63.7719 303.133 61.104H301.133C301.133 63.4761 300.54 65.0031 299.561 65.9169L300.925 67.3791ZM303.133 61.104V51.276H301.133V61.104H303.133ZM303.133 51.276C303.133 48.5358 302.472 46.3186 300.925 44.8749L299.561 46.337C300.534 47.2454 301.133 48.8081 301.133 51.276H303.133ZM300.925 44.8749C299.4 43.4513 297.126 42.842 294.321 42.842V44.842C296.892 44.842 298.566 45.4087 299.561 46.337L300.925 44.8749ZM294.321 42.842H281.973V44.842H294.321V42.842ZM281.973 42.842C281.357 42.842 280.711 42.9967 280.227 43.4814C279.742 43.9661 279.587 44.6119 279.587 45.228H281.587C281.587 44.9201 281.663 44.8729 281.641 44.8956C281.618 44.9183 281.665 44.842 281.973 44.842V42.842ZM279.587 45.228V66.9H281.587V45.228H279.587ZM279.587 66.9C279.587 67.5161 279.742 68.1619 280.227 68.6466C280.711 69.1313 281.357 69.286 281.973 69.286V67.286C281.665 67.286 281.618 67.2097 281.641 67.2324C281.663 67.2551 281.587 67.2079 281.587 66.9H279.587ZM349.493 68.538H348.493V69.538H349.493V68.538ZM349.745 68.538V69.538H350.466L350.694 68.8542L349.745 68.538ZM353.651 60.726L352.825 60.1628L352.81 60.1851L352.796 60.2082L353.651 60.726ZM372.803 32.628L373.63 33.1912L373.642 33.173L373.654 33.1544L372.803 32.628ZM391.703 30.864L390.742 31.1387L390.767 31.2281L390.809 31.3112L391.703 30.864ZM391.073 32.88L390.293 32.2553L390.277 32.2745L390.263 32.2944L391.073 32.88ZM367.133 66.018L366.323 65.4324L365.925 65.9833L366.291 66.5562L367.133 66.018ZM393.845 107.85L394.709 107.346L394.699 107.329L394.688 107.312L393.845 107.85ZM394.097 110.244L393.284 109.663L393.274 109.676L393.265 109.689L394.097 110.244ZM376.709 108.354L377.578 107.858L377.568 107.841L377.558 107.824L376.709 108.354ZM357.431 77.484L358.28 76.9543L357.556 75.7953L356.67 76.8358L357.431 77.484ZM349.493 86.808L348.732 86.1598L348.493 86.44V86.808H349.493ZM346.847 110H336.137V112H346.847V110ZM336.137 110C335.41 110 335.047 109.819 334.86 109.631C334.673 109.444 334.491 109.082 334.491 108.354H332.491C332.491 109.39 332.751 110.351 333.446 111.046C334.14 111.74 335.101 112 336.137 112V110ZM334.491 108.354V32.628H332.491V108.354H334.491ZM334.491 32.628C334.491 31.9001 334.673 31.5379 334.86 31.3506C335.047 31.1633 335.41 30.982 336.137 30.982V28.982C335.101 28.982 334.14 29.2417 333.446 29.9364C332.751 30.6311 332.491 31.5919 332.491 32.628H334.491ZM336.137 30.982H346.847V28.982H336.137V30.982ZM346.847 30.982C347.575 30.982 347.937 31.1633 348.125 31.3506C348.312 31.5379 348.493 31.9001 348.493 32.628H350.493C350.493 31.5919 350.234 30.6311 349.539 29.9364C348.844 29.2417 347.884 28.982 346.847 28.982V30.982ZM348.493 32.628V68.538H350.493V32.628H348.493ZM349.493 69.538H349.745V67.538H349.493V69.538ZM350.694 68.8542C351.331 66.9423 352.589 64.4122 354.507 61.2438L352.796 60.2082C350.85 63.4237 349.503 66.1017 348.797 68.2218L350.694 68.8542ZM354.478 61.2892L373.63 33.1912L371.977 32.0648L352.825 60.1628L354.478 61.2892ZM373.654 33.1544C374.552 31.7031 375.858 30.982 377.717 30.982V28.982C375.209 28.982 373.239 30.0249 371.953 32.1016L373.654 33.1544ZM377.717 30.982H390.065V28.982H377.717V30.982ZM390.065 30.982C390.437 30.982 390.621 31.0436 390.694 31.083C390.71 31.0917 390.719 31.0985 390.724 31.1021C390.728 31.1056 390.729 31.1073 390.729 31.1073C390.729 31.1073 390.73 31.1084 390.732 31.1117C390.734 31.1153 390.738 31.1237 390.742 31.1387L392.665 30.5893C392.506 30.0318 392.149 29.5949 391.642 29.322C391.169 29.0674 390.618 28.982 390.065 28.982V30.982ZM390.809 31.3112C390.792 31.2776 390.829 31.2939 390.78 31.4477C390.727 31.6195 390.588 31.8864 390.293 32.2553L391.854 33.5047C392.546 32.6399 393.142 31.5043 392.598 30.4168L390.809 31.3112ZM390.263 32.2944L366.323 65.4324L367.944 66.6036L391.884 33.4656L390.263 32.2944ZM366.291 66.5562L393.003 108.388L394.688 107.312L367.976 65.4798L366.291 66.5562ZM392.982 108.354C393.506 109.252 393.352 109.567 393.284 109.663L394.911 110.825C395.683 109.745 395.361 108.464 394.709 107.346L392.982 108.354ZM393.265 109.689C393.234 109.736 392.967 110 391.829 110V112C393.044 112 394.289 111.76 394.929 110.799L393.265 109.689ZM391.829 110H382.631V112H391.829V110ZM382.631 110C379.873 110 378.334 109.182 377.578 107.858L375.841 108.85C377.101 111.054 379.51 112 382.631 112V110ZM377.558 107.824L358.28 76.9543L356.583 78.0137L375.861 108.884L377.558 107.824ZM356.67 76.8358L348.732 86.1598L350.255 87.4562L358.193 78.1322L356.67 76.8358ZM348.493 86.808V108.354H350.493V86.808H348.493ZM348.493 108.354C348.493 109.082 348.312 109.444 348.125 109.631C347.937 109.819 347.575 110 346.847 110V112C347.884 112 348.844 111.74 349.539 111.046C350.234 110.351 350.493 109.39 350.493 108.354H348.493Z" fill="black"/>
</svg>
