<svg width="513" height="150" viewBox="0 0 513 150" fill="none" xmlns="http://www.w3.org/2000/svg">
<rect x="2.5" y="2.5" width="507.304" height="145" rx="32.5" fill="#7D6CF9" stroke="black" stroke-width="5"/>
<path d="M71.3784 97.14H85.1124C87.8004 97.14 89.6904 96.594 90.7824 95.502C91.9584 94.326 92.5464 92.394 92.5464 89.706V51.276C92.5464 48.588 91.9584 46.698 90.7824 45.606C89.6904 44.43 87.8004 43.842 85.1124 43.842H71.3784C70.4544 43.842 69.9924 44.304 69.9924 45.228V95.754C69.9924 96.678 70.4544 97.14 71.3784 97.14ZM53.9904 108.354V32.628C53.9904 30.864 54.8724 29.982 56.6364 29.982H87.7584C94.3104 29.982 99.3924 31.788 103.004 35.4C106.7 38.928 108.548 43.968 108.548 50.52V90.462C108.548 97.014 106.7 102.096 103.004 105.708C99.3924 109.236 94.3104 111 87.7584 111H56.6364C54.8724 111 53.9904 110.118 53.9904 108.354ZM136.991 111H126.281C124.517 111 123.635 110.118 123.635 108.354V32.628C123.635 30.864 124.517 29.982 126.281 29.982H156.269C162.821 29.982 167.945 31.788 171.641 35.4C175.337 39.012 177.185 44.094 177.185 50.646V60.474C177.185 69.966 173.447 76.266 165.971 79.374V79.878L179.453 107.976C180.209 109.992 179.495 111 177.311 111H167.105C165.593 111 164.501 110.832 163.829 110.496C163.157 110.16 162.611 109.446 162.191 108.354L149.591 81.138H141.149C140.141 81.138 139.637 81.6 139.637 82.524V108.354C139.637 110.118 138.755 111 136.991 111ZM141.023 68.286H153.371C156.059 68.286 158.033 67.74 159.293 66.648C160.553 65.472 161.183 63.624 161.183 61.104V51.276C161.183 48.672 160.553 46.782 159.293 45.606C158.033 44.43 156.059 43.842 153.371 43.842H141.023C140.099 43.842 139.637 44.304 139.637 45.228V66.9C139.637 67.824 140.099 68.286 141.023 68.286ZM200.983 111H188.887C187.375 111 186.871 110.118 187.375 108.354L207.283 32.628C207.871 30.864 209.131 29.982 211.063 29.982H227.821C229.921 29.982 231.181 30.864 231.601 32.628L251.509 108.354C252.013 110.118 251.509 111 249.997 111H237.901C236.977 111 236.347 110.832 236.011 110.496C235.675 110.076 235.423 109.362 235.255 108.354L231.727 94.494H207.157L203.629 108.354C203.461 109.362 203.167 110.076 202.747 110.496C202.411 110.832 201.823 111 200.983 111ZM219.253 45.228L210.181 81.642H228.829L219.757 45.228H219.253ZM295.564 111H282.208C275.572 111 270.448 109.236 266.836 105.708C263.224 102.18 261.418 97.098 261.418 90.462V50.52C261.418 43.884 263.224 38.802 266.836 35.274C270.448 31.746 275.572 29.982 282.208 29.982H295.564C302.116 29.982 307.198 31.788 310.81 35.4C314.422 38.928 316.228 43.968 316.228 50.52V54.3C316.228 56.148 315.346 57.072 313.582 57.072H302.872C301.108 57.072 300.226 56.148 300.226 54.3V51.276C300.226 48.588 299.68 46.698 298.588 45.606C297.496 44.43 295.606 43.842 292.918 43.842H284.728C282.124 43.842 280.234 44.43 279.058 45.606C277.966 46.698 277.42 48.588 277.42 51.276V89.706C277.42 92.394 277.966 94.326 279.058 95.502C280.234 96.594 282.124 97.14 284.728 97.14H292.918C295.606 97.14 297.496 96.594 298.588 95.502C299.68 94.326 300.226 92.394 300.226 89.706V81.768C300.226 80.844 299.764 80.382 298.84 80.382H291.28C289.516 80.382 288.634 79.5 288.634 77.736V69.168C288.634 67.404 289.516 66.522 291.28 66.522H313.33C315.262 66.522 316.228 67.488 316.228 69.42V90.462C316.228 97.014 314.422 102.096 310.81 105.708C307.198 109.236 302.116 111 295.564 111ZM353.388 97.14H362.334C365.022 97.14 366.912 96.594 368.004 95.502C369.18 94.326 369.768 92.394 369.768 89.706V51.276C369.768 48.588 369.18 46.698 368.004 45.606C366.912 44.43 365.022 43.842 362.334 43.842H353.388C350.7 43.842 348.81 44.43 347.718 45.606C346.626 46.698 346.08 48.588 346.08 51.276V89.706C346.08 92.394 346.626 94.326 347.718 95.502C348.81 96.594 350.7 97.14 353.388 97.14ZM364.98 111H350.868C344.232 111 339.108 109.236 335.496 105.708C331.884 102.18 330.078 97.098 330.078 90.462V50.52C330.078 43.884 331.884 38.802 335.496 35.274C339.108 31.746 344.232 29.982 350.868 29.982H364.98C371.616 29.982 376.74 31.746 380.352 35.274C383.964 38.802 385.77 43.884 385.77 50.52V90.462C385.77 97.098 383.964 102.18 380.352 105.708C376.74 109.236 371.616 111 364.98 111ZM413.964 111H403.506C401.742 111 400.86 110.118 400.86 108.354V32.628C400.86 30.864 401.742 29.982 403.506 29.982H412.956C414.72 29.982 415.896 30.57 416.484 31.746L441.936 79.5H442.44V32.628C442.44 30.864 443.322 29.982 445.086 29.982H455.544C457.308 29.982 458.19 30.864 458.19 32.628V108.354C458.19 110.118 457.308 111 455.544 111H446.346C444.498 111 443.154 110.16 442.314 108.48L417.114 61.608H416.61V108.354C416.61 110.118 415.728 111 413.964 111Z" fill="white"/>
<path d="M90.7824 95.502L91.4896 96.2091L91.4896 96.2091L90.7824 95.502ZM90.7824 45.606L90.0497 46.2864L90.0749 46.3136L90.102 46.3388L90.7824 45.606ZM103.004 35.4L102.297 36.1071L102.306 36.1153L102.314 36.1234L103.004 35.4ZM103.004 105.708L103.703 106.423L103.703 106.423L103.004 105.708ZM71.3784 98.14H85.1124V96.14H71.3784V98.14ZM85.1124 98.14C87.8835 98.14 90.1118 97.5869 91.4896 96.2091L90.0753 94.7949C89.2691 95.6011 87.7174 96.14 85.1124 96.14V98.14ZM91.4896 96.2091C92.9405 94.7581 93.5464 92.5026 93.5464 89.706H91.5464C91.5464 92.2854 90.9764 93.8939 90.0753 94.7949L91.4896 96.2091ZM93.5464 89.706V51.276H91.5464V89.706H93.5464ZM93.5464 51.276C93.5464 48.489 92.9446 46.249 91.4629 44.8732L90.102 46.3388C90.9723 47.1469 91.5464 48.687 91.5464 51.276H93.5464ZM91.5152 44.9255C90.1394 43.4439 87.8994 42.842 85.1124 42.842V44.842C87.7015 44.842 89.2415 45.4161 90.0497 46.2864L91.5152 44.9255ZM85.1124 42.842H71.3784V44.842H85.1124V42.842ZM71.3784 42.842C70.7623 42.842 70.1165 42.9967 69.6318 43.4814C69.1472 43.9661 68.9924 44.6119 68.9924 45.228H70.9924C70.9924 44.9201 71.0687 44.8729 71.0461 44.8956C71.0234 44.9183 71.0706 44.842 71.3784 44.842V42.842ZM68.9924 45.228V95.754H70.9924V45.228H68.9924ZM68.9924 95.754C68.9924 96.3701 69.1472 97.0159 69.6318 97.5006C70.1165 97.9853 70.7623 98.14 71.3784 98.14V96.14C71.0706 96.14 71.0234 96.0637 71.0461 96.0864C71.0687 96.1091 70.9924 96.0619 70.9924 95.754H68.9924ZM54.9904 108.354V32.628H52.9904V108.354H54.9904ZM54.9904 32.628C54.9904 31.9001 55.1717 31.5379 55.3591 31.3506C55.5464 31.1633 55.9086 30.982 56.6364 30.982V28.982C55.6003 28.982 54.6395 29.2417 53.9448 29.9364C53.2502 30.6311 52.9904 31.5919 52.9904 32.628H54.9904ZM56.6364 30.982H87.7584V28.982H56.6364V30.982ZM87.7584 30.982C94.1237 30.982 98.9219 32.7317 102.297 36.1071L103.712 34.6929C99.863 30.8443 94.4972 28.982 87.7584 28.982V30.982ZM102.314 36.1234C105.76 39.413 107.548 44.1599 107.548 50.52H109.548C109.548 43.7761 107.641 38.443 103.695 34.6766L102.314 36.1234ZM107.548 50.52V90.462H109.548V50.52H107.548ZM107.548 90.462C107.548 96.8209 105.761 101.616 102.306 104.993L103.703 106.423C107.64 102.576 109.548 97.2071 109.548 90.462H107.548ZM102.306 104.993C98.9313 108.289 94.1301 110 87.7584 110V112C94.4908 112 99.8536 110.183 103.703 106.423L102.306 104.993ZM87.7584 110H56.6364V112H87.7584V110ZM56.6364 110C55.9086 110 55.5464 109.819 55.3591 109.631C55.1717 109.444 54.9904 109.082 54.9904 108.354H52.9904C52.9904 109.39 53.2502 110.351 53.9448 111.046C54.6395 111.74 55.6003 112 56.6364 112V110ZM165.971 79.374L165.587 78.4506L164.971 78.7068V79.374H165.971ZM165.971 79.878H164.971V80.1055L165.069 80.3106L165.971 79.878ZM179.453 107.976L180.389 107.625L180.374 107.583L180.355 107.543L179.453 107.976ZM163.829 110.496L163.382 111.39L163.382 111.39L163.829 110.496ZM162.191 108.354L163.124 107.995L163.112 107.964L163.098 107.934L162.191 108.354ZM149.591 81.138L150.498 80.7179L150.23 80.138H149.591V81.138ZM159.293 66.648L159.948 67.4037L159.962 67.3916L159.975 67.3791L159.293 66.648ZM159.293 45.606L159.975 44.8749L159.975 44.8749L159.293 45.606ZM136.991 110H126.281V112H136.991V110ZM126.281 110C125.553 110 125.191 109.819 125.004 109.631C124.816 109.444 124.635 109.082 124.635 108.354H122.635C122.635 109.39 122.895 110.351 123.589 111.046C124.284 111.74 125.245 112 126.281 112V110ZM124.635 108.354V32.628H122.635V108.354H124.635ZM124.635 32.628C124.635 31.9001 124.816 31.5379 125.004 31.3506C125.191 31.1633 125.553 30.982 126.281 30.982V28.982C125.245 28.982 124.284 29.2417 123.589 29.9364C122.895 30.6311 122.635 31.5919 122.635 32.628H124.635ZM126.281 30.982H156.269V28.982H126.281V30.982ZM156.269 30.982C162.633 30.982 167.479 32.7313 170.942 36.1152L172.34 34.6848C168.411 30.8447 163.009 28.982 156.269 28.982V30.982ZM170.942 36.1152C174.397 39.4918 176.185 44.2871 176.185 50.646H178.185C178.185 43.9009 176.277 38.5322 172.34 34.6848L170.942 36.1152ZM176.185 50.646V60.474H178.185V50.646H176.185ZM176.185 60.474C176.185 65.0924 175.276 68.8515 173.521 71.8077C171.774 74.7527 169.148 76.9702 165.587 78.4506L166.355 80.2974C170.27 78.6698 173.251 76.1833 175.241 72.8283C177.225 69.4845 178.185 65.3476 178.185 60.474H176.185ZM164.971 79.374V79.878H166.971V79.374H164.971ZM165.069 80.3106L178.551 108.409L180.355 107.543L166.873 79.4454L165.069 80.3106ZM178.517 108.327C178.864 109.253 178.726 109.584 178.668 109.666C178.605 109.755 178.321 110 177.311 110V112C178.485 112 179.65 111.741 180.301 110.822C180.956 109.896 180.798 108.715 180.389 107.625L178.517 108.327ZM177.311 110H167.105V112H177.311V110ZM167.105 110C165.622 110 164.729 109.828 164.276 109.602L163.382 111.39C164.273 111.836 165.564 112 167.105 112V110ZM164.276 109.602C163.923 109.425 163.503 108.979 163.124 107.995L161.258 108.713C161.719 109.913 162.391 110.895 163.382 111.39L164.276 109.602ZM163.098 107.934L150.498 80.7179L148.684 81.5581L161.284 108.774L163.098 107.934ZM149.591 80.138H141.149V82.138H149.591V80.138ZM141.149 80.138C140.511 80.138 139.847 80.2823 139.339 80.7473C138.815 81.2275 138.637 81.8844 138.637 82.524H140.637C140.637 82.3813 140.657 82.2993 140.671 82.2594C140.678 82.2402 140.684 82.2306 140.686 82.2271C140.688 82.2238 140.69 82.2226 140.691 82.2217C140.691 82.2215 140.711 82.2019 140.78 82.181C140.852 82.1588 140.97 82.138 141.149 82.138V80.138ZM138.637 82.524V108.354H140.637V82.524H138.637ZM138.637 108.354C138.637 109.082 138.456 109.444 138.268 109.631C138.081 109.819 137.719 110 136.991 110V112C138.027 112 138.988 111.74 139.683 111.046C140.377 110.351 140.637 109.39 140.637 108.354H138.637ZM141.023 69.286H153.371V67.286H141.023V69.286ZM153.371 69.286C156.161 69.286 158.423 68.7249 159.948 67.4037L158.638 65.8923C157.643 66.7551 155.957 67.286 153.371 67.286V69.286ZM159.975 67.3791C161.516 65.9408 162.183 63.7719 162.183 61.104H160.183C160.183 63.4761 159.59 65.0031 158.611 65.9169L159.975 67.3791ZM162.183 61.104V51.276H160.183V61.104H162.183ZM162.183 51.276C162.183 48.5358 161.522 46.3186 159.975 44.8749L158.611 46.337C159.584 47.2454 160.183 48.8081 160.183 51.276H162.183ZM159.975 44.8749C158.45 43.4513 156.176 42.842 153.371 42.842V44.842C155.942 44.842 157.616 45.4087 158.611 46.337L159.975 44.8749ZM153.371 42.842H141.023V44.842H153.371V42.842ZM141.023 42.842C140.407 42.842 139.761 42.9967 139.276 43.4814C138.792 43.9661 138.637 44.6119 138.637 45.228H140.637C140.637 44.9201 140.713 44.8729 140.691 44.8956C140.668 44.9183 140.715 44.842 141.023 44.842V42.842ZM138.637 45.228V66.9H140.637V45.228H138.637ZM138.637 66.9C138.637 67.5161 138.792 68.1619 139.276 68.6466C139.761 69.1313 140.407 69.286 141.023 69.286V67.286C140.715 67.286 140.668 67.2097 140.691 67.2324C140.713 67.2551 140.637 67.2079 140.637 66.9H138.637ZM187.375 108.354L188.337 108.629L188.34 108.619L188.342 108.608L187.375 108.354ZM207.283 32.628L206.335 32.3118L206.324 32.3425L206.316 32.3737L207.283 32.628ZM231.601 32.628L230.628 32.8596L230.631 32.871L230.634 32.8823L231.601 32.628ZM251.509 108.354L250.542 108.608L250.545 108.619L250.548 108.629L251.509 108.354ZM236.011 110.496L235.23 111.121L235.265 111.164L235.304 111.203L236.011 110.496ZM235.255 108.354L236.242 108.19L236.235 108.148L236.224 108.107L235.255 108.354ZM231.727 94.494L232.696 94.2473L232.505 93.494H231.727V94.494ZM207.157 94.494V93.494H206.38L206.188 94.2473L207.157 94.494ZM203.629 108.354L202.66 108.107L202.65 108.148L202.643 108.19L203.629 108.354ZM202.747 110.496L203.454 111.203L203.454 111.203L202.747 110.496ZM219.253 45.228V44.228H218.472L218.283 44.9863L219.253 45.228ZM210.181 81.642L209.211 81.4003L208.902 82.642H210.181V81.642ZM228.829 81.642V82.642H230.109L229.8 81.4003L228.829 81.642ZM219.757 45.228L220.728 44.9863L220.539 44.228H219.757V45.228ZM200.983 110H188.887V112H200.983V110ZM188.887 110C188.599 110 188.431 109.957 188.343 109.918C188.271 109.887 188.254 109.86 188.243 109.842C188.199 109.765 188.104 109.443 188.337 108.629L186.414 108.079C186.142 109.029 186.047 110.03 186.507 110.835C187.015 111.724 187.964 112 188.887 112V110ZM188.342 108.608L208.25 32.8823L206.316 32.3737L186.408 108.1L188.342 108.608ZM208.232 32.9442C208.473 32.2222 208.823 31.7567 209.243 31.4627C209.666 31.1664 210.25 30.982 211.063 30.982V28.982C209.945 28.982 208.932 29.2386 208.096 29.8243C207.256 30.4123 206.682 31.2698 206.335 32.3118L208.232 32.9442ZM211.063 30.982H227.821V28.982H211.063V30.982ZM227.821 30.982C228.739 30.982 229.357 31.1754 229.768 31.4627C230.162 31.7389 230.464 32.1707 230.628 32.8596L232.574 32.3964C232.318 31.3213 231.78 30.4301 230.915 29.8243C230.065 29.2296 229.003 28.982 227.821 28.982V30.982ZM230.634 32.8823L250.542 108.608L252.476 108.1L232.568 32.3737L230.634 32.8823ZM250.548 108.629C250.78 109.443 250.685 109.765 250.641 109.842C250.631 109.86 250.614 109.887 250.541 109.918C250.454 109.957 250.286 110 249.997 110V112C250.921 112 251.869 111.724 252.377 110.835C252.837 110.03 252.742 109.029 252.471 108.079L250.548 108.629ZM249.997 110H237.901V112H249.997V110ZM237.901 110C237.022 110 236.754 109.824 236.718 109.789L235.304 111.203C235.941 111.84 236.932 112 237.901 112V110ZM236.792 109.871C236.621 109.658 236.403 109.156 236.242 108.19L234.269 108.518C234.444 109.568 234.729 110.494 235.23 111.121L236.792 109.871ZM236.224 108.107L232.696 94.2473L230.758 94.7407L234.286 108.601L236.224 108.107ZM231.727 93.494H207.157V95.494H231.727V93.494ZM206.188 94.2473L202.66 108.107L204.598 108.601L208.126 94.7407L206.188 94.2473ZM202.643 108.19C202.487 109.124 202.24 109.589 202.04 109.789L203.454 111.203C204.094 110.563 204.435 109.6 204.616 108.518L202.643 108.19ZM202.04 109.789C201.992 109.837 201.746 110 200.983 110V112C201.901 112 202.83 111.827 203.454 111.203L202.04 109.789ZM218.283 44.9863L209.211 81.4003L211.152 81.8837L220.224 45.4697L218.283 44.9863ZM210.181 82.642H228.829V80.642H210.181V82.642ZM229.8 81.4003L220.728 44.9863L218.787 45.4697L227.859 81.8837L229.8 81.4003ZM219.757 44.228H219.253V46.228H219.757V44.228ZM266.836 105.708L267.535 104.993L267.535 104.993L266.836 105.708ZM266.836 35.274L267.535 35.9894L267.535 35.9894L266.836 35.274ZM310.81 35.4L310.103 36.1072L310.111 36.1154L310.81 35.4ZM298.588 45.606L297.855 46.2864L297.868 46.3L297.881 46.3131L298.588 45.606ZM279.058 45.606L278.351 44.8989L278.351 44.8989L279.058 45.606ZM279.058 95.502L278.325 96.1825L278.35 96.2096L278.377 96.2348L279.058 95.502ZM298.588 95.502L299.295 96.2091L299.308 96.196L299.321 96.1824L298.588 95.502ZM310.81 105.708L311.509 106.423L311.517 106.415L310.81 105.708ZM295.564 110H282.208V112H295.564V110ZM282.208 110C275.748 110 270.907 108.286 267.535 104.993L266.137 106.423C269.989 110.186 275.396 112 282.208 112V110ZM267.535 104.993C264.17 101.707 262.418 96.9169 262.418 90.462H260.418C260.418 97.2791 262.277 102.653 266.137 106.423L267.535 104.993ZM262.418 90.462V50.52H260.418V90.462H262.418ZM262.418 50.52C262.418 44.0651 264.17 39.2754 267.535 35.9894L266.137 34.5586C262.277 38.3286 260.418 43.7029 260.418 50.52H262.418ZM267.535 35.9894C270.907 32.6956 275.748 30.982 282.208 30.982V28.982C275.396 28.982 269.989 30.7964 266.137 34.5586L267.535 35.9894ZM282.208 30.982H295.564V28.982H282.208V30.982ZM295.564 30.982C301.929 30.982 306.727 32.7317 310.103 36.1071L311.517 34.6929C307.668 30.8443 302.303 28.982 295.564 28.982V30.982ZM310.111 36.1154C313.478 39.4037 315.228 44.1534 315.228 50.52H317.228C317.228 43.7826 315.366 38.4523 311.509 34.6846L310.111 36.1154ZM315.228 50.52V54.3H317.228V50.52H315.228ZM315.228 54.3C315.228 55.0812 315.041 55.4814 314.843 55.6885C314.654 55.8869 314.298 56.072 313.582 56.072V58.072C314.63 58.072 315.597 57.7951 316.29 57.0695C316.974 56.3526 317.228 55.3668 317.228 54.3H315.228ZM313.582 56.072H302.872V58.072H313.582V56.072ZM302.872 56.072C302.156 56.072 301.8 55.8869 301.611 55.6885C301.413 55.4814 301.226 55.0812 301.226 54.3H299.226C299.226 55.3668 299.48 56.3526 300.164 57.0695C300.857 57.7951 301.824 58.072 302.872 58.072V56.072ZM301.226 54.3V51.276H299.226V54.3H301.226ZM301.226 51.276C301.226 48.5049 300.673 46.2767 299.295 44.8989L297.881 46.3131C298.687 47.1193 299.226 48.6711 299.226 51.276H301.226ZM299.321 44.9255C297.945 43.4439 295.705 42.842 292.918 42.842V44.842C295.507 44.842 297.047 45.4161 297.855 46.2864L299.321 44.9255ZM292.918 42.842H284.728V44.842H292.918V42.842ZM284.728 42.842C282.004 42.842 279.797 43.4527 278.351 44.8989L279.765 46.3131C280.671 45.4072 282.243 44.842 284.728 44.842V42.842ZM278.351 44.8989C276.973 46.2766 276.42 48.5049 276.42 51.276H278.42C278.42 48.6711 278.959 47.1193 279.765 46.3131L278.351 44.8989ZM276.42 51.276V89.706H278.42V51.276H276.42ZM276.42 89.706C276.42 92.4874 276.977 94.731 278.325 96.1825L279.791 94.8215C278.955 93.921 278.42 92.3006 278.42 89.706H276.42ZM278.377 96.2348C279.824 97.5783 282.02 98.14 284.728 98.14V96.14C282.228 96.14 280.644 95.6097 279.738 94.7692L278.377 96.2348ZM284.728 98.14H292.918V96.14H284.728V98.14ZM292.918 98.14C295.689 98.14 297.917 97.5869 299.295 96.2091L297.881 94.7949C297.075 95.6011 295.523 96.14 292.918 96.14V98.14ZM299.321 96.1824C300.669 94.731 301.226 92.4874 301.226 89.706H299.226C299.226 92.3006 298.691 93.921 297.855 94.8215L299.321 96.1824ZM301.226 89.706V81.768H299.226V89.706H301.226ZM301.226 81.768C301.226 81.1519 301.071 80.5061 300.587 80.0214C300.102 79.5367 299.456 79.382 298.84 79.382V81.382C299.148 81.382 299.195 81.4583 299.172 81.4356C299.15 81.4129 299.226 81.4601 299.226 81.768H301.226ZM298.84 79.382H291.28V81.382H298.84V79.382ZM291.28 79.382C290.552 79.382 290.19 79.2007 290.003 79.0134C289.815 78.8261 289.634 78.4639 289.634 77.736H287.634C287.634 78.7721 287.894 79.7329 288.588 80.4276C289.283 81.1223 290.244 81.382 291.28 81.382V79.382ZM289.634 77.736V69.168H287.634V77.736H289.634ZM289.634 69.168C289.634 68.4401 289.815 68.0779 290.003 67.8906C290.19 67.7033 290.552 67.522 291.28 67.522V65.522C290.244 65.522 289.283 65.7817 288.588 66.4764C287.894 67.1711 287.634 68.1319 287.634 69.168H289.634ZM291.28 67.522H313.33V65.522H291.28V67.522ZM313.33 67.522C314.142 67.522 314.567 67.7243 314.796 67.9536C315.026 68.1829 315.228 68.6081 315.228 69.42H317.228C317.228 68.2999 316.947 67.2761 316.211 66.5394C315.474 65.8027 314.45 65.522 313.33 65.522V67.522ZM315.228 69.42V90.462H317.228V69.42H315.228ZM315.228 90.462C315.228 96.8273 313.478 101.625 310.103 105.001L311.517 106.415C315.366 102.567 317.228 97.2007 317.228 90.462H315.228ZM310.111 104.993C306.737 108.289 301.936 110 295.564 110V112C302.296 112 307.659 110.183 311.509 106.423L310.111 104.993ZM368.004 95.502L367.297 94.7949L367.297 94.7949L368.004 95.502ZM368.004 45.606L367.271 46.2864L367.297 46.3136L367.324 46.3388L368.004 45.606ZM347.718 45.606L348.425 46.3131L348.438 46.3L348.451 46.2864L347.718 45.606ZM347.718 95.502L346.985 96.1825L346.998 96.196L347.011 96.2091L347.718 95.502ZM335.496 105.708L336.195 104.993L336.195 104.993L335.496 105.708ZM335.496 35.274L336.195 35.9894L336.195 35.9894L335.496 35.274ZM380.352 35.274L381.051 34.5586L381.051 34.5586L380.352 35.274ZM380.352 105.708L381.051 106.423L381.051 106.423L380.352 105.708ZM353.388 98.14H362.334V96.14H353.388V98.14ZM362.334 98.14C365.105 98.14 367.333 97.5869 368.711 96.2091L367.297 94.7949C366.491 95.6011 364.939 96.14 362.334 96.14V98.14ZM368.711 96.2091C370.162 94.7581 370.768 92.5026 370.768 89.706H368.768C368.768 92.2854 368.198 93.8939 367.297 94.7949L368.711 96.2091ZM370.768 89.706V51.276H368.768V89.706H370.768ZM370.768 51.276C370.768 48.489 370.166 46.249 368.685 44.8732L367.324 46.3388C368.194 47.1469 368.768 48.687 368.768 51.276H370.768ZM368.737 44.9255C367.361 43.4439 365.121 42.842 362.334 42.842V44.842C364.923 44.842 366.463 45.4161 367.271 46.2864L368.737 44.9255ZM362.334 42.842H353.388V44.842H362.334V42.842ZM353.388 42.842C350.601 42.842 348.361 43.4439 346.985 44.9255L348.451 46.2864C349.259 45.4161 350.799 44.842 353.388 44.842V42.842ZM347.011 44.8989C345.633 46.2766 345.08 48.5049 345.08 51.276H347.08C347.08 48.6711 347.619 47.1193 348.425 46.3131L347.011 44.8989ZM345.08 51.276V89.706H347.08V51.276H345.08ZM345.08 89.706C345.08 92.4874 345.638 94.731 346.985 96.1825L348.451 94.8215C347.615 93.921 347.08 92.3006 347.08 89.706H345.08ZM347.011 96.2091C348.389 97.5869 350.617 98.14 353.388 98.14V96.14C350.783 96.14 349.231 95.6011 348.425 94.7949L347.011 96.2091ZM364.98 110H350.868V112H364.98V110ZM350.868 110C344.408 110 339.567 108.286 336.195 104.993L334.797 106.423C338.649 110.186 344.056 112 350.868 112V110ZM336.195 104.993C332.831 101.707 331.078 96.9169 331.078 90.462H329.078C329.078 97.2791 330.938 102.653 334.797 106.423L336.195 104.993ZM331.078 90.462V50.52H329.078V90.462H331.078ZM331.078 50.52C331.078 44.0651 332.831 39.2754 336.195 35.9894L334.797 34.5586C330.938 38.3286 329.078 43.7029 329.078 50.52H331.078ZM336.195 35.9894C339.567 32.6956 344.408 30.982 350.868 30.982V28.982C344.056 28.982 338.649 30.7964 334.797 34.5586L336.195 35.9894ZM350.868 30.982H364.98V28.982H350.868V30.982ZM364.98 30.982C371.44 30.982 376.281 32.6956 379.653 35.9894L381.051 34.5586C377.199 30.7964 371.792 28.982 364.98 28.982V30.982ZM379.653 35.9894C383.018 39.2754 384.77 44.0651 384.77 50.52H386.77C386.77 43.7029 384.911 38.3286 381.051 34.5586L379.653 35.9894ZM384.77 50.52V90.462H386.77V50.52H384.77ZM384.77 90.462C384.77 96.9169 383.018 101.707 379.653 104.993L381.051 106.423C384.911 102.653 386.77 97.2791 386.77 90.462H384.77ZM379.653 104.993C376.281 108.286 371.44 110 364.98 110V112C371.792 112 377.199 110.186 381.051 106.423L379.653 104.993ZM416.484 31.746L415.589 32.1932L415.595 32.2049L415.601 32.2163L416.484 31.746ZM441.936 79.5L441.053 79.9703L441.335 80.5H441.936V79.5ZM442.44 79.5V80.5H443.44V79.5H442.44ZM442.314 108.48L443.208 108.033L443.201 108.02L443.194 108.006L442.314 108.48ZM417.114 61.608L417.994 61.1345L417.711 60.608H417.114V61.608ZM416.61 61.608V60.608H415.61V61.608H416.61ZM413.964 110H403.506V112H413.964V110ZM403.506 110C402.778 110 402.416 109.819 402.228 109.631C402.041 109.444 401.86 109.082 401.86 108.354H399.86C399.86 109.39 400.119 110.351 400.814 111.046C401.509 111.74 402.469 112 403.506 112V110ZM401.86 108.354V32.628H399.86V108.354H401.86ZM401.86 32.628C401.86 31.9001 402.041 31.5379 402.228 31.3506C402.416 31.1633 402.778 30.982 403.506 30.982V28.982C402.469 28.982 401.509 29.2417 400.814 29.9364C400.119 30.6311 399.86 31.5919 399.86 32.628H401.86ZM403.506 30.982H412.956V28.982H403.506V30.982ZM412.956 30.982C414.492 30.982 415.229 31.4727 415.589 32.1932L417.378 31.2988C416.562 29.6673 414.947 28.982 412.956 28.982V30.982ZM415.601 32.2163L441.053 79.9703L442.818 79.0297L417.366 31.2757L415.601 32.2163ZM441.936 80.5H442.44V78.5H441.936V80.5ZM443.44 79.5V32.628H441.44V79.5H443.44ZM443.44 32.628C443.44 31.9001 443.621 31.5379 443.808 31.3506C443.996 31.1633 444.358 30.982 445.086 30.982V28.982C444.049 28.982 443.089 29.2417 442.394 29.9364C441.699 30.6311 441.44 31.5919 441.44 32.628H443.44ZM445.086 30.982H455.544V28.982H445.086V30.982ZM455.544 30.982C456.271 30.982 456.634 31.1633 456.821 31.3506C457.008 31.5379 457.19 31.9001 457.19 32.628H459.19C459.19 31.5919 458.93 30.6311 458.235 29.9364C457.541 29.2417 456.58 28.982 455.544 28.982V30.982ZM457.19 32.628V108.354H459.19V32.628H457.19ZM457.19 108.354C457.19 109.082 457.008 109.444 456.821 109.631C456.634 109.819 456.271 110 455.544 110V112C456.58 112 457.541 111.74 458.235 111.046C458.93 110.351 459.19 109.39 459.19 108.354H457.19ZM455.544 110H446.346V112H455.544V110ZM446.346 110C445.577 110 444.97 109.827 444.482 109.522C443.992 109.216 443.561 108.739 443.208 108.033L441.419 108.927C441.906 109.901 442.567 110.684 443.422 111.218C444.277 111.753 445.266 112 446.346 112V110ZM443.194 108.006L417.994 61.1345L416.233 62.0815L441.433 108.954L443.194 108.006ZM417.114 60.608H416.61V62.608H417.114V60.608ZM415.61 61.608V108.354H417.61V61.608H415.61ZM415.61 108.354C415.61 109.082 415.428 109.444 415.241 109.631C415.054 109.819 414.691 110 413.964 110V112C415 112 415.961 111.74 416.655 111.046C417.35 110.351 417.61 109.39 417.61 108.354H415.61Z" fill="black"/>
</svg>
