<svg width="510" height="150" viewBox="0 0 510 150" fill="none" xmlns="http://www.w3.org/2000/svg">
<rect x="2.5" y="2.5" width="505" height="145" rx="32.5" fill="#FFD136" stroke="black" stroke-width="5"/>
<path d="M71.4648 111H30.2628C28.4988 111 27.6168 110.118 27.6168 108.354V32.628C27.6168 30.864 28.4988 29.982 30.2628 29.982H71.4648C73.1448 29.982 73.9848 30.864 73.9848 32.628V41.196C73.9848 42.96 73.1448 43.842 71.4648 43.842H45.1308C44.1228 43.842 43.6188 44.304 43.6188 45.228V61.608C43.6188 62.532 44.1228 62.994 45.1308 62.994H66.6768C68.4408 62.994 69.3228 63.876 69.3228 65.64V74.208C69.3228 75.972 68.4408 76.854 66.6768 76.854H45.1308C44.1228 76.854 43.6188 77.316 43.6188 78.24V95.754C43.6188 96.678 44.1228 97.14 45.1308 97.14H71.4648C73.1448 97.14 73.9848 98.022 73.9848 99.786V108.354C73.9848 110.118 73.1448 111 71.4648 111ZM132.01 111H90.5557C88.7917 111 87.9097 110.118 87.9097 108.354V32.628C87.9097 30.864 88.7917 29.982 90.5557 29.982H101.266C103.03 29.982 103.912 30.864 103.912 32.628V95.628C103.912 96.552 104.416 97.014 105.424 97.014H132.01C133.69 97.014 134.53 97.938 134.53 99.786V108.354C134.53 110.118 133.69 111 132.01 111ZM188.359 111H147.157C145.393 111 144.511 110.118 144.511 108.354V32.628C144.511 30.864 145.393 29.982 147.157 29.982H188.359C190.039 29.982 190.879 30.864 190.879 32.628V41.196C190.879 42.96 190.039 43.842 188.359 43.842H162.025C161.017 43.842 160.513 44.304 160.513 45.228V61.608C160.513 62.532 161.017 62.994 162.025 62.994H183.571C185.335 62.994 186.217 63.876 186.217 65.64V74.208C186.217 75.972 185.335 76.854 183.571 76.854H162.025C161.017 76.854 160.513 77.316 160.513 78.24V95.754C160.513 96.678 161.017 97.14 162.025 97.14H188.359C190.039 97.14 190.879 98.022 190.879 99.786V108.354C190.879 110.118 190.039 111 188.359 111ZM238.068 111H224.334C217.698 111 212.574 109.236 208.962 105.708C205.35 102.18 203.544 97.098 203.544 90.462V50.52C203.544 43.884 205.35 38.802 208.962 35.274C212.574 31.746 217.698 29.982 224.334 29.982H238.068C244.62 29.982 249.702 31.788 253.314 35.4C257.01 38.928 258.858 43.968 258.858 50.52V56.442C258.858 58.29 257.934 59.214 256.086 59.214H245.502C243.738 59.214 242.856 58.29 242.856 56.442V51.276C242.856 48.588 242.268 46.698 241.092 45.606C240 44.43 238.11 43.842 235.422 43.842H226.854C224.25 43.842 222.36 44.43 221.184 45.606C220.092 46.698 219.546 48.588 219.546 51.276V89.706C219.546 92.394 220.092 94.326 221.184 95.502C222.36 96.594 224.25 97.14 226.854 97.14H235.422C238.11 97.14 240 96.594 241.092 95.502C242.268 94.326 242.856 92.394 242.856 89.706V84.54C242.856 82.692 243.738 81.768 245.502 81.768H256.086C257.934 81.768 258.858 82.692 258.858 84.54V90.462C258.858 97.014 257.01 102.096 253.314 105.708C249.702 109.236 244.62 111 238.068 111ZM297.677 111H287.093C285.245 111 284.321 110.118 284.321 108.354V45.228C284.321 44.304 283.859 43.842 282.935 43.842H268.571C266.807 43.842 265.925 42.96 265.925 41.196V32.628C265.925 30.864 266.807 29.982 268.571 29.982H316.199C317.963 29.982 318.845 30.864 318.845 32.628V41.196C318.845 42.96 317.963 43.842 316.199 43.842H301.835C300.827 43.842 300.323 44.304 300.323 45.228V108.354C300.323 110.118 299.441 111 297.677 111ZM341.822 111H331.112C329.348 111 328.466 110.118 328.466 108.354V32.628C328.466 30.864 329.348 29.982 331.112 29.982H361.1C367.652 29.982 372.776 31.788 376.472 35.4C380.168 39.012 382.016 44.094 382.016 50.646V60.474C382.016 69.966 378.278 76.266 370.802 79.374V79.878L384.284 107.976C385.04 109.992 384.326 111 382.142 111H371.936C370.424 111 369.332 110.832 368.66 110.496C367.988 110.16 367.442 109.446 367.022 108.354L354.422 81.138H345.98C344.972 81.138 344.468 81.6 344.468 82.524V108.354C344.468 110.118 343.586 111 341.822 111ZM345.854 68.286H358.202C360.89 68.286 362.864 67.74 364.124 66.648C365.384 65.472 366.014 63.624 366.014 61.104V51.276C366.014 48.672 365.384 46.782 364.124 45.606C362.864 44.43 360.89 43.842 358.202 43.842H345.854C344.93 43.842 344.468 44.304 344.468 45.228V66.9C344.468 67.824 344.93 68.286 345.854 68.286ZM414.005 32.628V108.354C414.005 110.118 413.123 111 411.359 111H400.649C398.885 111 398.003 110.118 398.003 108.354V32.628C398.003 30.864 398.885 29.982 400.649 29.982H411.359C413.123 29.982 414.005 30.864 414.005 32.628ZM464.228 111H450.494C443.858 111 438.734 109.236 435.122 105.708C431.51 102.18 429.704 97.098 429.704 90.462V50.52C429.704 43.884 431.51 38.802 435.122 35.274C438.734 31.746 443.858 29.982 450.494 29.982H464.228C470.78 29.982 475.862 31.788 479.474 35.4C483.17 38.928 485.018 43.968 485.018 50.52V56.442C485.018 58.29 484.094 59.214 482.246 59.214H471.662C469.898 59.214 469.016 58.29 469.016 56.442V51.276C469.016 48.588 468.428 46.698 467.252 45.606C466.16 44.43 464.27 43.842 461.582 43.842H453.014C450.41 43.842 448.52 44.43 447.344 45.606C446.252 46.698 445.706 48.588 445.706 51.276V89.706C445.706 92.394 446.252 94.326 447.344 95.502C448.52 96.594 450.41 97.14 453.014 97.14H461.582C464.27 97.14 466.16 96.594 467.252 95.502C468.428 94.326 469.016 92.394 469.016 89.706V84.54C469.016 82.692 469.898 81.768 471.662 81.768H482.246C484.094 81.768 485.018 82.692 485.018 84.54V90.462C485.018 97.014 483.17 102.096 479.474 105.708C475.862 109.236 470.78 111 464.228 111Z" fill="white"/>
<path d="M71.4648 110H30.2628V112H71.4648V110ZM30.2628 110C29.5349 110 29.1727 109.819 28.9854 109.631C28.798 109.444 28.6168 109.082 28.6168 108.354H26.6168C26.6168 109.39 26.8765 110.351 27.5712 111.046C28.2658 111.74 29.2266 112 30.2628 112V110ZM28.6168 108.354V32.628H26.6168V108.354H28.6168ZM28.6168 32.628C28.6168 31.9001 28.798 31.5379 28.9854 31.3506C29.1727 31.1633 29.5349 30.982 30.2628 30.982V28.982C29.2266 28.982 28.2658 29.2417 27.5712 29.9364C26.8765 30.6311 26.6168 31.5919 26.6168 32.628H28.6168ZM30.2628 30.982H71.4648V28.982H30.2628V30.982ZM71.4648 30.982C72.1378 30.982 72.4621 31.1562 72.6306 31.3332C72.8078 31.5192 72.9848 31.8883 72.9848 32.628H74.9848C74.9848 31.6037 74.7417 30.6498 74.0789 29.9538C73.4074 29.2488 72.4717 28.982 71.4648 28.982V30.982ZM72.9848 32.628V41.196H74.9848V32.628H72.9848ZM72.9848 41.196C72.9848 41.9357 72.8078 42.3048 72.6306 42.4908C72.4621 42.6678 72.1378 42.842 71.4648 42.842V44.842C72.4717 44.842 73.4074 44.5752 74.0789 43.8702C74.7417 43.1742 74.9848 42.2203 74.9848 41.196H72.9848ZM71.4648 42.842H45.1308V44.842H71.4648V42.842ZM45.1308 42.842C44.4931 42.842 43.8284 42.9863 43.321 43.4513C42.7972 43.9315 42.6188 44.5884 42.6188 45.228H44.6188C44.6188 45.0853 44.6385 45.0033 44.6531 44.9634C44.66 44.9442 44.6658 44.9346 44.6681 44.9311C44.6702 44.9278 44.6714 44.9266 44.6725 44.9256C44.6727 44.9255 44.6928 44.9059 44.7615 44.885C44.8339 44.8628 44.952 44.842 45.1308 44.842V42.842ZM42.6188 45.228V61.608H44.6188V45.228H42.6188ZM42.6188 61.608C42.6188 62.2476 42.7972 62.9045 43.321 63.3847C43.8284 63.8497 44.4931 63.994 45.1308 63.994V61.994C44.952 61.994 44.8339 61.9731 44.7615 61.951C44.6928 61.93 44.6727 61.9105 44.6725 61.9103C44.6714 61.9094 44.6702 61.9082 44.6681 61.9049C44.6658 61.9014 44.66 61.8918 44.6531 61.8726C44.6385 61.8327 44.6188 61.7507 44.6188 61.608H42.6188ZM45.1308 63.994H66.6768V61.994H45.1308V63.994ZM66.6768 63.994C67.4046 63.994 67.7668 64.1753 67.9542 64.3626C68.1415 64.5499 68.3228 64.9121 68.3228 65.64H70.3228C70.3228 64.6039 70.063 63.6431 69.3684 62.9484C68.6737 62.2537 67.7129 61.994 66.6768 61.994V63.994ZM68.3228 65.64V74.208H70.3228V65.64H68.3228ZM68.3228 74.208C68.3228 74.9359 68.1415 75.2981 67.9542 75.4854C67.7668 75.6727 67.4046 75.854 66.6768 75.854V77.854C67.7129 77.854 68.6737 77.5943 69.3684 76.8996C70.063 76.2049 70.3228 75.2441 70.3228 74.208H68.3228ZM66.6768 75.854H45.1308V77.854H66.6768V75.854ZM45.1308 75.854C44.4931 75.854 43.8284 75.9983 43.321 76.4633C42.7972 76.9435 42.6188 77.6004 42.6188 78.24H44.6188C44.6188 78.0973 44.6385 78.0153 44.6531 77.9754C44.66 77.9562 44.6658 77.9466 44.6681 77.9431C44.6702 77.9398 44.6714 77.9386 44.6725 77.9377C44.6727 77.9375 44.6928 77.9179 44.7615 77.897C44.8339 77.8748 44.952 77.854 45.1308 77.854V75.854ZM42.6188 78.24V95.754H44.6188V78.24H42.6188ZM42.6188 95.754C42.6188 96.3936 42.7972 97.0505 43.321 97.5307C43.8284 97.9957 44.4931 98.14 45.1308 98.14V96.14C44.952 96.14 44.8339 96.1191 44.7615 96.097C44.6928 96.076 44.6727 96.0565 44.6725 96.0563C44.6714 96.0554 44.6702 96.0542 44.6681 96.0509C44.6658 96.0474 44.66 96.0378 44.6531 96.0186C44.6385 95.9787 44.6188 95.8967 44.6188 95.754H42.6188ZM45.1308 98.14H71.4648V96.14H45.1308V98.14ZM71.4648 98.14C72.1378 98.14 72.4621 98.3142 72.6306 98.4912C72.8078 98.6772 72.9848 99.0463 72.9848 99.786H74.9848C74.9848 98.7617 74.7417 97.8078 74.0789 97.1118C73.4074 96.4068 72.4717 96.14 71.4648 96.14V98.14ZM72.9848 99.786V108.354H74.9848V99.786H72.9848ZM72.9848 108.354C72.9848 109.094 72.8078 109.463 72.6306 109.649C72.4621 109.826 72.1378 110 71.4648 110V112C72.4717 112 73.4074 111.733 74.0789 111.028C74.7417 110.332 74.9848 109.378 74.9848 108.354H72.9848ZM132.01 110H90.5557V112H132.01V110ZM90.5557 110C89.8279 110 89.4657 109.819 89.2783 109.631C89.091 109.444 88.9097 109.082 88.9097 108.354H86.9097C86.9097 109.39 87.1694 110.351 87.8641 111.046C88.5588 111.74 89.5196 112 90.5557 112V110ZM88.9097 108.354V32.628H86.9097V108.354H88.9097ZM88.9097 32.628C88.9097 31.9001 89.091 31.5379 89.2783 31.3506C89.4657 31.1633 89.8279 30.982 90.5557 30.982V28.982C89.5196 28.982 88.5588 29.2417 87.8641 29.9364C87.1694 30.6311 86.9097 31.5919 86.9097 32.628H88.9097ZM90.5557 30.982H101.266V28.982H90.5557V30.982ZM101.266 30.982C101.994 30.982 102.356 31.1633 102.543 31.3506C102.73 31.5379 102.912 31.9001 102.912 32.628H104.912C104.912 31.5919 104.652 30.6311 103.957 29.9364C103.263 29.2417 102.302 28.982 101.266 28.982V30.982ZM102.912 32.628V95.628H104.912V32.628H102.912ZM102.912 95.628C102.912 96.2676 103.09 96.9245 103.614 97.4047C104.121 97.8697 104.786 98.014 105.424 98.014V96.014C105.245 96.014 105.127 95.9931 105.054 95.971C104.986 95.95 104.966 95.9305 104.965 95.9303C104.964 95.9294 104.963 95.9282 104.961 95.9249C104.959 95.9214 104.953 95.9118 104.946 95.8926C104.931 95.8527 104.912 95.7707 104.912 95.628H102.912ZM105.424 98.014H132.01V96.014H105.424V98.014ZM132.01 98.014C132.67 98.014 132.988 98.1911 133.16 98.3797C133.348 98.5863 133.53 98.9938 133.53 99.786H135.53C135.53 98.7302 135.292 97.7517 134.64 97.0343C133.971 96.2989 133.03 96.014 132.01 96.014V98.014ZM133.53 99.786V108.354H135.53V99.786H133.53ZM133.53 108.354C133.53 109.094 133.353 109.463 133.176 109.649C133.007 109.826 132.683 110 132.01 110V112C133.017 112 133.952 111.733 134.624 111.028C135.287 110.332 135.53 109.378 135.53 108.354H133.53ZM188.359 110H147.157V112H188.359V110ZM147.157 110C146.429 110 146.067 109.819 145.88 109.631C145.693 109.444 145.511 109.082 145.511 108.354H143.511C143.511 109.39 143.771 110.351 144.466 111.046C145.16 111.74 146.121 112 147.157 112V110ZM145.511 108.354V32.628H143.511V108.354H145.511ZM145.511 32.628C145.511 31.9001 145.693 31.5379 145.88 31.3506C146.067 31.1633 146.429 30.982 147.157 30.982V28.982C146.121 28.982 145.16 29.2417 144.466 29.9364C143.771 30.6311 143.511 31.5919 143.511 32.628H145.511ZM147.157 30.982H188.359V28.982H147.157V30.982ZM188.359 30.982C189.032 30.982 189.357 31.1562 189.525 31.3332C189.702 31.5192 189.879 31.8883 189.879 32.628H191.879C191.879 31.6037 191.636 30.6498 190.973 29.9538C190.302 29.2488 189.366 28.982 188.359 28.982V30.982ZM189.879 32.628V41.196H191.879V32.628H189.879ZM189.879 41.196C189.879 41.9357 189.702 42.3048 189.525 42.4908C189.357 42.6678 189.032 42.842 188.359 42.842V44.842C189.366 44.842 190.302 44.5752 190.973 43.8702C191.636 43.1742 191.879 42.2203 191.879 41.196H189.879ZM188.359 42.842H162.025V44.842H188.359V42.842ZM162.025 42.842C161.388 42.842 160.723 42.9863 160.216 43.4513C159.692 43.9315 159.513 44.5884 159.513 45.228H161.513C161.513 45.0853 161.533 45.0033 161.548 44.9634C161.555 44.9442 161.56 44.9346 161.563 44.9311C161.565 44.9278 161.566 44.9266 161.567 44.9256C161.567 44.9255 161.587 44.9059 161.656 44.885C161.728 44.8628 161.847 44.842 162.025 44.842V42.842ZM159.513 45.228V61.608H161.513V45.228H159.513ZM159.513 61.608C159.513 62.2476 159.692 62.9045 160.216 63.3847C160.723 63.8497 161.388 63.994 162.025 63.994V61.994C161.847 61.994 161.728 61.9731 161.656 61.951C161.587 61.93 161.567 61.9105 161.567 61.9103C161.566 61.9094 161.565 61.9082 161.563 61.9049C161.56 61.9014 161.555 61.8918 161.548 61.8726C161.533 61.8327 161.513 61.7507 161.513 61.608H159.513ZM162.025 63.994H183.571V61.994H162.025V63.994ZM183.571 63.994C184.299 63.994 184.661 64.1753 184.849 64.3626C185.036 64.5499 185.217 64.9121 185.217 65.64H187.217C187.217 64.6039 186.958 63.6431 186.263 62.9484C185.568 62.2537 184.607 61.994 183.571 61.994V63.994ZM185.217 65.64V74.208H187.217V65.64H185.217ZM185.217 74.208C185.217 74.9359 185.036 75.2981 184.849 75.4854C184.661 75.6727 184.299 75.854 183.571 75.854V77.854C184.607 77.854 185.568 77.5943 186.263 76.8996C186.958 76.2049 187.217 75.2441 187.217 74.208H185.217ZM183.571 75.854H162.025V77.854H183.571V75.854ZM162.025 75.854C161.388 75.854 160.723 75.9983 160.216 76.4633C159.692 76.9435 159.513 77.6004 159.513 78.24H161.513C161.513 78.0973 161.533 78.0153 161.548 77.9754C161.555 77.9562 161.56 77.9466 161.563 77.9431C161.565 77.9398 161.566 77.9386 161.567 77.9377C161.567 77.9375 161.587 77.9179 161.656 77.897C161.728 77.8748 161.847 77.854 162.025 77.854V75.854ZM159.513 78.24V95.754H161.513V78.24H159.513ZM159.513 95.754C159.513 96.3936 159.692 97.0505 160.216 97.5307C160.723 97.9957 161.388 98.14 162.025 98.14V96.14C161.847 96.14 161.728 96.1191 161.656 96.097C161.587 96.076 161.567 96.0565 161.567 96.0563C161.566 96.0554 161.565 96.0542 161.563 96.0509C161.56 96.0474 161.555 96.0378 161.548 96.0186C161.533 95.9787 161.513 95.8967 161.513 95.754H159.513ZM162.025 98.14H188.359V96.14H162.025V98.14ZM188.359 98.14C189.032 98.14 189.357 98.3142 189.525 98.4912C189.702 98.6772 189.879 99.0463 189.879 99.786H191.879C191.879 98.7617 191.636 97.8078 190.973 97.1118C190.302 96.4068 189.366 96.14 188.359 96.14V98.14ZM189.879 99.786V108.354H191.879V99.786H189.879ZM189.879 108.354C189.879 109.094 189.702 109.463 189.525 109.649C189.357 109.826 189.032 110 188.359 110V112C189.366 112 190.302 111.733 190.973 111.028C191.636 110.332 191.879 109.378 191.879 108.354H189.879ZM208.962 105.708L209.661 104.993L209.661 104.993L208.962 105.708ZM208.962 35.274L209.661 35.9894L209.661 35.9894L208.962 35.274ZM253.314 35.4L252.607 36.1071L252.615 36.1153L252.624 36.1234L253.314 35.4ZM241.092 45.606L240.359 46.2864L240.385 46.3136L240.412 46.3388L241.092 45.606ZM221.184 45.606L220.477 44.8989L220.477 44.8989L221.184 45.606ZM221.184 95.502L220.451 96.1825L220.477 96.2096L220.504 96.2348L221.184 95.502ZM241.092 95.502L241.799 96.2091L241.799 96.2091L241.092 95.502ZM253.314 105.708L254.013 106.423L254.013 106.423L253.314 105.708ZM238.068 110H224.334V112H238.068V110ZM224.334 110C217.874 110 213.033 108.286 209.661 104.993L208.264 106.423C212.115 110.186 217.522 112 224.334 112V110ZM209.661 104.993C206.297 101.707 204.544 96.9169 204.544 90.462H202.544C202.544 97.2791 204.404 102.653 208.264 106.423L209.661 104.993ZM204.544 90.462V50.52H202.544V90.462H204.544ZM204.544 50.52C204.544 44.0651 206.297 39.2754 209.661 35.9894L208.264 34.5586C204.404 38.3286 202.544 43.7029 202.544 50.52H204.544ZM209.661 35.9894C213.033 32.6956 217.874 30.982 224.334 30.982V28.982C217.522 28.982 212.115 30.7964 208.264 34.5586L209.661 35.9894ZM224.334 30.982H238.068V28.982H224.334V30.982ZM238.068 30.982C244.434 30.982 249.232 32.7317 252.607 36.1071L254.021 34.6929C250.173 30.8443 244.807 28.982 238.068 28.982V30.982ZM252.624 36.1234C256.07 39.413 257.858 44.1599 257.858 50.52H259.858C259.858 43.7761 257.95 38.443 254.005 34.6766L252.624 36.1234ZM257.858 50.52V56.442H259.858V50.52H257.858ZM257.858 56.442C257.858 57.2119 257.666 57.6056 257.458 57.8139C257.25 58.0222 256.856 58.214 256.086 58.214V60.214C257.164 60.214 258.157 59.9438 258.872 59.2281C259.588 58.5124 259.858 57.5201 259.858 56.442H257.858ZM256.086 58.214H245.502V60.214H256.086V58.214ZM245.502 58.214C244.787 58.214 244.43 58.0289 244.241 57.8305C244.043 57.6234 243.856 57.2232 243.856 56.442H241.856C241.856 57.5088 242.11 58.4946 242.794 59.2115C243.487 59.9371 244.454 60.214 245.502 60.214V58.214ZM243.856 56.442V51.276H241.856V56.442H243.856ZM243.856 51.276C243.856 48.489 243.254 46.249 241.773 44.8732L240.412 46.3388C241.282 47.1469 241.856 48.687 241.856 51.276H243.856ZM241.825 44.9255C240.449 43.4439 238.209 42.842 235.422 42.842V44.842C238.011 44.842 239.551 45.4161 240.359 46.2864L241.825 44.9255ZM235.422 42.842H226.854V44.842H235.422V42.842ZM226.854 42.842C224.131 42.842 221.923 43.4527 220.477 44.8989L221.891 46.3131C222.797 45.4072 224.37 44.842 226.854 44.842V42.842ZM220.477 44.8989C219.099 46.2766 218.546 48.5049 218.546 51.276H220.546C220.546 48.6711 221.085 47.1193 221.891 46.3131L220.477 44.8989ZM218.546 51.276V89.706H220.546V51.276H218.546ZM218.546 89.706C218.546 92.4874 219.104 94.731 220.451 96.1825L221.917 94.8215C221.081 93.921 220.546 92.3006 220.546 89.706H218.546ZM220.504 96.2348C221.951 97.5783 224.147 98.14 226.854 98.14V96.14C224.354 96.14 222.77 95.6097 221.865 94.7692L220.504 96.2348ZM226.854 98.14H235.422V96.14H226.854V98.14ZM235.422 98.14C238.193 98.14 240.422 97.5869 241.799 96.2091L240.385 94.7949C239.579 95.6011 238.027 96.14 235.422 96.14V98.14ZM241.799 96.2091C243.25 94.7581 243.856 92.5026 243.856 89.706H241.856C241.856 92.2854 241.286 93.8939 240.385 94.7949L241.799 96.2091ZM243.856 89.706V84.54H241.856V89.706H243.856ZM243.856 84.54C243.856 83.7588 244.043 83.3586 244.241 83.1515C244.43 82.9531 244.787 82.768 245.502 82.768V80.768C244.454 80.768 243.487 81.0449 242.794 81.7705C242.11 82.4874 241.856 83.4732 241.856 84.54H243.856ZM245.502 82.768H256.086V80.768H245.502V82.768ZM256.086 82.768C256.856 82.768 257.25 82.9598 257.458 83.1681C257.666 83.3764 257.858 83.7701 257.858 84.54H259.858C259.858 83.4619 259.588 82.4696 258.872 81.7539C258.157 81.0382 257.164 80.768 256.086 80.768V82.768ZM257.858 84.54V90.462H259.858V84.54H257.858ZM257.858 90.462C257.858 96.8209 256.07 101.616 252.615 104.993L254.013 106.423C257.95 102.576 259.858 97.2071 259.858 90.462H257.858ZM252.616 104.993C249.241 108.289 244.44 110 238.068 110V112C244.801 112 250.163 110.183 254.013 106.423L252.616 104.993ZM297.677 110H287.093V112H297.677V110ZM287.093 110C286.312 110 285.912 109.813 285.705 109.615C285.506 109.426 285.321 109.07 285.321 108.354H283.321C283.321 109.402 283.598 110.369 284.324 111.062C285.041 111.746 286.026 112 287.093 112V110ZM285.321 108.354V45.228H283.321V108.354H285.321ZM285.321 45.228C285.321 44.6119 285.166 43.9661 284.682 43.4814C284.197 42.9967 283.551 42.842 282.935 42.842V44.842C283.243 44.842 283.29 44.9183 283.267 44.8956C283.245 44.8729 283.321 44.9201 283.321 45.228H285.321ZM282.935 42.842H268.571V44.842H282.935V42.842ZM268.571 42.842C267.843 42.842 267.481 42.6607 267.294 42.4734C267.106 42.2861 266.925 41.9239 266.925 41.196H264.925C264.925 42.2321 265.185 43.1929 265.879 43.8876C266.574 44.5823 267.535 44.842 268.571 44.842V42.842ZM266.925 41.196V32.628H264.925V41.196H266.925ZM266.925 32.628C266.925 31.9001 267.106 31.5379 267.294 31.3506C267.481 31.1633 267.843 30.982 268.571 30.982V28.982C267.535 28.982 266.574 29.2417 265.879 29.9364C265.185 30.6311 264.925 31.5919 264.925 32.628H266.925ZM268.571 30.982H316.199V28.982H268.571V30.982ZM316.199 30.982C316.927 30.982 317.289 31.1633 317.476 31.3506C317.664 31.5379 317.845 31.9001 317.845 32.628H319.845C319.845 31.5919 319.585 30.6311 318.891 29.9364C318.196 29.2417 317.235 28.982 316.199 28.982V30.982ZM317.845 32.628V41.196H319.845V32.628H317.845ZM317.845 41.196C317.845 41.9239 317.664 42.2861 317.476 42.4734C317.289 42.6607 316.927 42.842 316.199 42.842V44.842C317.235 44.842 318.196 44.5823 318.891 43.8876C319.585 43.1929 319.845 42.2321 319.845 41.196H317.845ZM316.199 42.842H301.835V44.842H316.199V42.842ZM301.835 42.842C301.197 42.842 300.533 42.9863 300.025 43.4513C299.502 43.9315 299.323 44.5884 299.323 45.228H301.323C301.323 45.0853 301.343 45.0033 301.357 44.9634C301.364 44.9442 301.37 44.9346 301.372 44.9311C301.375 44.9278 301.376 44.9266 301.377 44.9256C301.377 44.9255 301.397 44.9059 301.466 44.885C301.538 44.8628 301.656 44.842 301.835 44.842V42.842ZM299.323 45.228V108.354H301.323V45.228H299.323ZM299.323 108.354C299.323 109.082 299.142 109.444 298.954 109.631C298.767 109.819 298.405 110 297.677 110V112C298.713 112 299.674 111.74 300.369 111.046C301.063 110.351 301.323 109.39 301.323 108.354H299.323ZM370.802 79.374L370.418 78.4506L369.802 78.7068V79.374H370.802ZM370.802 79.878H369.802V80.1055L369.901 80.3106L370.802 79.878ZM384.284 107.976L385.221 107.625L385.205 107.583L385.186 107.543L384.284 107.976ZM368.66 110.496L368.213 111.39L368.213 111.39L368.66 110.496ZM367.022 108.354L367.956 107.995L367.944 107.964L367.93 107.934L367.022 108.354ZM354.422 81.138L355.33 80.7179L355.061 80.138H354.422V81.138ZM364.124 66.648L364.779 67.4037L364.793 67.3916L364.807 67.3791L364.124 66.648ZM364.124 45.606L364.807 44.8749L364.807 44.8749L364.124 45.606ZM341.822 110H331.112V112H341.822V110ZM331.112 110C330.385 110 330.022 109.819 329.835 109.631C329.648 109.444 329.466 109.082 329.466 108.354H327.466C327.466 109.39 327.726 110.351 328.421 111.046C329.115 111.74 330.076 112 331.112 112V110ZM329.466 108.354V32.628H327.466V108.354H329.466ZM329.466 32.628C329.466 31.9001 329.648 31.5379 329.835 31.3506C330.022 31.1633 330.385 30.982 331.112 30.982V28.982C330.076 28.982 329.115 29.2417 328.421 29.9364C327.726 30.6311 327.466 31.5919 327.466 32.628H329.466ZM331.112 30.982H361.1V28.982H331.112V30.982ZM361.1 30.982C367.464 30.982 372.311 32.7313 375.773 36.1152L377.171 34.6848C373.242 30.8447 367.84 28.982 361.1 28.982V30.982ZM375.773 36.1152C379.229 39.4918 381.016 44.2871 381.016 50.646H383.016C383.016 43.9009 381.108 38.5322 377.171 34.6848L375.773 36.1152ZM381.016 50.646V60.474H383.016V50.646H381.016ZM381.016 60.474C381.016 65.0924 380.107 68.8515 378.353 71.8077C376.605 74.7527 373.979 76.9702 370.418 78.4506L371.186 80.2974C375.101 78.6698 378.082 76.1833 380.073 72.8283C382.057 69.4845 383.016 65.3476 383.016 60.474H381.016ZM369.802 79.374V79.878H371.802V79.374H369.802ZM369.901 80.3106L383.383 108.409L385.186 107.543L371.704 79.4454L369.901 80.3106ZM383.348 108.327C383.695 109.253 383.558 109.584 383.5 109.666C383.437 109.755 383.153 110 382.142 110V112C383.316 112 384.481 111.741 385.132 110.822C385.788 109.896 385.63 108.715 385.221 107.625L383.348 108.327ZM382.142 110H371.936V112H382.142V110ZM371.936 110C370.453 110 369.56 109.828 369.108 109.602L368.213 111.39C369.105 111.836 370.396 112 371.936 112V110ZM369.108 109.602C368.755 109.425 368.334 108.979 367.956 107.995L366.089 108.713C366.551 109.913 367.222 110.895 368.213 111.39L369.108 109.602ZM367.93 107.934L355.33 80.7179L353.515 81.5581L366.115 108.774L367.93 107.934ZM354.422 80.138H345.98V82.138H354.422V80.138ZM345.98 80.138C345.343 80.138 344.678 80.2823 344.171 80.7473C343.647 81.2275 343.468 81.8844 343.468 82.524H345.468C345.468 82.3813 345.488 82.2993 345.503 82.2594C345.51 82.2402 345.515 82.2306 345.518 82.2271C345.52 82.2238 345.521 82.2226 345.522 82.2217C345.522 82.2215 345.542 82.2019 345.611 82.181C345.684 82.1588 345.802 82.138 345.98 82.138V80.138ZM343.468 82.524V108.354H345.468V82.524H343.468ZM343.468 108.354C343.468 109.082 343.287 109.444 343.1 109.631C342.912 109.819 342.55 110 341.822 110V112C342.859 112 343.819 111.74 344.514 111.046C345.209 110.351 345.468 109.39 345.468 108.354H343.468ZM345.854 69.286H358.202V67.286H345.854V69.286ZM358.202 69.286C360.993 69.286 363.255 68.7249 364.779 67.4037L363.469 65.8923C362.474 66.7551 360.788 67.286 358.202 67.286V69.286ZM364.807 67.3791C366.348 65.9408 367.014 63.7719 367.014 61.104H365.014C365.014 63.4761 364.421 65.0031 363.442 65.9169L364.807 67.3791ZM367.014 61.104V51.276H365.014V61.104H367.014ZM367.014 51.276C367.014 48.5358 366.353 46.3186 364.807 44.8749L363.442 46.337C364.415 47.2454 365.014 48.8081 365.014 51.276H367.014ZM364.807 44.8749C363.281 43.4513 361.007 42.842 358.202 42.842V44.842C360.774 44.842 362.447 45.4087 363.442 46.337L364.807 44.8749ZM358.202 42.842H345.854V44.842H358.202V42.842ZM345.854 42.842C345.238 42.842 344.592 42.9967 344.108 43.4814C343.623 43.9661 343.468 44.6119 343.468 45.228H345.468C345.468 44.9201 345.545 44.8729 345.522 44.8956C345.499 44.9183 345.547 44.842 345.854 44.842V42.842ZM343.468 45.228V66.9H345.468V45.228H343.468ZM343.468 66.9C343.468 67.5161 343.623 68.1619 344.108 68.6466C344.592 69.1313 345.238 69.286 345.854 69.286V67.286C345.547 67.286 345.499 67.2097 345.522 67.2324C345.545 67.2551 345.468 67.2079 345.468 66.9H343.468ZM413.005 32.628V108.354H415.005V32.628H413.005ZM413.005 108.354C413.005 109.082 412.823 109.444 412.636 109.631C412.449 109.819 412.086 110 411.359 110V112C412.395 112 413.356 111.74 414.05 111.046C414.745 110.351 415.005 109.39 415.005 108.354H413.005ZM411.359 110H400.649V112H411.359V110ZM400.649 110C399.921 110 399.559 109.819 399.371 109.631C399.184 109.444 399.003 109.082 399.003 108.354H397.003C397.003 109.39 397.262 110.351 397.957 111.046C398.652 111.74 399.612 112 400.649 112V110ZM399.003 108.354V32.628H397.003V108.354H399.003ZM399.003 32.628C399.003 31.9001 399.184 31.5379 399.371 31.3506C399.559 31.1633 399.921 30.982 400.649 30.982V28.982C399.612 28.982 398.652 29.2417 397.957 29.9364C397.262 30.6311 397.003 31.5919 397.003 32.628H399.003ZM400.649 30.982H411.359V28.982H400.649V30.982ZM411.359 30.982C412.086 30.982 412.449 31.1633 412.636 31.3506C412.823 31.5379 413.005 31.9001 413.005 32.628H415.005C415.005 31.5919 414.745 30.6311 414.05 29.9364C413.356 29.2417 412.395 28.982 411.359 28.982V30.982ZM435.122 105.708L435.821 104.993L435.821 104.993L435.122 105.708ZM435.122 35.274L435.821 35.9894L435.821 35.9894L435.122 35.274ZM479.474 35.4L478.767 36.1071L478.776 36.1153L478.784 36.1234L479.474 35.4ZM467.252 45.606L466.52 46.2864L466.545 46.3136L466.572 46.3388L467.252 45.606ZM447.344 45.606L446.637 44.8989L446.637 44.8989L447.344 45.606ZM447.344 95.502L446.612 96.1825L446.637 96.2096L446.664 96.2348L447.344 95.502ZM467.252 95.502L467.96 96.2091L467.96 96.2091L467.252 95.502ZM479.474 105.708L480.173 106.423L480.173 106.423L479.474 105.708ZM464.228 110H450.494V112H464.228V110ZM450.494 110C444.035 110 439.193 108.286 435.821 104.993L434.424 106.423C438.276 110.186 443.682 112 450.494 112V110ZM435.821 104.993C432.457 101.707 430.704 96.9169 430.704 90.462H428.704C428.704 97.2791 430.564 102.653 434.424 106.423L435.821 104.993ZM430.704 90.462V50.52H428.704V90.462H430.704ZM430.704 50.52C430.704 44.0651 432.457 39.2754 435.821 35.9894L434.424 34.5586C430.564 38.3286 428.704 43.7029 428.704 50.52H430.704ZM435.821 35.9894C439.193 32.6956 444.035 30.982 450.494 30.982V28.982C443.682 28.982 438.276 30.7964 434.424 34.5586L435.821 35.9894ZM450.494 30.982H464.228V28.982H450.494V30.982ZM464.228 30.982C470.594 30.982 475.392 32.7317 478.767 36.1071L480.182 34.6929C476.333 30.8443 470.967 28.982 464.228 28.982V30.982ZM478.784 36.1234C482.23 39.413 484.018 44.1599 484.018 50.52H486.018C486.018 43.7761 484.111 38.443 480.165 34.6766L478.784 36.1234ZM484.018 50.52V56.442H486.018V50.52H484.018ZM484.018 56.442C484.018 57.2119 483.827 57.6056 483.618 57.8139C483.41 58.0222 483.016 58.214 482.246 58.214V60.214C483.325 60.214 484.317 59.9438 485.033 59.2281C485.748 58.5124 486.018 57.5201 486.018 56.442H484.018ZM482.246 58.214H471.662V60.214H482.246V58.214ZM471.662 58.214C470.947 58.214 470.591 58.0289 470.401 57.8305C470.204 57.6234 470.016 57.2232 470.016 56.442H468.016C468.016 57.5088 468.27 58.4946 468.955 59.2115C469.647 59.9371 470.614 60.214 471.662 60.214V58.214ZM470.016 56.442V51.276H468.016V56.442H470.016ZM470.016 51.276C470.016 48.489 469.415 46.249 467.933 44.8732L466.572 46.3388C467.442 47.1469 468.016 48.687 468.016 51.276H470.016ZM467.985 44.9255C466.609 43.4439 464.369 42.842 461.582 42.842V44.842C464.171 44.842 465.711 45.4161 466.52 46.2864L467.985 44.9255ZM461.582 42.842H453.014V44.842H461.582V42.842ZM453.014 42.842C450.291 42.842 448.083 43.4527 446.637 44.8989L448.052 46.3131C448.957 45.4072 450.53 44.842 453.014 44.842V42.842ZM446.637 44.8989C445.26 46.2766 444.706 48.5049 444.706 51.276H446.706C446.706 48.6711 447.245 47.1193 448.052 46.3131L446.637 44.8989ZM444.706 51.276V89.706H446.706V51.276H444.706ZM444.706 89.706C444.706 92.4874 445.264 94.731 446.612 96.1825L448.077 94.8215C447.241 93.921 446.706 92.3006 446.706 89.706H444.706ZM446.664 96.2348C448.111 97.5783 450.307 98.14 453.014 98.14V96.14C450.514 96.14 448.93 95.6097 448.025 94.7692L446.664 96.2348ZM453.014 98.14H461.582V96.14H453.014V98.14ZM461.582 98.14C464.353 98.14 466.582 97.5869 467.96 96.2091L466.545 94.7949C465.739 95.6011 464.187 96.14 461.582 96.14V98.14ZM467.96 96.2091C469.411 94.7581 470.016 92.5026 470.016 89.706H468.016C468.016 92.2854 467.446 93.8939 466.545 94.7949L467.96 96.2091ZM470.016 89.706V84.54H468.016V89.706H470.016ZM470.016 84.54C470.016 83.7588 470.204 83.3586 470.401 83.1515C470.591 82.9531 470.947 82.768 471.662 82.768V80.768C470.614 80.768 469.647 81.0449 468.955 81.7705C468.27 82.4874 468.016 83.4732 468.016 84.54H470.016ZM471.662 82.768H482.246V80.768H471.662V82.768ZM482.246 82.768C483.016 82.768 483.41 82.9598 483.618 83.1681C483.827 83.3764 484.018 83.7701 484.018 84.54H486.018C486.018 83.4619 485.748 82.4696 485.033 81.7539C484.317 81.0382 483.325 80.768 482.246 80.768V82.768ZM484.018 84.54V90.462H486.018V84.54H484.018ZM484.018 90.462C484.018 96.8209 482.231 101.616 478.775 104.993L480.173 106.423C484.11 102.576 486.018 97.2071 486.018 90.462H484.018ZM478.776 104.993C475.401 108.289 470.6 110 464.228 110V112C470.961 112 476.324 110.183 480.173 106.423L478.776 104.993Z" fill="black"/>
</svg>
