<svg width="444" height="150" viewBox="0 0 444 150" fill="none" xmlns="http://www.w3.org/2000/svg">
<rect x="2.5" y="2.5" width="439" height="145" rx="32.5" fill="#FFAAFF" stroke="black" stroke-width="5"/>
<path d="M96.8204 111H86.1104C84.3464 111 83.4644 110.118 83.4644 108.354V32.628C83.4644 30.864 84.3464 29.982 86.1104 29.982H126.304C127.984 29.982 128.824 30.864 128.824 32.628V41.196C128.824 42.96 127.984 43.842 126.304 43.842H100.978C99.9704 43.842 99.4664 44.304 99.4664 45.228V64.758C99.4664 65.766 99.9704 66.27 100.978 66.27H122.524C124.288 66.27 125.17 67.152 125.17 68.916V77.358C125.17 79.206 124.288 80.13 122.524 80.13H100.978C99.9704 80.13 99.4664 80.592 99.4664 81.516V108.354C99.4664 110.118 98.5844 111 96.8204 111ZM148.631 111H136.535C135.023 111 134.519 110.118 135.023 108.354L154.931 32.628C155.519 30.864 156.779 29.982 158.711 29.982H175.469C177.569 29.982 178.829 30.864 179.249 32.628L199.157 108.354C199.661 110.118 199.157 111 197.645 111H185.549C184.625 111 183.995 110.832 183.659 110.496C183.323 110.076 183.071 109.362 182.903 108.354L179.375 94.494H154.805L151.277 108.354C151.109 109.362 150.815 110.076 150.395 110.496C150.059 110.832 149.471 111 148.631 111ZM166.901 45.228L157.829 81.642H176.477L167.405 45.228H166.901ZM226.958 32.628V108.354C226.958 110.118 226.076 111 224.312 111H213.602C211.838 111 210.956 110.118 210.956 108.354V32.628C210.956 30.864 211.838 29.982 213.602 29.982H224.312C226.076 29.982 226.958 30.864 226.958 32.628ZM257.274 111H246.564C244.8 111 243.918 110.118 243.918 108.354V32.628C243.918 30.864 244.8 29.982 246.564 29.982H276.552C283.104 29.982 288.228 31.788 291.924 35.4C295.62 39.012 297.468 44.094 297.468 50.646V60.474C297.468 69.966 293.73 76.266 286.254 79.374V79.878L299.736 107.976C300.492 109.992 299.778 111 297.594 111H287.388C285.876 111 284.784 110.832 284.112 110.496C283.44 110.16 282.894 109.446 282.474 108.354L269.874 81.138H261.432C260.424 81.138 259.92 81.6 259.92 82.524V108.354C259.92 110.118 259.038 111 257.274 111ZM261.306 68.286H273.654C276.342 68.286 278.316 67.74 279.576 66.648C280.836 65.472 281.466 63.624 281.466 61.104V51.276C281.466 48.672 280.836 46.782 279.576 45.606C278.316 44.43 276.342 43.842 273.654 43.842H261.306C260.382 43.842 259.92 44.304 259.92 45.228V66.9C259.92 67.824 260.382 68.286 261.306 68.286ZM342.56 111H331.85C330.086 111 329.204 110.118 329.204 108.354V81.39L306.146 32.754C305.81 31.998 305.81 31.368 306.146 30.864C306.566 30.276 307.154 29.982 307.91 29.982H321.266C322.61 29.982 323.618 30.864 324.29 32.628L336.89 63.246H337.772L350.12 32.628C350.708 30.864 351.716 29.982 353.144 29.982H366.5C367.34 29.982 367.928 30.234 368.264 30.738C368.684 31.242 368.684 31.914 368.264 32.754L345.206 81.39V108.354C345.206 110.118 344.324 111 342.56 111Z" fill="white"/>
<path d="M96.8204 110H86.1104V112H96.8204V110ZM86.1104 110C85.3826 110 85.0203 109.819 84.833 109.631C84.6457 109.444 84.4644 109.082 84.4644 108.354H82.4644C82.4644 109.39 82.7241 110.351 83.4188 111.046C84.1135 111.74 85.0743 112 86.1104 112V110ZM84.4644 108.354V32.628H82.4644V108.354H84.4644ZM84.4644 32.628C84.4644 31.9001 84.6457 31.5379 84.833 31.3506C85.0203 31.1633 85.3826 30.982 86.1104 30.982V28.982C85.0743 28.982 84.1135 29.2417 83.4188 29.9364C82.7241 30.6311 82.4644 31.5919 82.4644 32.628H84.4644ZM86.1104 30.982H126.304V28.982H86.1104V30.982ZM126.304 30.982C126.977 30.982 127.302 31.1562 127.47 31.3332C127.647 31.5192 127.824 31.8883 127.824 32.628H129.824C129.824 31.6037 129.581 30.6498 128.919 29.9538C128.247 29.2488 127.311 28.982 126.304 28.982V30.982ZM127.824 32.628V41.196H129.824V32.628H127.824ZM127.824 41.196C127.824 41.9357 127.647 42.3048 127.47 42.4908C127.302 42.6678 126.977 42.842 126.304 42.842V44.842C127.311 44.842 128.247 44.5752 128.919 43.8701C129.581 43.1742 129.824 42.2203 129.824 41.196H127.824ZM126.304 42.842H100.978V44.842H126.304V42.842ZM100.978 42.842C100.341 42.842 99.676 42.9863 99.1687 43.4513C98.6449 43.9315 98.4664 44.5884 98.4664 45.228H100.466C100.466 45.0853 100.486 45.0033 100.501 44.9634C100.508 44.9442 100.513 44.9346 100.516 44.9311C100.518 44.9278 100.519 44.9266 100.52 44.9256C100.52 44.9255 100.54 44.9059 100.609 44.885C100.682 44.8628 100.8 44.842 100.978 44.842V42.842ZM98.4664 45.228V64.758H100.466V45.228H98.4664ZM98.4664 64.758C98.4664 65.4161 98.6316 66.0934 99.1373 66.5991C99.643 67.1048 100.32 67.27 100.978 67.27V65.27C100.807 65.27 100.697 65.2482 100.633 65.2268C100.574 65.207 100.555 65.1887 100.552 65.1849C100.548 65.1811 100.529 65.1626 100.51 65.1033C100.488 65.0391 100.466 64.9296 100.466 64.758H98.4664ZM100.978 67.27H122.524V65.27H100.978V67.27ZM122.524 67.27C123.252 67.27 123.614 67.4513 123.802 67.6386C123.989 67.8259 124.17 68.1881 124.17 68.916H126.17C126.17 67.8799 125.911 66.9191 125.216 66.2244C124.521 65.5297 123.561 65.27 122.524 65.27V67.27ZM124.17 68.916V77.358H126.17V68.916H124.17ZM124.17 77.358C124.17 78.1392 123.983 78.5394 123.786 78.7465C123.596 78.9449 123.24 79.13 122.524 79.13V81.13C123.573 81.13 124.54 80.8531 125.232 80.1275C125.917 79.4106 126.17 78.4248 126.17 77.358H124.17ZM122.524 79.13H100.978V81.13H122.524V79.13ZM100.978 79.13C100.341 79.13 99.676 79.2743 99.1687 79.7393C98.6449 80.2195 98.4664 80.8764 98.4664 81.516H100.466C100.466 81.3733 100.486 81.2913 100.501 81.2514C100.508 81.2322 100.513 81.2226 100.516 81.2191C100.518 81.2158 100.519 81.2146 100.52 81.2137C100.52 81.2135 100.54 81.194 100.609 81.173C100.682 81.1508 100.8 81.13 100.978 81.13V79.13ZM98.4664 81.516V108.354H100.466V81.516H98.4664ZM98.4664 108.354C98.4664 109.082 98.2851 109.444 98.0978 109.631C97.9105 109.819 97.5483 110 96.8204 110V112C97.8566 112 98.8173 111.74 99.512 111.046C100.207 110.351 100.466 109.39 100.466 108.354H98.4664ZM135.023 108.354L135.985 108.629L135.987 108.619L135.99 108.608L135.023 108.354ZM154.931 32.628L153.982 32.3118L153.972 32.3425L153.964 32.3737L154.931 32.628ZM179.249 32.628L178.276 32.8596L178.279 32.871L178.282 32.8823L179.249 32.628ZM199.157 108.354L198.19 108.608L198.193 108.619L198.196 108.629L199.157 108.354ZM183.659 110.496L182.878 111.121L182.913 111.164L182.952 111.203L183.659 110.496ZM182.903 108.354L183.889 108.19L183.883 108.148L183.872 108.107L182.903 108.354ZM179.375 94.494L180.344 94.2473L180.152 93.494H179.375V94.494ZM154.805 94.494V93.494H154.028L153.836 94.2473L154.805 94.494ZM151.277 108.354L150.308 108.107L150.298 108.148L150.291 108.19L151.277 108.354ZM150.395 110.496L151.102 111.203L151.102 111.203L150.395 110.496ZM166.901 45.228V44.228H166.12L165.931 44.9863L166.901 45.228ZM157.829 81.642L156.859 81.4003L156.549 82.642H157.829V81.642ZM176.477 81.642V82.642H177.757L177.447 81.4003L176.477 81.642ZM167.405 45.228L168.375 44.9863L168.186 44.228H167.405V45.228ZM148.631 110H136.535V112H148.631V110ZM136.535 110C136.247 110 136.079 109.957 135.991 109.918C135.918 109.887 135.902 109.86 135.891 109.842C135.847 109.765 135.752 109.443 135.985 108.629L134.061 108.079C133.79 109.029 133.695 110.03 134.155 110.835C134.663 111.724 135.612 112 136.535 112V110ZM135.99 108.608L155.898 32.8823L153.964 32.3737L134.056 108.1L135.99 108.608ZM155.88 32.9442C156.12 32.2222 156.471 31.7567 156.89 31.4627C157.314 31.1664 157.897 30.982 158.711 30.982V28.982C157.593 28.982 156.58 29.2386 155.744 29.8243C154.904 30.4123 154.33 31.2698 153.982 32.3118L155.88 32.9442ZM158.711 30.982H175.469V28.982H158.711V30.982ZM175.469 30.982C176.387 30.982 177.005 31.1754 177.416 31.4627C177.81 31.7389 178.112 32.1707 178.276 32.8596L180.222 32.3964C179.966 31.3213 179.428 30.4301 178.562 29.8243C177.713 29.2296 176.651 28.982 175.469 28.982V30.982ZM178.282 32.8823L198.19 108.608L200.124 108.1L180.216 32.3737L178.282 32.8823ZM198.196 108.629C198.428 109.443 198.333 109.765 198.289 109.842C198.278 109.86 198.262 109.887 198.189 109.918C198.101 109.957 197.933 110 197.645 110V112C198.568 112 199.517 111.724 200.025 110.835C200.485 110.03 200.39 109.029 200.119 108.079L198.196 108.629ZM197.645 110H185.549V112H197.645V110ZM185.549 110C184.67 110 184.402 109.824 184.366 109.789L182.952 111.203C183.588 111.84 184.58 112 185.549 112V110ZM184.44 109.871C184.269 109.658 184.05 109.156 183.889 108.19L181.917 108.518C182.092 109.568 182.377 110.494 182.878 111.121L184.44 109.871ZM183.872 108.107L180.344 94.2473L178.406 94.7407L181.934 108.601L183.872 108.107ZM179.375 93.494H154.805V95.494H179.375V93.494ZM153.836 94.2473L150.308 108.107L152.246 108.601L155.774 94.7407L153.836 94.2473ZM150.291 108.19C150.135 109.124 149.888 109.589 149.688 109.789L151.102 111.203C151.742 110.563 152.083 109.6 152.263 108.518L150.291 108.19ZM149.688 109.789C149.64 109.837 149.393 110 148.631 110V112C149.549 112 150.478 111.827 151.102 111.203L149.688 109.789ZM165.931 44.9863L156.859 81.4003L158.799 81.8837L167.871 45.4697L165.931 44.9863ZM157.829 82.642H176.477V80.642H157.829V82.642ZM177.447 81.4003L168.375 44.9863L166.435 45.4697L175.507 81.8837L177.447 81.4003ZM167.405 44.228H166.901V46.228H167.405V44.228ZM225.958 32.628V108.354H227.958V32.628H225.958ZM225.958 108.354C225.958 109.082 225.776 109.444 225.589 109.631C225.402 109.819 225.04 110 224.312 110V112C225.348 112 226.309 111.74 227.003 111.046C227.698 110.351 227.958 109.39 227.958 108.354H225.958ZM224.312 110H213.602V112H224.312V110ZM213.602 110C212.874 110 212.512 109.819 212.324 109.631C212.137 109.444 211.956 109.082 211.956 108.354H209.956C209.956 109.39 210.215 110.351 210.91 111.046C211.605 111.74 212.566 112 213.602 112V110ZM211.956 108.354V32.628H209.956V108.354H211.956ZM211.956 32.628C211.956 31.9001 212.137 31.5379 212.324 31.3506C212.512 31.1633 212.874 30.982 213.602 30.982V28.982C212.566 28.982 211.605 29.2417 210.91 29.9364C210.215 30.6311 209.956 31.5919 209.956 32.628H211.956ZM213.602 30.982H224.312V28.982H213.602V30.982ZM224.312 30.982C225.04 30.982 225.402 31.1633 225.589 31.3506C225.776 31.5379 225.958 31.9001 225.958 32.628H227.958C227.958 31.5919 227.698 30.6311 227.003 29.9364C226.309 29.2417 225.348 28.982 224.312 28.982V30.982ZM286.254 79.374L285.87 78.4506L285.254 78.7068V79.374H286.254ZM286.254 79.878H285.254V80.1055L285.352 80.3106L286.254 79.878ZM299.736 107.976L300.672 107.625L300.656 107.583L300.637 107.543L299.736 107.976ZM284.112 110.496L283.664 111.39L283.664 111.39L284.112 110.496ZM282.474 108.354L283.407 107.995L283.395 107.964L283.381 107.934L282.474 108.354ZM269.874 81.138L270.781 80.7179L270.513 80.138H269.874V81.138ZM279.576 66.648L280.23 67.4037L280.244 67.3916L280.258 67.3791L279.576 66.648ZM279.576 45.606L280.258 44.8749L280.258 44.8749L279.576 45.606ZM257.274 110H246.564V112H257.274V110ZM246.564 110C245.836 110 245.473 109.819 245.286 109.631C245.099 109.444 244.918 109.082 244.918 108.354H242.918C242.918 109.39 243.177 110.351 243.872 111.046C244.567 111.74 245.527 112 246.564 112V110ZM244.918 108.354V32.628H242.918V108.354H244.918ZM244.918 32.628C244.918 31.9001 245.099 31.5379 245.286 31.3506C245.473 31.1633 245.836 30.982 246.564 30.982V28.982C245.527 28.982 244.567 29.2417 243.872 29.9364C243.177 30.6311 242.918 31.5919 242.918 32.628H244.918ZM246.564 30.982H276.552V28.982H246.564V30.982ZM276.552 30.982C282.916 30.982 287.762 32.7313 291.225 36.1152L292.622 34.6848C288.693 30.8447 283.291 28.982 276.552 28.982V30.982ZM291.225 36.1152C294.68 39.4918 296.468 44.2871 296.468 50.646H298.468C298.468 43.9009 296.559 38.5322 292.622 34.6848L291.225 36.1152ZM296.468 50.646V60.474H298.468V50.646H296.468ZM296.468 60.474C296.468 65.0924 295.558 68.8515 293.804 71.8077C292.057 74.7527 289.431 76.9702 285.87 78.4506L286.637 80.2974C290.552 78.6698 293.533 76.1833 295.524 72.8283C297.508 69.4845 298.468 65.3476 298.468 60.474H296.468ZM285.254 79.374V79.878H287.254V79.374H285.254ZM285.352 80.3106L298.834 108.409L300.637 107.543L287.155 79.4454L285.352 80.3106ZM298.799 108.327C299.146 109.253 299.009 109.584 298.951 109.666C298.888 109.755 298.604 110 297.594 110V112C298.767 112 299.932 111.741 300.583 110.822C301.239 109.896 301.081 108.715 300.672 107.625L298.799 108.327ZM297.594 110H287.388V112H297.594V110ZM287.388 110C285.904 110 285.011 109.828 284.559 109.602L283.664 111.39C284.556 111.836 285.847 112 287.388 112V110ZM284.559 109.602C284.206 109.425 283.785 108.979 283.407 107.995L281.54 108.713C282.002 109.913 282.673 110.895 283.664 111.39L284.559 109.602ZM283.381 107.934L270.781 80.7179L268.966 81.5581L281.566 108.774L283.381 107.934ZM269.874 80.138H261.432V82.138H269.874V80.138ZM261.432 80.138C260.794 80.138 260.129 80.2823 259.622 80.7473C259.098 81.2275 258.92 81.8844 258.92 82.524H260.92C260.92 82.3813 260.939 82.2993 260.954 82.2594C260.961 82.2402 260.967 82.2306 260.969 82.2271C260.971 82.2238 260.972 82.2226 260.973 82.2217C260.973 82.2215 260.994 82.2019 261.062 82.181C261.135 82.1588 261.253 82.138 261.432 82.138V80.138ZM258.92 82.524V108.354H260.92V82.524H258.92ZM258.92 108.354C258.92 109.082 258.738 109.444 258.551 109.631C258.364 109.819 258.001 110 257.274 110V112C258.31 112 259.27 111.74 259.965 111.046C260.66 110.351 260.92 109.39 260.92 108.354H258.92ZM261.306 69.286H273.654V67.286H261.306V69.286ZM273.654 69.286C276.444 69.286 278.706 68.7249 280.23 67.4037L278.921 65.8923C277.925 66.7551 276.239 67.286 273.654 67.286V69.286ZM280.258 67.3791C281.799 65.9408 282.466 63.7719 282.466 61.104H280.466C280.466 63.4761 279.872 65.0031 278.893 65.9169L280.258 67.3791ZM282.466 61.104V51.276H280.466V61.104H282.466ZM282.466 51.276C282.466 48.5358 281.805 46.3186 280.258 44.8749L278.893 46.337C279.866 47.2454 280.466 48.8081 280.466 51.276H282.466ZM280.258 44.8749C278.733 43.4513 276.458 42.842 273.654 42.842V44.842C276.225 44.842 277.899 45.4087 278.893 46.337L280.258 44.8749ZM273.654 42.842H261.306V44.842H273.654V42.842ZM261.306 42.842C260.689 42.842 260.044 42.9967 259.559 43.4814C259.074 43.9661 258.92 44.6119 258.92 45.228H260.92C260.92 44.9201 260.996 44.8729 260.973 44.8956C260.95 44.9183 260.998 44.842 261.306 44.842V42.842ZM258.92 45.228V66.9H260.92V45.228H258.92ZM258.92 66.9C258.92 67.5161 259.074 68.1619 259.559 68.6466C260.044 69.1313 260.689 69.286 261.306 69.286V67.286C260.998 67.286 260.95 67.2097 260.973 67.2324C260.996 67.2551 260.92 67.2079 260.92 66.9H258.92ZM329.204 81.39H330.204V81.165L330.107 80.9616L329.204 81.39ZM306.146 32.754L305.232 33.1601L305.237 33.1713L305.242 33.1824L306.146 32.754ZM306.146 30.864L305.332 30.2828L305.323 30.2959L305.314 30.3093L306.146 30.864ZM324.29 32.628L323.355 32.984L323.36 32.9963L323.365 33.0086L324.29 32.628ZM336.89 63.246L335.965 63.6266L336.22 64.246H336.89V63.246ZM337.772 63.246V64.246H338.447L338.699 63.62L337.772 63.246ZM350.12 32.628L351.047 33.002L351.059 32.9734L351.068 32.9442L350.12 32.628ZM368.264 30.738L367.432 31.2927L367.461 31.3371L367.496 31.3782L368.264 30.738ZM368.264 32.754L367.369 32.3068L367.365 32.3161L367.36 32.3256L368.264 32.754ZM345.206 81.39L344.302 80.9616L344.206 81.165V81.39H345.206ZM342.56 110H331.85V112H342.56V110ZM331.85 110C331.122 110 330.76 109.819 330.572 109.631C330.385 109.444 330.204 109.082 330.204 108.354H328.204C328.204 109.39 328.464 110.351 329.158 111.046C329.853 111.74 330.814 112 331.85 112V110ZM330.204 108.354V81.39H328.204V108.354H330.204ZM330.107 80.9616L307.049 32.3256L305.242 33.1824L328.3 81.8184L330.107 80.9616ZM307.06 32.3479C306.806 31.778 306.898 31.5385 306.978 31.4187L305.314 30.3093C304.722 31.1975 304.813 32.218 305.232 33.1601L307.06 32.3479ZM306.96 31.4452C307.182 31.1341 307.459 30.982 307.91 30.982V28.982C306.848 28.982 305.95 29.4179 305.332 30.2828L306.96 31.4452ZM307.91 30.982H321.266V28.982H307.91V30.982ZM321.266 30.982C321.696 30.982 322.05 31.1152 322.371 31.3961C322.712 31.6944 323.055 32.1959 323.355 32.984L325.224 32.272C324.853 31.2961 324.355 30.4746 323.688 29.8909C323.001 29.2898 322.179 28.982 321.266 28.982V30.982ZM323.365 33.0086L335.965 63.6266L337.815 62.8654L325.215 32.2474L323.365 33.0086ZM336.89 64.246H337.772V62.246H336.89V64.246ZM338.699 63.62L351.047 33.002L349.192 32.254L336.844 62.872L338.699 63.62ZM351.068 32.9442C351.327 32.1684 351.647 31.6831 351.975 31.3961C352.284 31.1257 352.655 30.982 353.144 30.982V28.982C352.205 28.982 351.357 29.2793 350.658 29.8909C349.978 30.4858 349.5 31.3236 349.171 32.3118L351.068 32.9442ZM353.144 30.982H366.5V28.982H353.144V30.982ZM366.5 30.982C367.147 30.982 367.348 31.1668 367.432 31.2927L369.096 30.1833C368.508 29.3012 367.533 28.982 366.5 28.982V30.982ZM367.496 31.3782C367.554 31.4483 367.701 31.6433 367.369 32.3068L369.158 33.2012C369.666 32.1847 369.814 31.0356 369.032 30.0978L367.496 31.3782ZM367.36 32.3256L344.302 80.9616L346.109 81.8184L369.167 33.1824L367.36 32.3256ZM344.206 81.39V108.354H346.206V81.39H344.206ZM344.206 108.354C344.206 109.082 344.025 109.444 343.837 109.631C343.65 109.819 343.288 110 342.56 110V112C343.596 112 344.557 111.74 345.251 111.046C345.946 110.351 346.206 109.39 346.206 108.354H344.206Z" fill="black"/>
</svg>
