<svg width="513" height="150" viewBox="0 0 513 150" fill="none" xmlns="http://www.w3.org/2000/svg">
<rect x="2.5" y="2.5" width="507.304" height="145" rx="32.5" fill="#C15847" stroke="black" stroke-width="5"/>
<path d="M45.9363 111H35.2263C33.4623 111 32.5803 110.118 32.5803 108.354V32.628C32.5803 30.864 33.4623 29.982 35.2263 29.982H75.4203C77.1003 29.982 77.9403 30.864 77.9403 32.628V41.196C77.9403 42.96 77.1003 43.842 75.4203 43.842H50.0943C49.0863 43.842 48.5823 44.304 48.5823 45.228V64.758C48.5823 65.766 49.0863 66.27 50.0943 66.27H71.6403C73.4043 66.27 74.2863 67.152 74.2863 68.916V77.358C74.2863 79.206 73.4043 80.13 71.6403 80.13H50.0943C49.0863 80.13 48.5823 80.592 48.5823 81.516V108.354C48.5823 110.118 47.7003 111 45.9363 111ZM105.937 32.628V108.354C105.937 110.118 105.055 111 103.291 111H92.5809C90.8169 111 89.9349 110.118 89.9349 108.354V32.628C89.9349 30.864 90.8169 29.982 92.5809 29.982H103.291C105.055 29.982 105.937 30.864 105.937 32.628ZM155.783 111H142.427C135.791 111 130.667 109.236 127.055 105.708C123.443 102.18 121.637 97.098 121.637 90.462V50.52C121.637 43.884 123.443 38.802 127.055 35.274C130.667 31.746 135.791 29.982 142.427 29.982H155.783C162.335 29.982 167.417 31.788 171.029 35.4C174.641 38.928 176.447 43.968 176.447 50.52V54.3C176.447 56.148 175.565 57.072 173.801 57.072H163.091C161.327 57.072 160.445 56.148 160.445 54.3V51.276C160.445 48.588 159.899 46.698 158.807 45.606C157.715 44.43 155.825 43.842 153.137 43.842H144.947C142.343 43.842 140.453 44.43 139.277 45.606C138.185 46.698 137.639 48.588 137.639 51.276V89.706C137.639 92.394 138.185 94.326 139.277 95.502C140.453 96.594 142.343 97.14 144.947 97.14H153.137C155.825 97.14 157.715 96.594 158.807 95.502C159.899 94.326 160.445 92.394 160.445 89.706V81.768C160.445 80.844 159.983 80.382 159.059 80.382H151.499C149.735 80.382 148.853 79.5 148.853 77.736V69.168C148.853 67.404 149.735 66.522 151.499 66.522H173.549C175.481 66.522 176.447 67.488 176.447 69.42V90.462C176.447 97.014 174.641 102.096 171.029 105.708C167.417 109.236 162.335 111 155.783 111ZM204.913 111H194.203C192.439 111 191.557 110.118 191.557 108.354V32.628C191.557 30.864 192.439 29.982 194.203 29.982H204.913C206.677 29.982 207.559 30.864 207.559 32.628V62.238C207.559 63.162 208.063 63.624 209.071 63.624H230.365C231.289 63.624 231.751 63.162 231.751 62.238V32.628C231.751 30.864 232.633 29.982 234.397 29.982H245.107C246.871 29.982 247.753 30.864 247.753 32.628V108.354C247.753 110.118 246.871 111 245.107 111H234.397C232.633 111 231.751 110.118 231.751 108.354V78.87C231.751 77.946 231.289 77.484 230.365 77.484H209.071C208.063 77.484 207.559 77.946 207.559 78.87V108.354C207.559 110.118 206.677 111 204.913 111ZM289.229 111H278.645C276.797 111 275.873 110.118 275.873 108.354V45.228C275.873 44.304 275.411 43.842 274.487 43.842H260.123C258.359 43.842 257.477 42.96 257.477 41.196V32.628C257.477 30.864 258.359 29.982 260.123 29.982H307.751C309.515 29.982 310.397 30.864 310.397 32.628V41.196C310.397 42.96 309.515 43.842 307.751 43.842H293.387C292.379 43.842 291.875 44.304 291.875 45.228V108.354C291.875 110.118 290.993 111 289.229 111ZM336.65 32.628V108.354C336.65 110.118 335.768 111 334.004 111H323.294C321.53 111 320.648 110.118 320.648 108.354V32.628C320.648 30.864 321.53 29.982 323.294 29.982H334.004C335.768 29.982 336.65 30.864 336.65 32.628ZM366.714 111H356.256C354.492 111 353.61 110.118 353.61 108.354V32.628C353.61 30.864 354.492 29.982 356.256 29.982H365.706C367.47 29.982 368.646 30.57 369.234 31.746L394.686 79.5H395.19V32.628C395.19 30.864 396.072 29.982 397.836 29.982H408.294C410.058 29.982 410.94 30.864 410.94 32.628V108.354C410.94 110.118 410.058 111 408.294 111H399.096C397.248 111 395.904 110.16 395.064 108.48L369.864 61.608H369.36V108.354C369.36 110.118 368.478 111 366.714 111ZM460.201 111H446.845C440.209 111 435.085 109.236 431.473 105.708C427.861 102.18 426.055 97.098 426.055 90.462V50.52C426.055 43.884 427.861 38.802 431.473 35.274C435.085 31.746 440.209 29.982 446.845 29.982H460.201C466.753 29.982 471.835 31.788 475.447 35.4C479.059 38.928 480.865 43.968 480.865 50.52V54.3C480.865 56.148 479.983 57.072 478.219 57.072H467.509C465.745 57.072 464.863 56.148 464.863 54.3V51.276C464.863 48.588 464.317 46.698 463.225 45.606C462.133 44.43 460.243 43.842 457.555 43.842H449.365C446.761 43.842 444.871 44.43 443.695 45.606C442.603 46.698 442.057 48.588 442.057 51.276V89.706C442.057 92.394 442.603 94.326 443.695 95.502C444.871 96.594 446.761 97.14 449.365 97.14H457.555C460.243 97.14 462.133 96.594 463.225 95.502C464.317 94.326 464.863 92.394 464.863 89.706V81.768C464.863 80.844 464.401 80.382 463.477 80.382H455.917C454.153 80.382 453.271 79.5 453.271 77.736V69.168C453.271 67.404 454.153 66.522 455.917 66.522H477.967C479.899 66.522 480.865 67.488 480.865 69.42V90.462C480.865 97.014 479.059 102.096 475.447 105.708C471.835 109.236 466.753 111 460.201 111Z" fill="white"/>
<path d="M45.9363 110H35.2263V112H45.9363V110ZM35.2263 110C34.4984 110 34.1362 109.819 33.9489 109.631C33.7616 109.444 33.5803 109.082 33.5803 108.354H31.5803C31.5803 109.39 31.84 110.351 32.5347 111.046C33.2294 111.74 34.1901 112 35.2263 112V110ZM33.5803 108.354V32.628H31.5803V108.354H33.5803ZM33.5803 32.628C33.5803 31.9001 33.7616 31.5379 33.9489 31.3506C34.1362 31.1633 34.4984 30.982 35.2263 30.982V28.982C34.1901 28.982 33.2294 29.2417 32.5347 29.9364C31.84 30.6311 31.5803 31.5919 31.5803 32.628H33.5803ZM35.2263 30.982H75.4203V28.982H35.2263V30.982ZM75.4203 30.982C76.0934 30.982 76.4177 31.1562 76.5862 31.3332C76.7633 31.5192 76.9403 31.8883 76.9403 32.628H78.9403C78.9403 31.6037 78.6972 30.6498 78.0344 29.9538C77.3629 29.2488 76.4272 28.982 75.4203 28.982V30.982ZM76.9403 32.628V41.196H78.9403V32.628H76.9403ZM76.9403 41.196C76.9403 41.9357 76.7633 42.3048 76.5862 42.4908C76.4177 42.6678 76.0934 42.842 75.4203 42.842V44.842C76.4272 44.842 77.3629 44.5752 78.0344 43.8701C78.6972 43.1742 78.9403 42.2203 78.9403 41.196H76.9403ZM75.4203 42.842H50.0943V44.842H75.4203V42.842ZM50.0943 42.842C49.4567 42.842 48.7919 42.9863 48.2846 43.4513C47.7607 43.9315 47.5823 44.5884 47.5823 45.228H49.5823C49.5823 45.0853 49.6021 45.0033 49.6166 44.9634C49.6235 44.9442 49.6293 44.9346 49.6316 44.9311C49.6337 44.9278 49.6349 44.9266 49.636 44.9256C49.6362 44.9255 49.6564 44.9059 49.725 44.885C49.7974 44.8628 49.9155 44.842 50.0943 44.842V42.842ZM47.5823 45.228V64.758H49.5823V45.228H47.5823ZM47.5823 64.758C47.5823 65.4161 47.7475 66.0934 48.2532 66.5991C48.7589 67.1048 49.4361 67.27 50.0943 67.27V65.27C49.9226 65.27 49.8132 65.2482 49.749 65.2268C49.6897 65.207 49.6712 65.1887 49.6674 65.1849C49.6636 65.1811 49.6452 65.1626 49.6255 65.1033C49.6041 65.0391 49.5823 64.9296 49.5823 64.758H47.5823ZM50.0943 67.27H71.6403V65.27H50.0943V67.27ZM71.6403 67.27C72.3681 67.27 72.7304 67.4513 72.9177 67.6386C73.105 67.8259 73.2863 68.1881 73.2863 68.916H75.2863C75.2863 67.8799 75.0266 66.9191 74.3319 66.2244C73.6372 65.5297 72.6764 65.27 71.6403 65.27V67.27ZM73.2863 68.916V77.358H75.2863V68.916H73.2863ZM73.2863 77.358C73.2863 78.1392 73.0991 78.5394 72.9014 78.7465C72.7121 78.9449 72.356 79.13 71.6403 79.13V81.13C72.6886 81.13 73.6555 80.8531 74.3481 80.1275C75.0325 79.4106 75.2863 78.4248 75.2863 77.358H73.2863ZM71.6403 79.13H50.0943V81.13H71.6403V79.13ZM50.0943 79.13C49.4567 79.13 48.7919 79.2743 48.2846 79.7393C47.7607 80.2195 47.5823 80.8764 47.5823 81.516H49.5823C49.5823 81.3733 49.6021 81.2913 49.6166 81.2514C49.6235 81.2322 49.6293 81.2226 49.6316 81.2191C49.6337 81.2158 49.6349 81.2146 49.636 81.2137C49.6362 81.2135 49.6564 81.194 49.725 81.173C49.7974 81.1508 49.9155 81.13 50.0943 81.13V79.13ZM47.5823 81.516V108.354H49.5823V81.516H47.5823ZM47.5823 108.354C47.5823 109.082 47.401 109.444 47.2137 109.631C47.0264 109.819 46.6641 110 45.9363 110V112C46.9724 112 47.9332 111.74 48.6279 111.046C49.3226 110.351 49.5823 109.39 49.5823 108.354H47.5823ZM104.937 32.628V108.354H106.937V32.628H104.937ZM104.937 108.354C104.937 109.082 104.756 109.444 104.568 109.631C104.381 109.819 104.019 110 103.291 110V112C104.327 112 105.288 111.74 105.983 111.046C106.677 110.351 106.937 109.39 106.937 108.354H104.937ZM103.291 110H92.5809V112H103.291V110ZM92.5809 110C91.853 110 91.4908 109.819 91.3035 109.631C91.1162 109.444 90.9349 109.082 90.9349 108.354H88.9349C88.9349 109.39 89.1946 110.351 89.8893 111.046C90.584 111.74 91.5448 112 92.5809 112V110ZM90.9349 108.354V32.628H88.9349V108.354H90.9349ZM90.9349 32.628C90.9349 31.9001 91.1162 31.5379 91.3035 31.3506C91.4908 31.1633 91.853 30.982 92.5809 30.982V28.982C91.5448 28.982 90.584 29.2417 89.8893 29.9364C89.1946 30.6311 88.9349 31.5919 88.9349 32.628H90.9349ZM92.5809 30.982H103.291V28.982H92.5809V30.982ZM103.291 30.982C104.019 30.982 104.381 31.1633 104.568 31.3506C104.756 31.5379 104.937 31.9001 104.937 32.628H106.937C106.937 31.5919 106.677 30.6311 105.983 29.9364C105.288 29.2417 104.327 28.982 103.291 28.982V30.982ZM127.055 105.708L127.753 104.993L127.753 104.993L127.055 105.708ZM127.055 35.274L127.753 35.9894L127.753 35.9894L127.055 35.274ZM171.029 35.4L170.322 36.1072L170.33 36.1154L171.029 35.4ZM158.807 45.606L158.074 46.2864L158.087 46.3L158.1 46.3131L158.807 45.606ZM139.277 45.606L138.57 44.8989L138.57 44.8989L139.277 45.606ZM139.277 95.502L138.544 96.1825L138.569 96.2096L138.596 96.2348L139.277 95.502ZM158.807 95.502L159.514 96.2091L159.527 96.196L159.539 96.1824L158.807 95.502ZM171.029 105.708L171.727 106.423L171.736 106.415L171.029 105.708ZM155.783 110H142.427V112H155.783V110ZM142.427 110C135.967 110 131.126 108.286 127.753 104.993L126.356 106.423C130.208 110.186 135.614 112 142.427 112V110ZM127.753 104.993C124.389 101.707 122.637 96.9169 122.637 90.462H120.637C120.637 97.2791 122.496 102.653 126.356 106.423L127.753 104.993ZM122.637 90.462V50.52H120.637V90.462H122.637ZM122.637 50.52C122.637 44.0651 124.389 39.2754 127.753 35.9894L126.356 34.5586C122.496 38.3286 120.637 43.7029 120.637 50.52H122.637ZM127.753 35.9894C131.126 32.6956 135.967 30.982 142.427 30.982V28.982C135.614 28.982 130.208 30.7964 126.356 34.5586L127.753 35.9894ZM142.427 30.982H155.783V28.982H142.427V30.982ZM155.783 30.982C162.148 30.982 166.946 32.7317 170.322 36.1071L171.736 34.6929C167.887 30.8443 162.521 28.982 155.783 28.982V30.982ZM170.33 36.1154C173.697 39.4037 175.447 44.1534 175.447 50.52H177.447C177.447 43.7826 175.585 38.4523 171.727 34.6846L170.33 36.1154ZM175.447 50.52V54.3H177.447V50.52H175.447ZM175.447 54.3C175.447 55.0812 175.26 55.4814 175.062 55.6885C174.872 55.8869 174.516 56.072 173.801 56.072V58.072C174.849 58.072 175.816 57.7951 176.509 57.0695C177.193 56.3526 177.447 55.3668 177.447 54.3H175.447ZM173.801 56.072H163.091V58.072H173.801V56.072ZM163.091 56.072C162.375 56.072 162.019 55.8869 161.83 55.6885C161.632 55.4814 161.445 55.0812 161.445 54.3H159.445C159.445 55.3668 159.699 56.3526 160.383 57.0695C161.075 57.7951 162.042 58.072 163.091 58.072V56.072ZM161.445 54.3V51.276H159.445V54.3H161.445ZM161.445 51.276C161.445 48.5049 160.892 46.2767 159.514 44.8989L158.1 46.3131C158.906 47.1193 159.445 48.6711 159.445 51.276H161.445ZM159.539 44.9255C158.164 43.4439 155.924 42.842 153.137 42.842V44.842C155.726 44.842 157.266 45.4161 158.074 46.2864L159.539 44.9255ZM153.137 42.842H144.947V44.842H153.137V42.842ZM144.947 42.842C142.223 42.842 140.016 43.4527 138.57 44.8989L139.984 46.3131C140.89 45.4072 142.462 44.842 144.947 44.842V42.842ZM138.57 44.8989C137.192 46.2766 136.639 48.5049 136.639 51.276H138.639C138.639 48.6711 139.178 47.1193 139.984 46.3131L138.57 44.8989ZM136.639 51.276V89.706H138.639V51.276H136.639ZM136.639 89.706C136.639 92.4874 137.196 94.731 138.544 96.1825L140.009 94.8215C139.173 93.921 138.639 92.3006 138.639 89.706H136.639ZM138.596 96.2348C140.043 97.5783 142.239 98.14 144.947 98.14V96.14C142.446 96.14 140.862 95.6097 139.957 94.7692L138.596 96.2348ZM144.947 98.14H153.137V96.14H144.947V98.14ZM153.137 98.14C155.908 98.14 158.136 97.5869 159.514 96.2091L158.1 94.7949C157.293 95.6011 155.742 96.14 153.137 96.14V98.14ZM159.539 96.1824C160.887 94.731 161.445 92.4874 161.445 89.706H159.445C159.445 92.3006 158.91 93.921 158.074 94.8215L159.539 96.1824ZM161.445 89.706V81.768H159.445V89.706H161.445ZM161.445 81.768C161.445 81.1519 161.29 80.5061 160.805 80.0214C160.321 79.5367 159.675 79.382 159.059 79.382V81.382C159.367 81.382 159.414 81.4583 159.391 81.4356C159.368 81.4129 159.445 81.4601 159.445 81.768H161.445ZM159.059 79.382H151.499V81.382H159.059V79.382ZM151.499 79.382C150.771 79.382 150.409 79.2007 150.221 79.0134C150.034 78.8261 149.853 78.4639 149.853 77.736H147.853C147.853 78.7721 148.112 79.7329 148.807 80.4276C149.502 81.1223 150.463 81.382 151.499 81.382V79.382ZM149.853 77.736V69.168H147.853V77.736H149.853ZM149.853 69.168C149.853 68.4401 150.034 68.0779 150.221 67.8906C150.409 67.7033 150.771 67.522 151.499 67.522V65.522C150.463 65.522 149.502 65.7817 148.807 66.4764C148.112 67.1711 147.853 68.1319 147.853 69.168H149.853ZM151.499 67.522H173.549V65.522H151.499V67.522ZM173.549 67.522C174.361 67.522 174.786 67.7243 175.015 67.9536C175.244 68.1829 175.447 68.6081 175.447 69.42H177.447C177.447 68.2999 177.166 67.2761 176.429 66.5394C175.693 65.8027 174.669 65.522 173.549 65.522V67.522ZM175.447 69.42V90.462H177.447V69.42H175.447ZM175.447 90.462C175.447 96.8273 173.697 101.625 170.322 105.001L171.736 106.415C175.584 102.567 177.447 97.2007 177.447 90.462H175.447ZM170.33 104.993C166.956 108.289 162.154 110 155.783 110V112C162.515 112 167.878 110.183 171.727 106.423L170.33 104.993ZM204.913 110H194.203V112H204.913V110ZM194.203 110C193.475 110 193.113 109.819 192.925 109.631C192.738 109.444 192.557 109.082 192.557 108.354H190.557C190.557 109.39 190.817 110.351 191.511 111.046C192.206 111.74 193.167 112 194.203 112V110ZM192.557 108.354V32.628H190.557V108.354H192.557ZM192.557 32.628C192.557 31.9001 192.738 31.5379 192.925 31.3506C193.113 31.1633 193.475 30.982 194.203 30.982V28.982C193.167 28.982 192.206 29.2417 191.511 29.9364C190.817 30.6311 190.557 31.5919 190.557 32.628H192.557ZM194.203 30.982H204.913V28.982H194.203V30.982ZM204.913 30.982C205.641 30.982 206.003 31.1633 206.19 31.3506C206.378 31.5379 206.559 31.9001 206.559 32.628H208.559C208.559 31.5919 208.299 30.6311 207.604 29.9364C206.91 29.2417 205.949 28.982 204.913 28.982V30.982ZM206.559 32.628V62.238H208.559V32.628H206.559ZM206.559 62.238C206.559 62.8776 206.737 63.5345 207.261 64.0147C207.768 64.4797 208.433 64.624 209.071 64.624V62.624C208.892 62.624 208.774 62.6031 208.702 62.581C208.633 62.56 208.613 62.5405 208.613 62.5403C208.611 62.5394 208.61 62.5382 208.608 62.5349C208.606 62.5314 208.6 62.5218 208.593 62.5026C208.579 62.4627 208.559 62.3807 208.559 62.238H206.559ZM209.071 64.624H230.365V62.624H209.071V64.624ZM230.365 64.624C230.981 64.624 231.627 64.4693 232.111 63.9846C232.596 63.4999 232.751 62.8541 232.751 62.238H230.751C230.751 62.5459 230.675 62.5931 230.697 62.5704C230.72 62.5477 230.673 62.624 230.365 62.624V64.624ZM232.751 62.238V32.628H230.751V62.238H232.751ZM232.751 32.628C232.751 31.9001 232.932 31.5379 233.119 31.3506C233.307 31.1633 233.669 30.982 234.397 30.982V28.982C233.361 28.982 232.4 29.2417 231.705 29.9364C231.011 30.6311 230.751 31.5919 230.751 32.628H232.751ZM234.397 30.982H245.107V28.982H234.397V30.982ZM245.107 30.982C245.835 30.982 246.197 31.1633 246.384 31.3506C246.572 31.5379 246.753 31.9001 246.753 32.628H248.753C248.753 31.5919 248.493 30.6311 247.798 29.9364C247.104 29.2417 246.143 28.982 245.107 28.982V30.982ZM246.753 32.628V108.354H248.753V32.628H246.753ZM246.753 108.354C246.753 109.082 246.572 109.444 246.384 109.631C246.197 109.819 245.835 110 245.107 110V112C246.143 112 247.104 111.74 247.798 111.046C248.493 110.351 248.753 109.39 248.753 108.354H246.753ZM245.107 110H234.397V112H245.107V110ZM234.397 110C233.669 110 233.307 109.819 233.119 109.631C232.932 109.444 232.751 109.082 232.751 108.354H230.751C230.751 109.39 231.011 110.351 231.705 111.046C232.4 111.74 233.361 112 234.397 112V110ZM232.751 108.354V78.87H230.751V108.354H232.751ZM232.751 78.87C232.751 78.2539 232.596 77.6081 232.111 77.1234C231.627 76.6387 230.981 76.484 230.365 76.484V78.484C230.673 78.484 230.72 78.5603 230.697 78.5376C230.675 78.5149 230.751 78.5621 230.751 78.87H232.751ZM230.365 76.484H209.071V78.484H230.365V76.484ZM209.071 76.484C208.433 76.484 207.768 76.6283 207.261 77.0933C206.737 77.5735 206.559 78.2304 206.559 78.87H208.559C208.559 78.7273 208.579 78.6453 208.593 78.6054C208.6 78.5862 208.606 78.5766 208.608 78.5731C208.61 78.5698 208.611 78.5686 208.613 78.5677C208.613 78.5675 208.633 78.548 208.702 78.527C208.774 78.5048 208.892 78.484 209.071 78.484V76.484ZM206.559 78.87V108.354H208.559V78.87H206.559ZM206.559 108.354C206.559 109.082 206.378 109.444 206.19 109.631C206.003 109.819 205.641 110 204.913 110V112C205.949 112 206.91 111.74 207.604 111.046C208.299 110.351 208.559 109.39 208.559 108.354H206.559ZM289.229 110H278.645V112H289.229V110ZM278.645 110C277.863 110 277.463 109.813 277.256 109.615C277.058 109.426 276.873 109.07 276.873 108.354H274.873C274.873 109.402 275.149 110.369 275.875 111.062C276.592 111.746 277.578 112 278.645 112V110ZM276.873 108.354V45.228H274.873V108.354H276.873ZM276.873 45.228C276.873 44.6119 276.718 43.9661 276.233 43.4814C275.748 42.9967 275.103 42.842 274.487 42.842V44.842C274.794 44.842 274.842 44.9183 274.819 44.8956C274.796 44.8729 274.873 44.9201 274.873 45.228H276.873ZM274.487 42.842H260.123V44.842H274.487V42.842ZM260.123 42.842C259.395 42.842 259.032 42.6607 258.845 42.4734C258.658 42.2861 258.477 41.9239 258.477 41.196H256.477C256.477 42.2321 256.736 43.1929 257.431 43.8876C258.126 44.5823 259.086 44.842 260.123 44.842V42.842ZM258.477 41.196V32.628H256.477V41.196H258.477ZM258.477 32.628C258.477 31.9001 258.658 31.5379 258.845 31.3506C259.032 31.1633 259.395 30.982 260.123 30.982V28.982C259.086 28.982 258.126 29.2417 257.431 29.9364C256.736 30.6311 256.477 31.5919 256.477 32.628H258.477ZM260.123 30.982H307.751V28.982H260.123V30.982ZM307.751 30.982C308.478 30.982 308.841 31.1633 309.028 31.3506C309.215 31.5379 309.397 31.9001 309.397 32.628H311.397C311.397 31.5919 311.137 30.6311 310.442 29.9364C309.747 29.2417 308.787 28.982 307.751 28.982V30.982ZM309.397 32.628V41.196H311.397V32.628H309.397ZM309.397 41.196C309.397 41.9239 309.215 42.2861 309.028 42.4734C308.841 42.6607 308.478 42.842 307.751 42.842V44.842C308.787 44.842 309.747 44.5823 310.442 43.8876C311.137 43.1929 311.397 42.2321 311.397 41.196H309.397ZM307.751 42.842H293.387V44.842H307.751V42.842ZM293.387 42.842C292.749 42.842 292.084 42.9863 291.577 43.4513C291.053 43.9315 290.875 44.5884 290.875 45.228H292.875C292.875 45.0853 292.894 45.0033 292.909 44.9634C292.916 44.9442 292.922 44.9346 292.924 44.9311C292.926 44.9278 292.927 44.9266 292.928 44.9256C292.928 44.9255 292.949 44.9059 293.017 44.885C293.09 44.8628 293.208 44.842 293.387 44.842V42.842ZM290.875 45.228V108.354H292.875V45.228H290.875ZM290.875 108.354C290.875 109.082 290.693 109.444 290.506 109.631C290.319 109.819 289.956 110 289.229 110V112C290.265 112 291.225 111.74 291.92 111.046C292.615 110.351 292.875 109.39 292.875 108.354H290.875ZM335.65 32.628V108.354H337.65V32.628H335.65ZM335.65 108.354C335.65 109.082 335.469 109.444 335.281 109.631C335.094 109.819 334.732 110 334.004 110V112C335.04 112 336.001 111.74 336.695 111.046C337.39 110.351 337.65 109.39 337.65 108.354H335.65ZM334.004 110H323.294V112H334.004V110ZM323.294 110C322.566 110 322.204 109.819 322.016 109.631C321.829 109.444 321.648 109.082 321.648 108.354H319.648C319.648 109.39 319.908 110.351 320.602 111.046C321.297 111.74 322.258 112 323.294 112V110ZM321.648 108.354V32.628H319.648V108.354H321.648ZM321.648 32.628C321.648 31.9001 321.829 31.5379 322.016 31.3506C322.204 31.1633 322.566 30.982 323.294 30.982V28.982C322.258 28.982 321.297 29.2417 320.602 29.9364C319.908 30.6311 319.648 31.5919 319.648 32.628H321.648ZM323.294 30.982H334.004V28.982H323.294V30.982ZM334.004 30.982C334.732 30.982 335.094 31.1633 335.281 31.3506C335.469 31.5379 335.65 31.9001 335.65 32.628H337.65C337.65 31.5919 337.39 30.6311 336.695 29.9364C336.001 29.2417 335.04 28.982 334.004 28.982V30.982ZM369.234 31.746L368.339 32.1932L368.345 32.2049L368.351 32.2163L369.234 31.746ZM394.686 79.5L393.803 79.9703L394.085 80.5H394.686V79.5ZM395.19 79.5V80.5H396.19V79.5H395.19ZM395.064 108.48L395.958 108.033L395.951 108.02L395.944 108.006L395.064 108.48ZM369.864 61.608L370.744 61.1345L370.461 60.608H369.864V61.608ZM369.36 61.608V60.608H368.36V61.608H369.36ZM366.714 110H356.256V112H366.714V110ZM356.256 110C355.528 110 355.166 109.819 354.978 109.631C354.791 109.444 354.61 109.082 354.61 108.354H352.61C352.61 109.39 352.869 110.351 353.564 111.046C354.259 111.74 355.219 112 356.256 112V110ZM354.61 108.354V32.628H352.61V108.354H354.61ZM354.61 32.628C354.61 31.9001 354.791 31.5379 354.978 31.3506C355.166 31.1633 355.528 30.982 356.256 30.982V28.982C355.219 28.982 354.259 29.2417 353.564 29.9364C352.869 30.6311 352.61 31.5919 352.61 32.628H354.61ZM356.256 30.982H365.706V28.982H356.256V30.982ZM365.706 30.982C367.242 30.982 367.979 31.4727 368.339 32.1932L370.128 31.2988C369.312 29.6673 367.697 28.982 365.706 28.982V30.982ZM368.351 32.2163L393.803 79.9703L395.568 79.0297L370.116 31.2757L368.351 32.2163ZM394.686 80.5H395.19V78.5H394.686V80.5ZM396.19 79.5V32.628H394.19V79.5H396.19ZM396.19 32.628C396.19 31.9001 396.371 31.5379 396.558 31.3506C396.746 31.1633 397.108 30.982 397.836 30.982V28.982C396.799 28.982 395.839 29.2417 395.144 29.9364C394.449 30.6311 394.19 31.5919 394.19 32.628H396.19ZM397.836 30.982H408.294V28.982H397.836V30.982ZM408.294 30.982C409.021 30.982 409.384 31.1633 409.571 31.3506C409.758 31.5379 409.94 31.9001 409.94 32.628H411.94C411.94 31.5919 411.68 30.6311 410.985 29.9364C410.291 29.2417 409.33 28.982 408.294 28.982V30.982ZM409.94 32.628V108.354H411.94V32.628H409.94ZM409.94 108.354C409.94 109.082 409.758 109.444 409.571 109.631C409.384 109.819 409.021 110 408.294 110V112C409.33 112 410.291 111.74 410.985 111.046C411.68 110.351 411.94 109.39 411.94 108.354H409.94ZM408.294 110H399.096V112H408.294V110ZM399.096 110C398.327 110 397.72 109.827 397.232 109.522C396.742 109.216 396.311 108.739 395.958 108.033L394.169 108.927C394.656 109.901 395.317 110.684 396.172 111.218C397.027 111.753 398.016 112 399.096 112V110ZM395.944 108.006L370.744 61.1345L368.983 62.0815L394.183 108.954L395.944 108.006ZM369.864 60.608H369.36V62.608H369.864V60.608ZM368.36 61.608V108.354H370.36V61.608H368.36ZM368.36 108.354C368.36 109.082 368.178 109.444 367.991 109.631C367.804 109.819 367.441 110 366.714 110V112C367.75 112 368.711 111.74 369.405 111.046C370.1 110.351 370.36 109.39 370.36 108.354H368.36ZM431.473 105.708L432.171 104.993L432.171 104.993L431.473 105.708ZM431.473 35.274L432.171 35.9894L432.171 35.9894L431.473 35.274ZM475.447 35.4L474.74 36.1072L474.748 36.1154L475.447 35.4ZM463.225 45.606L462.492 46.2864L462.504 46.3L462.518 46.3131L463.225 45.606ZM443.695 45.606L442.988 44.8989L442.988 44.8989L443.695 45.606ZM443.695 95.502L442.962 96.1825L442.987 96.2096L443.014 96.2348L443.695 95.502ZM463.225 95.502L463.932 96.2091L463.945 96.196L463.957 96.1824L463.225 95.502ZM475.447 105.708L476.145 106.423L476.154 106.415L475.447 105.708ZM460.201 110H446.845V112H460.201V110ZM446.845 110C440.385 110 435.544 108.286 432.171 104.993L430.774 106.423C434.626 110.186 440.032 112 446.845 112V110ZM432.171 104.993C428.807 101.707 427.055 96.9169 427.055 90.462H425.055C425.055 97.2791 426.914 102.653 430.774 106.423L432.171 104.993ZM427.055 90.462V50.52H425.055V90.462H427.055ZM427.055 50.52C427.055 44.0651 428.807 39.2754 432.171 35.9894L430.774 34.5586C426.914 38.3286 425.055 43.7029 425.055 50.52H427.055ZM432.171 35.9894C435.544 32.6956 440.385 30.982 446.845 30.982V28.982C440.032 28.982 434.626 30.7964 430.774 34.5586L432.171 35.9894ZM446.845 30.982H460.201V28.982H446.845V30.982ZM460.201 30.982C466.566 30.982 471.364 32.7317 474.74 36.1071L476.154 34.6929C472.305 30.8443 466.939 28.982 460.201 28.982V30.982ZM474.748 36.1154C478.115 39.4037 479.865 44.1534 479.865 50.52H481.865C481.865 43.7826 480.003 38.4523 476.145 34.6846L474.748 36.1154ZM479.865 50.52V54.3H481.865V50.52H479.865ZM479.865 54.3C479.865 55.0812 479.677 55.4814 479.48 55.6885C479.29 55.8869 478.934 56.072 478.219 56.072V58.072C479.267 58.072 480.234 57.7951 480.927 57.0695C481.611 56.3526 481.865 55.3668 481.865 54.3H479.865ZM478.219 56.072H467.509V58.072H478.219V56.072ZM467.509 56.072C466.793 56.072 466.437 55.8869 466.248 55.6885C466.05 55.4814 465.863 55.0812 465.863 54.3H463.863C463.863 55.3668 464.116 56.3526 464.801 57.0695C465.493 57.7951 466.46 58.072 467.509 58.072V56.072ZM465.863 54.3V51.276H463.863V54.3H465.863ZM465.863 51.276C465.863 48.5049 465.31 46.2767 463.932 44.8989L462.518 46.3131C463.324 47.1193 463.863 48.6711 463.863 51.276H465.863ZM463.957 44.9255C462.582 43.4439 460.342 42.842 457.555 42.842V44.842C460.144 44.842 461.684 45.4161 462.492 46.2864L463.957 44.9255ZM457.555 42.842H449.365V44.842H457.555V42.842ZM449.365 42.842C446.641 42.842 444.434 43.4527 442.988 44.8989L444.402 46.3131C445.308 45.4072 446.88 44.842 449.365 44.842V42.842ZM442.988 44.8989C441.61 46.2766 441.057 48.5049 441.057 51.276H443.057C443.057 48.6711 443.596 47.1193 444.402 46.3131L442.988 44.8989ZM441.057 51.276V89.706H443.057V51.276H441.057ZM441.057 89.706C441.057 92.4874 441.614 94.731 442.962 96.1825L444.427 94.8215C443.591 93.921 443.057 92.3006 443.057 89.706H441.057ZM443.014 96.2348C444.461 97.5783 446.657 98.14 449.365 98.14V96.14C446.864 96.14 445.28 95.6097 444.375 94.7692L443.014 96.2348ZM449.365 98.14H457.555V96.14H449.365V98.14ZM457.555 98.14C460.326 98.14 462.554 97.5869 463.932 96.2091L462.518 94.7949C461.711 95.6011 460.16 96.14 457.555 96.14V98.14ZM463.957 96.1824C465.305 94.731 465.863 92.4874 465.863 89.706H463.863C463.863 92.3006 463.328 93.921 462.492 94.8215L463.957 96.1824ZM465.863 89.706V81.768H463.863V89.706H465.863ZM465.863 81.768C465.863 81.1519 465.708 80.5061 465.223 80.0214C464.739 79.5367 464.093 79.382 463.477 79.382V81.382C463.785 81.382 463.832 81.4583 463.809 81.4356C463.786 81.4129 463.863 81.4601 463.863 81.768H465.863ZM463.477 79.382H455.917V81.382H463.477V79.382ZM455.917 79.382C455.189 79.382 454.827 79.2007 454.639 79.0134C454.452 78.8261 454.271 78.4639 454.271 77.736H452.271C452.271 78.7721 452.53 79.7329 453.225 80.4276C453.92 81.1223 454.881 81.382 455.917 81.382V79.382ZM454.271 77.736V69.168H452.271V77.736H454.271ZM454.271 69.168C454.271 68.4401 454.452 68.0779 454.639 67.8906C454.827 67.7033 455.189 67.522 455.917 67.522V65.522C454.881 65.522 453.92 65.7817 453.225 66.4764C452.53 67.1711 452.271 68.1319 452.271 69.168H454.271ZM455.917 67.522H477.967V65.522H455.917V67.522ZM477.967 67.522C478.779 67.522 479.204 67.7243 479.433 67.9536C479.662 68.1829 479.865 68.6081 479.865 69.42H481.865C481.865 68.2999 481.584 67.2761 480.847 66.5394C480.111 65.8027 479.087 65.522 477.967 65.522V67.522ZM479.865 69.42V90.462H481.865V69.42H479.865ZM479.865 90.462C479.865 96.8273 478.115 101.625 474.74 105.001L476.154 106.415C480.002 102.567 481.865 97.2007 481.865 90.462H479.865ZM474.748 104.993C471.374 108.289 466.572 110 460.201 110V112C466.933 112 472.296 110.183 476.145 106.423L474.748 104.993Z" fill="black"/>
</svg>
