<svg width="444" height="150" viewBox="0 0 444 150" fill="none" xmlns="http://www.w3.org/2000/svg">
<rect x="2.5" y="2.5" width="439" height="145" rx="32.5" fill="#FE4422" stroke="black" stroke-width="5"/>
<path d="M133.788 111H123.078C121.314 111 120.432 110.118 120.432 108.354V32.628C120.432 30.864 121.314 29.982 123.078 29.982H163.272C164.952 29.982 165.792 30.864 165.792 32.628V41.196C165.792 42.96 164.952 43.842 163.272 43.842H137.946C136.938 43.842 136.434 44.304 136.434 45.228V64.758C136.434 65.766 136.938 66.27 137.946 66.27H159.492C161.256 66.27 162.138 67.152 162.138 68.916V77.358C162.138 79.206 161.256 80.13 159.492 80.13H137.946C136.938 80.13 136.434 80.592 136.434 81.516V108.354C136.434 110.118 135.552 111 133.788 111ZM193.789 32.628V108.354C193.789 110.118 192.907 111 191.143 111H180.433C178.669 111 177.787 110.118 177.787 108.354V32.628C177.787 30.864 178.669 29.982 180.433 29.982H191.143C192.907 29.982 193.789 30.864 193.789 32.628ZM224.105 111H213.395C211.631 111 210.749 110.118 210.749 108.354V32.628C210.749 30.864 211.631 29.982 213.395 29.982H243.383C249.935 29.982 255.059 31.788 258.755 35.4C262.451 39.012 264.299 44.094 264.299 50.646V60.474C264.299 69.966 260.561 76.266 253.085 79.374V79.878L266.567 107.976C267.323 109.992 266.609 111 264.425 111H254.219C252.707 111 251.615 110.832 250.943 110.496C250.271 110.16 249.725 109.446 249.305 108.354L236.705 81.138H228.263C227.255 81.138 226.751 81.6 226.751 82.524V108.354C226.751 110.118 225.869 111 224.105 111ZM228.137 68.286H240.485C243.173 68.286 245.147 67.74 246.407 66.648C247.667 65.472 248.297 63.624 248.297 61.104V51.276C248.297 48.672 247.667 46.782 246.407 45.606C245.147 44.43 243.173 43.842 240.485 43.842H228.137C227.213 43.842 226.751 44.304 226.751 45.228V66.9C226.751 67.824 227.213 68.286 228.137 68.286ZM323.503 111H282.301C280.537 111 279.655 110.118 279.655 108.354V32.628C279.655 30.864 280.537 29.982 282.301 29.982H323.503C325.183 29.982 326.023 30.864 326.023 32.628V41.196C326.023 42.96 325.183 43.842 323.503 43.842H297.169C296.161 43.842 295.657 44.304 295.657 45.228V61.608C295.657 62.532 296.161 62.994 297.169 62.994H318.715C320.479 62.994 321.361 63.876 321.361 65.64V74.208C321.361 75.972 320.479 76.854 318.715 76.854H297.169C296.161 76.854 295.657 77.316 295.657 78.24V95.754C295.657 96.678 296.161 97.14 297.169 97.14H323.503C325.183 97.14 326.023 98.022 326.023 99.786V108.354C326.023 110.118 325.183 111 323.503 111Z" fill="white"/>
<path d="M133.788 110H123.078V112H133.788V110ZM123.078 110C122.35 110 121.988 109.819 121.801 109.631C121.613 109.444 121.432 109.082 121.432 108.354H119.432C119.432 109.39 119.692 110.351 120.387 111.046C121.081 111.74 122.042 112 123.078 112V110ZM121.432 108.354V32.628H119.432V108.354H121.432ZM121.432 32.628C121.432 31.9001 121.613 31.5379 121.801 31.3506C121.988 31.1633 122.35 30.982 123.078 30.982V28.982C122.042 28.982 121.081 29.2417 120.387 29.9364C119.692 30.6311 119.432 31.5919 119.432 32.628H121.432ZM123.078 30.982H163.272V28.982H123.078V30.982ZM163.272 30.982C163.945 30.982 164.27 31.1562 164.438 31.3332C164.615 31.5192 164.792 31.8883 164.792 32.628H166.792C166.792 31.6037 166.549 30.6498 165.886 29.9538C165.215 29.2488 164.279 28.982 163.272 28.982V30.982ZM164.792 32.628V41.196H166.792V32.628H164.792ZM164.792 41.196C164.792 41.9357 164.615 42.3048 164.438 42.4908C164.27 42.6678 163.945 42.842 163.272 42.842V44.842C164.279 44.842 165.215 44.5752 165.886 43.8701C166.549 43.1742 166.792 42.2203 166.792 41.196H164.792ZM163.272 42.842H137.946V44.842H163.272V42.842ZM137.946 42.842C137.309 42.842 136.644 42.9863 136.136 43.4513C135.613 43.9315 135.434 44.5884 135.434 45.228H137.434C137.434 45.0853 137.454 45.0033 137.468 44.9634C137.475 44.9442 137.481 44.9346 137.484 44.9311C137.486 44.9278 137.487 44.9266 137.488 44.9256C137.488 44.9255 137.508 44.9059 137.577 44.885C137.649 44.8628 137.767 44.842 137.946 44.842V42.842ZM135.434 45.228V64.758H137.434V45.228H135.434ZM135.434 64.758C135.434 65.4161 135.599 66.0934 136.105 66.5991C136.611 67.1048 137.288 67.27 137.946 67.27V65.27C137.775 65.27 137.665 65.2482 137.601 65.2268C137.542 65.207 137.523 65.1887 137.519 65.1849C137.515 65.1811 137.497 65.1626 137.477 65.1033C137.456 65.0391 137.434 64.9296 137.434 64.758H135.434ZM137.946 67.27H159.492V65.27H137.946V67.27ZM159.492 67.27C160.22 67.27 160.582 67.4513 160.77 67.6386C160.957 67.8259 161.138 68.1881 161.138 68.916H163.138C163.138 67.8799 162.878 66.9191 162.184 66.2244C161.489 65.5297 160.528 65.27 159.492 65.27V67.27ZM161.138 68.916V77.358H163.138V68.916H161.138ZM161.138 77.358C161.138 78.1392 160.951 78.5394 160.753 78.7465C160.564 78.9449 160.208 79.13 159.492 79.13V81.13C160.54 81.13 161.507 80.8531 162.2 80.1275C162.884 79.4106 163.138 78.4248 163.138 77.358H161.138ZM159.492 79.13H137.946V81.13H159.492V79.13ZM137.946 79.13C137.309 79.13 136.644 79.2743 136.136 79.7393C135.613 80.2195 135.434 80.8764 135.434 81.516H137.434C137.434 81.3733 137.454 81.2913 137.468 81.2514C137.475 81.2322 137.481 81.2226 137.484 81.2191C137.486 81.2158 137.487 81.2146 137.488 81.2137C137.488 81.2135 137.508 81.194 137.577 81.173C137.649 81.1508 137.767 81.13 137.946 81.13V79.13ZM135.434 81.516V108.354H137.434V81.516H135.434ZM135.434 108.354C135.434 109.082 135.253 109.444 135.066 109.631C134.878 109.819 134.516 110 133.788 110V112C134.824 112 135.785 111.74 136.48 111.046C137.174 110.351 137.434 109.39 137.434 108.354H135.434ZM192.789 32.628V108.354H194.789V32.628H192.789ZM192.789 108.354C192.789 109.082 192.608 109.444 192.42 109.631C192.233 109.819 191.871 110 191.143 110V112C192.179 112 193.14 111.74 193.834 111.046C194.529 110.351 194.789 109.39 194.789 108.354H192.789ZM191.143 110H180.433V112H191.143V110ZM180.433 110C179.705 110 179.343 109.819 179.155 109.631C178.968 109.444 178.787 109.082 178.787 108.354H176.787C176.787 109.39 177.047 110.351 177.741 111.046C178.436 111.74 179.397 112 180.433 112V110ZM178.787 108.354V32.628H176.787V108.354H178.787ZM178.787 32.628C178.787 31.9001 178.968 31.5379 179.155 31.3506C179.343 31.1633 179.705 30.982 180.433 30.982V28.982C179.397 28.982 178.436 29.2417 177.741 29.9364C177.047 30.6311 176.787 31.5919 176.787 32.628H178.787ZM180.433 30.982H191.143V28.982H180.433V30.982ZM191.143 30.982C191.871 30.982 192.233 31.1633 192.42 31.3506C192.608 31.5379 192.789 31.9001 192.789 32.628H194.789C194.789 31.5919 194.529 30.6311 193.834 29.9364C193.14 29.2417 192.179 28.982 191.143 28.982V30.982ZM253.085 79.374L252.701 78.4506L252.085 78.7068V79.374H253.085ZM253.085 79.878H252.085V80.1055L252.183 80.3106L253.085 79.878ZM266.567 107.976L267.503 107.625L267.487 107.583L267.468 107.543L266.567 107.976ZM250.943 110.496L250.495 111.39L250.495 111.39L250.943 110.496ZM249.305 108.354L250.238 107.995L250.226 107.964L250.212 107.934L249.305 108.354ZM236.705 81.138L237.612 80.7179L237.344 80.138H236.705V81.138ZM246.407 66.648L247.062 67.4037L247.075 67.3916L247.089 67.3791L246.407 66.648ZM246.407 45.606L247.089 44.8749L247.089 44.8749L246.407 45.606ZM224.105 110H213.395V112H224.105V110ZM213.395 110C212.667 110 212.305 109.819 212.117 109.631C211.93 109.444 211.749 109.082 211.749 108.354H209.749C209.749 109.39 210.008 110.351 210.703 111.046C211.398 111.74 212.358 112 213.395 112V110ZM211.749 108.354V32.628H209.749V108.354H211.749ZM211.749 32.628C211.749 31.9001 211.93 31.5379 212.117 31.3506C212.305 31.1633 212.667 30.982 213.395 30.982V28.982C212.358 28.982 211.398 29.2417 210.703 29.9364C210.008 30.6311 209.749 31.5919 209.749 32.628H211.749ZM213.395 30.982H243.383V28.982H213.395V30.982ZM243.383 30.982C249.747 30.982 254.593 32.7313 258.056 36.1152L259.454 34.6848C255.524 30.8447 250.123 28.982 243.383 28.982V30.982ZM258.056 36.1152C261.511 39.4918 263.299 44.2871 263.299 50.646H265.299C265.299 43.9009 263.39 38.5322 259.454 34.6848L258.056 36.1152ZM263.299 50.646V60.474H265.299V50.646H263.299ZM263.299 60.474C263.299 65.0924 262.389 68.8515 260.635 71.8077C258.888 74.7527 256.262 76.9702 252.701 78.4506L253.468 80.2974C257.384 78.6698 260.364 76.1833 262.355 72.8283C264.339 69.4845 265.299 65.3476 265.299 60.474H263.299ZM252.085 79.374V79.878H254.085V79.374H252.085ZM252.183 80.3106L265.665 108.409L267.468 107.543L253.986 79.4454L252.183 80.3106ZM265.63 108.327C265.977 109.253 265.84 109.584 265.782 109.666C265.719 109.755 265.435 110 264.425 110V112C265.598 112 266.763 111.741 267.414 110.822C268.07 109.896 267.912 108.715 267.503 107.625L265.63 108.327ZM264.425 110H254.219V112H264.425V110ZM254.219 110C252.735 110 251.842 109.828 251.39 109.602L250.495 111.39C251.387 111.836 252.678 112 254.219 112V110ZM251.39 109.602C251.037 109.425 250.616 108.979 250.238 107.995L248.371 108.713C248.833 109.913 249.504 110.895 250.495 111.39L251.39 109.602ZM250.212 107.934L237.612 80.7179L235.797 81.5581L248.397 108.774L250.212 107.934ZM236.705 80.138H228.263V82.138H236.705V80.138ZM228.263 80.138C227.625 80.138 226.96 80.2823 226.453 80.7473C225.929 81.2275 225.751 81.8844 225.751 82.524H227.751C227.751 82.3813 227.77 82.2993 227.785 82.2594C227.792 82.2402 227.798 82.2306 227.8 82.2271C227.802 82.2238 227.803 82.2226 227.804 82.2217C227.804 82.2215 227.825 82.2019 227.893 82.181C227.966 82.1588 228.084 82.138 228.263 82.138V80.138ZM225.751 82.524V108.354H227.751V82.524H225.751ZM225.751 108.354C225.751 109.082 225.569 109.444 225.382 109.631C225.195 109.819 224.832 110 224.105 110V112C225.141 112 226.102 111.74 226.796 111.046C227.491 110.351 227.751 109.39 227.751 108.354H225.751ZM228.137 69.286H240.485V67.286H228.137V69.286ZM240.485 69.286C243.275 69.286 245.537 68.7249 247.062 67.4037L245.752 65.8923C244.756 66.7551 243.07 67.286 240.485 67.286V69.286ZM247.089 67.3791C248.63 65.9408 249.297 63.7719 249.297 61.104H247.297C247.297 63.4761 246.703 65.0031 245.724 65.9169L247.089 67.3791ZM249.297 61.104V51.276H247.297V61.104H249.297ZM249.297 51.276C249.297 48.5358 248.636 46.3186 247.089 44.8749L245.724 46.337C246.698 47.2454 247.297 48.8081 247.297 51.276H249.297ZM247.089 44.8749C245.564 43.4513 243.289 42.842 240.485 42.842V44.842C243.056 44.842 244.73 45.4087 245.724 46.337L247.089 44.8749ZM240.485 42.842H228.137V44.842H240.485V42.842ZM228.137 42.842C227.52 42.842 226.875 42.9967 226.39 43.4814C225.905 43.9661 225.751 44.6119 225.751 45.228H227.751C227.751 44.9201 227.827 44.8729 227.804 44.8956C227.782 44.9183 227.829 44.842 228.137 44.842V42.842ZM225.751 45.228V66.9H227.751V45.228H225.751ZM225.751 66.9C225.751 67.5161 225.905 68.1619 226.39 68.6466C226.875 69.1313 227.52 69.286 228.137 69.286V67.286C227.829 67.286 227.782 67.2097 227.804 67.2324C227.827 67.2551 227.751 67.2079 227.751 66.9H225.751ZM323.503 110H282.301V112H323.503V110ZM282.301 110C281.573 110 281.211 109.819 281.023 109.631C280.836 109.444 280.655 109.082 280.655 108.354H278.655C278.655 109.39 278.915 110.351 279.609 111.046C280.304 111.74 281.265 112 282.301 112V110ZM280.655 108.354V32.628H278.655V108.354H280.655ZM280.655 32.628C280.655 31.9001 280.836 31.5379 281.023 31.3506C281.211 31.1633 281.573 30.982 282.301 30.982V28.982C281.265 28.982 280.304 29.2417 279.609 29.9364C278.915 30.6311 278.655 31.5919 278.655 32.628H280.655ZM282.301 30.982H323.503V28.982H282.301V30.982ZM323.503 30.982C324.176 30.982 324.5 31.1562 324.669 31.3332C324.846 31.5192 325.023 31.8883 325.023 32.628H327.023C327.023 31.6037 326.78 30.6498 326.117 29.9538C325.445 29.2488 324.51 28.982 323.503 28.982V30.982ZM325.023 32.628V41.196H327.023V32.628H325.023ZM325.023 41.196C325.023 41.9357 324.846 42.3048 324.669 42.4908C324.5 42.6678 324.176 42.842 323.503 42.842V44.842C324.51 44.842 325.445 44.5752 326.117 43.8702C326.78 43.1742 327.023 42.2203 327.023 41.196H325.023ZM323.503 42.842H297.169V44.842H323.503V42.842ZM297.169 42.842C296.531 42.842 295.866 42.9863 295.359 43.4513C294.835 43.9315 294.657 44.5884 294.657 45.228H296.657C296.657 45.0853 296.677 45.0033 296.691 44.9634C296.698 44.9442 296.704 44.9346 296.706 44.9311C296.708 44.9278 296.709 44.9266 296.711 44.9256C296.711 44.9255 296.731 44.9059 296.8 44.885C296.872 44.8628 296.99 44.842 297.169 44.842V42.842ZM294.657 45.228V61.608H296.657V45.228H294.657ZM294.657 61.608C294.657 62.2476 294.835 62.9045 295.359 63.3847C295.866 63.8497 296.531 63.994 297.169 63.994V61.994C296.99 61.994 296.872 61.9731 296.8 61.951C296.731 61.93 296.711 61.9105 296.711 61.9103C296.709 61.9094 296.708 61.9082 296.706 61.9049C296.704 61.9014 296.698 61.8918 296.691 61.8726C296.677 61.8327 296.657 61.7507 296.657 61.608H294.657ZM297.169 63.994H318.715V61.994H297.169V63.994ZM318.715 63.994C319.443 63.994 319.805 64.1753 319.992 64.3626C320.18 64.5499 320.361 64.9121 320.361 65.64H322.361C322.361 64.6039 322.101 63.6431 321.406 62.9484C320.712 62.2537 319.751 61.994 318.715 61.994V63.994ZM320.361 65.64V74.208H322.361V65.64H320.361ZM320.361 74.208C320.361 74.9359 320.18 75.2981 319.992 75.4854C319.805 75.6727 319.443 75.854 318.715 75.854V77.854C319.751 77.854 320.712 77.5943 321.406 76.8996C322.101 76.2049 322.361 75.2441 322.361 74.208H320.361ZM318.715 75.854H297.169V77.854H318.715V75.854ZM297.169 75.854C296.531 75.854 295.866 75.9983 295.359 76.4633C294.835 76.9435 294.657 77.6004 294.657 78.24H296.657C296.657 78.0973 296.677 78.0153 296.691 77.9754C296.698 77.9562 296.704 77.9466 296.706 77.9431C296.708 77.9398 296.709 77.9386 296.711 77.9377C296.711 77.9375 296.731 77.9179 296.8 77.897C296.872 77.8748 296.99 77.854 297.169 77.854V75.854ZM294.657 78.24V95.754H296.657V78.24H294.657ZM294.657 95.754C294.657 96.3936 294.835 97.0505 295.359 97.5307C295.866 97.9957 296.531 98.14 297.169 98.14V96.14C296.99 96.14 296.872 96.1191 296.8 96.097C296.731 96.076 296.711 96.0565 296.711 96.0563C296.709 96.0554 296.708 96.0542 296.706 96.0509C296.704 96.0474 296.698 96.0378 296.691 96.0186C296.677 95.9787 296.657 95.8967 296.657 95.754H294.657ZM297.169 98.14H323.503V96.14H297.169V98.14ZM323.503 98.14C324.176 98.14 324.5 98.3142 324.669 98.4912C324.846 98.6772 325.023 99.0463 325.023 99.786H327.023C327.023 98.7617 326.78 97.8078 326.117 97.1118C325.445 96.4068 324.51 96.14 323.503 96.14V98.14ZM325.023 99.786V108.354H327.023V99.786H325.023ZM325.023 108.354C325.023 109.094 324.846 109.463 324.669 109.649C324.5 109.826 324.176 110 323.503 110V112C324.51 112 325.445 111.733 326.117 111.028C326.78 110.332 327.023 109.378 327.023 108.354H325.023Z" fill="black"/>
</svg>
