<svg width="444" height="150" viewBox="0 0 444 150" fill="none" xmlns="http://www.w3.org/2000/svg">
<rect x="2.5" y="2.5" width="439" height="145" rx="32.5" fill="#699EFF" stroke="black" stroke-width="5"/>
<path d="M66.8585 111H56.1485C54.3845 111 53.5025 110.118 53.5025 108.354V32.628C53.5025 30.864 54.3845 29.982 56.1485 29.982H96.3425C98.0225 29.982 98.8625 30.864 98.8625 32.628V41.196C98.8625 42.96 98.0225 43.842 96.3425 43.842H71.0165C70.0085 43.842 69.5045 44.304 69.5045 45.228V64.758C69.5045 65.766 70.0085 66.27 71.0165 66.27H92.5625C94.3265 66.27 95.2085 67.152 95.2085 68.916V77.358C95.2085 79.206 94.3265 80.13 92.5625 80.13H71.0165C70.0085 80.13 69.5045 80.592 69.5045 81.516V108.354C69.5045 110.118 68.6225 111 66.8585 111ZM154.327 111H112.873C111.109 111 110.227 110.118 110.227 108.354V32.628C110.227 30.864 111.109 29.982 112.873 29.982H123.583C125.347 29.982 126.229 30.864 126.229 32.628V95.628C126.229 96.552 126.733 97.014 127.741 97.014H154.327C156.007 97.014 156.847 97.938 156.847 99.786V108.354C156.847 110.118 156.007 111 154.327 111ZM196.565 111H185.855C184.091 111 183.209 110.118 183.209 108.354V81.39L160.151 32.754C159.815 31.998 159.815 31.368 160.151 30.864C160.571 30.276 161.159 29.982 161.915 29.982H175.271C176.615 29.982 177.623 30.864 178.295 32.628L190.895 63.246H191.777L204.125 32.628C204.713 30.864 205.721 29.982 207.149 29.982H220.505C221.345 29.982 221.933 30.234 222.269 30.738C222.689 31.242 222.689 31.914 222.269 32.754L199.211 81.39V108.354C199.211 110.118 198.329 111 196.565 111ZM248.552 32.628V108.354C248.552 110.118 247.67 111 245.906 111H235.196C233.432 111 232.55 110.118 232.55 108.354V32.628C232.55 30.864 233.432 29.982 235.196 29.982H245.906C247.67 29.982 248.552 30.864 248.552 32.628ZM278.616 111H268.158C266.394 111 265.512 110.118 265.512 108.354V32.628C265.512 30.864 266.394 29.982 268.158 29.982H277.608C279.372 29.982 280.548 30.57 281.136 31.746L306.588 79.5H307.092V32.628C307.092 30.864 307.974 29.982 309.738 29.982H320.196C321.96 29.982 322.842 30.864 322.842 32.628V108.354C322.842 110.118 321.96 111 320.196 111H310.998C309.15 111 307.806 110.16 306.966 108.48L281.766 61.608H281.262V108.354C281.262 110.118 280.38 111 278.616 111ZM372.103 111H358.747C352.111 111 346.987 109.236 343.375 105.708C339.763 102.18 337.957 97.098 337.957 90.462V50.52C337.957 43.884 339.763 38.802 343.375 35.274C346.987 31.746 352.111 29.982 358.747 29.982H372.103C378.655 29.982 383.737 31.788 387.349 35.4C390.961 38.928 392.767 43.968 392.767 50.52V54.3C392.767 56.148 391.885 57.072 390.121 57.072H379.411C377.647 57.072 376.765 56.148 376.765 54.3V51.276C376.765 48.588 376.219 46.698 375.127 45.606C374.035 44.43 372.145 43.842 369.457 43.842H361.267C358.663 43.842 356.773 44.43 355.597 45.606C354.505 46.698 353.959 48.588 353.959 51.276V89.706C353.959 92.394 354.505 94.326 355.597 95.502C356.773 96.594 358.663 97.14 361.267 97.14H369.457C372.145 97.14 374.035 96.594 375.127 95.502C376.219 94.326 376.765 92.394 376.765 89.706V81.768C376.765 80.844 376.303 80.382 375.379 80.382H367.819C366.055 80.382 365.173 79.5 365.173 77.736V69.168C365.173 67.404 366.055 66.522 367.819 66.522H389.869C391.801 66.522 392.767 67.488 392.767 69.42V90.462C392.767 97.014 390.961 102.096 387.349 105.708C383.737 109.236 378.655 111 372.103 111Z" fill="white"/>
<path d="M66.8585 110H56.1485V112H66.8585V110ZM56.1485 110C55.4206 110 55.0584 109.819 54.8711 109.631C54.6838 109.444 54.5025 109.082 54.5025 108.354H52.5025C52.5025 109.39 52.7622 110.351 53.4569 111.046C54.1516 111.74 55.1124 112 56.1485 112V110ZM54.5025 108.354V32.628H52.5025V108.354H54.5025ZM54.5025 32.628C54.5025 31.9001 54.6838 31.5379 54.8711 31.3506C55.0584 31.1633 55.4206 30.982 56.1485 30.982V28.982C55.1124 28.982 54.1516 29.2417 53.4569 29.9364C52.7622 30.6311 52.5025 31.5919 52.5025 32.628H54.5025ZM56.1485 30.982H96.3425V28.982H56.1485V30.982ZM96.3425 30.982C97.0156 30.982 97.3399 31.1562 97.5084 31.3332C97.6855 31.5192 97.8625 31.8883 97.8625 32.628H99.8625C99.8625 31.6037 99.6195 30.6498 98.9566 29.9538C98.2851 29.2488 97.3494 28.982 96.3425 28.982V30.982ZM97.8625 32.628V41.196H99.8625V32.628H97.8625ZM97.8625 41.196C97.8625 41.9357 97.6855 42.3048 97.5084 42.4908C97.3399 42.6678 97.0156 42.842 96.3425 42.842V44.842C97.3494 44.842 98.2851 44.5752 98.9566 43.8701C99.6195 43.1742 99.8625 42.2203 99.8625 41.196H97.8625ZM96.3425 42.842H71.0165V44.842H96.3425V42.842ZM71.0165 42.842C70.3789 42.842 69.7141 42.9863 69.2068 43.4513C68.683 43.9315 68.5045 44.5884 68.5045 45.228H70.5045C70.5045 45.0853 70.5243 45.0033 70.5388 44.9634C70.5458 44.9442 70.5515 44.9346 70.5538 44.9311C70.5559 44.9278 70.5571 44.9266 70.5582 44.9256C70.5584 44.9255 70.5786 44.9059 70.6472 44.885C70.7196 44.8628 70.8377 44.842 71.0165 44.842V42.842ZM68.5045 45.228V64.758H70.5045V45.228H68.5045ZM68.5045 64.758C68.5045 65.4161 68.6697 66.0934 69.1754 66.5991C69.6811 67.1048 70.3584 67.27 71.0165 67.27V65.27C70.8449 65.27 70.7354 65.2482 70.6712 65.2268C70.6119 65.207 70.5934 65.1887 70.5896 65.1849C70.5858 65.1811 70.5674 65.1626 70.5477 65.1033C70.5263 65.0391 70.5045 64.9296 70.5045 64.758H68.5045ZM71.0165 67.27H92.5625V65.27H71.0165V67.27ZM92.5625 67.27C93.2904 67.27 93.6526 67.4513 93.8399 67.6386C94.0272 67.8259 94.2085 68.1881 94.2085 68.916H96.2085C96.2085 67.8799 95.9488 66.9191 95.2541 66.2244C94.5594 65.5297 93.5986 65.27 92.5625 65.27V67.27ZM94.2085 68.916V77.358H96.2085V68.916H94.2085ZM94.2085 77.358C94.2085 78.1392 94.0213 78.5394 93.8236 78.7465C93.6343 78.9449 93.2782 79.13 92.5625 79.13V81.13C93.6108 81.13 94.5777 80.8531 95.2704 80.1275C95.9547 79.4106 96.2085 78.4248 96.2085 77.358H94.2085ZM92.5625 79.13H71.0165V81.13H92.5625V79.13ZM71.0165 79.13C70.3789 79.13 69.7141 79.2743 69.2068 79.7393C68.683 80.2195 68.5045 80.8764 68.5045 81.516H70.5045C70.5045 81.3733 70.5243 81.2913 70.5388 81.2514C70.5458 81.2322 70.5515 81.2226 70.5538 81.2191C70.5559 81.2158 70.5571 81.2146 70.5582 81.2137C70.5584 81.2135 70.5786 81.194 70.6472 81.173C70.7196 81.1508 70.8377 81.13 71.0165 81.13V79.13ZM68.5045 81.516V108.354H70.5045V81.516H68.5045ZM68.5045 108.354C68.5045 109.082 68.3232 109.444 68.1359 109.631C67.9486 109.819 67.5864 110 66.8585 110V112C67.8946 112 68.8554 111.74 69.5501 111.046C70.2448 110.351 70.5045 109.39 70.5045 108.354H68.5045ZM154.327 110H112.873V112H154.327V110ZM112.873 110C112.145 110 111.783 109.819 111.596 109.631C111.408 109.444 111.227 109.082 111.227 108.354H109.227C109.227 109.39 109.487 110.351 110.182 111.046C110.876 111.74 111.837 112 112.873 112V110ZM111.227 108.354V32.628H109.227V108.354H111.227ZM111.227 32.628C111.227 31.9001 111.408 31.5379 111.596 31.3506C111.783 31.1633 112.145 30.982 112.873 30.982V28.982C111.837 28.982 110.876 29.2417 110.182 29.9364C109.487 30.6311 109.227 31.5919 109.227 32.628H111.227ZM112.873 30.982H123.583V28.982H112.873V30.982ZM123.583 30.982C124.311 30.982 124.673 31.1633 124.861 31.3506C125.048 31.5379 125.229 31.9001 125.229 32.628H127.229C127.229 31.5919 126.969 30.6311 126.275 29.9364C125.58 29.2417 124.619 28.982 123.583 28.982V30.982ZM125.229 32.628V95.628H127.229V32.628H125.229ZM125.229 95.628C125.229 96.2676 125.408 96.9245 125.931 97.4047C126.439 97.8697 127.103 98.014 127.741 98.014V96.014C127.562 96.014 127.444 95.9931 127.372 95.971C127.303 95.95 127.283 95.9305 127.283 95.9303C127.282 95.9294 127.281 95.9282 127.278 95.9249C127.276 95.9214 127.27 95.9118 127.263 95.8926C127.249 95.8527 127.229 95.7707 127.229 95.628H125.229ZM127.741 98.014H154.327V96.014H127.741V98.014ZM154.327 98.014C154.987 98.014 155.306 98.1911 155.477 98.3797C155.665 98.5863 155.847 98.9938 155.847 99.786H157.847C157.847 98.7302 157.609 97.7517 156.957 97.0343C156.288 96.2989 155.347 96.014 154.327 96.014V98.014ZM155.847 99.786V108.354H157.847V99.786H155.847ZM155.847 108.354C155.847 109.094 155.67 109.463 155.493 109.649C155.324 109.826 155 110 154.327 110V112C155.334 112 156.27 111.733 156.941 111.028C157.604 110.332 157.847 109.378 157.847 108.354H155.847ZM183.209 81.39H184.209V81.165L184.112 80.9616L183.209 81.39ZM160.151 32.754L159.237 33.1601L159.242 33.1713L159.247 33.1824L160.151 32.754ZM160.151 30.864L159.337 30.2828L159.328 30.2959L159.319 30.3093L160.151 30.864ZM178.295 32.628L177.36 32.984L177.365 32.9963L177.37 33.0086L178.295 32.628ZM190.895 63.246L189.97 63.6266L190.225 64.246H190.895V63.246ZM191.777 63.246V64.246H192.452L192.704 63.62L191.777 63.246ZM204.125 32.628L205.052 33.002L205.064 32.9734L205.073 32.9442L204.125 32.628ZM222.269 30.738L221.437 31.2927L221.466 31.3371L221.5 31.3782L222.269 30.738ZM222.269 32.754L221.374 32.3068L221.37 32.3161L221.365 32.3256L222.269 32.754ZM199.211 81.39L198.307 80.9616L198.211 81.165V81.39H199.211ZM196.565 110H185.855V112H196.565V110ZM185.855 110C185.127 110 184.765 109.819 184.577 109.631C184.39 109.444 184.209 109.082 184.209 108.354H182.209C182.209 109.39 182.468 110.351 183.163 111.046C183.858 111.74 184.819 112 185.855 112V110ZM184.209 108.354V81.39H182.209V108.354H184.209ZM184.112 80.9616L161.054 32.3256L159.247 33.1824L182.305 81.8184L184.112 80.9616ZM161.064 32.3479C160.811 31.778 160.903 31.5385 160.983 31.4187L159.319 30.3093C158.726 31.1975 158.818 32.218 159.237 33.1601L161.064 32.3479ZM160.964 31.4452C161.187 31.1341 161.464 30.982 161.915 30.982V28.982C160.853 28.982 159.955 29.4179 159.337 30.2828L160.964 31.4452ZM161.915 30.982H175.271V28.982H161.915V30.982ZM175.271 30.982C175.701 30.982 176.055 31.1152 176.376 31.3961C176.717 31.6944 177.06 32.1959 177.36 32.984L179.229 32.272C178.857 31.2961 178.36 30.4746 177.693 29.8909C177.006 29.2898 176.184 28.982 175.271 28.982V30.982ZM177.37 33.0086L189.97 63.6266L191.819 62.8654L179.219 32.2474L177.37 33.0086ZM190.895 64.246H191.777V62.246H190.895V64.246ZM192.704 63.62L205.052 33.002L203.197 32.254L190.849 62.872L192.704 63.62ZM205.073 32.9442C205.332 32.1684 205.652 31.6831 205.98 31.3961C206.289 31.1257 206.659 30.982 207.149 30.982V28.982C206.21 28.982 205.362 29.2793 204.663 29.8909C203.983 30.4858 203.505 31.3236 203.176 32.3118L205.073 32.9442ZM207.149 30.982H220.505V28.982H207.149V30.982ZM220.505 30.982C221.152 30.982 221.353 31.1668 221.437 31.2927L223.101 30.1833C222.513 29.3012 221.538 28.982 220.505 28.982V30.982ZM221.5 31.3782C221.559 31.4483 221.706 31.6433 221.374 32.3068L223.163 33.2012C223.671 32.1847 223.818 31.0356 223.037 30.0978L221.5 31.3782ZM221.365 32.3256L198.307 80.9616L200.114 81.8184L223.172 33.1824L221.365 32.3256ZM198.211 81.39V108.354H200.211V81.39H198.211ZM198.211 108.354C198.211 109.082 198.029 109.444 197.842 109.631C197.655 109.819 197.293 110 196.565 110V112C197.601 112 198.562 111.74 199.256 111.046C199.951 110.351 200.211 109.39 200.211 108.354H198.211ZM247.552 32.628V108.354H249.552V32.628H247.552ZM247.552 108.354C247.552 109.082 247.371 109.444 247.184 109.631C246.997 109.819 246.634 110 245.906 110V112C246.943 112 247.903 111.74 248.598 111.046C249.293 110.351 249.552 109.39 249.552 108.354H247.552ZM245.906 110H235.196V112H245.906V110ZM235.196 110C234.469 110 234.106 109.819 233.919 109.631C233.732 109.444 233.55 109.082 233.55 108.354H231.55C231.55 109.39 231.81 110.351 232.505 111.046C233.2 111.74 234.16 112 235.196 112V110ZM233.55 108.354V32.628H231.55V108.354H233.55ZM233.55 32.628C233.55 31.9001 233.732 31.5379 233.919 31.3506C234.106 31.1633 234.469 30.982 235.196 30.982V28.982C234.16 28.982 233.2 29.2417 232.505 29.9364C231.81 30.6311 231.55 31.5919 231.55 32.628H233.55ZM235.196 30.982H245.906V28.982H235.196V30.982ZM245.906 30.982C246.634 30.982 246.997 31.1633 247.184 31.3506C247.371 31.5379 247.552 31.9001 247.552 32.628H249.552C249.552 31.5919 249.293 30.6311 248.598 29.9364C247.903 29.2417 246.943 28.982 245.906 28.982V30.982ZM281.136 31.746L280.242 32.1932L280.248 32.2049L280.254 32.2163L281.136 31.746ZM306.588 79.5L305.706 79.9703L305.988 80.5H306.588V79.5ZM307.092 79.5V80.5H308.092V79.5H307.092ZM306.966 108.48L307.861 108.033L307.854 108.02L307.847 108.006L306.966 108.48ZM281.766 61.608L282.647 61.1345L282.364 60.608H281.766V61.608ZM281.262 61.608V60.608H280.262V61.608H281.262ZM278.616 110H268.158V112H278.616V110ZM268.158 110C267.43 110 267.068 109.819 266.881 109.631C266.694 109.444 266.512 109.082 266.512 108.354H264.512C264.512 109.39 264.772 110.351 265.467 111.046C266.161 111.74 267.122 112 268.158 112V110ZM266.512 108.354V32.628H264.512V108.354H266.512ZM266.512 32.628C266.512 31.9001 266.694 31.5379 266.881 31.3506C267.068 31.1633 267.43 30.982 268.158 30.982V28.982C267.122 28.982 266.161 29.2417 265.467 29.9364C264.772 30.6311 264.512 31.5919 264.512 32.628H266.512ZM268.158 30.982H277.608V28.982H268.158V30.982ZM277.608 30.982C279.145 30.982 279.882 31.4727 280.242 32.1932L282.031 31.2988C281.215 29.6673 279.6 28.982 277.608 28.982V30.982ZM280.254 32.2163L305.706 79.9703L307.471 79.0297L282.019 31.2757L280.254 32.2163ZM306.588 80.5H307.092V78.5H306.588V80.5ZM308.092 79.5V32.628H306.092V79.5H308.092ZM308.092 32.628C308.092 31.9001 308.274 31.5379 308.461 31.3506C308.648 31.1633 309.01 30.982 309.738 30.982V28.982C308.702 28.982 307.741 29.2417 307.047 29.9364C306.352 30.6311 306.092 31.5919 306.092 32.628H308.092ZM309.738 30.982H320.196V28.982H309.738V30.982ZM320.196 30.982C320.924 30.982 321.286 31.1633 321.474 31.3506C321.661 31.5379 321.842 31.9001 321.842 32.628H323.842C323.842 31.5919 323.583 30.6311 322.888 29.9364C322.193 29.2417 321.232 28.982 320.196 28.982V30.982ZM321.842 32.628V108.354H323.842V32.628H321.842ZM321.842 108.354C321.842 109.082 321.661 109.444 321.474 109.631C321.286 109.819 320.924 110 320.196 110V112C321.232 112 322.193 111.74 322.888 111.046C323.583 110.351 323.842 109.39 323.842 108.354H321.842ZM320.196 110H310.998V112H320.196V110ZM310.998 110C310.23 110 309.622 109.827 309.134 109.522C308.645 109.216 308.214 108.739 307.861 108.033L306.072 108.927C306.559 109.901 307.219 110.684 308.074 111.218C308.93 111.753 309.918 112 310.998 112V110ZM307.847 108.006L282.647 61.1345L280.885 62.0815L306.085 108.954L307.847 108.006ZM281.766 60.608H281.262V62.608H281.766V60.608ZM280.262 61.608V108.354H282.262V61.608H280.262ZM280.262 108.354C280.262 109.082 280.081 109.444 279.894 109.631C279.706 109.819 279.344 110 278.616 110V112C279.652 112 280.613 111.74 281.308 111.046C282.003 110.351 282.262 109.39 282.262 108.354H280.262ZM343.375 105.708L344.074 104.993L344.074 104.993L343.375 105.708ZM343.375 35.274L344.074 35.9894L344.074 35.9894L343.375 35.274ZM387.349 35.4L386.642 36.1072L386.651 36.1154L387.349 35.4ZM375.127 45.606L374.395 46.2864L374.407 46.3L374.42 46.3131L375.127 45.606ZM355.597 45.606L354.89 44.8989L354.89 44.8989L355.597 45.606ZM355.597 95.502L354.865 96.1825L354.89 96.2096L354.917 96.2348L355.597 95.502ZM375.127 95.502L375.834 96.2091L375.848 96.196L375.86 96.1824L375.127 95.502ZM387.349 105.708L388.048 106.423L388.056 106.415L387.349 105.708ZM372.103 110H358.747V112H372.103V110ZM358.747 110C352.288 110 347.446 108.286 344.074 104.993L342.677 106.423C346.528 110.186 351.935 112 358.747 112V110ZM344.074 104.993C340.71 101.707 338.957 96.9169 338.957 90.462H336.957C336.957 97.2791 338.817 102.653 342.677 106.423L344.074 104.993ZM338.957 90.462V50.52H336.957V90.462H338.957ZM338.957 50.52C338.957 44.0651 340.71 39.2754 344.074 35.9894L342.677 34.5586C338.817 38.3286 336.957 43.7029 336.957 50.52H338.957ZM344.074 35.9894C347.446 32.6956 352.288 30.982 358.747 30.982V28.982C351.935 28.982 346.528 30.7964 342.677 34.5586L344.074 35.9894ZM358.747 30.982H372.103V28.982H358.747V30.982ZM372.103 30.982C378.469 30.982 383.267 32.7317 386.642 36.1071L388.056 34.6929C384.208 30.8443 378.842 28.982 372.103 28.982V30.982ZM386.651 36.1154C390.017 39.4037 391.767 44.1534 391.767 50.52H393.767C393.767 43.7826 391.905 38.4523 388.048 34.6846L386.651 36.1154ZM391.767 50.52V54.3H393.767V50.52H391.767ZM391.767 54.3C391.767 55.0812 391.58 55.4814 391.382 55.6885C391.193 55.8869 390.837 56.072 390.121 56.072V58.072C391.17 58.072 392.137 57.7951 392.829 57.0695C393.514 56.3526 393.767 55.3668 393.767 54.3H391.767ZM390.121 56.072H379.411V58.072H390.121V56.072ZM379.411 56.072C378.696 56.072 378.34 55.8869 378.15 55.6885C377.953 55.4814 377.765 55.0812 377.765 54.3H375.765C375.765 55.3668 376.019 56.3526 376.703 57.0695C377.396 57.7951 378.363 58.072 379.411 58.072V56.072ZM377.765 54.3V51.276H375.765V54.3H377.765ZM377.765 51.276C377.765 48.5049 377.212 46.2767 375.834 44.8989L374.42 46.3131C375.226 47.1193 375.765 48.6711 375.765 51.276H377.765ZM375.86 44.9255C374.484 43.4439 372.244 42.842 369.457 42.842V44.842C372.046 44.842 373.586 45.4161 374.395 46.2864L375.86 44.9255ZM369.457 42.842H361.267V44.842H369.457V42.842ZM361.267 42.842C358.544 42.842 356.336 43.4527 354.89 44.8989L356.304 46.3131C357.21 45.4072 358.783 44.842 361.267 44.842V42.842ZM354.89 44.8989C353.512 46.2766 352.959 48.5049 352.959 51.276H354.959C354.959 48.6711 355.498 47.1193 356.304 46.3131L354.89 44.8989ZM352.959 51.276V89.706H354.959V51.276H352.959ZM352.959 89.706C352.959 92.4874 353.517 94.731 354.865 96.1825L356.33 94.8215C355.494 93.921 354.959 92.3006 354.959 89.706H352.959ZM354.917 96.2348C356.364 97.5783 358.56 98.14 361.267 98.14V96.14C358.767 96.14 357.183 95.6097 356.278 94.7692L354.917 96.2348ZM361.267 98.14H369.457V96.14H361.267V98.14ZM369.457 98.14C372.228 98.14 374.457 97.5869 375.834 96.2091L374.42 94.7949C373.614 95.6011 372.062 96.14 369.457 96.14V98.14ZM375.86 96.1824C377.208 94.731 377.765 92.4874 377.765 89.706H375.765C375.765 92.3006 375.231 93.921 374.395 94.8215L375.86 96.1824ZM377.765 89.706V81.768H375.765V89.706H377.765ZM377.765 81.768C377.765 81.1519 377.611 80.5061 377.126 80.0214C376.641 79.5367 375.995 79.382 375.379 79.382V81.382C375.687 81.382 375.734 81.4583 375.712 81.4356C375.689 81.4129 375.765 81.4601 375.765 81.768H377.765ZM375.379 79.382H367.819V81.382H375.379V79.382ZM367.819 79.382C367.091 79.382 366.729 79.2007 366.542 79.0134C366.355 78.8261 366.173 78.4639 366.173 77.736H364.173C364.173 78.7721 364.433 79.7329 365.128 80.4276C365.822 81.1223 366.783 81.382 367.819 81.382V79.382ZM366.173 77.736V69.168H364.173V77.736H366.173ZM366.173 69.168C366.173 68.4401 366.355 68.0779 366.542 67.8906C366.729 67.7033 367.091 67.522 367.819 67.522V65.522C366.783 65.522 365.822 65.7817 365.128 66.4764C364.433 67.1711 364.173 68.1319 364.173 69.168H366.173ZM367.819 67.522H389.869V65.522H367.819V67.522ZM389.869 67.522C390.681 67.522 391.106 67.7243 391.336 67.9536C391.565 68.1829 391.767 68.6081 391.767 69.42H393.767C393.767 68.2999 393.487 67.2761 392.75 66.5394C392.013 65.8027 390.989 65.522 389.869 65.522V67.522ZM391.767 69.42V90.462H393.767V69.42H391.767ZM391.767 90.462C391.767 96.8273 390.018 101.625 386.642 105.001L388.056 106.415C391.905 102.567 393.767 97.2007 393.767 90.462H391.767ZM386.651 104.993C383.276 108.289 378.475 110 372.103 110V112C378.836 112 384.199 110.183 388.048 106.423L386.651 104.993Z" fill="black"/>
</svg>
