<svg width="444" height="150" viewBox="0 0 444 150" fill="none" xmlns="http://www.w3.org/2000/svg">
<rect x="2.5" y="2.5" width="439" height="145" rx="32.5" fill="#75C754" stroke="black" stroke-width="5"/>
<path d="M91.4601 111H78.1041C71.4681 111 66.3441 109.236 62.7321 105.708C59.1201 102.18 57.3141 97.098 57.3141 90.462V50.52C57.3141 43.884 59.1201 38.802 62.7321 35.274C66.3441 31.746 71.4681 29.982 78.1041 29.982H91.4601C98.0121 29.982 103.094 31.788 106.706 35.4C110.318 38.928 112.124 43.968 112.124 50.52V54.3C112.124 56.148 111.242 57.072 109.478 57.072H98.7681C97.0041 57.072 96.1221 56.148 96.1221 54.3V51.276C96.1221 48.588 95.5761 46.698 94.4841 45.606C93.3921 44.43 91.5021 43.842 88.8141 43.842H80.6241C78.0201 43.842 76.1301 44.43 74.9541 45.606C73.8621 46.698 73.3161 48.588 73.3161 51.276V89.706C73.3161 92.394 73.8621 94.326 74.9541 95.502C76.1301 96.594 78.0201 97.14 80.6241 97.14H88.8141C91.5021 97.14 93.3921 96.594 94.4841 95.502C95.5761 94.326 96.1221 92.394 96.1221 89.706V81.768C96.1221 80.844 95.6601 80.382 94.7361 80.382H87.1761C85.4121 80.382 84.5301 79.5 84.5301 77.736V69.168C84.5301 67.404 85.4121 66.522 87.1761 66.522H109.226C111.158 66.522 112.124 67.488 112.124 69.42V90.462C112.124 97.014 110.318 102.096 106.706 105.708C103.094 109.236 98.0121 111 91.4601 111ZM140.59 111H129.88C128.116 111 127.234 110.118 127.234 108.354V32.628C127.234 30.864 128.116 29.982 129.88 29.982H159.868C166.42 29.982 171.544 31.788 175.24 35.4C178.936 39.012 180.784 44.094 180.784 50.646V60.474C180.784 69.966 177.046 76.266 169.57 79.374V79.878L183.052 107.976C183.808 109.992 183.094 111 180.91 111H170.704C169.192 111 168.1 110.832 167.428 110.496C166.756 110.16 166.21 109.446 165.79 108.354L153.19 81.138H144.748C143.74 81.138 143.236 81.6 143.236 82.524V108.354C143.236 110.118 142.354 111 140.59 111ZM144.622 68.286H156.97C159.658 68.286 161.632 67.74 162.892 66.648C164.152 65.472 164.782 63.624 164.782 61.104V51.276C164.782 48.672 164.152 46.782 162.892 45.606C161.632 44.43 159.658 43.842 156.97 43.842H144.622C143.698 43.842 143.236 44.304 143.236 45.228V66.9C143.236 67.824 143.698 68.286 144.622 68.286ZM204.582 111H192.486C190.974 111 190.47 110.118 190.974 108.354L210.882 32.628C211.47 30.864 212.73 29.982 214.662 29.982H231.42C233.52 29.982 234.78 30.864 235.2 32.628L255.108 108.354C255.612 110.118 255.108 111 253.596 111H241.5C240.576 111 239.946 110.832 239.61 110.496C239.274 110.076 239.022 109.362 238.854 108.354L235.326 94.494H210.756L207.228 108.354C207.06 109.362 206.766 110.076 206.346 110.496C206.01 110.832 205.422 111 204.582 111ZM222.852 45.228L213.78 81.642H232.428L223.356 45.228H222.852ZM264.261 90.336V87.816C264.261 86.052 265.143 85.17 266.907 85.17H277.617C279.381 85.17 280.263 86.052 280.263 87.816V88.824C280.263 92.016 280.893 94.2 282.153 95.376C283.413 96.552 285.723 97.14 289.083 97.14H295.005C298.281 97.14 300.549 96.51 301.809 95.25C303.153 93.99 303.825 91.638 303.825 88.194V86.682C303.825 84.246 302.817 82.398 300.801 81.138C298.869 79.794 296.433 78.996 293.493 78.744C290.553 78.492 287.361 78.03 283.917 77.358C280.557 76.602 277.407 75.678 274.467 74.586C271.527 73.41 269.049 71.184 267.033 67.908C265.101 64.548 264.135 60.264 264.135 55.056V50.646C264.135 44.094 265.983 39.012 269.679 35.4C273.375 31.788 278.499 29.982 285.051 29.982H297.651C304.287 29.982 309.453 31.788 313.149 35.4C316.845 39.012 318.693 44.094 318.693 50.646V53.04C318.693 54.804 317.811 55.686 316.047 55.686H305.337C303.573 55.686 302.691 54.804 302.691 53.04V52.284C302.691 49.008 302.061 46.782 300.801 45.606C299.541 44.43 297.231 43.842 293.871 43.842H288.957C285.513 43.842 283.161 44.514 281.901 45.858C280.725 47.118 280.137 49.638 280.137 53.418V55.812C280.137 59.76 283.581 62.028 290.469 62.616C297.609 63.204 303.951 64.632 309.495 66.9C312.435 68.16 314.871 70.428 316.803 73.704C318.819 76.896 319.827 81.012 319.827 86.052V90.336C319.827 96.888 317.979 101.97 314.283 105.582C310.587 109.194 305.463 111 298.911 111H285.177C278.625 111 273.501 109.194 269.805 105.582C266.109 101.97 264.261 96.888 264.261 90.336ZM332.183 90.336V87.816C332.183 86.052 333.065 85.17 334.829 85.17H345.539C347.303 85.17 348.185 86.052 348.185 87.816V88.824C348.185 92.016 348.815 94.2 350.075 95.376C351.335 96.552 353.645 97.14 357.005 97.14H362.927C366.203 97.14 368.471 96.51 369.731 95.25C371.075 93.99 371.747 91.638 371.747 88.194V86.682C371.747 84.246 370.739 82.398 368.723 81.138C366.791 79.794 364.355 78.996 361.415 78.744C358.475 78.492 355.283 78.03 351.839 77.358C348.479 76.602 345.329 75.678 342.389 74.586C339.449 73.41 336.971 71.184 334.955 67.908C333.023 64.548 332.057 60.264 332.057 55.056V50.646C332.057 44.094 333.905 39.012 337.601 35.4C341.297 31.788 346.421 29.982 352.973 29.982H365.573C372.209 29.982 377.375 31.788 381.071 35.4C384.767 39.012 386.615 44.094 386.615 50.646V53.04C386.615 54.804 385.733 55.686 383.969 55.686H373.259C371.495 55.686 370.613 54.804 370.613 53.04V52.284C370.613 49.008 369.983 46.782 368.723 45.606C367.463 44.43 365.153 43.842 361.793 43.842H356.879C353.435 43.842 351.083 44.514 349.823 45.858C348.647 47.118 348.059 49.638 348.059 53.418V55.812C348.059 59.76 351.503 62.028 358.391 62.616C365.531 63.204 371.873 64.632 377.417 66.9C380.357 68.16 382.793 70.428 384.725 73.704C386.741 76.896 387.749 81.012 387.749 86.052V90.336C387.749 96.888 385.901 101.97 382.205 105.582C378.509 109.194 373.385 111 366.833 111H353.099C346.547 111 341.423 109.194 337.727 105.582C334.031 101.97 332.183 96.888 332.183 90.336Z" fill="white"/>
<path d="M62.7321 105.708L63.4308 104.993L63.4308 104.993L62.7321 105.708ZM62.7321 35.274L63.4308 35.9894L63.4308 35.9894L62.7321 35.274ZM106.706 35.4L105.999 36.1072L106.007 36.1154L106.706 35.4ZM94.4841 45.606L93.7513 46.2864L93.7639 46.3L93.777 46.3131L94.4841 45.606ZM74.9541 45.606L74.247 44.8989L74.247 44.8989L74.9541 45.606ZM74.9541 95.502L74.2213 96.1825L74.2465 96.2096L74.2736 96.2348L74.9541 95.502ZM94.4841 95.502L95.1912 96.2091L95.2043 96.196L95.2169 96.1824L94.4841 95.502ZM106.706 105.708L107.405 106.423L107.413 106.415L106.706 105.708ZM91.4601 110H78.1041V112H91.4601V110ZM78.1041 110C71.6443 110 66.803 108.286 63.4308 104.993L62.0333 106.423C65.8852 110.186 71.2919 112 78.1041 112V110ZM63.4308 104.993C60.0666 101.707 58.3141 96.9169 58.3141 90.462H56.3141C56.3141 97.2791 58.1736 102.653 62.0333 106.423L63.4308 104.993ZM58.3141 90.462V50.52H56.3141V90.462H58.3141ZM58.3141 50.52C58.3141 44.0651 60.0666 39.2754 63.4308 35.9894L62.0333 34.5586C58.1736 38.3286 56.3141 43.7029 56.3141 50.52H58.3141ZM63.4308 35.9894C66.803 32.6956 71.6443 30.982 78.1041 30.982V28.982C71.2919 28.982 65.8852 30.7964 62.0333 34.5586L63.4308 35.9894ZM78.1041 30.982H91.4601V28.982H78.1041V30.982ZM91.4601 30.982C97.8254 30.982 102.624 32.7317 105.999 36.1071L107.413 34.6929C103.565 30.8443 98.1988 28.982 91.4601 28.982V30.982ZM106.007 36.1154C109.374 39.4037 111.124 44.1534 111.124 50.52H113.124C113.124 43.7826 111.262 38.4523 107.405 34.6846L106.007 36.1154ZM111.124 50.52V54.3H113.124V50.52H111.124ZM111.124 54.3C111.124 55.0812 110.937 55.4814 110.739 55.6885C110.55 55.8869 110.194 56.072 109.478 56.072V58.072C110.526 58.072 111.493 57.7951 112.186 57.0695C112.87 56.3526 113.124 55.3668 113.124 54.3H111.124ZM109.478 56.072H98.7681V58.072H109.478V56.072ZM98.7681 56.072C98.0524 56.072 97.6963 55.8869 97.5069 55.6885C97.3093 55.4814 97.1221 55.0812 97.1221 54.3H95.1221C95.1221 55.3668 95.3759 56.3526 96.0602 57.0695C96.7529 57.7951 97.7198 58.072 98.7681 58.072V56.072ZM97.1221 54.3V51.276H95.1221V54.3H97.1221ZM97.1221 51.276C97.1221 48.5049 96.5689 46.2767 95.1912 44.8989L93.777 46.3131C94.5832 47.1193 95.1221 48.6711 95.1221 51.276H97.1221ZM95.2169 44.9255C93.841 43.4439 91.601 42.842 88.8141 42.842V44.842C91.4031 44.842 92.9431 45.4161 93.7513 46.2864L95.2169 44.9255ZM88.8141 42.842H80.6241V44.842H88.8141V42.842ZM80.6241 42.842C77.9006 42.842 75.6931 43.4527 74.247 44.8989L75.6612 46.3131C76.567 45.4072 78.1396 44.842 80.6241 44.842V42.842ZM74.247 44.8989C72.8692 46.2766 72.3161 48.5049 72.3161 51.276H74.3161C74.3161 48.6711 74.8549 47.1193 75.6612 46.3131L74.247 44.8989ZM72.3161 51.276V89.706H74.3161V51.276H72.3161ZM72.3161 89.706C72.3161 92.4874 72.8735 94.731 74.2213 96.1825L75.6869 94.8215C74.8506 93.921 74.3161 92.3006 74.3161 89.706H72.3161ZM74.2736 96.2348C75.7205 97.5783 77.9164 98.14 80.6241 98.14V96.14C78.1238 96.14 76.5397 95.6097 75.6345 94.7692L74.2736 96.2348ZM80.6241 98.14H88.8141V96.14H80.6241V98.14ZM88.8141 98.14C91.5851 98.14 93.8134 97.5869 95.1912 96.2091L93.777 94.7949C92.9707 95.6011 91.419 96.14 88.8141 96.14V98.14ZM95.2169 96.1824C96.5646 94.731 97.1221 92.4874 97.1221 89.706H95.1221C95.1221 92.3006 94.5875 93.921 93.7513 94.8215L95.2169 96.1824ZM97.1221 89.706V81.768H95.1221V89.706H97.1221ZM97.1221 81.768C97.1221 81.1519 96.9674 80.5061 96.4827 80.0214C95.998 79.5367 95.3522 79.382 94.7361 79.382V81.382C95.0439 81.382 95.0912 81.4583 95.0685 81.4356C95.0458 81.4129 95.1221 81.4601 95.1221 81.768H97.1221ZM94.7361 79.382H87.1761V81.382H94.7361V79.382ZM87.1761 79.382C86.4482 79.382 86.086 79.2007 85.8987 79.0134C85.7114 78.8261 85.5301 78.4639 85.5301 77.736H83.5301C83.5301 78.7721 83.7898 79.7329 84.4845 80.4276C85.1792 81.1223 86.1399 81.382 87.1761 81.382V79.382ZM85.5301 77.736V69.168H83.5301V77.736H85.5301ZM85.5301 69.168C85.5301 68.4401 85.7114 68.0779 85.8987 67.8906C86.086 67.7033 86.4482 67.522 87.1761 67.522V65.522C86.1399 65.522 85.1792 65.7817 84.4845 66.4764C83.7898 67.1711 83.5301 68.1319 83.5301 69.168H85.5301ZM87.1761 67.522H109.226V65.522H87.1761V67.522ZM109.226 67.522C110.038 67.522 110.463 67.7243 110.692 67.9536C110.922 68.1829 111.124 68.6081 111.124 69.42H113.124C113.124 68.2999 112.843 67.2761 112.107 66.5394C111.37 65.8027 110.346 65.522 109.226 65.522V67.522ZM111.124 69.42V90.462H113.124V69.42H111.124ZM111.124 90.462C111.124 96.8273 109.374 101.625 105.999 105.001L107.413 106.415C111.262 102.567 113.124 97.2007 113.124 90.462H111.124ZM106.007 104.993C102.633 108.289 97.8317 110 91.4601 110V112C98.1924 112 103.555 110.183 107.405 106.423L106.007 104.993ZM169.57 79.374L169.186 78.4506L168.57 78.7068V79.374H169.57ZM169.57 79.878H168.57V80.1055L168.669 80.3106L169.57 79.878ZM183.052 107.976L183.989 107.625L183.973 107.583L183.954 107.543L183.052 107.976ZM167.428 110.496L166.981 111.39L166.981 111.39L167.428 110.496ZM165.79 108.354L166.724 107.995L166.712 107.964L166.698 107.934L165.79 108.354ZM153.19 81.138L154.098 80.7179L153.829 80.138H153.19V81.138ZM162.892 66.648L163.547 67.4037L163.561 67.3916L163.575 67.3791L162.892 66.648ZM162.892 45.606L163.575 44.8749L163.575 44.8749L162.892 45.606ZM140.59 110H129.88V112H140.59V110ZM129.88 110C129.152 110 128.79 109.819 128.603 109.631C128.416 109.444 128.234 109.082 128.234 108.354H126.234C126.234 109.39 126.494 110.351 127.189 111.046C127.883 111.74 128.844 112 129.88 112V110ZM128.234 108.354V32.628H126.234V108.354H128.234ZM128.234 32.628C128.234 31.9001 128.416 31.5379 128.603 31.3506C128.79 31.1633 129.152 30.982 129.88 30.982V28.982C128.844 28.982 127.883 29.2417 127.189 29.9364C126.494 30.6311 126.234 31.5919 126.234 32.628H128.234ZM129.88 30.982H159.868V28.982H129.88V30.982ZM159.868 30.982C166.232 30.982 171.079 32.7313 174.541 36.1152L175.939 34.6848C172.01 30.8447 166.608 28.982 159.868 28.982V30.982ZM174.541 36.1152C177.996 39.4918 179.784 44.2871 179.784 50.646H181.784C181.784 43.9009 179.876 38.5322 175.939 34.6848L174.541 36.1152ZM179.784 50.646V60.474H181.784V50.646H179.784ZM179.784 60.474C179.784 65.0924 178.875 68.8515 177.121 71.8077C175.373 74.7527 172.747 76.9702 169.186 78.4506L169.954 80.2974C173.869 78.6698 176.85 76.1833 178.841 72.8283C180.825 69.4845 181.784 65.3476 181.784 60.474H179.784ZM168.57 79.374V79.878H170.57V79.374H168.57ZM168.669 80.3106L182.151 108.409L183.954 107.543L170.472 79.4454L168.669 80.3106ZM182.116 108.327C182.463 109.253 182.326 109.584 182.268 109.666C182.204 109.755 181.921 110 180.91 110V112C182.084 112 183.249 111.741 183.9 110.822C184.556 109.896 184.398 108.715 183.989 107.625L182.116 108.327ZM180.91 110H170.704V112H180.91V110ZM170.704 110C169.221 110 168.328 109.828 167.875 109.602L166.981 111.39C167.873 111.836 169.164 112 170.704 112V110ZM167.875 109.602C167.523 109.425 167.102 108.979 166.724 107.995L164.857 108.713C165.319 109.913 165.99 110.895 166.981 111.39L167.875 109.602ZM166.698 107.934L154.098 80.7179L152.283 81.5581L164.883 108.774L166.698 107.934ZM153.19 80.138H144.748V82.138H153.19V80.138ZM144.748 80.138C144.111 80.138 143.446 80.2823 142.939 80.7473C142.415 81.2275 142.236 81.8844 142.236 82.524H144.236C144.236 82.3813 144.256 82.2993 144.271 82.2594C144.277 82.2402 144.283 82.2306 144.286 82.2271C144.288 82.2238 144.289 82.2226 144.29 82.2217C144.29 82.2215 144.31 82.2019 144.379 82.181C144.451 82.1588 144.569 82.138 144.748 82.138V80.138ZM142.236 82.524V108.354H144.236V82.524H142.236ZM142.236 108.354C142.236 109.082 142.055 109.444 141.868 109.631C141.68 109.819 141.318 110 140.59 110V112C141.626 112 142.587 111.74 143.282 111.046C143.977 110.351 144.236 109.39 144.236 108.354H142.236ZM144.622 69.286H156.97V67.286H144.622V69.286ZM156.97 69.286C159.76 69.286 162.023 68.7249 163.547 67.4037L162.237 65.8923C161.242 66.7551 159.556 67.286 156.97 67.286V69.286ZM163.575 67.3791C165.115 65.9408 165.782 63.7719 165.782 61.104H163.782C163.782 63.4761 163.189 65.0031 162.21 65.9169L163.575 67.3791ZM165.782 61.104V51.276H163.782V61.104H165.782ZM165.782 51.276C165.782 48.5358 165.121 46.3186 163.575 44.8749L162.21 46.337C163.183 47.2454 163.782 48.8081 163.782 51.276H165.782ZM163.575 44.8749C162.049 43.4513 159.775 42.842 156.97 42.842V44.842C159.541 44.842 161.215 45.4087 162.21 46.337L163.575 44.8749ZM156.97 42.842H144.622V44.842H156.97V42.842ZM144.622 42.842C144.006 42.842 143.36 42.9967 142.876 43.4814C142.391 43.9661 142.236 44.6119 142.236 45.228H144.236C144.236 44.9201 144.313 44.8729 144.29 44.8956C144.267 44.9183 144.314 44.842 144.622 44.842V42.842ZM142.236 45.228V66.9H144.236V45.228H142.236ZM142.236 66.9C142.236 67.5161 142.391 68.1619 142.876 68.6466C143.36 69.1313 144.006 69.286 144.622 69.286V67.286C144.314 67.286 144.267 67.2097 144.29 67.2324C144.313 67.2551 144.236 67.2079 144.236 66.9H142.236ZM190.974 108.354L191.936 108.629L191.939 108.619L191.942 108.608L190.974 108.354ZM210.882 32.628L209.934 32.3118L209.924 32.3425L209.915 32.3737L210.882 32.628ZM235.2 32.628L234.228 32.8596L234.23 32.871L234.233 32.8823L235.2 32.628ZM255.108 108.354L254.141 108.608L254.144 108.619L254.147 108.629L255.108 108.354ZM239.61 110.496L238.83 111.121L238.864 111.164L238.903 111.203L239.61 110.496ZM238.854 108.354L239.841 108.19L239.834 108.148L239.824 108.107L238.854 108.354ZM235.326 94.494L236.296 94.2473L236.104 93.494H235.326V94.494ZM210.756 94.494V93.494H209.979L209.787 94.2473L210.756 94.494ZM207.228 108.354L206.259 108.107L206.249 108.148L206.242 108.19L207.228 108.354ZM206.346 110.496L207.054 111.203L207.054 111.203L206.346 110.496ZM222.852 45.228V44.228H222.071L221.882 44.9863L222.852 45.228ZM213.78 81.642L212.81 81.4003L212.501 82.642H213.78V81.642ZM232.428 81.642V82.642H233.708L233.399 81.4003L232.428 81.642ZM223.356 45.228L224.327 44.9863L224.138 44.228H223.356V45.228ZM204.582 110H192.486V112H204.582V110ZM192.486 110C192.198 110 192.03 109.957 191.942 109.918C191.87 109.887 191.853 109.86 191.843 109.842C191.798 109.765 191.703 109.443 191.936 108.629L190.013 108.079C189.742 109.029 189.647 110.03 190.106 110.835C190.614 111.724 191.563 112 192.486 112V110ZM191.942 108.608L211.85 32.8823L209.915 32.3737L190.007 108.1L191.942 108.608ZM211.831 32.9442C212.072 32.2222 212.422 31.7567 212.842 31.4627C213.265 31.1664 213.849 30.982 214.662 30.982V28.982C213.544 28.982 212.532 29.2386 211.695 29.8243C210.855 30.4123 210.281 31.2698 209.934 32.3118L211.831 32.9442ZM214.662 30.982H231.42V28.982H214.662V30.982ZM231.42 30.982C232.339 30.982 232.957 31.1754 233.367 31.4627C233.762 31.7389 234.064 32.1707 234.228 32.8596L236.173 32.3964C235.917 31.3213 235.379 30.4301 234.514 29.8243C233.664 29.2296 232.602 28.982 231.42 28.982V30.982ZM234.233 32.8823L254.141 108.608L256.076 108.1L236.168 32.3737L234.233 32.8823ZM254.147 108.629C254.38 109.443 254.285 109.765 254.24 109.842C254.23 109.86 254.213 109.887 254.141 109.918C254.053 109.957 253.885 110 253.596 110V112C254.52 112 255.469 111.724 255.977 110.835C256.436 110.03 256.341 109.029 256.07 108.079L254.147 108.629ZM253.596 110H241.5V112H253.596V110ZM241.5 110C240.621 110 240.353 109.824 240.318 109.789L238.903 111.203C239.54 111.84 240.532 112 241.5 112V110ZM240.391 109.871C240.221 109.658 240.002 109.156 239.841 108.19L237.868 108.518C238.043 109.568 238.328 110.494 238.83 111.121L240.391 109.871ZM239.824 108.107L236.296 94.2473L234.357 94.7407L237.885 108.601L239.824 108.107ZM235.326 93.494H210.756V95.494H235.326V93.494ZM209.787 94.2473L206.259 108.107L208.198 108.601L211.726 94.7407L209.787 94.2473ZM206.242 108.19C206.086 109.124 205.839 109.589 205.639 109.789L207.054 111.203C207.694 110.563 208.035 109.6 208.215 108.518L206.242 108.19ZM205.639 109.789C205.591 109.837 205.345 110 204.582 110V112C205.5 112 206.43 111.827 207.054 111.203L205.639 109.789ZM221.882 44.9863L212.81 81.4003L214.751 81.8837L223.823 45.4697L221.882 44.9863ZM213.78 82.642H232.428V80.642H213.78V82.642ZM233.399 81.4003L224.327 44.9863L222.386 45.4697L231.458 81.8837L233.399 81.4003ZM223.356 44.228H222.852V46.228H223.356V44.228ZM282.153 95.376L281.471 96.1071L281.471 96.1071L282.153 95.376ZM301.809 95.25L301.125 94.5205L301.113 94.5315L301.102 94.5429L301.809 95.25ZM300.801 81.138L300.23 81.9589L300.25 81.973L300.271 81.986L300.801 81.138ZM293.493 78.744L293.579 77.7477L293.579 77.7477L293.493 78.744ZM283.917 77.358L283.698 78.3336L283.712 78.3367L283.726 78.3395L283.917 77.358ZM274.467 74.586L274.096 75.5145L274.107 75.5191L274.119 75.5234L274.467 74.586ZM267.033 67.908L266.166 68.4065L266.174 68.4194L266.182 68.4321L267.033 67.908ZM269.679 35.4L270.378 36.1152L270.378 36.1152L269.679 35.4ZM313.149 35.4L312.45 36.1152L312.45 36.1152L313.149 35.4ZM300.801 45.606L301.484 44.8749L301.484 44.8749L300.801 45.606ZM281.901 45.858L281.172 45.1741L281.17 45.1757L281.901 45.858ZM290.469 62.616L290.384 63.6124L290.387 63.6126L290.469 62.616ZM309.495 66.9L309.889 65.9809L309.882 65.9776L309.874 65.9744L309.495 66.9ZM316.803 73.704L315.942 74.212L315.95 74.2251L315.958 74.238L316.803 73.704ZM269.805 105.582L269.106 106.297L269.106 106.297L269.805 105.582ZM265.261 90.336V87.816H263.261V90.336H265.261ZM265.261 87.816C265.261 87.0881 265.442 86.7259 265.63 86.5386C265.817 86.3513 266.179 86.17 266.907 86.17V84.17C265.871 84.17 264.91 84.4297 264.216 85.1244C263.521 85.8191 263.261 86.7799 263.261 87.816H265.261ZM266.907 86.17H277.617V84.17H266.907V86.17ZM277.617 86.17C278.345 86.17 278.707 86.3513 278.895 86.5386C279.082 86.7259 279.263 87.0881 279.263 87.816H281.263C281.263 86.7799 281.003 85.8191 280.309 85.1244C279.614 84.4297 278.653 84.17 277.617 84.17V86.17ZM279.263 87.816V88.824H281.263V87.816H279.263ZM279.263 88.824C279.263 92.0782 279.892 94.6332 281.471 96.1071L282.836 94.6449C281.895 93.7668 281.263 91.9538 281.263 88.824H279.263ZM281.471 96.1071C283.027 97.5592 285.679 98.14 289.083 98.14V96.14C285.767 96.14 283.8 95.5448 282.836 94.6449L281.471 96.1071ZM289.083 98.14H295.005V96.14H289.083V98.14ZM295.005 98.14C298.345 98.14 300.963 97.5103 302.516 95.9571L301.102 94.5429C300.135 95.5097 298.217 96.14 295.005 96.14V98.14ZM302.493 95.9795C304.156 94.4207 304.825 91.6968 304.825 88.194H302.825C302.825 91.5792 302.15 93.5593 301.125 94.5205L302.493 95.9795ZM304.825 88.194V86.682H302.825V88.194H304.825ZM304.825 86.682C304.825 83.9116 303.648 81.7382 301.331 80.29L300.271 81.986C301.986 83.0578 302.825 84.5804 302.825 86.682H304.825ZM301.372 80.3171C299.264 78.8507 296.649 78.0109 293.579 77.7477L293.408 79.7403C296.217 79.9811 298.474 80.7373 300.23 81.9589L301.372 80.3171ZM293.579 77.7477C290.68 77.4992 287.524 77.0429 284.109 76.3765L283.726 78.3395C287.198 79.0171 290.426 79.4848 293.408 79.7403L293.579 77.7477ZM284.137 76.3824C280.816 75.6353 277.71 74.7235 274.815 73.6486L274.119 75.5234C277.105 76.6324 280.298 77.5687 283.698 78.3336L284.137 76.3824ZM274.839 73.6575C272.138 72.5772 269.813 70.5172 267.885 67.3839L266.182 68.4321C268.285 71.8508 270.917 74.2428 274.096 75.5145L274.839 73.6575ZM267.9 67.4095C266.08 64.2446 265.135 60.147 265.135 55.056H263.135C263.135 60.381 264.122 64.8514 266.166 68.4065L267.9 67.4095ZM265.135 55.056V50.646H263.135V55.056H265.135ZM265.135 50.646C265.135 44.2871 266.923 39.4918 270.378 36.1152L268.98 34.6848C265.043 38.5322 263.135 43.9009 263.135 50.646H265.135ZM270.378 36.1152C273.841 32.7313 278.687 30.982 285.051 30.982V28.982C278.311 28.982 272.91 30.8447 268.98 34.6848L270.378 36.1152ZM285.051 30.982H297.651V28.982H285.051V30.982ZM297.651 30.982C304.103 30.982 308.99 32.7335 312.45 36.1152L313.848 34.6848C309.916 30.8425 304.471 28.982 297.651 28.982V30.982ZM312.45 36.1152C315.905 39.4918 317.693 44.2871 317.693 50.646H319.693C319.693 43.9009 317.785 38.5322 313.848 34.6848L312.45 36.1152ZM317.693 50.646V53.04H319.693V50.646H317.693ZM317.693 53.04C317.693 53.7679 317.512 54.1301 317.325 54.3174C317.137 54.5047 316.775 54.686 316.047 54.686V56.686C317.083 56.686 318.044 56.4263 318.739 55.7316C319.433 55.0369 319.693 54.0761 319.693 53.04H317.693ZM316.047 54.686H305.337V56.686H316.047V54.686ZM305.337 54.686C304.609 54.686 304.247 54.5047 304.06 54.3174C303.872 54.1301 303.691 53.7679 303.691 53.04H301.691C301.691 54.0761 301.951 55.0369 302.646 55.7316C303.34 56.4263 304.301 56.686 305.337 56.686V54.686ZM303.691 53.04V52.284H301.691V53.04H303.691ZM303.691 52.284C303.691 48.9553 303.066 46.3522 301.484 44.8749L300.119 46.337C301.056 47.2118 301.691 49.0607 301.691 52.284H303.691ZM301.484 44.8749C299.928 43.4228 297.275 42.842 293.871 42.842V44.842C297.187 44.842 299.155 45.4372 300.119 46.337L301.484 44.8749ZM293.871 42.842H288.957V44.842H293.871V42.842ZM288.957 42.842C285.454 42.842 282.731 43.5112 281.172 45.1741L282.631 46.5419C283.592 45.5167 285.572 44.842 288.957 44.842V42.842ZM281.17 45.1757C280.418 45.982 279.92 47.1144 279.604 48.4658C279.287 49.8258 279.137 51.4831 279.137 53.418H281.137C281.137 51.5729 281.281 50.0802 281.552 48.9202C281.825 47.7515 282.209 46.994 282.632 46.5403L281.17 45.1757ZM279.137 53.418V55.812H281.137V53.418H279.137ZM279.137 55.812C279.137 58.1399 280.182 60.0001 282.17 61.3092C284.096 62.5771 286.873 63.3126 290.384 63.6124L290.554 61.6196C287.177 61.3314 284.789 60.6389 283.27 59.6388C281.814 58.6799 281.137 57.4321 281.137 55.812H279.137ZM290.387 63.6126C297.445 64.1938 303.684 65.603 309.117 67.8255L309.874 65.9744C304.219 63.661 297.774 62.2142 290.551 61.6194L290.387 63.6126ZM309.101 67.8191C311.811 68.9804 314.097 71.0836 315.942 74.212L317.665 73.196C315.645 69.7724 313.06 67.3396 309.889 65.9809L309.101 67.8191ZM315.958 74.238C317.844 77.225 318.827 81.1393 318.827 86.052H320.827C320.827 80.8847 319.794 76.567 317.649 73.17L315.958 74.238ZM318.827 86.052V90.336H320.827V86.052H318.827ZM318.827 90.336C318.827 96.6949 317.039 101.49 313.584 104.867L314.982 106.297C318.919 102.45 320.827 97.0811 320.827 90.336H318.827ZM313.584 104.867C310.122 108.251 305.275 110 298.911 110V112C305.651 112 311.053 110.137 314.982 106.297L313.584 104.867ZM298.911 110H285.177V112H298.911V110ZM285.177 110C278.813 110 273.967 108.251 270.504 104.867L269.106 106.297C273.036 110.137 278.437 112 285.177 112V110ZM270.504 104.867C267.049 101.49 265.261 96.6949 265.261 90.336H263.261C263.261 97.0811 265.169 102.45 269.106 106.297L270.504 104.867ZM350.075 95.376L349.393 96.1071L349.393 96.1071L350.075 95.376ZM369.731 95.25L369.047 94.5205L369.035 94.5315L369.024 94.5429L369.731 95.25ZM368.723 81.138L368.152 81.9589L368.172 81.973L368.193 81.986L368.723 81.138ZM361.415 78.744L361.5 77.7477L361.5 77.7477L361.415 78.744ZM351.839 77.358L351.62 78.3336L351.634 78.3367L351.648 78.3395L351.839 77.358ZM342.389 74.586L342.018 75.5145L342.029 75.5191L342.041 75.5234L342.389 74.586ZM334.955 67.908L334.088 68.4065L334.096 68.4194L334.103 68.4321L334.955 67.908ZM337.601 35.4L338.3 36.1152L338.3 36.1152L337.601 35.4ZM381.071 35.4L380.372 36.1152L380.372 36.1152L381.071 35.4ZM368.723 45.606L369.405 44.8749L369.405 44.8749L368.723 45.606ZM349.823 45.858L349.094 45.1741L349.092 45.1757L349.823 45.858ZM358.391 62.616L358.306 63.6124L358.309 63.6126L358.391 62.616ZM377.417 66.9L377.811 65.9809L377.803 65.9776L377.796 65.9744L377.417 66.9ZM384.725 73.704L383.864 74.212L383.871 74.2251L383.88 74.238L384.725 73.704ZM337.727 105.582L337.028 106.297L337.028 106.297L337.727 105.582ZM333.183 90.336V87.816H331.183V90.336H333.183ZM333.183 87.816C333.183 87.0881 333.364 86.7259 333.552 86.5386C333.739 86.3513 334.101 86.17 334.829 86.17V84.17C333.793 84.17 332.832 84.4297 332.137 85.1244C331.443 85.8191 331.183 86.7799 331.183 87.816H333.183ZM334.829 86.17H345.539V84.17H334.829V86.17ZM345.539 86.17C346.267 86.17 346.629 86.3513 346.816 86.5386C347.004 86.7259 347.185 87.0881 347.185 87.816H349.185C349.185 86.7799 348.925 85.8191 348.231 85.1244C347.536 84.4297 346.575 84.17 345.539 84.17V86.17ZM347.185 87.816V88.824H349.185V87.816H347.185ZM347.185 88.824C347.185 92.0782 347.814 94.6332 349.393 96.1071L350.757 94.6449C349.817 93.7668 349.185 91.9538 349.185 88.824H347.185ZM349.393 96.1071C350.949 97.5592 353.601 98.14 357.005 98.14V96.14C353.689 96.14 351.722 95.5448 350.757 94.6449L349.393 96.1071ZM357.005 98.14H362.927V96.14H357.005V98.14ZM362.927 98.14C366.267 98.14 368.885 97.5103 370.438 95.9571L369.024 94.5429C368.057 95.5097 366.139 96.14 362.927 96.14V98.14ZM370.415 95.9795C372.078 94.4207 372.747 91.6968 372.747 88.194H370.747C370.747 91.5792 370.072 93.5593 369.047 94.5205L370.415 95.9795ZM372.747 88.194V86.682H370.747V88.194H372.747ZM372.747 86.682C372.747 83.9116 371.57 81.7382 369.253 80.29L368.193 81.986C369.908 83.0578 370.747 84.5804 370.747 86.682H372.747ZM369.294 80.3171C367.186 78.8507 364.571 78.0109 361.5 77.7477L361.33 79.7403C364.139 79.9811 366.396 80.7373 368.152 81.9589L369.294 80.3171ZM361.5 77.7477C358.602 77.4992 355.446 77.0429 352.031 76.3765L351.648 78.3395C355.12 79.0171 358.348 79.4848 361.33 79.7403L361.5 77.7477ZM352.059 76.3824C348.738 75.6353 345.631 74.7235 342.737 73.6486L342.041 75.5234C345.027 76.6324 348.22 77.5687 351.62 78.3336L352.059 76.3824ZM342.76 73.6575C340.06 72.5772 337.735 70.5172 335.807 67.3839L334.103 68.4321C336.207 71.8508 338.839 74.2428 342.018 75.5145L342.76 73.6575ZM335.822 67.4095C334.002 64.2446 333.057 60.147 333.057 55.056H331.057C331.057 60.381 332.044 64.8514 334.088 68.4065L335.822 67.4095ZM333.057 55.056V50.646H331.057V55.056H333.057ZM333.057 50.646C333.057 44.2871 334.845 39.4918 338.3 36.1152L336.902 34.6848C332.965 38.5322 331.057 43.9009 331.057 50.646H333.057ZM338.3 36.1152C341.763 32.7313 346.609 30.982 352.973 30.982V28.982C346.233 28.982 340.832 30.8447 336.902 34.6848L338.3 36.1152ZM352.973 30.982H365.573V28.982H352.973V30.982ZM365.573 30.982C372.025 30.982 376.912 32.7335 380.372 36.1152L381.77 34.6848C377.838 30.8425 372.393 28.982 365.573 28.982V30.982ZM380.372 36.1152C383.827 39.4918 385.615 44.2871 385.615 50.646H387.615C387.615 43.9009 385.707 38.5322 381.77 34.6848L380.372 36.1152ZM385.615 50.646V53.04H387.615V50.646H385.615ZM385.615 53.04C385.615 53.7679 385.434 54.1301 385.246 54.3174C385.059 54.5047 384.697 54.686 383.969 54.686V56.686C385.005 56.686 385.966 56.4263 386.661 55.7316C387.355 55.0369 387.615 54.0761 387.615 53.04H385.615ZM383.969 54.686H373.259V56.686H383.969V54.686ZM373.259 54.686C372.531 54.686 372.169 54.5047 371.982 54.3174C371.794 54.1301 371.613 53.7679 371.613 53.04H369.613C369.613 54.0761 369.873 55.0369 370.567 55.7316C371.262 56.4263 372.223 56.686 373.259 56.686V54.686ZM371.613 53.04V52.284H369.613V53.04H371.613ZM371.613 52.284C371.613 48.9553 370.988 46.3522 369.405 44.8749L368.041 46.337C368.978 47.2118 369.613 49.0607 369.613 52.284H371.613ZM369.405 44.8749C367.85 43.4228 365.197 42.842 361.793 42.842V44.842C365.109 44.842 367.077 45.4372 368.041 46.337L369.405 44.8749ZM361.793 42.842H356.879V44.842H361.793V42.842ZM356.879 42.842C353.376 42.842 350.652 43.5112 349.094 45.1741L350.553 46.5419C351.514 45.5167 353.494 44.842 356.879 44.842V42.842ZM349.092 45.1757C348.339 45.982 347.842 47.1144 347.526 48.4658C347.209 49.8258 347.059 51.4831 347.059 53.418H349.059C349.059 51.5729 349.203 50.0802 349.474 48.9202C349.747 47.7515 350.131 46.994 350.554 46.5403L349.092 45.1757ZM347.059 53.418V55.812H349.059V53.418H347.059ZM347.059 55.812C347.059 58.1399 348.104 60.0001 350.092 61.3092C352.018 62.5771 354.795 63.3126 358.306 63.6124L358.476 61.6196C355.099 61.3314 352.711 60.6389 351.192 59.6388C349.736 58.6799 349.059 57.4321 349.059 55.812H347.059ZM358.309 63.6126C365.366 64.1938 371.606 65.603 377.038 67.8255L377.796 65.9744C372.141 63.661 365.696 62.2142 358.473 61.6194L358.309 63.6126ZM377.023 67.8191C379.733 68.9804 382.019 71.0836 383.864 74.212L385.586 73.196C383.567 69.7724 380.981 67.3396 377.811 65.9809L377.023 67.8191ZM383.88 74.238C385.766 77.225 386.749 81.1393 386.749 86.052H388.749C388.749 80.8847 387.716 76.567 385.571 73.17L383.88 74.238ZM386.749 86.052V90.336H388.749V86.052H386.749ZM386.749 90.336C386.749 96.6949 384.961 101.49 381.506 104.867L382.904 106.297C386.841 102.45 388.749 97.0811 388.749 90.336H386.749ZM381.506 104.867C378.044 108.251 373.197 110 366.833 110V112C373.573 112 378.975 110.137 382.904 106.297L381.506 104.867ZM366.833 110H353.099V112H366.833V110ZM353.099 110C346.735 110 341.889 108.251 338.426 104.867L337.028 106.297C340.958 110.137 346.359 112 353.099 112V110ZM338.426 104.867C334.971 101.49 333.183 96.6949 333.183 90.336H331.183C331.183 97.0811 333.091 102.45 337.028 106.297L338.426 104.867Z" fill="black"/>
</svg>
