<svg width="513" height="150" viewBox="0 0 513 150" fill="none" xmlns="http://www.w3.org/2000/svg">
<rect x="2.5" y="2.5" width="507.304" height="145" rx="32.5" fill="#DCBA55" stroke="black" stroke-width="5"/>
<path d="M86.6919 111H73.3359C66.6999 111 61.5759 109.236 57.9639 105.708C54.3519 102.18 52.5459 97.098 52.5459 90.462V50.52C52.5459 43.884 54.3519 38.802 57.9639 35.274C61.5759 31.746 66.6999 29.982 73.3359 29.982H86.6919C93.2439 29.982 98.3259 31.788 101.938 35.4C105.55 38.928 107.356 43.968 107.356 50.52V54.3C107.356 56.148 106.474 57.072 104.71 57.072H93.9999C92.2359 57.072 91.3539 56.148 91.3539 54.3V51.276C91.3539 48.588 90.8079 46.698 89.7159 45.606C88.6239 44.43 86.7339 43.842 84.0459 43.842H75.8559C73.2519 43.842 71.3619 44.43 70.1859 45.606C69.0939 46.698 68.5479 48.588 68.5479 51.276V89.706C68.5479 92.394 69.0939 94.326 70.1859 95.502C71.3619 96.594 73.2519 97.14 75.8559 97.14H84.0459C86.7339 97.14 88.6239 96.594 89.7159 95.502C90.8079 94.326 91.3539 92.394 91.3539 89.706V81.768C91.3539 80.844 90.8919 80.382 89.9679 80.382H82.4079C80.6439 80.382 79.7619 79.5 79.7619 77.736V69.168C79.7619 67.404 80.6439 66.522 82.4079 66.522H104.458C106.39 66.522 107.356 67.488 107.356 69.42V90.462C107.356 97.014 105.55 102.096 101.938 105.708C98.3259 109.236 93.2439 111 86.6919 111ZM135.822 111H125.112C123.348 111 122.466 110.118 122.466 108.354V32.628C122.466 30.864 123.348 29.982 125.112 29.982H155.1C161.652 29.982 166.776 31.788 170.472 35.4C174.168 39.012 176.016 44.094 176.016 50.646V60.474C176.016 69.966 172.278 76.266 164.802 79.374V79.878L178.284 107.976C179.04 109.992 178.326 111 176.142 111H165.936C164.424 111 163.332 110.832 162.66 110.496C161.988 110.16 161.442 109.446 161.022 108.354L148.422 81.138H139.98C138.972 81.138 138.468 81.6 138.468 82.524V108.354C138.468 110.118 137.586 111 135.822 111ZM139.854 68.286H152.202C154.89 68.286 156.864 67.74 158.124 66.648C159.384 65.472 160.014 63.624 160.014 61.104V51.276C160.014 48.672 159.384 46.782 158.124 45.606C156.864 44.43 154.89 43.842 152.202 43.842H139.854C138.93 43.842 138.468 44.304 138.468 45.228V66.9C138.468 67.824 138.93 68.286 139.854 68.286ZM213.422 97.14H222.368C225.056 97.14 226.946 96.594 228.038 95.502C229.214 94.326 229.802 92.394 229.802 89.706V51.276C229.802 48.588 229.214 46.698 228.038 45.606C226.946 44.43 225.056 43.842 222.368 43.842H213.422C210.734 43.842 208.844 44.43 207.752 45.606C206.66 46.698 206.114 48.588 206.114 51.276V89.706C206.114 92.394 206.66 94.326 207.752 95.502C208.844 96.594 210.734 97.14 213.422 97.14ZM225.014 111H210.902C204.266 111 199.142 109.236 195.53 105.708C191.918 102.18 190.112 97.098 190.112 90.462V50.52C190.112 43.884 191.918 38.802 195.53 35.274C199.142 31.746 204.266 29.982 210.902 29.982H225.014C231.65 29.982 236.774 31.746 240.386 35.274C243.998 38.802 245.804 43.884 245.804 50.52V90.462C245.804 97.098 243.998 102.18 240.386 105.708C236.774 109.236 231.65 111 225.014 111ZM302.348 29.982H312.932C314.78 29.982 315.704 30.822 315.704 32.502V90.462C315.704 97.014 313.856 102.096 310.16 105.708C306.548 109.236 301.466 111 294.914 111H281.054C274.418 111 269.294 109.236 265.682 105.708C262.07 102.18 260.264 97.098 260.264 90.462V32.628C260.264 30.864 261.146 29.982 262.91 29.982H273.62C275.384 29.982 276.266 30.864 276.266 32.628V89.706C276.266 92.394 276.812 94.326 277.904 95.502C279.08 96.594 280.97 97.14 283.574 97.14H292.268C294.956 97.14 296.846 96.594 297.938 95.502C299.114 94.326 299.702 92.394 299.702 89.706V32.628C299.702 30.864 300.584 29.982 302.348 29.982ZM344.504 111H334.046C332.282 111 331.4 110.118 331.4 108.354V32.628C331.4 30.864 332.282 29.982 334.046 29.982H343.496C345.26 29.982 346.436 30.57 347.024 31.746L372.476 79.5H372.98V32.628C372.98 30.864 373.862 29.982 375.626 29.982H386.084C387.848 29.982 388.73 30.864 388.73 32.628V108.354C388.73 110.118 387.848 111 386.084 111H376.886C375.038 111 373.694 110.16 372.854 108.48L347.654 61.608H347.15V108.354C347.15 110.118 346.268 111 344.504 111ZM422.493 97.14H436.227C438.915 97.14 440.805 96.594 441.897 95.502C443.073 94.326 443.661 92.394 443.661 89.706V51.276C443.661 48.588 443.073 46.698 441.897 45.606C440.805 44.43 438.915 43.842 436.227 43.842H422.493C421.569 43.842 421.107 44.304 421.107 45.228V95.754C421.107 96.678 421.569 97.14 422.493 97.14ZM405.105 108.354V32.628C405.105 30.864 405.987 29.982 407.751 29.982H438.873C445.425 29.982 450.507 31.788 454.119 35.4C457.815 38.928 459.663 43.968 459.663 50.52V90.462C459.663 97.014 457.815 102.096 454.119 105.708C450.507 109.236 445.425 111 438.873 111H407.751C405.987 111 405.105 110.118 405.105 108.354Z" fill="white"/>
<path d="M57.9639 105.708L58.6626 104.993L58.6626 104.993L57.9639 105.708ZM57.9639 35.274L58.6626 35.9894L58.6626 35.9894L57.9639 35.274ZM101.938 35.4L101.231 36.1072L101.239 36.1154L101.938 35.4ZM89.7159 45.606L88.9831 46.2864L88.9957 46.3L89.0088 46.3131L89.7159 45.606ZM70.1859 45.606L69.4788 44.8989L69.4788 44.8989L70.1859 45.606ZM70.1859 95.502L69.4531 96.1825L69.4783 96.2096L69.5054 96.2348L70.1859 95.502ZM89.7159 95.502L90.423 96.2091L90.4361 96.196L90.4487 96.1824L89.7159 95.502ZM101.938 105.708L102.637 106.423L102.645 106.415L101.938 105.708ZM86.6919 110H73.3359V112H86.6919V110ZM73.3359 110C66.8761 110 62.0348 108.286 58.6626 104.993L57.2651 106.423C61.117 110.186 66.5237 112 73.3359 112V110ZM58.6626 104.993C55.2983 101.707 53.5459 96.9169 53.5459 90.462H51.5459C51.5459 97.2791 53.4054 102.653 57.2651 106.423L58.6626 104.993ZM53.5459 90.462V50.52H51.5459V90.462H53.5459ZM53.5459 50.52C53.5459 44.0651 55.2983 39.2754 58.6626 35.9894L57.2651 34.5586C53.4054 38.3286 51.5459 43.7029 51.5459 50.52H53.5459ZM58.6626 35.9894C62.0348 32.6956 66.8761 30.982 73.3359 30.982V28.982C66.5237 28.982 61.117 30.7964 57.2651 34.5586L58.6626 35.9894ZM73.3359 30.982H86.6919V28.982H73.3359V30.982ZM86.6919 30.982C93.0572 30.982 97.8553 32.7317 101.231 36.1071L102.645 34.6929C98.7964 30.8443 93.4306 28.982 86.6919 28.982V30.982ZM101.239 36.1154C104.606 39.4037 106.356 44.1534 106.356 50.52H108.356C108.356 43.7826 106.494 38.4523 102.637 34.6846L101.239 36.1154ZM106.356 50.52V54.3H108.356V50.52H106.356ZM106.356 54.3C106.356 55.0812 106.169 55.4814 105.971 55.6885C105.782 55.8869 105.426 56.072 104.71 56.072V58.072C105.758 58.072 106.725 57.7951 107.418 57.0695C108.102 56.3526 108.356 55.3668 108.356 54.3H106.356ZM104.71 56.072H93.9999V58.072H104.71V56.072ZM93.9999 56.072C93.2842 56.072 92.9281 55.8869 92.7387 55.6885C92.5411 55.4814 92.3539 55.0812 92.3539 54.3H90.3539C90.3539 55.3668 90.6077 56.3526 91.292 57.0695C91.9846 57.7951 92.9516 58.072 93.9999 58.072V56.072ZM92.3539 54.3V51.276H90.3539V54.3H92.3539ZM92.3539 51.276C92.3539 48.5049 91.8007 46.2767 90.423 44.8989L89.0088 46.3131C89.815 47.1193 90.3539 48.6711 90.3539 51.276H92.3539ZM90.4487 44.9255C89.0728 43.4439 86.8328 42.842 84.0459 42.842V44.842C86.6349 44.842 88.1749 45.4161 88.9831 46.2864L90.4487 44.9255ZM84.0459 42.842H75.8559V44.842H84.0459V42.842ZM75.8559 42.842C73.1324 42.842 70.9249 43.4527 69.4788 44.8989L70.893 46.3131C71.7988 45.4072 73.3714 44.842 75.8559 44.842V42.842ZM69.4788 44.8989C68.101 46.2766 67.5479 48.5049 67.5479 51.276H69.5479C69.5479 48.6711 70.0867 47.1193 70.893 46.3131L69.4788 44.8989ZM67.5479 51.276V89.706H69.5479V51.276H67.5479ZM67.5479 89.706C67.5479 92.4874 68.1053 94.731 69.4531 96.1825L70.9187 94.8215C70.0824 93.921 69.5479 92.3006 69.5479 89.706H67.5479ZM69.5054 96.2348C70.9523 97.5783 73.1482 98.14 75.8559 98.14V96.14C73.3556 96.14 71.7715 95.6097 70.8663 94.7692L69.5054 96.2348ZM75.8559 98.14H84.0459V96.14H75.8559V98.14ZM84.0459 98.14C86.8169 98.14 89.0452 97.5869 90.423 96.2091L89.0088 94.7949C88.2025 95.6011 86.6508 96.14 84.0459 96.14V98.14ZM90.4487 96.1824C91.7964 94.731 92.3539 92.4874 92.3539 89.706H90.3539C90.3539 92.3006 89.8193 93.921 88.9831 94.8215L90.4487 96.1824ZM92.3539 89.706V81.768H90.3539V89.706H92.3539ZM92.3539 81.768C92.3539 81.1519 92.1992 80.5061 91.7145 80.0214C91.2298 79.5367 90.584 79.382 89.9679 79.382V81.382C90.2757 81.382 90.3229 81.4583 90.3003 81.4356C90.2776 81.4129 90.3539 81.4601 90.3539 81.768H92.3539ZM89.9679 79.382H82.4079V81.382H89.9679V79.382ZM82.4079 79.382C81.68 79.382 81.3178 79.2007 81.1305 79.0134C80.9432 78.8261 80.7619 78.4639 80.7619 77.736H78.7619C78.7619 78.7721 79.0216 79.7329 79.7163 80.4276C80.411 81.1223 81.3717 81.382 82.4079 81.382V79.382ZM80.7619 77.736V69.168H78.7619V77.736H80.7619ZM80.7619 69.168C80.7619 68.4401 80.9432 68.0779 81.1305 67.8906C81.3178 67.7033 81.68 67.522 82.4079 67.522V65.522C81.3717 65.522 80.411 65.7817 79.7163 66.4764C79.0216 67.1711 78.7619 68.1319 78.7619 69.168H80.7619ZM82.4079 67.522H104.458V65.522H82.4079V67.522ZM104.458 67.522C105.27 67.522 105.695 67.7243 105.924 67.9536C106.154 68.1829 106.356 68.6081 106.356 69.42H108.356C108.356 68.2999 108.075 67.2761 107.338 66.5394C106.602 65.8027 105.578 65.522 104.458 65.522V67.522ZM106.356 69.42V90.462H108.356V69.42H106.356ZM106.356 90.462C106.356 96.8273 104.606 101.625 101.231 105.001L102.645 106.415C106.494 102.567 108.356 97.2007 108.356 90.462H106.356ZM101.239 104.993C97.8647 108.289 93.0635 110 86.6919 110V112C93.4242 112 98.787 110.183 102.637 106.423L101.239 104.993ZM164.802 79.374L164.418 78.4506L163.802 78.7068V79.374H164.802ZM164.802 79.878H163.802V80.1055L163.9 80.3106L164.802 79.878ZM178.284 107.976L179.22 107.625L179.205 107.583L179.186 107.543L178.284 107.976ZM162.66 110.496L162.213 111.39L162.213 111.39L162.66 110.496ZM161.022 108.354L161.955 107.995L161.943 107.964L161.93 107.934L161.022 108.354ZM148.422 81.138L149.33 80.7179L149.061 80.138H148.422V81.138ZM158.124 66.648L158.779 67.4037L158.793 67.3916L158.806 67.3791L158.124 66.648ZM158.124 45.606L158.806 44.8749L158.806 44.8749L158.124 45.606ZM135.822 110H125.112V112H135.822V110ZM125.112 110C124.384 110 124.022 109.819 123.835 109.631C123.647 109.444 123.466 109.082 123.466 108.354H121.466C121.466 109.39 121.726 110.351 122.42 111.046C123.115 111.74 124.076 112 125.112 112V110ZM123.466 108.354V32.628H121.466V108.354H123.466ZM123.466 32.628C123.466 31.9001 123.647 31.5379 123.835 31.3506C124.022 31.1633 124.384 30.982 125.112 30.982V28.982C124.076 28.982 123.115 29.2417 122.42 29.9364C121.726 30.6311 121.466 31.5919 121.466 32.628H123.466ZM125.112 30.982H155.1V28.982H125.112V30.982ZM155.1 30.982C161.464 30.982 166.311 32.7313 169.773 36.1152L171.171 34.6848C167.242 30.8447 161.84 28.982 155.1 28.982V30.982ZM169.773 36.1152C173.228 39.4918 175.016 44.2871 175.016 50.646H177.016C177.016 43.9009 175.108 38.5322 171.171 34.6848L169.773 36.1152ZM175.016 50.646V60.474H177.016V50.646H175.016ZM175.016 60.474C175.016 65.0924 174.107 68.8515 172.353 71.8077C170.605 74.7527 167.979 76.9702 164.418 78.4506L165.186 80.2974C169.101 78.6698 172.082 76.1833 174.073 72.8283C176.056 69.4845 177.016 65.3476 177.016 60.474H175.016ZM163.802 79.374V79.878H165.802V79.374H163.802ZM163.9 80.3106L177.382 108.409L179.186 107.543L165.704 79.4454L163.9 80.3106ZM177.348 108.327C177.695 109.253 177.558 109.584 177.5 109.666C177.436 109.755 177.152 110 176.142 110V112C177.316 112 178.481 111.741 179.132 110.822C179.788 109.896 179.629 108.715 179.22 107.625L177.348 108.327ZM176.142 110H165.936V112H176.142V110ZM165.936 110C164.453 110 163.56 109.828 163.107 109.602L162.213 111.39C163.104 111.836 164.395 112 165.936 112V110ZM163.107 109.602C162.754 109.425 162.334 108.979 161.955 107.995L160.089 108.713C160.55 109.913 161.222 110.895 162.213 111.39L163.107 109.602ZM161.93 107.934L149.33 80.7179L147.515 81.5581L160.115 108.774L161.93 107.934ZM148.422 80.138H139.98V82.138H148.422V80.138ZM139.98 80.138C139.342 80.138 138.678 80.2823 138.17 80.7473C137.646 81.2275 137.468 81.8844 137.468 82.524H139.468C139.468 82.3813 139.488 82.2993 139.502 82.2594C139.509 82.2402 139.515 82.2306 139.517 82.2271C139.519 82.2238 139.521 82.2226 139.522 82.2217C139.522 82.2215 139.542 82.2019 139.611 82.181C139.683 82.1588 139.801 82.138 139.98 82.138V80.138ZM137.468 82.524V108.354H139.468V82.524H137.468ZM137.468 108.354C137.468 109.082 137.287 109.444 137.099 109.631C136.912 109.819 136.55 110 135.822 110V112C136.858 112 137.819 111.74 138.514 111.046C139.208 110.351 139.468 109.39 139.468 108.354H137.468ZM139.854 69.286H152.202V67.286H139.854V69.286ZM152.202 69.286C154.992 69.286 157.254 68.7249 158.779 67.4037L157.469 65.8923C156.474 66.7551 154.788 67.286 152.202 67.286V69.286ZM158.806 67.3791C160.347 65.9408 161.014 63.7719 161.014 61.104H159.014C159.014 63.4761 158.421 65.0031 157.442 65.9169L158.806 67.3791ZM161.014 61.104V51.276H159.014V61.104H161.014ZM161.014 51.276C161.014 48.5358 160.353 46.3186 158.806 44.8749L157.442 46.337C158.415 47.2454 159.014 48.8081 159.014 51.276H161.014ZM158.806 44.8749C157.281 43.4513 155.007 42.842 152.202 42.842V44.842C154.773 44.842 156.447 45.4087 157.442 46.337L158.806 44.8749ZM152.202 42.842H139.854V44.842H152.202V42.842ZM139.854 42.842C139.238 42.842 138.592 42.9967 138.107 43.4814C137.623 43.9661 137.468 44.6119 137.468 45.228H139.468C139.468 44.9201 139.544 44.8729 139.522 44.8956C139.499 44.9183 139.546 44.842 139.854 44.842V42.842ZM137.468 45.228V66.9H139.468V45.228H137.468ZM137.468 66.9C137.468 67.5161 137.623 68.1619 138.107 68.6466C138.592 69.1313 139.238 69.286 139.854 69.286V67.286C139.546 67.286 139.499 67.2097 139.522 67.2324C139.544 67.2551 139.468 67.2079 139.468 66.9H137.468ZM228.038 95.502L227.331 94.7949L227.331 94.7949L228.038 95.502ZM228.038 45.606L227.305 46.2864L227.331 46.3136L227.358 46.3388L228.038 45.606ZM207.752 45.606L208.459 46.3131L208.472 46.3L208.485 46.2864L207.752 45.606ZM207.752 95.502L207.019 96.1825L207.032 96.196L207.045 96.2091L207.752 95.502ZM195.53 105.708L196.229 104.993L196.229 104.993L195.53 105.708ZM195.53 35.274L196.229 35.9894L196.229 35.9894L195.53 35.274ZM240.386 35.274L241.085 34.5586L241.085 34.5586L240.386 35.274ZM240.386 105.708L241.085 106.423L241.085 106.423L240.386 105.708ZM213.422 98.14H222.368V96.14H213.422V98.14ZM222.368 98.14C225.139 98.14 227.368 97.5869 228.745 96.2091L227.331 94.7949C226.525 95.6011 224.973 96.14 222.368 96.14V98.14ZM228.745 96.2091C230.196 94.7581 230.802 92.5026 230.802 89.706H228.802C228.802 92.2854 228.232 93.8939 227.331 94.7949L228.745 96.2091ZM230.802 89.706V51.276H228.802V89.706H230.802ZM230.802 51.276C230.802 48.489 230.2 46.249 228.719 44.8732L227.358 46.3388C228.228 47.1469 228.802 48.687 228.802 51.276H230.802ZM228.771 44.9255C227.395 43.4439 225.155 42.842 222.368 42.842V44.842C224.957 44.842 226.497 45.4161 227.305 46.2864L228.771 44.9255ZM222.368 42.842H213.422V44.842H222.368V42.842ZM213.422 42.842C210.635 42.842 208.395 43.4439 207.019 44.9255L208.485 46.2864C209.293 45.4161 210.833 44.842 213.422 44.842V42.842ZM207.045 44.8989C205.667 46.2766 205.114 48.5049 205.114 51.276H207.114C207.114 48.6711 207.653 47.1193 208.459 46.3131L207.045 44.8989ZM205.114 51.276V89.706H207.114V51.276H205.114ZM205.114 89.706C205.114 92.4874 205.672 94.731 207.019 96.1825L208.485 94.8215C207.649 93.921 207.114 92.3006 207.114 89.706H205.114ZM207.045 96.2091C208.423 97.5869 210.651 98.14 213.422 98.14V96.14C210.817 96.14 209.266 95.6011 208.459 94.7949L207.045 96.2091ZM225.014 110H210.902V112H225.014V110ZM210.902 110C204.443 110 199.601 108.286 196.229 104.993L194.832 106.423C198.683 110.186 204.09 112 210.902 112V110ZM196.229 104.993C192.865 101.707 191.112 96.9169 191.112 90.462H189.112C189.112 97.2791 190.972 102.653 194.832 106.423L196.229 104.993ZM191.112 90.462V50.52H189.112V90.462H191.112ZM191.112 50.52C191.112 44.0651 192.865 39.2754 196.229 35.9894L194.832 34.5586C190.972 38.3286 189.112 43.7029 189.112 50.52H191.112ZM196.229 35.9894C199.601 32.6956 204.443 30.982 210.902 30.982V28.982C204.09 28.982 198.683 30.7964 194.832 34.5586L196.229 35.9894ZM210.902 30.982H225.014V28.982H210.902V30.982ZM225.014 30.982C231.474 30.982 236.315 32.6956 239.688 35.9894L241.085 34.5586C237.233 30.7964 231.827 28.982 225.014 28.982V30.982ZM239.688 35.9894C243.052 39.2754 244.804 44.0651 244.804 50.52H246.804C246.804 43.7029 244.945 38.3286 241.085 34.5586L239.688 35.9894ZM244.804 50.52V90.462H246.804V50.52H244.804ZM244.804 90.462C244.804 96.9169 243.052 101.707 239.688 104.993L241.085 106.423C244.945 102.653 246.804 97.2791 246.804 90.462H244.804ZM239.688 104.993C236.315 108.286 231.474 110 225.014 110V112C231.827 112 237.233 110.186 241.085 106.423L239.688 104.993ZM310.16 105.708L310.859 106.423L310.859 106.423L310.16 105.708ZM277.904 95.502L277.171 96.1825L277.196 96.2096L277.223 96.2348L277.904 95.502ZM297.938 95.502L298.645 96.2091L298.645 96.2091L297.938 95.502ZM302.348 30.982H312.932V28.982H302.348V30.982ZM312.932 30.982C313.724 30.982 314.131 31.1641 314.338 31.3519C314.527 31.5234 314.704 31.842 314.704 32.502H316.704C316.704 31.482 316.419 30.5406 315.683 29.8721C314.966 29.2199 313.988 28.982 312.932 28.982V30.982ZM314.704 32.502V90.462H316.704V32.502H314.704ZM314.704 90.462C314.704 96.8209 312.916 101.616 309.461 104.993L310.859 106.423C314.796 102.576 316.704 97.2071 316.704 90.462H314.704ZM309.461 104.993C306.087 108.289 301.285 110 294.914 110V112C301.646 112 307.009 110.183 310.859 106.423L309.461 104.993ZM294.914 110H281.054V112H294.914V110ZM281.054 110C274.594 110 269.753 108.286 266.381 104.993L264.983 106.423C268.835 110.186 274.242 112 281.054 112V110ZM266.381 104.993C263.016 101.707 261.264 96.9169 261.264 90.462H259.264C259.264 97.2791 261.123 102.653 264.983 106.423L266.381 104.993ZM261.264 90.462V32.628H259.264V90.462H261.264ZM261.264 32.628C261.264 31.9001 261.445 31.5379 261.632 31.3506C261.82 31.1633 262.182 30.982 262.91 30.982V28.982C261.874 28.982 260.913 29.2417 260.218 29.9364C259.523 30.6311 259.264 31.5919 259.264 32.628H261.264ZM262.91 30.982H273.62V28.982H262.91V30.982ZM273.62 30.982C274.348 30.982 274.71 31.1633 274.897 31.3506C275.084 31.5379 275.266 31.9001 275.266 32.628H277.266C277.266 31.5919 277.006 30.6311 276.311 29.9364C275.617 29.2417 274.656 28.982 273.62 28.982V30.982ZM275.266 32.628V89.706H277.266V32.628H275.266ZM275.266 89.706C275.266 92.4874 275.823 94.731 277.171 96.1825L278.637 94.8215C277.8 93.921 277.266 92.3006 277.266 89.706H275.266ZM277.223 96.2348C278.67 97.5783 280.866 98.14 283.574 98.14V96.14C281.073 96.14 279.489 95.6097 278.584 94.7692L277.223 96.2348ZM283.574 98.14H292.268V96.14H283.574V98.14ZM292.268 98.14C295.039 98.14 297.267 97.5869 298.645 96.2091L297.231 94.7949C296.424 95.6011 294.873 96.14 292.268 96.14V98.14ZM298.645 96.2091C300.096 94.7581 300.702 92.5026 300.702 89.706H298.702C298.702 92.2854 298.132 93.8939 297.231 94.7949L298.645 96.2091ZM300.702 89.706V32.628H298.702V89.706H300.702ZM300.702 32.628C300.702 31.9001 300.883 31.5379 301.07 31.3506C301.258 31.1633 301.62 30.982 302.348 30.982V28.982C301.312 28.982 300.351 29.2417 299.656 29.9364C298.961 30.6311 298.702 31.5919 298.702 32.628H300.702ZM347.024 31.746L346.129 32.1932L346.135 32.2049L346.141 32.2163L347.024 31.746ZM372.476 79.5L371.593 79.9703L371.875 80.5H372.476V79.5ZM372.98 79.5V80.5H373.98V79.5H372.98ZM372.854 108.48L373.748 108.033L373.741 108.02L373.734 108.006L372.854 108.48ZM347.654 61.608L348.534 61.1345L348.251 60.608H347.654V61.608ZM347.15 61.608V60.608H346.15V61.608H347.15ZM344.504 110H334.046V112H344.504V110ZM334.046 110C333.318 110 332.956 109.819 332.768 109.631C332.581 109.444 332.4 109.082 332.4 108.354H330.4C330.4 109.39 330.659 110.351 331.354 111.046C332.049 111.74 333.009 112 334.046 112V110ZM332.4 108.354V32.628H330.4V108.354H332.4ZM332.4 32.628C332.4 31.9001 332.581 31.5379 332.768 31.3506C332.956 31.1633 333.318 30.982 334.046 30.982V28.982C333.009 28.982 332.049 29.2417 331.354 29.9364C330.659 30.6311 330.4 31.5919 330.4 32.628H332.4ZM334.046 30.982H343.496V28.982H334.046V30.982ZM343.496 30.982C345.032 30.982 345.769 31.4727 346.129 32.1932L347.918 31.2988C347.102 29.6673 345.487 28.982 343.496 28.982V30.982ZM346.141 32.2163L371.593 79.9703L373.358 79.0297L347.906 31.2757L346.141 32.2163ZM372.476 80.5H372.98V78.5H372.476V80.5ZM373.98 79.5V32.628H371.98V79.5H373.98ZM373.98 32.628C373.98 31.9001 374.161 31.5379 374.348 31.3506C374.536 31.1633 374.898 30.982 375.626 30.982V28.982C374.589 28.982 373.629 29.2417 372.934 29.9364C372.239 30.6311 371.98 31.5919 371.98 32.628H373.98ZM375.626 30.982H386.084V28.982H375.626V30.982ZM386.084 30.982C386.811 30.982 387.174 31.1633 387.361 31.3506C387.548 31.5379 387.73 31.9001 387.73 32.628H389.73C389.73 31.5919 389.47 30.6311 388.775 29.9364C388.081 29.2417 387.12 28.982 386.084 28.982V30.982ZM387.73 32.628V108.354H389.73V32.628H387.73ZM387.73 108.354C387.73 109.082 387.548 109.444 387.361 109.631C387.174 109.819 386.811 110 386.084 110V112C387.12 112 388.081 111.74 388.775 111.046C389.47 110.351 389.73 109.39 389.73 108.354H387.73ZM386.084 110H376.886V112H386.084V110ZM376.886 110C376.117 110 375.51 109.827 375.022 109.522C374.532 109.216 374.101 108.739 373.748 108.033L371.959 108.927C372.446 109.901 373.107 110.684 373.962 111.218C374.817 111.753 375.806 112 376.886 112V110ZM373.734 108.006L348.534 61.1345L346.773 62.0815L371.973 108.954L373.734 108.006ZM347.654 60.608H347.15V62.608H347.654V60.608ZM346.15 61.608V108.354H348.15V61.608H346.15ZM346.15 108.354C346.15 109.082 345.968 109.444 345.781 109.631C345.594 109.819 345.231 110 344.504 110V112C345.54 112 346.501 111.74 347.195 111.046C347.89 110.351 348.15 109.39 348.15 108.354H346.15ZM441.897 95.502L442.604 96.2091L442.604 96.2091L441.897 95.502ZM441.897 45.606L441.164 46.2864L441.189 46.3136L441.216 46.3388L441.897 45.606ZM454.119 35.4L453.412 36.1071L453.42 36.1153L453.428 36.1234L454.119 35.4ZM454.119 105.708L454.817 106.423L454.818 106.423L454.119 105.708ZM422.493 98.14H436.227V96.14H422.493V98.14ZM436.227 98.14C438.998 98.14 441.226 97.5869 442.604 96.2091L441.19 94.7949C440.383 95.6011 438.832 96.14 436.227 96.14V98.14ZM442.604 96.2091C444.055 94.7581 444.661 92.5026 444.661 89.706H442.661C442.661 92.2854 442.091 93.8939 441.19 94.7949L442.604 96.2091ZM444.661 89.706V51.276H442.661V89.706H444.661ZM444.661 51.276C444.661 48.489 444.059 46.249 442.577 44.8732L441.216 46.3388C442.087 47.1469 442.661 48.687 442.661 51.276H444.661ZM442.629 44.9255C441.254 43.4439 439.014 42.842 436.227 42.842V44.842C438.816 44.842 440.356 45.4161 441.164 46.2864L442.629 44.9255ZM436.227 42.842H422.493V44.842H436.227V42.842ZM422.493 42.842C421.877 42.842 421.231 42.9967 420.746 43.4814C420.261 43.9661 420.107 44.6119 420.107 45.228H422.107C422.107 44.9201 422.183 44.8729 422.16 44.8956C422.138 44.9183 422.185 44.842 422.493 44.842V42.842ZM420.107 45.228V95.754H422.107V45.228H420.107ZM420.107 95.754C420.107 96.3701 420.261 97.0159 420.746 97.5006C421.231 97.9853 421.877 98.14 422.493 98.14V96.14C422.185 96.14 422.138 96.0637 422.16 96.0864C422.183 96.1091 422.107 96.0619 422.107 95.754H420.107ZM406.105 108.354V32.628H404.105V108.354H406.105ZM406.105 32.628C406.105 31.9001 406.286 31.5379 406.473 31.3506C406.661 31.1633 407.023 30.982 407.751 30.982V28.982C406.715 28.982 405.754 29.2417 405.059 29.9364C404.364 30.6311 404.105 31.5919 404.105 32.628H406.105ZM407.751 30.982H438.873V28.982H407.751V30.982ZM438.873 30.982C445.238 30.982 450.036 32.7317 453.412 36.1071L454.826 34.6929C450.977 30.8443 445.611 28.982 438.873 28.982V30.982ZM453.428 36.1234C456.875 39.413 458.663 44.1599 458.663 50.52H460.663C460.663 43.7761 458.755 38.443 454.809 34.6766L453.428 36.1234ZM458.663 50.52V90.462H460.663V50.52H458.663ZM458.663 90.462C458.663 96.8209 456.875 101.616 453.42 104.993L454.818 106.423C458.755 102.576 460.663 97.2071 460.663 90.462H458.663ZM453.42 104.993C450.046 108.289 445.244 110 438.873 110V112C445.605 112 450.968 110.183 454.817 106.423L453.42 104.993ZM438.873 110H407.751V112H438.873V110ZM407.751 110C407.023 110 406.661 109.819 406.473 109.631C406.286 109.444 406.105 109.082 406.105 108.354H404.105C404.105 109.39 404.364 110.351 405.059 111.046C405.754 111.74 406.715 112 407.751 112V110Z" fill="black"/>
</svg>
