<svg width="513" height="150" viewBox="0 0 513 150" fill="none" xmlns="http://www.w3.org/2000/svg">
<rect x="2.5" y="2.5" width="507.304" height="145" rx="32.5" fill="#77DDFF" stroke="black" stroke-width="5"/>
<path d="M200.068 32.628V108.354C200.068 110.118 199.186 111 197.422 111H186.712C184.948 111 184.066 110.118 184.066 108.354V32.628C184.066 30.864 184.948 29.982 186.712 29.982H197.422C199.186 29.982 200.068 30.864 200.068 32.628ZM250.292 111H236.558C229.922 111 224.798 109.236 221.186 105.708C217.574 102.18 215.768 97.098 215.768 90.462V50.52C215.768 43.884 217.574 38.802 221.186 35.274C224.798 31.746 229.922 29.982 236.558 29.982H250.292C256.844 29.982 261.926 31.788 265.538 35.4C269.234 38.928 271.082 43.968 271.082 50.52V56.442C271.082 58.29 270.158 59.214 268.31 59.214H257.726C255.962 59.214 255.08 58.29 255.08 56.442V51.276C255.08 48.588 254.492 46.698 253.316 45.606C252.224 44.43 250.334 43.842 247.646 43.842H239.078C236.474 43.842 234.584 44.43 233.408 45.606C232.316 46.698 231.77 48.588 231.77 51.276V89.706C231.77 92.394 232.316 94.326 233.408 95.502C234.584 96.594 236.474 97.14 239.078 97.14H247.646C250.334 97.14 252.224 96.594 253.316 95.502C254.492 94.326 255.08 92.394 255.08 89.706V84.54C255.08 82.692 255.962 81.768 257.726 81.768H268.31C270.158 81.768 271.082 82.692 271.082 84.54V90.462C271.082 97.014 269.234 102.096 265.538 105.708C261.926 109.236 256.844 111 250.292 111ZM328.674 111H287.472C285.708 111 284.826 110.118 284.826 108.354V32.628C284.826 30.864 285.708 29.982 287.472 29.982H328.674C330.354 29.982 331.194 30.864 331.194 32.628V41.196C331.194 42.96 330.354 43.842 328.674 43.842H302.34C301.332 43.842 300.828 44.304 300.828 45.228V61.608C300.828 62.532 301.332 62.994 302.34 62.994H323.886C325.65 62.994 326.532 63.876 326.532 65.64V74.208C326.532 75.972 325.65 76.854 323.886 76.854H302.34C301.332 76.854 300.828 77.316 300.828 78.24V95.754C300.828 96.678 301.332 97.14 302.34 97.14H328.674C330.354 97.14 331.194 98.022 331.194 99.786V108.354C331.194 110.118 330.354 111 328.674 111Z" fill="white"/>
<path d="M199.068 32.628V108.354H201.068V32.628H199.068ZM199.068 108.354C199.068 109.082 198.886 109.444 198.699 109.631C198.512 109.819 198.15 110 197.422 110V112C198.458 112 199.419 111.74 200.113 111.046C200.808 110.351 201.068 109.39 201.068 108.354H199.068ZM197.422 110H186.712V112H197.422V110ZM186.712 110C185.984 110 185.622 109.819 185.434 109.631C185.247 109.444 185.066 109.082 185.066 108.354H183.066C183.066 109.39 183.325 110.351 184.02 111.046C184.715 111.74 185.676 112 186.712 112V110ZM185.066 108.354V32.628H183.066V108.354H185.066ZM185.066 32.628C185.066 31.9001 185.247 31.5379 185.434 31.3506C185.622 31.1633 185.984 30.982 186.712 30.982V28.982C185.676 28.982 184.715 29.2417 184.02 29.9364C183.325 30.6311 183.066 31.5919 183.066 32.628H185.066ZM186.712 30.982H197.422V28.982H186.712V30.982ZM197.422 30.982C198.15 30.982 198.512 31.1633 198.699 31.3506C198.886 31.5379 199.068 31.9001 199.068 32.628H201.068C201.068 31.5919 200.808 30.6311 200.113 29.9364C199.419 29.2417 198.458 28.982 197.422 28.982V30.982ZM221.186 105.708L221.884 104.993L221.884 104.993L221.186 105.708ZM221.186 35.274L221.884 35.9894L221.884 35.9894L221.186 35.274ZM265.538 35.4L264.83 36.1071L264.839 36.1153L264.847 36.1234L265.538 35.4ZM253.316 45.606L252.583 46.2864L252.608 46.3136L252.635 46.3388L253.316 45.606ZM233.408 45.606L232.7 44.8989L232.7 44.8989L233.408 45.606ZM233.408 95.502L232.675 96.1825L232.7 96.2096L232.727 96.2348L233.408 95.502ZM253.316 95.502L254.023 96.2091L254.023 96.2091L253.316 95.502ZM265.538 105.708L266.236 106.423L266.236 106.423L265.538 105.708ZM250.292 110H236.558V112H250.292V110ZM236.558 110C230.098 110 225.256 108.286 221.884 104.993L220.487 106.423C224.339 110.186 229.745 112 236.558 112V110ZM221.884 104.993C218.52 101.707 216.768 96.9169 216.768 90.462H214.768C214.768 97.2791 216.627 102.653 220.487 106.423L221.884 104.993ZM216.768 90.462V50.52H214.768V90.462H216.768ZM216.768 50.52C216.768 44.0651 218.52 39.2754 221.884 35.9894L220.487 34.5586C216.627 38.3286 214.768 43.7029 214.768 50.52H216.768ZM221.884 35.9894C225.256 32.6956 230.098 30.982 236.558 30.982V28.982C229.745 28.982 224.339 30.7964 220.487 34.5586L221.884 35.9894ZM236.558 30.982H250.292V28.982H236.558V30.982ZM250.292 30.982C256.657 30.982 261.455 32.7317 264.83 36.1071L266.245 34.6929C262.396 30.8443 257.03 28.982 250.292 28.982V30.982ZM264.847 36.1234C268.293 39.413 270.082 44.1599 270.082 50.52H272.082C272.082 43.7761 270.174 38.443 266.228 34.6766L264.847 36.1234ZM270.082 50.52V56.442H272.082V50.52H270.082ZM270.082 56.442C270.082 57.2119 269.89 57.6056 269.681 57.8139C269.473 58.0222 269.079 58.214 268.31 58.214V60.214C269.388 60.214 270.38 59.9438 271.096 59.2281C271.811 58.5124 272.082 57.5201 272.082 56.442H270.082ZM268.31 58.214H257.726V60.214H268.31V58.214ZM257.726 58.214C257.01 58.214 256.654 58.0289 256.464 57.8305C256.267 57.6234 256.08 57.2232 256.08 56.442H254.08C254.08 57.5088 254.333 58.4946 255.018 59.2115C255.71 59.9371 256.677 60.214 257.726 60.214V58.214ZM256.08 56.442V51.276H254.08V56.442H256.08ZM256.08 51.276C256.08 48.489 255.478 46.249 253.996 44.8732L252.635 46.3388C253.505 47.1469 254.08 48.687 254.08 51.276H256.08ZM254.048 44.9255C252.673 43.4439 250.433 42.842 247.646 42.842V44.842C250.235 44.842 251.775 45.4161 252.583 46.2864L254.048 44.9255ZM247.646 42.842H239.078V44.842H247.646V42.842ZM239.078 42.842C236.354 42.842 234.147 43.4527 232.7 44.8989L234.115 46.3131C235.021 45.4072 236.593 44.842 239.078 44.842V42.842ZM232.7 44.8989C231.323 46.2766 230.77 48.5049 230.77 51.276H232.77C232.77 48.6711 233.308 47.1193 234.115 46.3131L232.7 44.8989ZM230.77 51.276V89.706H232.77V51.276H230.77ZM230.77 89.706C230.77 92.4874 231.327 94.731 232.675 96.1825L234.14 94.8215C233.304 93.921 232.77 92.3006 232.77 89.706H230.77ZM232.727 96.2348C234.174 97.5783 236.37 98.14 239.078 98.14V96.14C236.577 96.14 234.993 95.6097 234.088 94.7692L232.727 96.2348ZM239.078 98.14H247.646V96.14H239.078V98.14ZM247.646 98.14C250.417 98.14 252.645 97.5869 254.023 96.2091L252.608 94.7949C251.802 95.6011 250.25 96.14 247.646 96.14V98.14ZM254.023 96.2091C255.474 94.7581 256.08 92.5026 256.08 89.706H254.08C254.08 92.2854 253.509 93.8939 252.608 94.7949L254.023 96.2091ZM256.08 89.706V84.54H254.08V89.706H256.08ZM256.08 84.54C256.08 83.7588 256.267 83.3586 256.464 83.1515C256.654 82.9531 257.01 82.768 257.726 82.768V80.768C256.677 80.768 255.71 81.0449 255.018 81.7705C254.333 82.4874 254.08 83.4732 254.08 84.54H256.08ZM257.726 82.768H268.31V80.768H257.726V82.768ZM268.31 82.768C269.079 82.768 269.473 82.9598 269.681 83.1681C269.89 83.3764 270.082 83.7701 270.082 84.54H272.082C272.082 83.4619 271.811 82.4696 271.096 81.7539C270.38 81.0382 269.388 80.768 268.31 80.768V82.768ZM270.082 84.54V90.462H272.082V84.54H270.082ZM270.082 90.462C270.082 96.8209 268.294 101.616 264.839 104.993L266.236 106.423C270.173 102.576 272.082 97.2071 272.082 90.462H270.082ZM264.839 104.993C261.464 108.289 256.663 110 250.292 110V112C257.024 112 262.387 110.183 266.236 106.423L264.839 104.993ZM328.674 110H287.472V112H328.674V110ZM287.472 110C286.745 110 286.382 109.819 286.195 109.631C286.008 109.444 285.826 109.082 285.826 108.354H283.826C283.826 109.39 284.086 110.351 284.781 111.046C285.475 111.74 286.436 112 287.472 112V110ZM285.826 108.354V32.628H283.826V108.354H285.826ZM285.826 32.628C285.826 31.9001 286.008 31.5379 286.195 31.3506C286.382 31.1633 286.745 30.982 287.472 30.982V28.982C286.436 28.982 285.475 29.2417 284.781 29.9364C284.086 30.6311 283.826 31.5919 283.826 32.628H285.826ZM287.472 30.982H328.674V28.982H287.472V30.982ZM328.674 30.982C329.347 30.982 329.672 31.1562 329.84 31.3332C330.017 31.5192 330.194 31.8883 330.194 32.628H332.194C332.194 31.6037 331.951 30.6498 331.289 29.9538C330.617 29.2488 329.681 28.982 328.674 28.982V30.982ZM330.194 32.628V41.196H332.194V32.628H330.194ZM330.194 41.196C330.194 41.9357 330.017 42.3048 329.84 42.4908C329.672 42.6678 329.347 42.842 328.674 42.842V44.842C329.681 44.842 330.617 44.5752 331.289 43.8702C331.951 43.1742 332.194 42.2203 332.194 41.196H330.194ZM328.674 42.842H302.34V44.842H328.674V42.842ZM302.34 42.842C301.703 42.842 301.038 42.9863 300.531 43.4513C300.007 43.9315 299.828 44.5884 299.828 45.228H301.828C301.828 45.0853 301.848 45.0033 301.863 44.9634C301.87 44.9442 301.875 44.9346 301.878 44.9311C301.88 44.9278 301.881 44.9266 301.882 44.9256C301.882 44.9255 301.902 44.9059 301.971 44.885C302.044 44.8628 302.162 44.842 302.34 44.842V42.842ZM299.828 45.228V61.608H301.828V45.228H299.828ZM299.828 61.608C299.828 62.2476 300.007 62.9045 300.531 63.3847C301.038 63.8497 301.703 63.994 302.34 63.994V61.994C302.162 61.994 302.044 61.9731 301.971 61.951C301.902 61.93 301.882 61.9105 301.882 61.9103C301.881 61.9094 301.88 61.9082 301.878 61.9049C301.875 61.9014 301.87 61.8918 301.863 61.8726C301.848 61.8327 301.828 61.7507 301.828 61.608H299.828ZM302.34 63.994H323.886V61.994H302.34V63.994ZM323.886 63.994C324.614 63.994 324.976 64.1753 325.164 64.3626C325.351 64.5499 325.532 64.9121 325.532 65.64H327.532C327.532 64.6039 327.273 63.6431 326.578 62.9484C325.883 62.2537 324.923 61.994 323.886 61.994V63.994ZM325.532 65.64V74.208H327.532V65.64H325.532ZM325.532 74.208C325.532 74.9359 325.351 75.2981 325.164 75.4854C324.976 75.6727 324.614 75.854 323.886 75.854V77.854C324.923 77.854 325.883 77.5943 326.578 76.8996C327.273 76.2049 327.532 75.2441 327.532 74.208H325.532ZM323.886 75.854H302.34V77.854H323.886V75.854ZM302.34 75.854C301.703 75.854 301.038 75.9983 300.531 76.4633C300.007 76.9435 299.828 77.6004 299.828 78.24H301.828C301.828 78.0973 301.848 78.0153 301.863 77.9754C301.87 77.9562 301.875 77.9466 301.878 77.9431C301.88 77.9398 301.881 77.9386 301.882 77.9377C301.882 77.9375 301.902 77.9179 301.971 77.897C302.044 77.8748 302.162 77.854 302.34 77.854V75.854ZM299.828 78.24V95.754H301.828V78.24H299.828ZM299.828 95.754C299.828 96.3936 300.007 97.0505 300.531 97.5307C301.038 97.9957 301.703 98.14 302.34 98.14V96.14C302.162 96.14 302.044 96.1191 301.971 96.097C301.902 96.076 301.882 96.0565 301.882 96.0563C301.881 96.0554 301.88 96.0542 301.878 96.0509C301.875 96.0474 301.87 96.0378 301.863 96.0186C301.848 95.9787 301.828 95.8967 301.828 95.754H299.828ZM302.34 98.14H328.674V96.14H302.34V98.14ZM328.674 98.14C329.347 98.14 329.672 98.3142 329.84 98.4912C330.017 98.6772 330.194 99.0463 330.194 99.786H332.194C332.194 98.7617 331.951 97.8078 331.289 97.1118C330.617 96.4068 329.681 96.14 328.674 96.14V98.14ZM330.194 99.786V108.354H332.194V99.786H330.194ZM330.194 108.354C330.194 109.094 330.017 109.463 329.84 109.649C329.672 109.826 329.347 110 328.674 110V112C329.681 112 330.617 111.733 331.289 111.028C331.951 110.332 332.194 109.378 332.194 108.354H330.194Z" fill="black"/>
</svg>
