<svg width="444" height="150" viewBox="0 0 444 150" fill="none" xmlns="http://www.w3.org/2000/svg">
<rect x="2.5" y="2.5" width="439" height="145" rx="32.5" fill="#B8B5A7" stroke="black" stroke-width="5"/>
<path d="M28.6465 111H18.1885C16.4245 111 15.5425 110.118 15.5425 108.354V32.628C15.5425 30.864 16.4245 29.982 18.1885 29.982H27.6385C29.4025 29.982 30.5785 30.57 31.1665 31.746L56.6185 79.5H57.1225V32.628C57.1225 30.864 58.0045 29.982 59.7685 29.982H70.2265C71.9905 29.982 72.8725 30.864 72.8725 32.628V108.354C72.8725 110.118 71.9905 111 70.2265 111H61.0285C59.1805 111 57.8365 110.16 56.9965 108.48L31.7965 61.608H31.2925V108.354C31.2925 110.118 30.4105 111 28.6465 111ZM111.298 97.14H120.244C122.932 97.14 124.822 96.594 125.914 95.502C127.09 94.326 127.678 92.394 127.678 89.706V51.276C127.678 48.588 127.09 46.698 125.914 45.606C124.822 44.43 122.932 43.842 120.244 43.842H111.298C108.61 43.842 106.72 44.43 105.628 45.606C104.536 46.698 103.99 48.588 103.99 51.276V89.706C103.99 92.394 104.536 94.326 105.628 95.502C106.72 96.594 108.61 97.14 111.298 97.14ZM122.89 111H108.778C102.142 111 97.0176 109.236 93.4056 105.708C89.7936 102.18 87.9876 97.098 87.9876 90.462V50.52C87.9876 43.884 89.7936 38.802 93.4056 35.274C97.0176 31.746 102.142 29.982 108.778 29.982H122.89C129.526 29.982 134.65 31.746 138.262 35.274C141.874 38.802 143.68 43.884 143.68 50.52V90.462C143.68 97.098 141.874 102.18 138.262 105.708C134.65 109.236 129.526 111 122.89 111ZM172.125 111H161.415C159.651 111 158.769 110.118 158.769 108.354V32.628C158.769 30.864 159.651 29.982 161.415 29.982H191.403C197.955 29.982 203.079 31.788 206.775 35.4C210.471 39.012 212.319 44.094 212.319 50.646V60.474C212.319 69.966 208.581 76.266 201.105 79.374V79.878L214.587 107.976C215.343 109.992 214.629 111 212.445 111H202.239C200.727 111 199.635 110.832 198.963 110.496C198.291 110.16 197.745 109.446 197.325 108.354L184.725 81.138H176.283C175.275 81.138 174.771 81.6 174.771 82.524V108.354C174.771 110.118 173.889 111 172.125 111ZM176.157 68.286H188.505C191.193 68.286 193.167 67.74 194.427 66.648C195.687 65.472 196.317 63.624 196.317 61.104V51.276C196.317 48.672 195.687 46.782 194.427 45.606C193.167 44.43 191.193 43.842 188.505 43.842H176.157C175.233 43.842 174.771 44.304 174.771 45.228V66.9C174.771 67.824 175.233 68.286 176.157 68.286ZM281.477 29.982H300.125C301.889 29.982 302.771 30.864 302.771 32.628V108.354C302.771 110.118 301.889 111 300.125 111H289.793C288.029 111 287.147 110.118 287.147 108.354V48.63H286.643L273.791 90.84C273.287 92.52 272.237 93.36 270.641 93.36H260.057C258.461 93.36 257.411 92.52 256.907 90.84L243.803 48.504H243.299V108.354C243.299 109.362 243.131 110.076 242.795 110.496C242.459 110.832 241.745 111 240.653 111H230.321C228.557 111 227.675 110.118 227.675 108.354V32.628C227.675 30.864 228.557 29.982 230.321 29.982H249.095C250.271 29.982 251.069 30.57 251.489 31.746L264.845 76.224H265.601L279.083 31.746C279.335 30.57 280.133 29.982 281.477 29.982ZM327.541 111H315.445C313.933 111 313.429 110.118 313.933 108.354L333.841 32.628C334.429 30.864 335.689 29.982 337.621 29.982H354.379C356.479 29.982 357.739 30.864 358.159 32.628L378.067 108.354C378.571 110.118 378.067 111 376.555 111H364.459C363.535 111 362.905 110.832 362.569 110.496C362.233 110.076 361.981 109.362 361.813 108.354L358.285 94.494H333.715L330.187 108.354C330.019 109.362 329.725 110.076 329.305 110.496C328.969 110.832 328.381 111 327.541 111ZM345.811 45.228L336.739 81.642H355.387L346.315 45.228H345.811ZM433.336 111H391.882C390.118 111 389.236 110.118 389.236 108.354V32.628C389.236 30.864 390.118 29.982 391.882 29.982H402.592C404.356 29.982 405.238 30.864 405.238 32.628V95.628C405.238 96.552 405.742 97.014 406.75 97.014H433.336C435.016 97.014 435.856 97.938 435.856 99.786V108.354C435.856 110.118 435.016 111 433.336 111Z" fill="white"/>
<path d="M31.1665 31.746L30.2721 32.1932L30.2779 32.2049L30.2841 32.2163L31.1665 31.746ZM56.6185 79.5L55.7361 79.9703L56.0184 80.5H56.6185V79.5ZM57.1225 79.5V80.5H58.1225V79.5H57.1225ZM56.9965 108.48L57.891 108.033L57.8843 108.02L57.8773 108.006L56.9965 108.48ZM31.7965 61.608L32.6773 61.1345L32.3943 60.608H31.7965V61.608ZM31.2925 61.608V60.608H30.2925V61.608H31.2925ZM28.6465 110H18.1885V112H28.6465V110ZM18.1885 110C17.4607 110 17.0985 109.819 16.9111 109.631C16.7238 109.444 16.5425 109.082 16.5425 108.354H14.5425C14.5425 109.39 14.8023 110.351 15.4969 111.046C16.1916 111.74 17.1524 112 18.1885 112V110ZM16.5425 108.354V32.628H14.5425V108.354H16.5425ZM16.5425 32.628C16.5425 31.9001 16.7238 31.5379 16.9111 31.3506C17.0985 31.1633 17.4607 30.982 18.1885 30.982V28.982C17.1524 28.982 16.1916 29.2417 15.4969 29.9364C14.8023 30.6311 14.5425 31.5919 14.5425 32.628H16.5425ZM18.1885 30.982H27.6385V28.982H18.1885V30.982ZM27.6385 30.982C29.1748 30.982 29.9119 31.4727 30.2721 32.1932L32.061 31.2988C31.2452 29.6673 29.6303 28.982 27.6385 28.982V30.982ZM30.2841 32.2163L55.7361 79.9703L57.501 79.0297L32.049 31.2757L30.2841 32.2163ZM56.6185 80.5H57.1225V78.5H56.6185V80.5ZM58.1225 79.5V32.628H56.1225V79.5H58.1225ZM58.1225 32.628C58.1225 31.9001 58.3038 31.5379 58.4911 31.3506C58.6785 31.1633 59.0407 30.982 59.7685 30.982V28.982C58.7324 28.982 57.7716 29.2417 57.0769 29.9364C56.3823 30.6311 56.1225 31.5919 56.1225 32.628H58.1225ZM59.7685 30.982H70.2265V28.982H59.7685V30.982ZM70.2265 30.982C70.9544 30.982 71.3166 31.1633 71.5039 31.3506C71.6913 31.5379 71.8725 31.9001 71.8725 32.628H73.8725C73.8725 31.5919 73.6128 30.6311 72.9181 29.9364C72.2235 29.2417 71.2627 28.982 70.2265 28.982V30.982ZM71.8725 32.628V108.354H73.8725V32.628H71.8725ZM71.8725 108.354C71.8725 109.082 71.6913 109.444 71.5039 109.631C71.3166 109.819 70.9544 110 70.2265 110V112C71.2627 112 72.2235 111.74 72.9181 111.046C73.6128 110.351 73.8725 109.39 73.8725 108.354H71.8725ZM70.2265 110H61.0285V112H70.2265V110ZM61.0285 110C60.2603 110 59.6528 109.827 59.1645 109.522C58.6754 109.216 58.2441 108.739 57.891 108.033L56.1021 108.927C56.589 109.901 57.2497 110.684 58.1045 111.218C58.9603 111.753 59.9488 112 61.0285 112V110ZM57.8773 108.006L32.6773 61.1345L30.9158 62.0815L56.1158 108.954L57.8773 108.006ZM31.7965 60.608H31.2925V62.608H31.7965V60.608ZM30.2925 61.608V108.354H32.2925V61.608H30.2925ZM30.2925 108.354C30.2925 109.082 30.1113 109.444 29.9239 109.631C29.7366 109.819 29.3744 110 28.6465 110V112C29.6827 112 30.6435 111.74 31.3381 111.046C32.0328 110.351 32.2925 109.39 32.2925 108.354H30.2925ZM125.914 95.502L125.207 94.7949L125.207 94.7949L125.914 95.502ZM125.914 45.606L125.181 46.2864L125.206 46.3136L125.233 46.3388L125.914 45.606ZM105.628 45.606L106.335 46.3131L106.348 46.3L106.36 46.2864L105.628 45.606ZM105.628 95.502L104.895 96.1825L104.907 96.196L104.921 96.2091L105.628 95.502ZM93.4056 105.708L94.1044 104.993L94.1044 104.993L93.4056 105.708ZM93.4056 35.274L94.1044 35.9894L94.1044 35.9894L93.4056 35.274ZM138.262 35.274L138.96 34.5586L138.96 34.5586L138.262 35.274ZM138.262 105.708L138.96 106.423L138.96 106.423L138.262 105.708ZM111.298 98.14H120.244V96.14H111.298V98.14ZM120.244 98.14C123.015 98.14 125.243 97.5869 126.621 96.2091L125.207 94.7949C124.4 95.6011 122.849 96.14 120.244 96.14V98.14ZM126.621 96.2091C128.072 94.7581 128.678 92.5026 128.678 89.706H126.678C126.678 92.2854 126.108 93.8939 125.207 94.7949L126.621 96.2091ZM128.678 89.706V51.276H126.678V89.706H128.678ZM128.678 51.276C128.678 48.489 128.076 46.249 126.594 44.8732L125.233 46.3388C126.103 47.1469 126.678 48.687 126.678 51.276H128.678ZM126.646 44.9255C125.271 43.4439 123.031 42.842 120.244 42.842V44.842C122.833 44.842 124.373 45.4161 125.181 46.2864L126.646 44.9255ZM120.244 42.842H111.298V44.842H120.244V42.842ZM111.298 42.842C108.511 42.842 106.271 43.4439 104.895 44.9255L106.36 46.2864C107.169 45.4161 108.709 44.842 111.298 44.842V42.842ZM104.921 44.8989C103.543 46.2766 102.99 48.5049 102.99 51.276H104.99C104.99 48.6711 105.528 47.1193 106.335 46.3131L104.921 44.8989ZM102.99 51.276V89.706H104.99V51.276H102.99ZM102.99 89.706C102.99 92.4874 103.547 94.731 104.895 96.1825L106.36 94.8215C105.524 93.921 104.99 92.3006 104.99 89.706H102.99ZM104.921 96.2091C106.298 97.5869 108.527 98.14 111.298 98.14V96.14C108.693 96.14 107.141 95.6011 106.335 94.7949L104.921 96.2091ZM122.89 110H108.778V112H122.89V110ZM108.778 110C102.318 110 97.4765 108.286 94.1044 104.993L92.7069 106.423C96.5587 110.186 101.965 112 108.778 112V110ZM94.1044 104.993C90.7401 101.707 88.9876 96.9169 88.9876 90.462H86.9876C86.9876 97.2791 88.8471 102.653 92.7069 106.423L94.1044 104.993ZM88.9876 90.462V50.52H86.9876V90.462H88.9876ZM88.9876 50.52C88.9876 44.0651 90.7401 39.2754 94.1044 35.9894L92.7069 34.5586C88.8471 38.3286 86.9876 43.7029 86.9876 50.52H88.9876ZM94.1044 35.9894C97.4765 32.6956 102.318 30.982 108.778 30.982V28.982C101.965 28.982 96.5587 30.7964 92.7069 34.5586L94.1044 35.9894ZM108.778 30.982H122.89V28.982H108.778V30.982ZM122.89 30.982C129.349 30.982 134.191 32.6956 137.563 35.9894L138.96 34.5586C135.109 30.7964 129.702 28.982 122.89 28.982V30.982ZM137.563 35.9894C140.927 39.2754 142.68 44.0651 142.68 50.52H144.68C144.68 43.7029 142.82 38.3286 138.96 34.5586L137.563 35.9894ZM142.68 50.52V90.462H144.68V50.52H142.68ZM142.68 90.462C142.68 96.9169 140.927 101.707 137.563 104.993L138.96 106.423C142.82 102.653 144.68 97.2791 144.68 90.462H142.68ZM137.563 104.993C134.191 108.286 129.349 110 122.89 110V112C129.702 112 135.109 110.186 138.96 106.423L137.563 104.993ZM201.105 79.374L200.721 78.4506L200.105 78.7068V79.374H201.105ZM201.105 79.878H200.105V80.1055L200.204 80.3106L201.105 79.878ZM214.587 107.976L215.523 107.625L215.508 107.583L215.489 107.543L214.587 107.976ZM198.963 110.496L198.516 111.39L198.516 111.39L198.963 110.496ZM197.325 108.354L198.258 107.995L198.247 107.964L198.233 107.934L197.325 108.354ZM184.725 81.138L185.633 80.7179L185.364 80.138H184.725V81.138ZM194.427 66.648L195.082 67.4037L195.096 67.3916L195.109 67.3791L194.427 66.648ZM194.427 45.606L195.109 44.8749L195.109 44.8749L194.427 45.606ZM172.125 110H161.415V112H172.125V110ZM161.415 110C160.687 110 160.325 109.819 160.138 109.631C159.95 109.444 159.769 109.082 159.769 108.354H157.769C157.769 109.39 158.029 110.351 158.723 111.046C159.418 111.74 160.379 112 161.415 112V110ZM159.769 108.354V32.628H157.769V108.354H159.769ZM159.769 32.628C159.769 31.9001 159.95 31.5379 160.138 31.3506C160.325 31.1633 160.687 30.982 161.415 30.982V28.982C160.379 28.982 159.418 29.2417 158.723 29.9364C158.029 30.6311 157.769 31.5919 157.769 32.628H159.769ZM161.415 30.982H191.403V28.982H161.415V30.982ZM191.403 30.982C197.767 30.982 202.614 32.7313 206.076 36.1152L207.474 34.6848C203.545 30.8447 198.143 28.982 191.403 28.982V30.982ZM206.076 36.1152C209.531 39.4918 211.319 44.2871 211.319 50.646H213.319C213.319 43.9009 211.411 38.5322 207.474 34.6848L206.076 36.1152ZM211.319 50.646V60.474H213.319V50.646H211.319ZM211.319 60.474C211.319 65.0924 210.41 68.8515 208.656 71.8077C206.908 74.7527 204.282 76.9702 200.721 78.4506L201.489 80.2974C205.404 78.6698 208.385 76.1833 210.376 72.8283C212.36 69.4845 213.319 65.3476 213.319 60.474H211.319ZM200.105 79.374V79.878H202.105V79.374H200.105ZM200.204 80.3106L213.686 108.409L215.489 107.543L202.007 79.4454L200.204 80.3106ZM213.651 108.327C213.998 109.253 213.861 109.584 213.803 109.666C213.739 109.755 213.455 110 212.445 110V112C213.619 112 214.784 111.741 215.435 110.822C216.091 109.896 215.932 108.715 215.523 107.625L213.651 108.327ZM212.445 110H202.239V112H212.445V110ZM202.239 110C200.756 110 199.863 109.828 199.41 109.602L198.516 111.39C199.407 111.836 200.698 112 202.239 112V110ZM199.41 109.602C199.057 109.425 198.637 108.979 198.258 107.995L196.392 108.713C196.853 109.913 197.525 110.895 198.516 111.39L199.41 109.602ZM198.233 107.934L185.633 80.7179L183.818 81.5581L196.418 108.774L198.233 107.934ZM184.725 80.138H176.283V82.138H184.725V80.138ZM176.283 80.138C175.645 80.138 174.981 80.2823 174.473 80.7473C173.95 81.2275 173.771 81.8844 173.771 82.524H175.771C175.771 82.3813 175.791 82.2993 175.805 82.2594C175.812 82.2402 175.818 82.2306 175.82 82.2271C175.823 82.2238 175.824 82.2226 175.825 82.2217C175.825 82.2215 175.845 82.2019 175.914 82.181C175.986 82.1588 176.104 82.138 176.283 82.138V80.138ZM173.771 82.524V108.354H175.771V82.524H173.771ZM173.771 108.354C173.771 109.082 173.59 109.444 173.402 109.631C173.215 109.819 172.853 110 172.125 110V112C173.161 112 174.122 111.74 174.817 111.046C175.511 110.351 175.771 109.39 175.771 108.354H173.771ZM176.157 69.286H188.505V67.286H176.157V69.286ZM188.505 69.286C191.295 69.286 193.558 68.7249 195.082 67.4037L193.772 65.8923C192.777 66.7551 191.091 67.286 188.505 67.286V69.286ZM195.109 67.3791C196.65 65.9408 197.317 63.7719 197.317 61.104H195.317C195.317 63.4761 194.724 65.0031 193.745 65.9169L195.109 67.3791ZM197.317 61.104V51.276H195.317V61.104H197.317ZM197.317 51.276C197.317 48.5358 196.656 46.3186 195.109 44.8749L193.745 46.337C194.718 47.2454 195.317 48.8081 195.317 51.276H197.317ZM195.109 44.8749C193.584 43.4513 191.31 42.842 188.505 42.842V44.842C191.076 44.842 192.75 45.4087 193.745 46.337L195.109 44.8749ZM188.505 42.842H176.157V44.842H188.505V42.842ZM176.157 42.842C175.541 42.842 174.895 42.9967 174.41 43.4814C173.926 43.9661 173.771 44.6119 173.771 45.228H175.771C175.771 44.9201 175.847 44.8729 175.825 44.8956C175.802 44.9183 175.849 44.842 176.157 44.842V42.842ZM173.771 45.228V66.9H175.771V45.228H173.771ZM173.771 66.9C173.771 67.5161 173.926 68.1619 174.41 68.6466C174.895 69.1313 175.541 69.286 176.157 69.286V67.286C175.849 67.286 175.802 67.2097 175.825 67.2324C175.847 67.2551 175.771 67.2079 175.771 66.9H173.771ZM287.147 48.63H288.147V47.63H287.147V48.63ZM286.643 48.63V47.63H285.903L285.687 48.3387L286.643 48.63ZM273.791 90.84L272.835 90.5487L272.834 90.5527L273.791 90.84ZM256.907 90.84L257.865 90.5526L257.863 90.5443L256.907 90.84ZM243.803 48.504L244.759 48.2083L244.541 47.504H243.803V48.504ZM243.299 48.504V47.504H242.299V48.504H243.299ZM242.795 110.496L243.502 111.203L243.542 111.164L243.576 111.121L242.795 110.496ZM251.489 31.746L252.447 31.4584L252.44 31.4338L252.431 31.4097L251.489 31.746ZM264.845 76.224L263.888 76.5116L264.102 77.224H264.845V76.224ZM265.601 76.224V77.224H266.343L266.558 76.5141L265.601 76.224ZM279.083 31.746L280.04 32.0361L280.052 31.9962L280.061 31.9555L279.083 31.746ZM281.477 30.982H300.125V28.982H281.477V30.982ZM300.125 30.982C300.853 30.982 301.215 31.1633 301.403 31.3506C301.59 31.5379 301.771 31.9001 301.771 32.628H303.771C303.771 31.5919 303.512 30.6311 302.817 29.9364C302.122 29.2417 301.162 28.982 300.125 28.982V30.982ZM301.771 32.628V108.354H303.771V32.628H301.771ZM301.771 108.354C301.771 109.082 301.59 109.444 301.403 109.631C301.215 109.819 300.853 110 300.125 110V112C301.162 112 302.122 111.74 302.817 111.046C303.512 110.351 303.771 109.39 303.771 108.354H301.771ZM300.125 110H289.793V112H300.125V110ZM289.793 110C289.065 110 288.703 109.819 288.516 109.631C288.329 109.444 288.147 109.082 288.147 108.354H286.147C286.147 109.39 286.407 110.351 287.102 111.046C287.796 111.74 288.757 112 289.793 112V110ZM288.147 108.354V48.63H286.147V108.354H288.147ZM287.147 47.63H286.643V49.63H287.147V47.63ZM285.687 48.3387L272.835 90.5487L274.748 91.1313L287.6 48.9213L285.687 48.3387ZM272.834 90.5527C272.622 91.2568 272.326 91.6895 272.001 91.9491C271.685 92.202 271.256 92.36 270.641 92.36V94.36C271.622 94.36 272.517 94.098 273.251 93.5109C273.976 92.9305 274.456 92.1032 274.749 91.1273L272.834 90.5527ZM270.641 92.36H260.057V94.36H270.641V92.36ZM260.057 92.36C259.442 92.36 259.014 92.202 258.698 91.9491C258.373 91.6895 258.076 91.2568 257.865 90.5527L255.95 91.1273C256.242 92.1032 256.723 92.9305 257.448 93.5109C258.182 94.098 259.076 94.36 260.057 94.36V92.36ZM257.863 90.5443L244.759 48.2083L242.848 48.7997L255.952 91.1357L257.863 90.5443ZM243.803 47.504H243.299V49.504H243.803V47.504ZM242.299 48.504V108.354H244.299V48.504H242.299ZM242.299 108.354C242.299 109.308 242.129 109.728 242.014 109.871L243.576 111.121C244.134 110.424 244.299 109.416 244.299 108.354H242.299ZM242.088 109.789C242.105 109.772 242.045 109.838 241.779 109.901C241.524 109.961 241.156 110 240.653 110V112C241.243 112 241.778 111.955 242.237 111.847C242.684 111.742 243.15 111.556 243.502 111.203L242.088 109.789ZM240.653 110H230.321V112H240.653V110ZM230.321 110C229.593 110 229.231 109.819 229.044 109.631C228.857 109.444 228.675 109.082 228.675 108.354H226.675C226.675 109.39 226.935 110.351 227.63 111.046C228.324 111.74 229.285 112 230.321 112V110ZM228.675 108.354V32.628H226.675V108.354H228.675ZM228.675 32.628C228.675 31.9001 228.857 31.5379 229.044 31.3506C229.231 31.1633 229.593 30.982 230.321 30.982V28.982C229.285 28.982 228.324 29.2417 227.63 29.9364C226.935 30.6311 226.675 31.5919 226.675 32.628H228.675ZM230.321 30.982H249.095V28.982H230.321V30.982ZM249.095 30.982C249.511 30.982 249.786 31.083 249.983 31.2281C250.184 31.3766 250.387 31.6331 250.548 32.0823L252.431 31.4097C252.172 30.6829 251.765 30.0574 251.169 29.6179C250.568 29.175 249.856 28.982 249.095 28.982V30.982ZM250.532 32.0336L263.888 76.5116L265.803 75.9364L252.447 31.4584L250.532 32.0336ZM264.845 77.224H265.601V75.224H264.845V77.224ZM266.558 76.5141L280.04 32.0361L278.126 31.4559L264.644 75.9339L266.558 76.5141ZM280.061 31.9555C280.147 31.553 280.302 31.3478 280.464 31.2281C280.639 31.0989 280.944 30.982 281.477 30.982V28.982C280.667 28.982 279.9 29.1591 279.278 29.6179C278.642 30.0862 278.271 30.763 278.106 31.5365L280.061 31.9555ZM313.933 108.354L314.895 108.629L314.898 108.619L314.9 108.608L313.933 108.354ZM333.841 32.628L332.892 32.3118L332.882 32.3425L332.874 32.3737L333.841 32.628ZM358.159 32.628L357.186 32.8596L357.189 32.871L357.192 32.8823L358.159 32.628ZM378.067 108.354L377.1 108.608L377.103 108.619L377.106 108.629L378.067 108.354ZM362.569 110.496L361.788 111.121L361.823 111.164L361.862 111.203L362.569 110.496ZM361.813 108.354L362.8 108.19L362.793 108.148L362.782 108.107L361.813 108.354ZM358.285 94.494L359.254 94.2473L359.063 93.494H358.285V94.494ZM333.715 94.494V93.494H332.938L332.746 94.2473L333.715 94.494ZM330.187 108.354L329.218 108.107L329.208 108.148L329.201 108.19L330.187 108.354ZM329.305 110.496L330.012 111.203L330.012 111.203L329.305 110.496ZM345.811 45.228V44.228H345.03L344.841 44.9863L345.811 45.228ZM336.739 81.642L335.769 81.4003L335.459 82.642H336.739V81.642ZM355.387 81.642V82.642H356.667L356.358 81.4003L355.387 81.642ZM346.315 45.228L347.286 44.9863L347.097 44.228H346.315V45.228ZM327.541 110H315.445V112H327.541V110ZM315.445 110C315.157 110 314.989 109.957 314.901 109.918C314.829 109.887 314.812 109.86 314.801 109.842C314.757 109.765 314.662 109.443 314.895 108.629L312.972 108.079C312.7 109.029 312.605 110.03 313.065 110.835C313.573 111.724 314.522 112 315.445 112V110ZM314.9 108.608L334.808 32.8823L332.874 32.3737L312.966 108.1L314.9 108.608ZM334.79 32.9442C335.031 32.2222 335.381 31.7567 335.801 31.4627C336.224 31.1664 336.808 30.982 337.621 30.982V28.982C336.503 28.982 335.49 29.2386 334.654 29.8243C333.814 30.4123 333.24 31.2698 332.892 32.3118L334.79 32.9442ZM337.621 30.982H354.379V28.982H337.621V30.982ZM354.379 30.982C355.297 30.982 355.915 31.1754 356.326 31.4627C356.72 31.7389 357.022 32.1707 357.186 32.8596L359.132 32.3964C358.876 31.3213 358.338 30.4301 357.473 29.8243C356.623 29.2296 355.561 28.982 354.379 28.982V30.982ZM357.192 32.8823L377.1 108.608L379.034 108.1L359.126 32.3737L357.192 32.8823ZM377.106 108.629C377.338 109.443 377.243 109.765 377.199 109.842C377.189 109.86 377.172 109.887 377.099 109.918C377.012 109.957 376.844 110 376.555 110V112C377.479 112 378.427 111.724 378.935 110.835C379.395 110.03 379.3 109.029 379.029 108.079L377.106 108.629ZM376.555 110H364.459V112H376.555V110ZM364.459 110C363.58 110 363.312 109.824 363.276 109.789L361.862 111.203C362.499 111.84 363.49 112 364.459 112V110ZM363.35 109.871C363.179 109.658 362.961 109.156 362.8 108.19L360.827 108.518C361.002 109.568 361.287 110.494 361.788 111.121L363.35 109.871ZM362.782 108.107L359.254 94.2473L357.316 94.7407L360.844 108.601L362.782 108.107ZM358.285 93.494H333.715V95.494H358.285V93.494ZM332.746 94.2473L329.218 108.107L331.156 108.601L334.684 94.7407L332.746 94.2473ZM329.201 108.19C329.045 109.124 328.798 109.589 328.598 109.789L330.012 111.203C330.652 110.563 330.993 109.6 331.174 108.518L329.201 108.19ZM328.598 109.789C328.55 109.837 328.303 110 327.541 110V112C328.459 112 329.388 111.827 330.012 111.203L328.598 109.789ZM344.841 44.9863L335.769 81.4003L337.71 81.8837L346.782 45.4697L344.841 44.9863ZM336.739 82.642H355.387V80.642H336.739V82.642ZM356.358 81.4003L347.286 44.9863L345.345 45.4697L354.417 81.8837L356.358 81.4003ZM346.315 44.228H345.811V46.228H346.315V44.228ZM433.336 110H391.882V112H433.336V110ZM391.882 110C391.154 110 390.792 109.819 390.605 109.631C390.417 109.444 390.236 109.082 390.236 108.354H388.236C388.236 109.39 388.496 110.351 389.19 111.046C389.885 111.74 390.846 112 391.882 112V110ZM390.236 108.354V32.628H388.236V108.354H390.236ZM390.236 32.628C390.236 31.9001 390.417 31.5379 390.605 31.3506C390.792 31.1633 391.154 30.982 391.882 30.982V28.982C390.846 28.982 389.885 29.2417 389.19 29.9364C388.496 30.6311 388.236 31.5919 388.236 32.628H390.236ZM391.882 30.982H402.592V28.982H391.882V30.982ZM402.592 30.982C403.32 30.982 403.682 31.1633 403.869 31.3506C404.057 31.5379 404.238 31.9001 404.238 32.628H406.238C406.238 31.5919 405.978 30.6311 405.284 29.9364C404.589 29.2417 403.628 28.982 402.592 28.982V30.982ZM404.238 32.628V95.628H406.238V32.628H404.238ZM404.238 95.628C404.238 96.2676 404.416 96.9245 404.94 97.4047C405.448 97.8697 406.112 98.014 406.75 98.014V96.014C406.571 96.014 406.453 95.9931 406.381 95.971C406.312 95.95 406.292 95.9305 406.292 95.9303C406.291 95.9294 406.289 95.9282 406.287 95.9249C406.285 95.9214 406.279 95.9118 406.272 95.8926C406.258 95.8527 406.238 95.7707 406.238 95.628H404.238ZM406.75 98.014H433.336V96.014H406.75V98.014ZM433.336 98.014C433.996 98.014 434.315 98.1911 434.486 98.3797C434.674 98.5863 434.856 98.9938 434.856 99.786H436.856C436.856 98.7302 436.618 97.7517 435.966 97.0343C435.297 96.2989 434.356 96.014 433.336 96.014V98.014ZM434.856 99.786V108.354H436.856V99.786H434.856ZM434.856 108.354C434.856 109.094 434.679 109.463 434.502 109.649C434.333 109.826 434.009 110 433.336 110V112C434.343 112 435.279 111.733 435.95 111.028C436.613 110.332 436.856 109.378 436.856 108.354H434.856Z" fill="black"/>
</svg>
