<svg width="444" height="150" viewBox="0 0 444 150" fill="none" xmlns="http://www.w3.org/2000/svg">
<rect x="2.5" y="2.5" width="439" height="145" rx="32.5" fill="#9B448A" stroke="black" stroke-width="5"/>
<path d="M53.0079 111H42.2979C40.5339 111 39.6519 110.118 39.6519 108.354V32.628C39.6519 30.864 40.5339 29.982 42.2979 29.982H73.0419C79.5939 29.982 84.6759 31.788 88.2879 35.4C91.8999 38.928 93.7059 43.968 93.7059 50.52V62.616C93.7059 69.168 91.8999 74.25 88.2879 77.862C84.6759 81.39 79.5939 83.154 73.0419 83.154H57.1659C56.1579 83.154 55.6539 83.616 55.6539 84.54V108.354C55.6539 110.118 54.7719 111 53.0079 111ZM57.0399 69.168H70.3959C73.0839 69.168 74.9739 68.622 76.0659 67.53C77.1579 66.354 77.7039 64.464 77.7039 61.86V51.276C77.7039 48.588 77.1579 46.698 76.0659 45.606C74.9739 44.43 73.0839 43.842 70.3959 43.842H57.0399C56.1159 43.842 55.6539 44.304 55.6539 45.228V67.782C55.6539 68.706 56.1159 69.168 57.0399 69.168ZM128.516 97.14H137.462C140.15 97.14 142.04 96.594 143.132 95.502C144.308 94.326 144.896 92.394 144.896 89.706V51.276C144.896 48.588 144.308 46.698 143.132 45.606C142.04 44.43 140.15 43.842 137.462 43.842H128.516C125.828 43.842 123.938 44.43 122.846 45.606C121.754 46.698 121.208 48.588 121.208 51.276V89.706C121.208 92.394 121.754 94.326 122.846 95.502C123.938 96.594 125.828 97.14 128.516 97.14ZM140.108 111H125.996C119.36 111 114.236 109.236 110.624 105.708C107.012 102.18 105.206 97.098 105.206 90.462V50.52C105.206 43.884 107.012 38.802 110.624 35.274C114.236 31.746 119.36 29.982 125.996 29.982H140.108C146.744 29.982 151.868 31.746 155.48 35.274C159.092 38.802 160.898 43.884 160.898 50.52V90.462C160.898 97.098 159.092 102.18 155.48 105.708C151.868 109.236 146.744 111 140.108 111ZM192.62 32.628V108.354C192.62 110.118 191.738 111 189.974 111H179.264C177.5 111 176.618 110.118 176.618 108.354V32.628C176.618 30.864 177.5 29.982 179.264 29.982H189.974C191.738 29.982 192.62 30.864 192.62 32.628ZM207.564 90.336V87.816C207.564 86.052 208.446 85.17 210.21 85.17H220.92C222.684 85.17 223.566 86.052 223.566 87.816V88.824C223.566 92.016 224.196 94.2 225.456 95.376C226.716 96.552 229.026 97.14 232.386 97.14H238.308C241.584 97.14 243.852 96.51 245.112 95.25C246.456 93.99 247.128 91.638 247.128 88.194V86.682C247.128 84.246 246.12 82.398 244.104 81.138C242.172 79.794 239.736 78.996 236.796 78.744C233.856 78.492 230.664 78.03 227.22 77.358C223.86 76.602 220.71 75.678 217.77 74.586C214.83 73.41 212.352 71.184 210.336 67.908C208.404 64.548 207.438 60.264 207.438 55.056V50.646C207.438 44.094 209.286 39.012 212.982 35.4C216.678 31.788 221.802 29.982 228.354 29.982H240.954C247.59 29.982 252.756 31.788 256.452 35.4C260.148 39.012 261.996 44.094 261.996 50.646V53.04C261.996 54.804 261.114 55.686 259.35 55.686H248.64C246.876 55.686 245.994 54.804 245.994 53.04V52.284C245.994 49.008 245.364 46.782 244.104 45.606C242.844 44.43 240.534 43.842 237.174 43.842H232.26C228.816 43.842 226.464 44.514 225.204 45.858C224.028 47.118 223.44 49.638 223.44 53.418V55.812C223.44 59.76 226.884 62.028 233.772 62.616C240.912 63.204 247.254 64.632 252.798 66.9C255.738 68.16 258.174 70.428 260.106 73.704C262.122 76.896 263.13 81.012 263.13 86.052V90.336C263.13 96.888 261.282 101.97 257.586 105.582C253.89 109.194 248.766 111 242.214 111H228.48C221.928 111 216.804 109.194 213.108 105.582C209.412 101.97 207.564 96.888 207.564 90.336ZM299.552 97.14H308.498C311.186 97.14 313.076 96.594 314.168 95.502C315.344 94.326 315.932 92.394 315.932 89.706V51.276C315.932 48.588 315.344 46.698 314.168 45.606C313.076 44.43 311.186 43.842 308.498 43.842H299.552C296.864 43.842 294.974 44.43 293.882 45.606C292.79 46.698 292.244 48.588 292.244 51.276V89.706C292.244 92.394 292.79 94.326 293.882 95.502C294.974 96.594 296.864 97.14 299.552 97.14ZM311.144 111H297.032C290.396 111 285.272 109.236 281.66 105.708C278.048 102.18 276.242 97.098 276.242 90.462V50.52C276.242 43.884 278.048 38.802 281.66 35.274C285.272 31.746 290.396 29.982 297.032 29.982H311.144C317.78 29.982 322.904 31.746 326.516 35.274C330.128 38.802 331.934 43.884 331.934 50.52V90.462C331.934 97.098 330.128 102.18 326.516 105.708C322.904 109.236 317.78 111 311.144 111ZM360.127 111H349.669C347.905 111 347.023 110.118 347.023 108.354V32.628C347.023 30.864 347.905 29.982 349.669 29.982H359.119C360.883 29.982 362.059 30.57 362.647 31.746L388.099 79.5H388.603V32.628C388.603 30.864 389.485 29.982 391.249 29.982H401.707C403.471 29.982 404.353 30.864 404.353 32.628V108.354C404.353 110.118 403.471 111 401.707 111H392.509C390.661 111 389.317 110.16 388.477 108.48L363.277 61.608H362.773V108.354C362.773 110.118 361.891 111 360.127 111Z" fill="white"/>
<path d="M88.2879 35.4L87.5808 36.1072L87.5892 36.1154L88.2879 35.4ZM88.2879 77.862L88.9867 78.5774L88.995 78.5691L88.2879 77.862ZM76.0659 67.53L76.773 68.2371L76.7861 68.224L76.7987 68.2104L76.0659 67.53ZM76.0659 45.606L75.3331 46.2864L75.3457 46.3L75.3588 46.3131L76.0659 45.606ZM53.0079 110H42.2979V112H53.0079V110ZM42.2979 110C41.5701 110 41.2078 109.819 41.0205 109.631C40.8332 109.444 40.6519 109.082 40.6519 108.354H38.6519C38.6519 109.39 38.9116 110.351 39.6063 111.046C40.301 111.74 41.2618 112 42.2979 112V110ZM40.6519 108.354V32.628H38.6519V108.354H40.6519ZM40.6519 32.628C40.6519 31.9001 40.8332 31.5379 41.0205 31.3506C41.2078 31.1633 41.5701 30.982 42.2979 30.982V28.982C41.2618 28.982 40.301 29.2417 39.6063 29.9364C38.9116 30.6311 38.6519 31.5919 38.6519 32.628H40.6519ZM42.2979 30.982H73.0419V28.982H42.2979V30.982ZM73.0419 30.982C79.4072 30.982 84.2054 32.7317 87.5808 36.1071L88.995 34.6929C85.1464 30.8443 79.7806 28.982 73.0419 28.982V30.982ZM87.5892 36.1154C90.9558 39.4037 92.7059 44.1534 92.7059 50.52H94.7059C94.7059 43.7826 92.844 38.4523 88.9867 34.6846L87.5892 36.1154ZM92.7059 50.52V62.616H94.7059V50.52H92.7059ZM92.7059 62.616C92.7059 68.9813 90.9562 73.7795 87.5808 77.1549L88.995 78.5691C92.8436 74.7205 94.7059 69.3547 94.7059 62.616H92.7059ZM87.5892 77.1466C84.2148 80.4426 79.4136 82.154 73.0419 82.154V84.154C79.7743 84.154 85.1371 82.3374 88.9867 78.5774L87.5892 77.1466ZM73.0419 82.154H57.1659V84.154H73.0419V82.154ZM57.1659 82.154C56.5283 82.154 55.8635 82.2983 55.3562 82.7633C54.8324 83.2435 54.6539 83.9004 54.6539 84.54H56.6539C56.6539 84.3973 56.6737 84.3153 56.6882 84.2754C56.6952 84.2562 56.7009 84.2466 56.7032 84.2431C56.7054 84.2398 56.7066 84.2386 56.7076 84.2377C56.7078 84.2375 56.728 84.2179 56.7966 84.197C56.869 84.1748 56.9871 84.154 57.1659 84.154V82.154ZM54.6539 84.54V108.354H56.6539V84.54H54.6539ZM54.6539 108.354C54.6539 109.082 54.4726 109.444 54.2853 109.631C54.098 109.819 53.7358 110 53.0079 110V112C54.0441 112 55.0048 111.74 55.6995 111.046C56.3942 110.351 56.6539 109.39 56.6539 108.354H54.6539ZM57.0399 70.168H70.3959V68.168H57.0399V70.168ZM70.3959 70.168C73.167 70.168 75.3953 69.6149 76.773 68.2371L75.3588 66.8229C74.5526 67.6291 73.0009 68.168 70.3959 68.168V70.168ZM76.7987 68.2104C78.1422 66.7636 78.7039 64.5677 78.7039 61.86H76.7039C76.7039 64.3603 76.1736 65.9444 75.3331 66.8495L76.7987 68.2104ZM78.7039 61.86V51.276H76.7039V61.86H78.7039ZM78.7039 51.276C78.7039 48.5049 78.1508 46.2766 76.773 44.8989L75.3588 46.3131C76.165 47.1193 76.7039 48.6711 76.7039 51.276H78.7039ZM76.7987 44.9255C75.4229 43.4439 73.1829 42.842 70.3959 42.842V44.842C72.9849 44.842 74.525 45.4161 75.3331 46.2864L76.7987 44.9255ZM70.3959 42.842H57.0399V44.842H70.3959V42.842ZM57.0399 42.842C56.4238 42.842 55.778 42.9967 55.2933 43.4814C54.8086 43.9661 54.6539 44.6119 54.6539 45.228H56.6539C56.6539 44.9201 56.7302 44.8729 56.7075 44.8956C56.6848 44.9183 56.7321 44.842 57.0399 44.842V42.842ZM54.6539 45.228V67.782H56.6539V45.228H54.6539ZM54.6539 67.782C54.6539 68.3981 54.8086 69.0439 55.2933 69.5286C55.778 70.0133 56.4238 70.168 57.0399 70.168V68.168C56.7321 68.168 56.6848 68.0917 56.7075 68.1144C56.7302 68.1371 56.6539 68.0899 56.6539 67.782H54.6539ZM143.132 95.502L142.425 94.7949L142.425 94.7949L143.132 95.502ZM143.132 45.606L142.4 46.2864L142.425 46.3136L142.452 46.3388L143.132 45.606ZM122.846 45.606L123.553 46.3131L123.567 46.3L123.579 46.2864L122.846 45.606ZM122.846 95.502L122.114 96.1825L122.126 96.196L122.139 96.2091L122.846 95.502ZM110.624 105.708L111.323 104.993L111.323 104.993L110.624 105.708ZM110.624 35.274L111.323 35.9894L111.323 35.9894L110.624 35.274ZM155.48 35.274L156.179 34.5586L156.179 34.5586L155.48 35.274ZM155.48 105.708L156.179 106.423L156.179 106.423L155.48 105.708ZM128.516 98.14H137.462V96.14H128.516V98.14ZM137.462 98.14C140.233 98.14 142.462 97.5869 143.839 96.2091L142.425 94.7949C141.619 95.6011 140.067 96.14 137.462 96.14V98.14ZM143.839 96.2091C145.29 94.7581 145.896 92.5026 145.896 89.706H143.896C143.896 92.2854 143.326 93.8939 142.425 94.7949L143.839 96.2091ZM145.896 89.706V51.276H143.896V89.706H145.896ZM145.896 51.276C145.896 48.489 145.295 46.249 143.813 44.8732L142.452 46.3388C143.322 47.1469 143.896 48.687 143.896 51.276H145.896ZM143.865 44.9255C142.489 43.4439 140.249 42.842 137.462 42.842V44.842C140.051 44.842 141.591 45.4161 142.4 46.2864L143.865 44.9255ZM137.462 42.842H128.516V44.842H137.462V42.842ZM128.516 42.842C125.729 42.842 123.489 43.4439 122.114 44.9255L123.579 46.2864C124.387 45.4161 125.927 44.842 128.516 44.842V42.842ZM122.139 44.8989C120.761 46.2766 120.208 48.5049 120.208 51.276H122.208C122.208 48.6711 122.747 47.1193 123.553 46.3131L122.139 44.8989ZM120.208 51.276V89.706H122.208V51.276H120.208ZM120.208 89.706C120.208 92.4874 120.766 94.731 122.114 96.1825L123.579 94.8215C122.743 93.921 122.208 92.3006 122.208 89.706H120.208ZM122.139 96.2091C123.517 97.5869 125.745 98.14 128.516 98.14V96.14C125.911 96.14 124.36 95.6011 123.553 94.7949L122.139 96.2091ZM140.108 110H125.996V112H140.108V110ZM125.996 110C119.537 110 114.695 108.286 111.323 104.993L109.926 106.423C113.777 110.186 119.184 112 125.996 112V110ZM111.323 104.993C107.959 101.707 106.206 96.9169 106.206 90.462H104.206C104.206 97.2791 106.066 102.653 109.926 106.423L111.323 104.993ZM106.206 90.462V50.52H104.206V90.462H106.206ZM106.206 50.52C106.206 44.0651 107.959 39.2754 111.323 35.9894L109.926 34.5586C106.066 38.3286 104.206 43.7029 104.206 50.52H106.206ZM111.323 35.9894C114.695 32.6956 119.537 30.982 125.996 30.982V28.982C119.184 28.982 113.777 30.7964 109.926 34.5586L111.323 35.9894ZM125.996 30.982H140.108V28.982H125.996V30.982ZM140.108 30.982C146.568 30.982 151.409 32.6956 154.782 35.9894L156.179 34.5586C152.327 30.7964 146.921 28.982 140.108 28.982V30.982ZM154.782 35.9894C158.146 39.2754 159.898 44.0651 159.898 50.52H161.898C161.898 43.7029 160.039 38.3286 156.179 34.5586L154.782 35.9894ZM159.898 50.52V90.462H161.898V50.52H159.898ZM159.898 90.462C159.898 96.9169 158.146 101.707 154.782 104.993L156.179 106.423C160.039 102.653 161.898 97.2791 161.898 90.462H159.898ZM154.782 104.993C151.409 108.286 146.568 110 140.108 110V112C146.921 112 152.327 110.186 156.179 106.423L154.782 104.993ZM191.62 32.628V108.354H193.62V32.628H191.62ZM191.62 108.354C191.62 109.082 191.439 109.444 191.251 109.631C191.064 109.819 190.702 110 189.974 110V112C191.01 112 191.971 111.74 192.665 111.046C193.36 110.351 193.62 109.39 193.62 108.354H191.62ZM189.974 110H179.264V112H189.974V110ZM179.264 110C178.536 110 178.174 109.819 177.986 109.631C177.799 109.444 177.618 109.082 177.618 108.354H175.618C175.618 109.39 175.878 110.351 176.572 111.046C177.267 111.74 178.228 112 179.264 112V110ZM177.618 108.354V32.628H175.618V108.354H177.618ZM177.618 32.628C177.618 31.9001 177.799 31.5379 177.986 31.3506C178.174 31.1633 178.536 30.982 179.264 30.982V28.982C178.228 28.982 177.267 29.2417 176.572 29.9364C175.878 30.6311 175.618 31.5919 175.618 32.628H177.618ZM179.264 30.982H189.974V28.982H179.264V30.982ZM189.974 30.982C190.702 30.982 191.064 31.1633 191.251 31.3506C191.439 31.5379 191.62 31.9001 191.62 32.628H193.62C193.62 31.5919 193.36 30.6311 192.665 29.9364C191.971 29.2417 191.01 28.982 189.974 28.982V30.982ZM225.456 95.376L224.773 96.1071L224.773 96.1071L225.456 95.376ZM245.112 95.25L244.428 94.5205L244.416 94.5315L244.405 94.5429L245.112 95.25ZM244.104 81.138L243.533 81.9589L243.553 81.973L243.574 81.986L244.104 81.138ZM236.796 78.744L236.881 77.7477L236.881 77.7477L236.796 78.744ZM227.22 77.358L227 78.3336L227.014 78.3367L227.028 78.3395L227.22 77.358ZM217.77 74.586L217.398 75.5145L217.41 75.5191L217.421 75.5234L217.77 74.586ZM210.336 67.908L209.469 68.4065L209.476 68.4194L209.484 68.4321L210.336 67.908ZM212.982 35.4L213.681 36.1152L213.681 36.1152L212.982 35.4ZM256.452 35.4L255.753 36.1152L255.753 36.1152L256.452 35.4ZM244.104 45.606L244.786 44.8749L244.786 44.8749L244.104 45.606ZM225.204 45.858L224.474 45.1741L224.473 45.1757L225.204 45.858ZM233.772 62.616L233.687 63.6124L233.69 63.6126L233.772 62.616ZM252.798 66.9L253.192 65.9809L253.184 65.9776L253.176 65.9744L252.798 66.9ZM260.106 73.704L259.244 74.212L259.252 74.2251L259.26 74.238L260.106 73.704ZM213.108 105.582L212.409 106.297L212.409 106.297L213.108 105.582ZM208.564 90.336V87.816H206.564V90.336H208.564ZM208.564 87.816C208.564 87.0881 208.745 86.7259 208.932 86.5386C209.12 86.3513 209.482 86.17 210.21 86.17V84.17C209.174 84.17 208.213 84.4297 207.518 85.1244C206.823 85.8191 206.564 86.7799 206.564 87.816H208.564ZM210.21 86.17H220.92V84.17H210.21V86.17ZM220.92 86.17C221.648 86.17 222.01 86.3513 222.197 86.5386C222.384 86.7259 222.566 87.0881 222.566 87.816H224.566C224.566 86.7799 224.306 85.8191 223.611 85.1244C222.917 84.4297 221.956 84.17 220.92 84.17V86.17ZM222.566 87.816V88.824H224.566V87.816H222.566ZM222.566 88.824C222.566 92.0782 223.194 94.6332 224.773 96.1071L226.138 94.6449C225.197 93.7668 224.566 91.9538 224.566 88.824H222.566ZM224.773 96.1071C226.329 97.5592 228.982 98.14 232.386 98.14V96.14C229.07 96.14 227.102 95.5448 226.138 94.6449L224.773 96.1071ZM232.386 98.14H238.308V96.14H232.386V98.14ZM238.308 98.14C241.648 98.14 244.266 97.5103 245.819 95.9571L244.405 94.5429C243.438 95.5097 241.52 96.14 238.308 96.14V98.14ZM245.796 95.9795C247.458 94.4207 248.128 91.6968 248.128 88.194H246.128C246.128 91.5792 245.453 93.5593 244.428 94.5205L245.796 95.9795ZM248.128 88.194V86.682H246.128V88.194H248.128ZM248.128 86.682C248.128 83.9116 246.951 81.7382 244.634 80.29L243.574 81.986C245.289 83.0578 246.128 84.5804 246.128 86.682H248.128ZM244.675 80.3171C242.567 78.8507 239.952 78.0109 236.881 77.7477L236.71 79.7403C239.519 79.9811 241.776 80.7373 243.533 81.9589L244.675 80.3171ZM236.881 77.7477C233.983 77.4992 230.826 77.0429 227.411 76.3765L227.028 78.3395C230.501 79.0171 233.729 79.4848 236.71 79.7403L236.881 77.7477ZM227.439 76.3824C224.119 75.6353 221.012 74.7235 218.118 73.6486L217.421 75.5234C220.407 76.6324 223.601 77.5687 227 78.3336L227.439 76.3824ZM218.141 73.6575C215.44 72.5772 213.116 70.5172 211.187 67.3839L209.484 68.4321C211.588 71.8508 214.219 74.2428 217.398 75.5145L218.141 73.6575ZM211.203 67.4095C209.383 64.2446 208.438 60.147 208.438 55.056H206.438C206.438 60.381 207.425 64.8514 209.469 68.4065L211.203 67.4095ZM208.438 55.056V50.646H206.438V55.056H208.438ZM208.438 50.646C208.438 44.2871 210.225 39.4918 213.681 36.1152L212.283 34.6848C208.346 38.5322 206.438 43.9009 206.438 50.646H208.438ZM213.681 36.1152C217.143 32.7313 221.99 30.982 228.354 30.982V28.982C221.614 28.982 216.212 30.8447 212.283 34.6848L213.681 36.1152ZM228.354 30.982H240.954V28.982H228.354V30.982ZM240.954 30.982C247.406 30.982 252.292 32.7335 255.753 36.1152L257.151 34.6848C253.219 30.8425 247.773 28.982 240.954 28.982V30.982ZM255.753 36.1152C259.208 39.4918 260.996 44.2871 260.996 50.646H262.996C262.996 43.9009 261.087 38.5322 257.151 34.6848L255.753 36.1152ZM260.996 50.646V53.04H262.996V50.646H260.996ZM260.996 53.04C260.996 53.7679 260.814 54.1301 260.627 54.3174C260.44 54.5047 260.078 54.686 259.35 54.686V56.686C260.386 56.686 261.347 56.4263 262.041 55.7316C262.736 55.0369 262.996 54.0761 262.996 53.04H260.996ZM259.35 54.686H248.64V56.686H259.35V54.686ZM248.64 54.686C247.912 54.686 247.55 54.5047 247.362 54.3174C247.175 54.1301 246.994 53.7679 246.994 53.04H244.994C244.994 54.0761 245.253 55.0369 245.948 55.7316C246.643 56.4263 247.604 56.686 248.64 56.686V54.686ZM246.994 53.04V52.284H244.994V53.04H246.994ZM246.994 52.284C246.994 48.9553 246.369 46.3522 244.786 44.8749L243.421 46.337C244.359 47.2118 244.994 49.0607 244.994 52.284H246.994ZM244.786 44.8749C243.23 43.4228 240.578 42.842 237.174 42.842V44.842C240.49 44.842 242.457 45.4372 243.421 46.337L244.786 44.8749ZM237.174 42.842H232.26V44.842H237.174V42.842ZM232.26 42.842C228.757 42.842 226.033 43.5112 224.474 45.1741L225.933 46.5419C226.894 45.5167 228.874 44.842 232.26 44.842V42.842ZM224.473 45.1757C223.72 45.982 223.222 47.1144 222.907 48.4658C222.589 49.8258 222.44 51.4831 222.44 53.418H224.44C224.44 51.5729 224.584 50.0802 224.854 48.9202C225.127 47.7515 225.511 46.994 225.935 46.5403L224.473 45.1757ZM222.44 53.418V55.812H224.44V53.418H222.44ZM222.44 55.812C222.44 58.1399 223.485 60.0001 225.473 61.3092C227.398 62.5771 230.175 63.3126 233.687 63.6124L233.857 61.6196C230.48 61.3314 228.091 60.6389 226.573 59.6388C225.117 58.6799 224.44 57.4321 224.44 55.812H222.44ZM233.69 63.6126C240.747 64.1938 246.986 65.603 252.419 67.8255L253.176 65.9744C247.521 63.661 241.076 62.2142 233.854 61.6194L233.69 63.6126ZM252.404 67.8191C255.113 68.9804 257.399 71.0836 259.244 74.212L260.967 73.196C258.948 69.7724 256.362 67.3396 253.192 65.9809L252.404 67.8191ZM259.26 74.238C261.147 77.225 262.13 81.1393 262.13 86.052H264.13C264.13 80.8847 263.097 76.567 260.951 73.17L259.26 74.238ZM262.13 86.052V90.336H264.13V86.052H262.13ZM262.13 90.336C262.13 96.6949 260.342 101.49 256.887 104.867L258.285 106.297C262.221 102.45 264.13 97.0811 264.13 90.336H262.13ZM256.887 104.867C253.424 108.251 248.578 110 242.214 110V112C248.954 112 254.355 110.137 258.285 106.297L256.887 104.867ZM242.214 110H228.48V112H242.214V110ZM228.48 110C222.116 110 217.269 108.251 213.807 104.867L212.409 106.297C216.338 110.137 221.74 112 228.48 112V110ZM213.807 104.867C210.351 101.49 208.564 96.6949 208.564 90.336H206.564C206.564 97.0811 208.472 102.45 212.409 106.297L213.807 104.867ZM314.168 95.502L313.46 94.7949L313.46 94.7949L314.168 95.502ZM314.168 45.606L313.435 46.2864L313.46 46.3136L313.487 46.3388L314.168 45.606ZM293.882 45.606L294.589 46.3131L294.602 46.3L294.614 46.2864L293.882 45.606ZM293.882 95.502L293.149 96.1825L293.161 96.196L293.174 96.2091L293.882 95.502ZM281.66 105.708L282.358 104.993L282.358 104.993L281.66 105.708ZM281.66 35.274L282.358 35.9894L282.358 35.9894L281.66 35.274ZM326.516 35.274L327.214 34.5586L327.214 34.5586L326.516 35.274ZM326.516 105.708L327.214 106.423L327.214 106.423L326.516 105.708ZM299.552 98.14H308.498V96.14H299.552V98.14ZM308.498 98.14C311.269 98.14 313.497 97.5869 314.875 96.2091L313.46 94.7949C312.654 95.6011 311.102 96.14 308.498 96.14V98.14ZM314.875 96.2091C316.326 94.7581 316.932 92.5026 316.932 89.706H314.932C314.932 92.2854 314.361 93.8939 313.46 94.7949L314.875 96.2091ZM316.932 89.706V51.276H314.932V89.706H316.932ZM316.932 51.276C316.932 48.489 316.33 46.249 314.848 44.8732L313.487 46.3388C314.357 47.1469 314.932 48.687 314.932 51.276H316.932ZM314.9 44.9255C313.524 43.4439 311.284 42.842 308.498 42.842V44.842C311.087 44.842 312.627 45.4161 313.435 46.2864L314.9 44.9255ZM308.498 42.842H299.552V44.842H308.498V42.842ZM299.552 42.842C296.765 42.842 294.525 43.4439 293.149 44.9255L294.614 46.2864C295.422 45.4161 296.962 44.842 299.552 44.842V42.842ZM293.174 44.8989C291.797 46.2766 291.244 48.5049 291.244 51.276H293.244C293.244 48.6711 293.782 47.1193 294.589 46.3131L293.174 44.8989ZM291.244 51.276V89.706H293.244V51.276H291.244ZM291.244 89.706C291.244 92.4874 291.801 94.731 293.149 96.1825L294.614 94.8215C293.778 93.921 293.244 92.3006 293.244 89.706H291.244ZM293.174 96.2091C294.552 97.5869 296.78 98.14 299.552 98.14V96.14C296.947 96.14 295.395 95.6011 294.589 94.7949L293.174 96.2091ZM311.144 110H297.032V112H311.144V110ZM297.032 110C290.572 110 285.73 108.286 282.358 104.993L280.961 106.423C284.813 110.186 290.219 112 297.032 112V110ZM282.358 104.993C278.994 101.707 277.242 96.9169 277.242 90.462H275.242C275.242 97.2791 277.101 102.653 280.961 106.423L282.358 104.993ZM277.242 90.462V50.52H275.242V90.462H277.242ZM277.242 50.52C277.242 44.0651 278.994 39.2754 282.358 35.9894L280.961 34.5586C277.101 38.3286 275.242 43.7029 275.242 50.52H277.242ZM282.358 35.9894C285.73 32.6956 290.572 30.982 297.032 30.982V28.982C290.219 28.982 284.813 30.7964 280.961 34.5586L282.358 35.9894ZM297.032 30.982H311.144V28.982H297.032V30.982ZM311.144 30.982C317.603 30.982 322.445 32.6956 325.817 35.9894L327.214 34.5586C323.362 30.7964 317.956 28.982 311.144 28.982V30.982ZM325.817 35.9894C329.181 39.2754 330.934 44.0651 330.934 50.52H332.934C332.934 43.7029 331.074 38.3286 327.214 34.5586L325.817 35.9894ZM330.934 50.52V90.462H332.934V50.52H330.934ZM330.934 90.462C330.934 96.9169 329.181 101.707 325.817 104.993L327.214 106.423C331.074 102.653 332.934 97.2791 332.934 90.462H330.934ZM325.817 104.993C322.445 108.286 317.603 110 311.144 110V112C317.956 112 323.362 110.186 327.214 106.423L325.817 104.993ZM362.647 31.746L361.753 32.1932L361.758 32.2049L361.765 32.2163L362.647 31.746ZM388.099 79.5L387.217 79.9703L387.499 80.5H388.099V79.5ZM388.603 79.5V80.5H389.603V79.5H388.603ZM388.477 108.48L389.371 108.033L389.365 108.02L389.358 108.006L388.477 108.48ZM363.277 61.608L364.158 61.1345L363.875 60.608H363.277V61.608ZM362.773 61.608V60.608H361.773V61.608H362.773ZM360.127 110H349.669V112H360.127V110ZM349.669 110C348.941 110 348.579 109.819 348.392 109.631C348.204 109.444 348.023 109.082 348.023 108.354H346.023C346.023 109.39 346.283 110.351 346.977 111.046C347.672 111.74 348.633 112 349.669 112V110ZM348.023 108.354V32.628H346.023V108.354H348.023ZM348.023 32.628C348.023 31.9001 348.204 31.5379 348.392 31.3506C348.579 31.1633 348.941 30.982 349.669 30.982V28.982C348.633 28.982 347.672 29.2417 346.977 29.9364C346.283 30.6311 346.023 31.5919 346.023 32.628H348.023ZM349.669 30.982H359.119V28.982H349.669V30.982ZM359.119 30.982C360.655 30.982 361.392 31.4727 361.753 32.1932L363.541 31.2988C362.726 29.6673 361.111 28.982 359.119 28.982V30.982ZM361.765 32.2163L387.217 79.9703L388.981 79.0297L363.529 31.2757L361.765 32.2163ZM388.099 80.5H388.603V78.5H388.099V80.5ZM389.603 79.5V32.628H387.603V79.5H389.603ZM389.603 32.628C389.603 31.9001 389.784 31.5379 389.972 31.3506C390.159 31.1633 390.521 30.982 391.249 30.982V28.982C390.213 28.982 389.252 29.2417 388.557 29.9364C387.863 30.6311 387.603 31.5919 387.603 32.628H389.603ZM391.249 30.982H401.707V28.982H391.249V30.982ZM401.707 30.982C402.435 30.982 402.797 31.1633 402.984 31.3506C403.172 31.5379 403.353 31.9001 403.353 32.628H405.353C405.353 31.5919 405.093 30.6311 404.399 29.9364C403.704 29.2417 402.743 28.982 401.707 28.982V30.982ZM403.353 32.628V108.354H405.353V32.628H403.353ZM403.353 108.354C403.353 109.082 403.172 109.444 402.984 109.631C402.797 109.819 402.435 110 401.707 110V112C402.743 112 403.704 111.74 404.399 111.046C405.093 110.351 405.353 109.39 405.353 108.354H403.353ZM401.707 110H392.509V112H401.707V110ZM392.509 110C391.741 110 391.133 109.827 390.645 109.522C390.156 109.216 389.725 108.739 389.371 108.033L387.583 108.927C388.069 109.901 388.73 110.684 389.585 111.218C390.441 111.753 391.429 112 392.509 112V110ZM389.358 108.006L364.158 61.1345L362.396 62.0815L387.596 108.954L389.358 108.006ZM363.277 60.608H362.773V62.608H363.277V60.608ZM361.773 61.608V108.354H363.773V61.608H361.773ZM361.773 108.354C361.773 109.082 361.592 109.444 361.404 109.631C361.217 109.819 360.855 110 360.127 110V112C361.163 112 362.124 111.74 362.819 111.046C363.513 110.351 363.773 109.39 363.773 108.354H361.773Z" fill="black"/>
</svg>
