<svg width="513" height="150" viewBox="0 0 513 150" fill="none" xmlns="http://www.w3.org/2000/svg">
<rect x="2.5" y="2.5" width="507.304" height="145" rx="32.5" fill="#D84984" stroke="black" stroke-width="5"/>
<path d="M56.8259 111H46.1159C44.3519 111 43.4699 110.118 43.4699 108.354V32.628C43.4699 30.864 44.3519 29.982 46.1159 29.982H76.8599C83.4119 29.982 88.4939 31.788 92.1059 35.4C95.7179 38.928 97.5239 43.968 97.5239 50.52V62.616C97.5239 69.168 95.7179 74.25 92.1059 77.862C88.4939 81.39 83.4119 83.154 76.8599 83.154H60.9839C59.9759 83.154 59.4719 83.616 59.4719 84.54V108.354C59.4719 110.118 58.5899 111 56.8259 111ZM60.8579 69.168H74.2139C76.9019 69.168 78.7919 68.622 79.8839 67.53C80.9759 66.354 81.5219 64.464 81.5219 61.86V51.276C81.5219 48.588 80.9759 46.698 79.8839 45.606C78.7919 44.43 76.9019 43.842 74.2139 43.842H60.8579C59.9339 43.842 59.4719 44.304 59.4719 45.228V67.782C59.4719 68.706 59.9339 69.168 60.8579 69.168ZM108.268 90.336V87.816C108.268 86.052 109.15 85.17 110.914 85.17H121.624C123.388 85.17 124.27 86.052 124.27 87.816V88.824C124.27 92.016 124.9 94.2 126.16 95.376C127.42 96.552 129.73 97.14 133.09 97.14H139.012C142.288 97.14 144.556 96.51 145.816 95.25C147.16 93.99 147.832 91.638 147.832 88.194V86.682C147.832 84.246 146.824 82.398 144.808 81.138C142.876 79.794 140.44 78.996 137.5 78.744C134.56 78.492 131.368 78.03 127.924 77.358C124.564 76.602 121.414 75.678 118.474 74.586C115.534 73.41 113.056 71.184 111.04 67.908C109.108 64.548 108.142 60.264 108.142 55.056V50.646C108.142 44.094 109.99 39.012 113.686 35.4C117.382 31.788 122.506 29.982 129.058 29.982H141.658C148.294 29.982 153.46 31.788 157.156 35.4C160.852 39.012 162.7 44.094 162.7 50.646V53.04C162.7 54.804 161.818 55.686 160.054 55.686H149.344C147.58 55.686 146.698 54.804 146.698 53.04V52.284C146.698 49.008 146.068 46.782 144.808 45.606C143.548 44.43 141.238 43.842 137.878 43.842H132.964C129.52 43.842 127.168 44.514 125.908 45.858C124.732 47.118 124.144 49.638 124.144 53.418V55.812C124.144 59.76 127.588 62.028 134.476 62.616C141.616 63.204 147.958 64.632 153.502 66.9C156.442 68.16 158.878 70.428 160.81 73.704C162.826 76.896 163.834 81.012 163.834 86.052V90.336C163.834 96.888 161.986 101.97 158.29 105.582C154.594 109.194 149.47 111 142.918 111H129.184C122.632 111 117.508 109.194 113.812 105.582C110.116 101.97 108.268 96.888 108.268 90.336ZM207.942 111H197.232C195.468 111 194.586 110.118 194.586 108.354V81.39L171.528 32.754C171.192 31.998 171.192 31.368 171.528 30.864C171.948 30.276 172.536 29.982 173.292 29.982H186.648C187.992 29.982 189 30.864 189.672 32.628L202.272 63.246H203.154L215.502 32.628C216.09 30.864 217.098 29.982 218.526 29.982H231.882C232.722 29.982 233.31 30.234 233.646 30.738C234.066 31.242 234.066 31.914 233.646 32.754L210.588 81.39V108.354C210.588 110.118 209.706 111 207.942 111ZM276.562 111H262.828C256.192 111 251.068 109.236 247.456 105.708C243.844 102.18 242.038 97.098 242.038 90.462V50.52C242.038 43.884 243.844 38.802 247.456 35.274C251.068 31.746 256.192 29.982 262.828 29.982H276.562C283.114 29.982 288.196 31.788 291.808 35.4C295.504 38.928 297.352 43.968 297.352 50.52V56.442C297.352 58.29 296.428 59.214 294.58 59.214H283.996C282.232 59.214 281.35 58.29 281.35 56.442V51.276C281.35 48.588 280.762 46.698 279.586 45.606C278.494 44.43 276.604 43.842 273.916 43.842H265.348C262.744 43.842 260.854 44.43 259.678 45.606C258.586 46.698 258.04 48.588 258.04 51.276V89.706C258.04 92.394 258.586 94.326 259.678 95.502C260.854 96.594 262.744 97.14 265.348 97.14H273.916C276.604 97.14 278.494 96.594 279.586 95.502C280.762 94.326 281.35 92.394 281.35 89.706V84.54C281.35 82.692 282.232 81.768 283.996 81.768H294.58C296.428 81.768 297.352 82.692 297.352 84.54V90.462C297.352 97.014 295.504 102.096 291.808 105.708C288.196 109.236 283.114 111 276.562 111ZM324.453 111H313.743C311.979 111 311.097 110.118 311.097 108.354V32.628C311.097 30.864 311.979 29.982 313.743 29.982H324.453C326.217 29.982 327.099 30.864 327.099 32.628V62.238C327.099 63.162 327.603 63.624 328.611 63.624H349.905C350.829 63.624 351.291 63.162 351.291 62.238V32.628C351.291 30.864 352.173 29.982 353.937 29.982H364.647C366.411 29.982 367.293 30.864 367.293 32.628V108.354C367.293 110.118 366.411 111 364.647 111H353.937C352.173 111 351.291 110.118 351.291 108.354V78.87C351.291 77.946 350.829 77.484 349.905 77.484H328.611C327.603 77.484 327.099 77.946 327.099 78.87V108.354C327.099 110.118 326.217 111 324.453 111ZM400.327 32.628V108.354C400.327 110.118 399.445 111 397.681 111H386.971C385.207 111 384.325 110.118 384.325 108.354V32.628C384.325 30.864 385.207 29.982 386.971 29.982H397.681C399.445 29.982 400.327 30.864 400.327 32.628ZM450.55 111H436.816C430.18 111 425.056 109.236 421.444 105.708C417.832 102.18 416.026 97.098 416.026 90.462V50.52C416.026 43.884 417.832 38.802 421.444 35.274C425.056 31.746 430.18 29.982 436.816 29.982H450.55C457.102 29.982 462.184 31.788 465.796 35.4C469.492 38.928 471.34 43.968 471.34 50.52V56.442C471.34 58.29 470.416 59.214 468.568 59.214H457.984C456.22 59.214 455.338 58.29 455.338 56.442V51.276C455.338 48.588 454.75 46.698 453.574 45.606C452.482 44.43 450.592 43.842 447.904 43.842H439.336C436.732 43.842 434.842 44.43 433.666 45.606C432.574 46.698 432.028 48.588 432.028 51.276V89.706C432.028 92.394 432.574 94.326 433.666 95.502C434.842 96.594 436.732 97.14 439.336 97.14H447.904C450.592 97.14 452.482 96.594 453.574 95.502C454.75 94.326 455.338 92.394 455.338 89.706V84.54C455.338 82.692 456.22 81.768 457.984 81.768H468.568C470.416 81.768 471.34 82.692 471.34 84.54V90.462C471.34 97.014 469.492 102.096 465.796 105.708C462.184 109.236 457.102 111 450.55 111Z" fill="white"/>
<path d="M92.1059 35.4L91.3988 36.1072L91.4072 36.1154L92.1059 35.4ZM92.1059 77.862L92.8047 78.5774L92.813 78.5691L92.1059 77.862ZM79.8839 67.53L80.591 68.2371L80.6041 68.224L80.6167 68.2104L79.8839 67.53ZM79.8839 45.606L79.1511 46.2864L79.1637 46.3L79.1768 46.3131L79.8839 45.606ZM56.8259 110H46.1159V112H56.8259V110ZM46.1159 110C45.3881 110 45.0259 109.819 44.8385 109.631C44.6512 109.444 44.4699 109.082 44.4699 108.354H42.4699C42.4699 109.39 42.7297 110.351 43.4243 111.046C44.119 111.74 45.0798 112 46.1159 112V110ZM44.4699 108.354V32.628H42.4699V108.354H44.4699ZM44.4699 32.628C44.4699 31.9001 44.6512 31.5379 44.8385 31.3506C45.0259 31.1633 45.3881 30.982 46.1159 30.982V28.982C45.0798 28.982 44.119 29.2417 43.4243 29.9364C42.7297 30.6311 42.4699 31.5919 42.4699 32.628H44.4699ZM46.1159 30.982H76.8599V28.982H46.1159V30.982ZM76.8599 30.982C83.2252 30.982 88.0234 32.7317 91.3988 36.1071L92.813 34.6929C88.9645 30.8443 83.5987 28.982 76.8599 28.982V30.982ZM91.4072 36.1154C94.7738 39.4037 96.5239 44.1534 96.5239 50.52H98.5239C98.5239 43.7826 96.6621 38.4523 92.8047 34.6846L91.4072 36.1154ZM96.5239 50.52V62.616H98.5239V50.52H96.5239ZM96.5239 62.616C96.5239 68.9813 94.7743 73.7795 91.3988 77.1549L92.813 78.5691C96.6616 74.7205 98.5239 69.3547 98.5239 62.616H96.5239ZM91.4072 77.1466C88.0328 80.4426 83.2316 82.154 76.8599 82.154V84.154C83.5923 84.154 88.9551 82.3374 92.8047 78.5774L91.4072 77.1466ZM76.8599 82.154H60.9839V84.154H76.8599V82.154ZM60.9839 82.154C60.3463 82.154 59.6816 82.2983 59.1742 82.7633C58.6504 83.2435 58.4719 83.9004 58.4719 84.54H60.4719C60.4719 84.3973 60.4917 84.3153 60.5062 84.2754C60.5132 84.2562 60.519 84.2466 60.5213 84.2431C60.5234 84.2398 60.5246 84.2386 60.5257 84.2377C60.5258 84.2375 60.546 84.2179 60.6147 84.197C60.6871 84.1748 60.8051 84.154 60.9839 84.154V82.154ZM58.4719 84.54V108.354H60.4719V84.54H58.4719ZM58.4719 108.354C58.4719 109.082 58.2907 109.444 58.1033 109.631C57.916 109.819 57.5538 110 56.8259 110V112C57.8621 112 58.8229 111.74 59.5175 111.046C60.2122 110.351 60.4719 109.39 60.4719 108.354H58.4719ZM60.8579 70.168H74.2139V68.168H60.8579V70.168ZM74.2139 70.168C76.985 70.168 79.2133 69.6149 80.591 68.2371L79.1768 66.8229C78.3706 67.6291 76.8189 68.168 74.2139 68.168V70.168ZM80.6167 68.2104C81.9602 66.7636 82.5219 64.5677 82.5219 61.86H80.5219C80.5219 64.3603 79.9916 65.9444 79.1511 66.8495L80.6167 68.2104ZM82.5219 61.86V51.276H80.5219V61.86H82.5219ZM82.5219 51.276C82.5219 48.5049 81.9688 46.2766 80.591 44.8989L79.1768 46.3131C79.9831 47.1193 80.5219 48.6711 80.5219 51.276H82.5219ZM80.6167 44.9255C79.2409 43.4439 77.0009 42.842 74.2139 42.842V44.842C76.803 44.842 78.343 45.4161 79.1511 46.2864L80.6167 44.9255ZM74.2139 42.842H60.8579V44.842H74.2139V42.842ZM60.8579 42.842C60.2418 42.842 59.596 42.9967 59.1113 43.4814C58.6267 43.9661 58.4719 44.6119 58.4719 45.228H60.4719C60.4719 44.9201 60.5482 44.8729 60.5255 44.8956C60.5029 44.9183 60.5501 44.842 60.8579 44.842V42.842ZM58.4719 45.228V67.782H60.4719V45.228H58.4719ZM58.4719 67.782C58.4719 68.3981 58.6267 69.0439 59.1113 69.5286C59.596 70.0133 60.2418 70.168 60.8579 70.168V68.168C60.5501 68.168 60.5029 68.0917 60.5255 68.1144C60.5482 68.1371 60.4719 68.0899 60.4719 67.782H58.4719ZM126.16 95.376L125.478 96.1071L125.478 96.1071L126.16 95.376ZM145.816 95.25L145.132 94.5205L145.121 94.5315L145.109 94.5429L145.816 95.25ZM144.808 81.138L144.237 81.9589L144.258 81.973L144.278 81.986L144.808 81.138ZM137.5 78.744L137.586 77.7477L137.586 77.7477L137.5 78.744ZM127.924 77.358L127.705 78.3336L127.719 78.3367L127.733 78.3395L127.924 77.358ZM118.474 74.586L118.103 75.5145L118.115 75.5191L118.126 75.5234L118.474 74.586ZM111.04 67.908L110.173 68.4065L110.181 68.4194L110.189 68.4321L111.04 67.908ZM113.686 35.4L114.385 36.1152L114.385 36.1152L113.686 35.4ZM157.156 35.4L156.457 36.1152L156.457 36.1152L157.156 35.4ZM144.808 45.606L145.491 44.8749L145.491 44.8749L144.808 45.606ZM125.908 45.858L125.179 45.1741L125.177 45.1757L125.908 45.858ZM134.476 62.616L134.391 63.6124L134.394 63.6126L134.476 62.616ZM153.502 66.9L153.896 65.9809L153.889 65.9776L153.881 65.9744L153.502 66.9ZM160.81 73.704L159.949 74.212L159.957 74.2251L159.965 74.238L160.81 73.704ZM113.812 105.582L113.113 106.297L113.113 106.297L113.812 105.582ZM109.268 90.336V87.816H107.268V90.336H109.268ZM109.268 87.816C109.268 87.0881 109.45 86.7259 109.637 86.5386C109.824 86.3513 110.187 86.17 110.914 86.17V84.17C109.878 84.17 108.917 84.4297 108.223 85.1244C107.528 85.8191 107.268 86.7799 107.268 87.816H109.268ZM110.914 86.17H121.624V84.17H110.914V86.17ZM121.624 86.17C122.352 86.17 122.714 86.3513 122.902 86.5386C123.089 86.7259 123.27 87.0881 123.27 87.816H125.27C125.27 86.7799 125.011 85.8191 124.316 85.1244C123.621 84.4297 122.661 84.17 121.624 84.17V86.17ZM123.27 87.816V88.824H125.27V87.816H123.27ZM123.27 88.824C123.27 92.0782 123.899 94.6332 125.478 96.1071L126.843 94.6449C125.902 93.7668 125.27 91.9538 125.27 88.824H123.27ZM125.478 96.1071C127.034 97.5592 129.686 98.14 133.09 98.14V96.14C129.774 96.14 127.807 95.5448 126.843 94.6449L125.478 96.1071ZM133.09 98.14H139.012V96.14H133.09V98.14ZM139.012 98.14C142.353 98.14 144.97 97.5103 146.523 95.9571L145.109 94.5429C144.143 95.5097 142.224 96.14 139.012 96.14V98.14ZM146.5 95.9795C148.163 94.4207 148.832 91.6968 148.832 88.194H146.832C146.832 91.5792 146.158 93.5593 145.132 94.5205L146.5 95.9795ZM148.832 88.194V86.682H146.832V88.194H148.832ZM148.832 86.682C148.832 83.9116 147.655 81.7382 145.338 80.29L144.278 81.986C145.993 83.0578 146.832 84.5804 146.832 86.682H148.832ZM145.379 80.3171C143.272 78.8507 140.657 78.0109 137.586 77.7477L137.415 79.7403C140.224 79.9811 142.481 80.7373 144.237 81.9589L145.379 80.3171ZM137.586 77.7477C134.687 77.4992 131.531 77.0429 128.116 76.3765L127.733 78.3395C131.206 79.0171 134.433 79.4848 137.415 79.7403L137.586 77.7477ZM128.144 76.3824C124.823 75.6353 121.717 74.7235 118.823 73.6486L118.126 75.5234C121.112 76.6324 124.305 77.5687 127.705 78.3336L128.144 76.3824ZM118.846 73.6575C116.145 72.5772 113.82 70.5172 111.892 67.3839L110.189 68.4321C112.293 71.8508 114.924 74.2428 118.103 75.5145L118.846 73.6575ZM111.907 67.4095C110.087 64.2446 109.142 60.147 109.142 55.056H107.142C107.142 60.381 108.129 64.8514 110.173 68.4065L111.907 67.4095ZM109.142 55.056V50.646H107.142V55.056H109.142ZM109.142 50.646C109.142 44.2871 110.93 39.4918 114.385 36.1152L112.987 34.6848C109.051 38.5322 107.142 43.9009 107.142 50.646H109.142ZM114.385 36.1152C117.848 32.7313 122.694 30.982 129.058 30.982V28.982C122.318 28.982 116.917 30.8447 112.987 34.6848L114.385 36.1152ZM129.058 30.982H141.658V28.982H129.058V30.982ZM141.658 30.982C148.111 30.982 152.997 32.7335 156.457 36.1152L157.855 34.6848C153.924 30.8425 148.478 28.982 141.658 28.982V30.982ZM156.457 36.1152C159.913 39.4918 161.7 44.2871 161.7 50.646H163.7C163.7 43.9009 161.792 38.5322 157.855 34.6848L156.457 36.1152ZM161.7 50.646V53.04H163.7V50.646H161.7ZM161.7 53.04C161.7 53.7679 161.519 54.1301 161.332 54.3174C161.144 54.5047 160.782 54.686 160.054 54.686V56.686C161.091 56.686 162.051 56.4263 162.746 55.7316C163.441 55.0369 163.7 54.0761 163.7 53.04H161.7ZM160.054 54.686H149.344V56.686H160.054V54.686ZM149.344 54.686C148.617 54.686 148.254 54.5047 148.067 54.3174C147.88 54.1301 147.698 53.7679 147.698 53.04H145.698C145.698 54.0761 145.958 55.0369 146.653 55.7316C147.347 56.4263 148.308 56.686 149.344 56.686V54.686ZM147.698 53.04V52.284H145.698V53.04H147.698ZM147.698 52.284C147.698 48.9553 147.074 46.3522 145.491 44.8749L144.126 46.337C145.063 47.2118 145.698 49.0607 145.698 52.284H147.698ZM145.491 44.8749C143.935 43.4228 141.282 42.842 137.878 42.842V44.842C141.194 44.842 143.162 45.4372 144.126 46.337L145.491 44.8749ZM137.878 42.842H132.964V44.842H137.878V42.842ZM132.964 42.842C129.462 42.842 126.738 43.5112 125.179 45.1741L126.638 46.5419C127.599 45.5167 129.579 44.842 132.964 44.842V42.842ZM125.177 45.1757C124.425 45.982 123.927 47.1144 123.612 48.4658C123.294 49.8258 123.144 51.4831 123.144 53.418H125.144C125.144 51.5729 125.289 50.0802 125.559 48.9202C125.832 47.7515 126.216 46.994 126.639 46.5403L125.177 45.1757ZM123.144 53.418V55.812H125.144V53.418H123.144ZM123.144 55.812C123.144 58.1399 124.189 60.0001 126.177 61.3092C128.103 62.5771 130.88 63.3126 134.391 63.6124L134.561 61.6196C131.185 61.3314 128.796 60.6389 127.277 59.6388C125.821 58.6799 125.144 57.4321 125.144 55.812H123.144ZM134.394 63.6126C141.452 64.1938 147.691 65.603 153.124 67.8255L153.881 65.9744C148.226 63.661 141.781 62.2142 134.558 61.6194L134.394 63.6126ZM153.108 67.8191C155.818 68.9804 158.104 71.0836 159.949 74.212L161.672 73.196C159.653 69.7724 157.067 67.3396 153.896 65.9809L153.108 67.8191ZM159.965 74.238C161.851 77.225 162.834 81.1393 162.834 86.052H164.834C164.834 80.8847 163.801 76.567 161.656 73.17L159.965 74.238ZM162.834 86.052V90.336H164.834V86.052H162.834ZM162.834 90.336C162.834 96.6949 161.047 101.49 157.591 104.867L158.989 106.297C162.926 102.45 164.834 97.0811 164.834 90.336H162.834ZM157.591 104.867C154.129 108.251 149.282 110 142.918 110V112C149.658 112 155.06 110.137 158.989 106.297L157.591 104.867ZM142.918 110H129.184V112H142.918V110ZM129.184 110C122.82 110 117.974 108.251 114.511 104.867L113.113 106.297C117.043 110.137 122.444 112 129.184 112V110ZM114.511 104.867C111.056 101.49 109.268 96.6949 109.268 90.336H107.268C107.268 97.0811 109.177 102.45 113.113 106.297L114.511 104.867ZM194.586 81.39H195.586V81.165L195.49 80.9616L194.586 81.39ZM171.528 32.754L170.614 33.1601L170.619 33.1713L170.625 33.1824L171.528 32.754ZM171.528 30.864L170.715 30.2828L170.705 30.2959L170.696 30.3093L171.528 30.864ZM189.672 32.628L188.738 32.984L188.742 32.9963L188.748 33.0086L189.672 32.628ZM202.272 63.246L201.348 63.6266L201.602 64.246H202.272V63.246ZM203.154 63.246V64.246H203.829L204.082 63.62L203.154 63.246ZM215.502 32.628L216.43 33.002L216.441 32.9734L216.451 32.9442L215.502 32.628ZM233.646 30.738L232.814 31.2927L232.844 31.3371L232.878 31.3782L233.646 30.738ZM233.646 32.754L232.752 32.3068L232.747 32.3161L232.743 32.3256L233.646 32.754ZM210.588 81.39L209.685 80.9616L209.588 81.165V81.39H210.588ZM207.942 110H197.232V112H207.942V110ZM197.232 110C196.504 110 196.142 109.819 195.955 109.631C195.768 109.444 195.586 109.082 195.586 108.354H193.586C193.586 109.39 193.846 110.351 194.541 111.046C195.235 111.74 196.196 112 197.232 112V110ZM195.586 108.354V81.39H193.586V108.354H195.586ZM195.49 80.9616L172.432 32.3256L170.625 33.1824L193.683 81.8184L195.49 80.9616ZM172.442 32.3479C172.189 31.778 172.28 31.5385 172.36 31.4187L170.696 30.3093C170.104 31.1975 170.196 32.218 170.614 33.1601L172.442 32.3479ZM172.342 31.4452C172.564 31.1341 172.842 30.982 173.292 30.982V28.982C172.231 28.982 171.332 29.4179 170.715 30.2828L172.342 31.4452ZM173.292 30.982H186.648V28.982H173.292V30.982ZM186.648 30.982C187.079 30.982 187.433 31.1152 187.754 31.3961C188.095 31.6944 188.438 32.1959 188.738 32.984L190.607 32.272C190.235 31.2961 189.738 30.4746 189.071 29.8909C188.384 29.2898 187.562 28.982 186.648 28.982V30.982ZM188.748 33.0086L201.348 63.6266L203.197 62.8654L190.597 32.2474L188.748 33.0086ZM202.272 64.246H203.154V62.246H202.272V64.246ZM204.082 63.62L216.43 33.002L214.575 32.254L202.227 62.872L204.082 63.62ZM216.451 32.9442C216.71 32.1684 217.03 31.6831 217.358 31.3961C217.667 31.1257 218.037 30.982 218.526 30.982V28.982C217.587 28.982 216.74 29.2793 216.041 29.8909C215.361 30.4858 214.883 31.3236 214.554 32.3118L216.451 32.9442ZM218.526 30.982H231.882V28.982H218.526V30.982ZM231.882 30.982C232.529 30.982 232.73 31.1668 232.814 31.2927L234.478 30.1833C233.89 29.3012 232.915 28.982 231.882 28.982V30.982ZM232.878 31.3782C232.937 31.4483 233.084 31.6433 232.752 32.3068L234.541 33.2012C235.049 32.1847 235.196 31.0356 234.414 30.0978L232.878 31.3782ZM232.743 32.3256L209.685 80.9616L211.492 81.8184L234.55 33.1824L232.743 32.3256ZM209.588 81.39V108.354H211.588V81.39H209.588ZM209.588 108.354C209.588 109.082 209.407 109.444 209.22 109.631C209.032 109.819 208.67 110 207.942 110V112C208.978 112 209.939 111.74 210.634 111.046C211.329 110.351 211.588 109.39 211.588 108.354H209.588ZM247.456 105.708L248.155 104.993L248.155 104.993L247.456 105.708ZM247.456 35.274L248.155 35.9894L248.155 35.9894L247.456 35.274ZM291.808 35.4L291.101 36.1071L291.109 36.1153L291.118 36.1234L291.808 35.4ZM279.586 45.606L278.853 46.2864L278.878 46.3136L278.906 46.3388L279.586 45.606ZM259.678 45.606L258.971 44.8989L258.971 44.8989L259.678 45.606ZM259.678 95.502L258.945 96.1825L258.97 96.2096L258.998 96.2348L259.678 95.502ZM279.586 95.502L280.293 96.2091L280.293 96.2091L279.586 95.502ZM291.808 105.708L292.507 106.423L292.507 106.423L291.808 105.708ZM276.562 110H262.828V112H276.562V110ZM262.828 110C256.368 110 251.527 108.286 248.155 104.993L246.757 106.423C250.609 110.186 256.016 112 262.828 112V110ZM248.155 104.993C244.791 101.707 243.038 96.9169 243.038 90.462H241.038C241.038 97.2791 242.898 102.653 246.757 106.423L248.155 104.993ZM243.038 90.462V50.52H241.038V90.462H243.038ZM243.038 50.52C243.038 44.0651 244.791 39.2754 248.155 35.9894L246.757 34.5586C242.898 38.3286 241.038 43.7029 241.038 50.52H243.038ZM248.155 35.9894C251.527 32.6956 256.368 30.982 262.828 30.982V28.982C256.016 28.982 250.609 30.7964 246.757 34.5586L248.155 35.9894ZM262.828 30.982H276.562V28.982H262.828V30.982ZM276.562 30.982C282.927 30.982 287.726 32.7317 291.101 36.1071L292.515 34.6929C288.667 30.8443 283.301 28.982 276.562 28.982V30.982ZM291.118 36.1234C294.564 39.413 296.352 44.1599 296.352 50.52H298.352C298.352 43.7761 296.444 38.443 292.499 34.6766L291.118 36.1234ZM296.352 50.52V56.442H298.352V50.52H296.352ZM296.352 56.442C296.352 57.2119 296.16 57.6056 295.952 57.8139C295.744 58.0222 295.35 58.214 294.58 58.214V60.214C295.658 60.214 296.65 59.9438 297.366 59.2281C298.082 58.5124 298.352 57.5201 298.352 56.442H296.352ZM294.58 58.214H283.996V60.214H294.58V58.214ZM283.996 58.214C283.28 58.214 282.924 58.0289 282.735 57.8305C282.537 57.6234 282.35 57.2232 282.35 56.442H280.35C280.35 57.5088 280.604 58.4946 281.288 59.2115C281.981 59.9371 282.948 60.214 283.996 60.214V58.214ZM282.35 56.442V51.276H280.35V56.442H282.35ZM282.35 51.276C282.35 48.489 281.748 46.249 280.267 44.8732L278.906 46.3388C279.776 47.1469 280.35 48.687 280.35 51.276H282.35ZM280.319 44.9255C278.943 43.4439 276.703 42.842 273.916 42.842V44.842C276.505 44.842 278.045 45.4161 278.853 46.2864L280.319 44.9255ZM273.916 42.842H265.348V44.842H273.916V42.842ZM265.348 42.842C262.625 42.842 260.417 43.4527 258.971 44.8989L260.385 46.3131C261.291 45.4072 262.864 44.842 265.348 44.842V42.842ZM258.971 44.8989C257.593 46.2766 257.04 48.5049 257.04 51.276H259.04C259.04 48.6711 259.579 47.1193 260.385 46.3131L258.971 44.8989ZM257.04 51.276V89.706H259.04V51.276H257.04ZM257.04 89.706C257.04 92.4874 257.598 94.731 258.945 96.1825L260.411 94.8215C259.575 93.921 259.04 92.3006 259.04 89.706H257.04ZM258.998 96.2348C260.444 97.5783 262.64 98.14 265.348 98.14V96.14C262.848 96.14 261.264 95.6097 260.359 94.7692L258.998 96.2348ZM265.348 98.14H273.916V96.14H265.348V98.14ZM273.916 98.14C276.687 98.14 278.915 97.5869 280.293 96.2091L278.879 94.7949C278.073 95.6011 276.521 96.14 273.916 96.14V98.14ZM280.293 96.2091C281.744 94.7581 282.35 92.5026 282.35 89.706H280.35C280.35 92.2854 279.78 93.8939 278.879 94.7949L280.293 96.2091ZM282.35 89.706V84.54H280.35V89.706H282.35ZM282.35 84.54C282.35 83.7588 282.537 83.3586 282.735 83.1515C282.924 82.9531 283.28 82.768 283.996 82.768V80.768C282.948 80.768 281.981 81.0449 281.288 81.7705C280.604 82.4874 280.35 83.4732 280.35 84.54H282.35ZM283.996 82.768H294.58V80.768H283.996V82.768ZM294.58 82.768C295.35 82.768 295.744 82.9598 295.952 83.1681C296.16 83.3764 296.352 83.7701 296.352 84.54H298.352C298.352 83.4619 298.082 82.4696 297.366 81.7539C296.65 81.0382 295.658 80.768 294.58 80.768V82.768ZM296.352 84.54V90.462H298.352V84.54H296.352ZM296.352 90.462C296.352 96.8209 294.564 101.616 291.109 104.993L292.507 106.423C296.444 102.576 298.352 97.2071 298.352 90.462H296.352ZM291.109 104.993C287.735 108.289 282.934 110 276.562 110V112C283.294 112 288.657 110.183 292.507 106.423L291.109 104.993ZM324.453 110H313.743V112H324.453V110ZM313.743 110C313.015 110 312.653 109.819 312.465 109.631C312.278 109.444 312.097 109.082 312.097 108.354H310.097C310.097 109.39 310.357 110.351 311.051 111.046C311.746 111.74 312.707 112 313.743 112V110ZM312.097 108.354V32.628H310.097V108.354H312.097ZM312.097 32.628C312.097 31.9001 312.278 31.5379 312.465 31.3506C312.653 31.1633 313.015 30.982 313.743 30.982V28.982C312.707 28.982 311.746 29.2417 311.051 29.9364C310.357 30.6311 310.097 31.5919 310.097 32.628H312.097ZM313.743 30.982H324.453V28.982H313.743V30.982ZM324.453 30.982C325.181 30.982 325.543 31.1633 325.73 31.3506C325.918 31.5379 326.099 31.9001 326.099 32.628H328.099C328.099 31.5919 327.839 30.6311 327.144 29.9364C326.45 29.2417 325.489 28.982 324.453 28.982V30.982ZM326.099 32.628V62.238H328.099V32.628H326.099ZM326.099 62.238C326.099 62.8776 326.277 63.5345 326.801 64.0147C327.309 64.4797 327.973 64.624 328.611 64.624V62.624C328.432 62.624 328.314 62.6031 328.242 62.581C328.173 62.56 328.153 62.5405 328.153 62.5403C328.152 62.5394 328.15 62.5382 328.148 62.5349C328.146 62.5314 328.14 62.5218 328.133 62.5026C328.119 62.4627 328.099 62.3807 328.099 62.238H326.099ZM328.611 64.624H349.905V62.624H328.611V64.624ZM349.905 64.624C350.521 64.624 351.167 64.4693 351.651 63.9846C352.136 63.4999 352.291 62.8541 352.291 62.238H350.291C350.291 62.5459 350.215 62.5931 350.237 62.5704C350.26 62.5477 350.213 62.624 349.905 62.624V64.624ZM352.291 62.238V32.628H350.291V62.238H352.291ZM352.291 32.628C352.291 31.9001 352.472 31.5379 352.659 31.3506C352.847 31.1633 353.209 30.982 353.937 30.982V28.982C352.901 28.982 351.94 29.2417 351.245 29.9364C350.551 30.6311 350.291 31.5919 350.291 32.628H352.291ZM353.937 30.982H364.647V28.982H353.937V30.982ZM364.647 30.982C365.375 30.982 365.737 31.1633 365.924 31.3506C366.112 31.5379 366.293 31.9001 366.293 32.628H368.293C368.293 31.5919 368.033 30.6311 367.339 29.9364C366.644 29.2417 365.683 28.982 364.647 28.982V30.982ZM366.293 32.628V108.354H368.293V32.628H366.293ZM366.293 108.354C366.293 109.082 366.112 109.444 365.924 109.631C365.737 109.819 365.375 110 364.647 110V112C365.683 112 366.644 111.74 367.339 111.046C368.033 110.351 368.293 109.39 368.293 108.354H366.293ZM364.647 110H353.937V112H364.647V110ZM353.937 110C353.209 110 352.847 109.819 352.659 109.631C352.472 109.444 352.291 109.082 352.291 108.354H350.291C350.291 109.39 350.551 110.351 351.245 111.046C351.94 111.74 352.901 112 353.937 112V110ZM352.291 108.354V78.87H350.291V108.354H352.291ZM352.291 78.87C352.291 78.2539 352.136 77.6081 351.651 77.1234C351.167 76.6387 350.521 76.484 349.905 76.484V78.484C350.213 78.484 350.26 78.5603 350.237 78.5376C350.215 78.5149 350.291 78.5621 350.291 78.87H352.291ZM349.905 76.484H328.611V78.484H349.905V76.484ZM328.611 76.484C327.973 76.484 327.309 76.6283 326.801 77.0933C326.277 77.5735 326.099 78.2304 326.099 78.87H328.099C328.099 78.7273 328.119 78.6453 328.133 78.6054C328.14 78.5862 328.146 78.5766 328.148 78.5731C328.15 78.5698 328.152 78.5686 328.153 78.5677C328.153 78.5675 328.173 78.548 328.242 78.527C328.314 78.5048 328.432 78.484 328.611 78.484V76.484ZM326.099 78.87V108.354H328.099V78.87H326.099ZM326.099 108.354C326.099 109.082 325.918 109.444 325.73 109.631C325.543 109.819 325.181 110 324.453 110V112C325.489 112 326.45 111.74 327.144 111.046C327.839 110.351 328.099 109.39 328.099 108.354H326.099ZM399.327 32.628V108.354H401.327V32.628H399.327ZM399.327 108.354C399.327 109.082 399.145 109.444 398.958 109.631C398.771 109.819 398.408 110 397.681 110V112C398.717 112 399.677 111.74 400.372 111.046C401.067 110.351 401.327 109.39 401.327 108.354H399.327ZM397.681 110H386.971V112H397.681V110ZM386.971 110C386.243 110 385.88 109.819 385.693 109.631C385.506 109.444 385.325 109.082 385.325 108.354H383.325C383.325 109.39 383.584 110.351 384.279 111.046C384.974 111.74 385.934 112 386.971 112V110ZM385.325 108.354V32.628H383.325V108.354H385.325ZM385.325 32.628C385.325 31.9001 385.506 31.5379 385.693 31.3506C385.88 31.1633 386.243 30.982 386.971 30.982V28.982C385.934 28.982 384.974 29.2417 384.279 29.9364C383.584 30.6311 383.325 31.5919 383.325 32.628H385.325ZM386.971 30.982H397.681V28.982H386.971V30.982ZM397.681 30.982C398.408 30.982 398.771 31.1633 398.958 31.3506C399.145 31.5379 399.327 31.9001 399.327 32.628H401.327C401.327 31.5919 401.067 30.6311 400.372 29.9364C399.677 29.2417 398.717 28.982 397.681 28.982V30.982ZM421.444 105.708L422.143 104.993L422.143 104.993L421.444 105.708ZM421.444 35.274L422.143 35.9894L422.143 35.9894L421.444 35.274ZM465.796 35.4L465.089 36.1071L465.097 36.1153L465.106 36.1234L465.796 35.4ZM453.574 45.606L452.842 46.2864L452.867 46.3136L452.894 46.3388L453.574 45.606ZM433.666 45.606L432.959 44.8989L432.959 44.8989L433.666 45.606ZM433.666 95.502L432.934 96.1825L432.959 96.2096L432.986 96.2348L433.666 95.502ZM453.574 95.502L454.281 96.2091L454.281 96.2091L453.574 95.502ZM465.796 105.708L466.495 106.423L466.495 106.423L465.796 105.708ZM450.55 110H436.816V112H450.55V110ZM436.816 110C430.357 110 425.515 108.286 422.143 104.993L420.746 106.423C424.597 110.186 430.004 112 436.816 112V110ZM422.143 104.993C418.779 101.707 417.026 96.9169 417.026 90.462H415.026C415.026 97.2791 416.886 102.653 420.746 106.423L422.143 104.993ZM417.026 90.462V50.52H415.026V90.462H417.026ZM417.026 50.52C417.026 44.0651 418.779 39.2754 422.143 35.9894L420.746 34.5586C416.886 38.3286 415.026 43.7029 415.026 50.52H417.026ZM422.143 35.9894C425.515 32.6956 430.357 30.982 436.816 30.982V28.982C430.004 28.982 424.597 30.7964 420.746 34.5586L422.143 35.9894ZM436.816 30.982H450.55V28.982H436.816V30.982ZM450.55 30.982C456.916 30.982 461.714 32.7317 465.089 36.1071L466.503 34.6929C462.655 30.8443 457.289 28.982 450.55 28.982V30.982ZM465.106 36.1234C468.552 39.413 470.34 44.1599 470.34 50.52H472.34C472.34 43.7761 470.433 38.443 466.487 34.6766L465.106 36.1234ZM470.34 50.52V56.442H472.34V50.52H470.34ZM470.34 56.442C470.34 57.2119 470.149 57.6056 469.94 57.8139C469.732 58.0222 469.338 58.214 468.568 58.214V60.214C469.646 60.214 470.639 59.9438 471.354 59.2281C472.07 58.5124 472.34 57.5201 472.34 56.442H470.34ZM468.568 58.214H457.984V60.214H468.568V58.214ZM457.984 58.214C457.269 58.214 456.913 58.0289 456.723 57.8305C456.526 57.6234 456.338 57.2232 456.338 56.442H454.338C454.338 57.5088 454.592 58.4946 455.276 59.2115C455.969 59.9371 456.936 60.214 457.984 60.214V58.214ZM456.338 56.442V51.276H454.338V56.442H456.338ZM456.338 51.276C456.338 48.489 455.736 46.249 454.255 44.8732L452.894 46.3388C453.764 47.1469 454.338 48.687 454.338 51.276H456.338ZM454.307 44.9255C452.931 43.4439 450.691 42.842 447.904 42.842V44.842C450.493 44.842 452.033 45.4161 452.842 46.2864L454.307 44.9255ZM447.904 42.842H439.336V44.842H447.904V42.842ZM439.336 42.842C436.613 42.842 434.405 43.4527 432.959 44.8989L434.373 46.3131C435.279 45.4072 436.852 44.842 439.336 44.842V42.842ZM432.959 44.8989C431.581 46.2766 431.028 48.5049 431.028 51.276H433.028C433.028 48.6711 433.567 47.1193 434.373 46.3131L432.959 44.8989ZM431.028 51.276V89.706H433.028V51.276H431.028ZM431.028 89.706C431.028 92.4874 431.586 94.731 432.934 96.1825L434.399 94.8215C433.563 93.921 433.028 92.3006 433.028 89.706H431.028ZM432.986 96.2348C434.433 97.5783 436.629 98.14 439.336 98.14V96.14C436.836 96.14 435.252 95.6097 434.347 94.7692L432.986 96.2348ZM439.336 98.14H447.904V96.14H439.336V98.14ZM447.904 98.14C450.675 98.14 452.904 97.5869 454.281 96.2091L452.867 94.7949C452.061 95.6011 450.509 96.14 447.904 96.14V98.14ZM454.281 96.2091C455.732 94.7581 456.338 92.5026 456.338 89.706H454.338C454.338 92.2854 453.768 93.8939 452.867 94.7949L454.281 96.2091ZM456.338 89.706V84.54H454.338V89.706H456.338ZM456.338 84.54C456.338 83.7588 456.526 83.3586 456.723 83.1515C456.913 82.9531 457.269 82.768 457.984 82.768V80.768C456.936 80.768 455.969 81.0449 455.276 81.7705C454.592 82.4874 454.338 83.4732 454.338 84.54H456.338ZM457.984 82.768H468.568V80.768H457.984V82.768ZM468.568 82.768C469.338 82.768 469.732 82.9598 469.94 83.1681C470.149 83.3764 470.34 83.7701 470.34 84.54H472.34C472.34 83.4619 472.07 82.4696 471.354 81.7539C470.639 81.0382 469.646 80.768 468.568 80.768V82.768ZM470.34 84.54V90.462H472.34V84.54H470.34ZM470.34 90.462C470.34 96.8209 468.553 101.616 465.097 104.993L466.495 106.423C470.432 102.576 472.34 97.2071 472.34 90.462H470.34ZM465.098 104.993C461.723 108.289 456.922 110 450.55 110V112C457.283 112 462.646 110.183 466.495 106.423L465.098 104.993Z" fill="black"/>
</svg>
