<svg width="513" height="150" viewBox="0 0 513 150" fill="none" xmlns="http://www.w3.org/2000/svg">
<rect x="2.5" y="2.5" width="507.304" height="145" rx="32.5" fill="#BBAA66" stroke="black" stroke-width="5"/>
<path d="M139.39 111H128.68C126.916 111 126.034 110.118 126.034 108.354V32.628C126.034 30.864 126.916 29.982 128.68 29.982H158.668C165.22 29.982 170.344 31.788 174.04 35.4C177.736 39.012 179.584 44.094 179.584 50.646V60.474C179.584 69.966 175.846 76.266 168.37 79.374V79.878L181.852 107.976C182.608 109.992 181.894 111 179.71 111H169.504C167.992 111 166.9 110.832 166.228 110.496C165.556 110.16 165.01 109.446 164.59 108.354L151.99 81.138H143.548C142.54 81.138 142.036 81.6 142.036 82.524V108.354C142.036 110.118 141.154 111 139.39 111ZM143.422 68.286H155.77C158.458 68.286 160.432 67.74 161.692 66.648C162.952 65.472 163.582 63.624 163.582 61.104V51.276C163.582 48.672 162.952 46.782 161.692 45.606C160.432 44.43 158.458 43.842 155.77 43.842H143.422C142.498 43.842 142.036 44.304 142.036 45.228V66.9C142.036 67.824 142.498 68.286 143.422 68.286ZM216.991 97.14H225.937C228.625 97.14 230.515 96.594 231.607 95.502C232.783 94.326 233.371 92.394 233.371 89.706V51.276C233.371 48.588 232.783 46.698 231.607 45.606C230.515 44.43 228.625 43.842 225.937 43.842H216.991C214.303 43.842 212.413 44.43 211.321 45.606C210.229 46.698 209.683 48.588 209.683 51.276V89.706C209.683 92.394 210.229 94.326 211.321 95.502C212.413 96.594 214.303 97.14 216.991 97.14ZM228.583 111H214.471C207.835 111 202.711 109.236 199.099 105.708C195.487 102.18 193.681 97.098 193.681 90.462V50.52C193.681 43.884 195.487 38.802 199.099 35.274C202.711 31.746 207.835 29.982 214.471 29.982H228.583C235.219 29.982 240.343 31.746 243.955 35.274C247.567 38.802 249.373 43.884 249.373 50.52V90.462C249.373 97.098 247.567 102.18 243.955 105.708C240.343 109.236 235.219 111 228.583 111ZM297.726 111H283.992C277.356 111 272.232 109.236 268.62 105.708C265.008 102.18 263.202 97.098 263.202 90.462V50.52C263.202 43.884 265.008 38.802 268.62 35.274C272.232 31.746 277.356 29.982 283.992 29.982H297.726C304.278 29.982 309.36 31.788 312.972 35.4C316.668 38.928 318.516 43.968 318.516 50.52V56.442C318.516 58.29 317.592 59.214 315.744 59.214H305.16C303.396 59.214 302.514 58.29 302.514 56.442V51.276C302.514 48.588 301.926 46.698 300.75 45.606C299.658 44.43 297.768 43.842 295.08 43.842H286.512C283.908 43.842 282.018 44.43 280.842 45.606C279.75 46.698 279.204 48.588 279.204 51.276V89.706C279.204 92.394 279.75 94.326 280.842 95.502C282.018 96.594 283.908 97.14 286.512 97.14H295.08C297.768 97.14 299.658 96.594 300.75 95.502C301.926 94.326 302.514 92.394 302.514 89.706V84.54C302.514 82.692 303.396 81.768 305.16 81.768H315.744C317.592 81.768 318.516 82.692 318.516 84.54V90.462C318.516 97.014 316.668 102.096 312.972 105.708C309.36 109.236 304.278 111 297.726 111ZM345.617 111H334.907C333.143 111 332.261 110.118 332.261 108.354V32.628C332.261 30.864 333.143 29.982 334.907 29.982H345.617C347.381 29.982 348.263 30.864 348.263 32.628V68.538H348.515C349.187 66.522 350.489 63.918 352.421 60.726L371.573 32.628C372.665 30.864 374.303 29.982 376.487 29.982H388.835C389.759 29.982 390.305 30.276 390.473 30.864C390.725 31.368 390.515 32.04 389.843 32.88L365.903 66.018L392.615 107.85C393.203 108.858 393.287 109.656 392.867 110.244C392.531 110.748 391.775 111 390.599 111H381.401C378.461 111 376.487 110.118 375.479 108.354L356.201 77.484L348.263 86.808V108.354C348.263 110.118 347.381 111 345.617 111Z" fill="white"/>
<path d="M168.37 79.374L167.987 78.4506L167.37 78.7068V79.374H168.37ZM168.37 79.878H167.37V80.1055L167.469 80.3106L168.37 79.878ZM181.852 107.976L182.789 107.625L182.773 107.583L182.754 107.543L181.852 107.976ZM166.228 110.496L165.781 111.39L165.781 111.39L166.228 110.496ZM164.59 108.354L165.524 107.995L165.512 107.964L165.498 107.934L164.59 108.354ZM151.99 81.138L152.898 80.7179L152.629 80.138H151.99V81.138ZM161.692 66.648L162.347 67.4037L162.361 67.3916L162.375 67.3791L161.692 66.648ZM161.692 45.606L162.375 44.8749L162.375 44.8749L161.692 45.606ZM139.39 110H128.68V112H139.39V110ZM128.68 110C127.953 110 127.59 109.819 127.403 109.631C127.216 109.444 127.034 109.082 127.034 108.354H125.034C125.034 109.39 125.294 110.351 125.989 111.046C126.683 111.74 127.644 112 128.68 112V110ZM127.034 108.354V32.628H125.034V108.354H127.034ZM127.034 32.628C127.034 31.9001 127.216 31.5379 127.403 31.3506C127.59 31.1633 127.953 30.982 128.68 30.982V28.982C127.644 28.982 126.683 29.2417 125.989 29.9364C125.294 30.6311 125.034 31.5919 125.034 32.628H127.034ZM128.68 30.982H158.668V28.982H128.68V30.982ZM158.668 30.982C165.032 30.982 169.879 32.7313 173.341 36.1152L174.739 34.6848C170.81 30.8447 165.408 28.982 158.668 28.982V30.982ZM173.341 36.1152C176.797 39.4918 178.584 44.2871 178.584 50.646H180.584C180.584 43.9009 178.676 38.5322 174.739 34.6848L173.341 36.1152ZM178.584 50.646V60.474H180.584V50.646H178.584ZM178.584 60.474C178.584 65.0924 177.675 68.8515 175.921 71.8077C174.174 74.7527 171.547 76.9702 167.987 78.4506L168.754 80.2974C172.669 78.6698 175.65 76.1833 177.641 72.8283C179.625 69.4845 180.584 65.3476 180.584 60.474H178.584ZM167.37 79.374V79.878H169.37V79.374H167.37ZM167.469 80.3106L180.951 108.409L182.754 107.543L169.272 79.4454L167.469 80.3106ZM180.916 108.327C181.263 109.253 181.126 109.584 181.068 109.666C181.005 109.755 180.721 110 179.71 110V112C180.884 112 182.049 111.741 182.7 110.822C183.356 109.896 183.198 108.715 182.789 107.625L180.916 108.327ZM179.71 110H169.504V112H179.71V110ZM169.504 110C168.021 110 167.128 109.828 166.676 109.602L165.781 111.39C166.673 111.836 167.964 112 169.504 112V110ZM166.676 109.602C166.323 109.425 165.902 108.979 165.524 107.995L163.657 108.713C164.119 109.913 164.79 110.895 165.781 111.39L166.676 109.602ZM165.498 107.934L152.898 80.7179L151.083 81.5581L163.683 108.774L165.498 107.934ZM151.99 80.138H143.548V82.138H151.99V80.138ZM143.548 80.138C142.911 80.138 142.246 80.2823 141.739 80.7473C141.215 81.2275 141.036 81.8844 141.036 82.524H143.036C143.036 82.3813 143.056 82.2993 143.071 82.2594C143.078 82.2402 143.083 82.2306 143.086 82.2271C143.088 82.2238 143.089 82.2226 143.09 82.2217C143.09 82.2215 143.11 82.2019 143.179 82.181C143.252 82.1588 143.37 82.138 143.548 82.138V80.138ZM141.036 82.524V108.354H143.036V82.524H141.036ZM141.036 108.354C141.036 109.082 140.855 109.444 140.668 109.631C140.48 109.819 140.118 110 139.39 110V112C140.427 112 141.387 111.74 142.082 111.046C142.777 110.351 143.036 109.39 143.036 108.354H141.036ZM143.422 69.286H155.77V67.286H143.422V69.286ZM155.77 69.286C158.561 69.286 160.823 68.7249 162.347 67.4037L161.037 65.8923C160.042 66.7551 158.356 67.286 155.77 67.286V69.286ZM162.375 67.3791C163.916 65.9408 164.582 63.7719 164.582 61.104H162.582C162.582 63.4761 161.989 65.0031 161.01 65.9169L162.375 67.3791ZM164.582 61.104V51.276H162.582V61.104H164.582ZM164.582 51.276C164.582 48.5358 163.921 46.3186 162.375 44.8749L161.01 46.337C161.983 47.2454 162.582 48.8081 162.582 51.276H164.582ZM162.375 44.8749C160.849 43.4513 158.575 42.842 155.77 42.842V44.842C158.342 44.842 160.015 45.4087 161.01 46.337L162.375 44.8749ZM155.77 42.842H143.422V44.842H155.77V42.842ZM143.422 42.842C142.806 42.842 142.16 42.9967 141.676 43.4814C141.191 43.9661 141.036 44.6119 141.036 45.228H143.036C143.036 44.9201 143.113 44.8729 143.09 44.8956C143.067 44.9183 143.115 44.842 143.422 44.842V42.842ZM141.036 45.228V66.9H143.036V45.228H141.036ZM141.036 66.9C141.036 67.5161 141.191 68.1619 141.676 68.6466C142.16 69.1313 142.806 69.286 143.422 69.286V67.286C143.115 67.286 143.067 67.2097 143.09 67.2324C143.113 67.2551 143.036 67.2079 143.036 66.9H141.036ZM231.607 95.502L230.9 94.7949L230.9 94.7949L231.607 95.502ZM231.607 45.606L230.874 46.2864L230.899 46.3136L230.926 46.3388L231.607 45.606ZM211.321 45.606L212.028 46.3131L212.041 46.3L212.053 46.2864L211.321 45.606ZM211.321 95.502L210.588 96.1825L210.6 96.196L210.614 96.2091L211.321 95.502ZM199.099 105.708L199.797 104.993L199.797 104.993L199.099 105.708ZM199.099 35.274L199.797 35.9894L199.797 35.9894L199.099 35.274ZM243.955 35.274L244.653 34.5586L244.653 34.5586L243.955 35.274ZM243.955 105.708L244.653 106.423L244.653 106.423L243.955 105.708ZM216.991 98.14H225.937V96.14H216.991V98.14ZM225.937 98.14C228.708 98.14 230.936 97.5869 232.314 96.2091L230.9 94.7949C230.093 95.6011 228.542 96.14 225.937 96.14V98.14ZM232.314 96.2091C233.765 94.7581 234.371 92.5026 234.371 89.706H232.371C232.371 92.2854 231.801 93.8939 230.9 94.7949L232.314 96.2091ZM234.371 89.706V51.276H232.371V89.706H234.371ZM234.371 51.276C234.371 48.489 233.769 46.249 232.287 44.8732L230.926 46.3388C231.797 47.1469 232.371 48.687 232.371 51.276H234.371ZM232.339 44.9255C230.964 43.4439 228.724 42.842 225.937 42.842V44.842C228.526 44.842 230.066 45.4161 230.874 46.2864L232.339 44.9255ZM225.937 42.842H216.991V44.842H225.937V42.842ZM216.991 42.842C214.204 42.842 211.964 43.4439 210.588 44.9255L212.053 46.2864C212.862 45.4161 214.402 44.842 216.991 44.842V42.842ZM210.614 44.8989C209.236 46.2766 208.683 48.5049 208.683 51.276H210.683C210.683 48.6711 211.222 47.1193 212.028 46.3131L210.614 44.8989ZM208.683 51.276V89.706H210.683V51.276H208.683ZM208.683 89.706C208.683 92.4874 209.24 94.731 210.588 96.1825L212.053 94.8215C211.217 93.921 210.683 92.3006 210.683 89.706H208.683ZM210.614 96.2091C211.991 97.5869 214.22 98.14 216.991 98.14V96.14C214.386 96.14 212.834 95.6011 212.028 94.7949L210.614 96.2091ZM228.583 110H214.471V112H228.583V110ZM214.471 110C208.011 110 203.17 108.286 199.797 104.993L198.4 106.423C202.252 110.186 207.658 112 214.471 112V110ZM199.797 104.993C196.433 101.707 194.681 96.9169 194.681 90.462H192.681C192.681 97.2791 194.54 102.653 198.4 106.423L199.797 104.993ZM194.681 90.462V50.52H192.681V90.462H194.681ZM194.681 50.52C194.681 44.0651 196.433 39.2754 199.797 35.9894L198.4 34.5586C194.54 38.3286 192.681 43.7029 192.681 50.52H194.681ZM199.797 35.9894C203.17 32.6956 208.011 30.982 214.471 30.982V28.982C207.658 28.982 202.252 30.7964 198.4 34.5586L199.797 35.9894ZM214.471 30.982H228.583V28.982H214.471V30.982ZM228.583 30.982C235.042 30.982 239.884 32.6956 243.256 35.9894L244.653 34.5586C240.802 30.7964 235.395 28.982 228.583 28.982V30.982ZM243.256 35.9894C246.62 39.2754 248.373 44.0651 248.373 50.52H250.373C250.373 43.7029 248.513 38.3286 244.653 34.5586L243.256 35.9894ZM248.373 50.52V90.462H250.373V50.52H248.373ZM248.373 90.462C248.373 96.9169 246.62 101.707 243.256 104.993L244.653 106.423C248.513 102.653 250.373 97.2791 250.373 90.462H248.373ZM243.256 104.993C239.884 108.286 235.042 110 228.583 110V112C235.395 112 240.802 110.186 244.653 106.423L243.256 104.993ZM268.62 105.708L269.319 104.993L269.319 104.993L268.62 105.708ZM268.62 35.274L269.319 35.9894L269.319 35.9894L268.62 35.274ZM312.972 35.4L312.265 36.1071L312.273 36.1153L312.282 36.1234L312.972 35.4ZM300.75 45.606L300.017 46.2864L300.043 46.3136L300.07 46.3388L300.75 45.606ZM280.842 45.606L280.135 44.8989L280.135 44.8989L280.842 45.606ZM280.842 95.502L280.109 96.1825L280.135 96.2096L280.162 96.2348L280.842 95.502ZM300.75 95.502L301.457 96.2091L301.457 96.2091L300.75 95.502ZM312.972 105.708L313.671 106.423L313.671 106.423L312.972 105.708ZM297.726 110H283.992V112H297.726V110ZM283.992 110C277.532 110 272.691 108.286 269.319 104.993L267.921 106.423C271.773 110.186 277.18 112 283.992 112V110ZM269.319 104.993C265.955 101.707 264.202 96.9169 264.202 90.462H262.202C262.202 97.2791 264.062 102.653 267.921 106.423L269.319 104.993ZM264.202 90.462V50.52H262.202V90.462H264.202ZM264.202 50.52C264.202 44.0651 265.955 39.2754 269.319 35.9894L267.921 34.5586C264.062 38.3286 262.202 43.7029 262.202 50.52H264.202ZM269.319 35.9894C272.691 32.6956 277.532 30.982 283.992 30.982V28.982C277.18 28.982 271.773 30.7964 267.921 34.5586L269.319 35.9894ZM283.992 30.982H297.726V28.982H283.992V30.982ZM297.726 30.982C304.091 30.982 308.89 32.7317 312.265 36.1071L313.679 34.6929C309.831 30.8443 304.465 28.982 297.726 28.982V30.982ZM312.282 36.1234C315.728 39.413 317.516 44.1599 317.516 50.52H319.516C319.516 43.7761 317.608 38.443 313.663 34.6766L312.282 36.1234ZM317.516 50.52V56.442H319.516V50.52H317.516ZM317.516 56.442C317.516 57.2119 317.324 57.6056 317.116 57.8139C316.908 58.0222 316.514 58.214 315.744 58.214V60.214C316.822 60.214 317.815 59.9438 318.53 59.2281C319.246 58.5124 319.516 57.5201 319.516 56.442H317.516ZM315.744 58.214H305.16V60.214H315.744V58.214ZM305.16 58.214C304.444 58.214 304.088 58.0289 303.899 57.8305C303.701 57.6234 303.514 57.2232 303.514 56.442H301.514C301.514 57.5088 301.768 58.4946 302.452 59.2115C303.145 59.9371 304.112 60.214 305.16 60.214V58.214ZM303.514 56.442V51.276H301.514V56.442H303.514ZM303.514 51.276C303.514 48.489 302.912 46.249 301.431 44.8732L300.07 46.3388C300.94 47.1469 301.514 48.687 301.514 51.276H303.514ZM301.483 44.9255C300.107 43.4439 297.867 42.842 295.08 42.842V44.842C297.669 44.842 299.209 45.4161 300.017 46.2864L301.483 44.9255ZM295.08 42.842H286.512V44.842H295.08V42.842ZM286.512 42.842C283.789 42.842 281.581 43.4527 280.135 44.8989L281.549 46.3131C282.455 45.4072 284.028 44.842 286.512 44.842V42.842ZM280.135 44.8989C278.757 46.2766 278.204 48.5049 278.204 51.276H280.204C280.204 48.6711 280.743 47.1193 281.549 46.3131L280.135 44.8989ZM278.204 51.276V89.706H280.204V51.276H278.204ZM278.204 89.706C278.204 92.4874 278.762 94.731 280.109 96.1825L281.575 94.8215C280.739 93.921 280.204 92.3006 280.204 89.706H278.204ZM280.162 96.2348C281.609 97.5783 283.804 98.14 286.512 98.14V96.14C284.012 96.14 282.428 95.6097 281.523 94.7692L280.162 96.2348ZM286.512 98.14H295.08V96.14H286.512V98.14ZM295.08 98.14C297.851 98.14 300.079 97.5869 301.457 96.2091L300.043 94.7949C299.237 95.6011 297.685 96.14 295.08 96.14V98.14ZM301.457 96.2091C302.908 94.7581 303.514 92.5026 303.514 89.706H301.514C301.514 92.2854 300.944 93.8939 300.043 94.7949L301.457 96.2091ZM303.514 89.706V84.54H301.514V89.706H303.514ZM303.514 84.54C303.514 83.7588 303.701 83.3586 303.899 83.1515C304.088 82.9531 304.444 82.768 305.16 82.768V80.768C304.112 80.768 303.145 81.0449 302.452 81.7705C301.768 82.4874 301.514 83.4732 301.514 84.54H303.514ZM305.16 82.768H315.744V80.768H305.16V82.768ZM315.744 82.768C316.514 82.768 316.908 82.9598 317.116 83.1681C317.324 83.3764 317.516 83.7701 317.516 84.54H319.516C319.516 83.4619 319.246 82.4696 318.53 81.7539C317.815 81.0382 316.822 80.768 315.744 80.768V82.768ZM317.516 84.54V90.462H319.516V84.54H317.516ZM317.516 90.462C317.516 96.8209 315.728 101.616 312.273 104.993L313.671 106.423C317.608 102.576 319.516 97.2071 319.516 90.462H317.516ZM312.273 104.993C308.899 108.289 304.098 110 297.726 110V112C304.458 112 309.821 110.183 313.671 106.423L312.273 104.993ZM348.263 68.538H347.263V69.538H348.263V68.538ZM348.515 68.538V69.538H349.236L349.464 68.8542L348.515 68.538ZM352.421 60.726L351.595 60.1628L351.579 60.1851L351.565 60.2082L352.421 60.726ZM371.573 32.628L372.399 33.1912L372.412 33.173L372.423 33.1544L371.573 32.628ZM390.473 30.864L389.511 31.1387L389.537 31.2281L389.579 31.3112L390.473 30.864ZM389.843 32.88L389.062 32.2553L389.047 32.2745L389.032 32.2944L389.843 32.88ZM365.903 66.018L365.092 65.4324L364.694 65.9833L365.06 66.5562L365.903 66.018ZM392.615 107.85L393.479 107.346L393.469 107.329L393.458 107.312L392.615 107.85ZM392.867 110.244L392.053 109.663L392.044 109.676L392.035 109.689L392.867 110.244ZM375.479 108.354L376.347 107.858L376.338 107.841L376.327 107.824L375.479 108.354ZM356.201 77.484L357.049 76.9543L356.325 75.7953L355.44 76.8358L356.201 77.484ZM348.263 86.808L347.502 86.1598L347.263 86.44V86.808H348.263ZM345.617 110H334.907V112H345.617V110ZM334.907 110C334.179 110 333.817 109.819 333.63 109.631C333.442 109.444 333.261 109.082 333.261 108.354H331.261C331.261 109.39 331.521 110.351 332.215 111.046C332.91 111.74 333.871 112 334.907 112V110ZM333.261 108.354V32.628H331.261V108.354H333.261ZM333.261 32.628C333.261 31.9001 333.442 31.5379 333.63 31.3506C333.817 31.1633 334.179 30.982 334.907 30.982V28.982C333.871 28.982 332.91 29.2417 332.215 29.9364C331.521 30.6311 331.261 31.5919 331.261 32.628H333.261ZM334.907 30.982H345.617V28.982H334.907V30.982ZM345.617 30.982C346.345 30.982 346.707 31.1633 346.894 31.3506C347.082 31.5379 347.263 31.9001 347.263 32.628H349.263C349.263 31.5919 349.003 30.6311 348.309 29.9364C347.614 29.2417 346.653 28.982 345.617 28.982V30.982ZM347.263 32.628V68.538H349.263V32.628H347.263ZM348.263 69.538H348.515V67.538H348.263V69.538ZM349.464 68.8542C350.101 66.9423 351.359 64.4122 353.276 61.2438L351.565 60.2082C349.619 63.4237 348.273 66.1017 347.566 68.2218L349.464 68.8542ZM353.247 61.2892L372.399 33.1912L370.747 32.0648L351.595 60.1628L353.247 61.2892ZM372.423 33.1544C373.322 31.7031 374.627 30.982 376.487 30.982V28.982C373.979 28.982 372.008 30.0249 370.723 32.1016L372.423 33.1544ZM376.487 30.982H388.835V28.982H376.487V30.982ZM388.835 30.982C389.206 30.982 389.39 31.0436 389.463 31.083C389.48 31.0917 389.489 31.0985 389.493 31.1021C389.497 31.1056 389.499 31.1073 389.499 31.1073C389.499 31.1073 389.5 31.1084 389.501 31.1117C389.503 31.1153 389.507 31.1237 389.511 31.1387L391.434 30.5893C391.275 30.0318 390.918 29.5949 390.412 29.322C389.939 29.0674 389.388 28.982 388.835 28.982V30.982ZM389.579 31.3112C389.562 31.2776 389.598 31.2939 389.55 31.4477C389.496 31.6195 389.357 31.8864 389.062 32.2553L390.624 33.5047C391.316 32.6399 391.911 31.5043 391.367 30.4168L389.579 31.3112ZM389.032 32.2944L365.092 65.4324L366.714 66.6036L390.654 33.4656L389.032 32.2944ZM365.06 66.5562L391.772 108.388L393.458 107.312L366.746 65.4798L365.06 66.5562ZM391.751 108.354C392.275 109.252 392.122 109.567 392.053 109.663L393.681 110.825C394.452 109.745 394.131 108.464 393.479 107.346L391.751 108.354ZM392.035 109.689C392.003 109.736 391.736 110 390.599 110V112C391.813 112 393.058 111.76 393.699 110.799L392.035 109.689ZM390.599 110H381.401V112H390.599V110ZM381.401 110C378.642 110 377.104 109.182 376.347 107.858L374.611 108.85C375.87 111.054 378.279 112 381.401 112V110ZM376.327 107.824L357.049 76.9543L355.353 78.0137L374.631 108.884L376.327 107.824ZM355.44 76.8358L347.502 86.1598L349.024 87.4562L356.962 78.1322L355.44 76.8358ZM347.263 86.808V108.354H349.263V86.808H347.263ZM347.263 108.354C347.263 109.082 347.082 109.444 346.894 109.631C346.707 109.819 346.345 110 345.617 110V112C346.653 112 347.614 111.74 348.309 111.046C349.003 110.351 349.263 109.39 349.263 108.354H347.263Z" fill="black"/>
</svg>
