<svg width="513" height="150" viewBox="0 0 513 150" fill="none" xmlns="http://www.w3.org/2000/svg">
<rect x="2.5" y="2.5" width="507.304" height="145" rx="32.5" fill="#A8A8BA" stroke="black" stroke-width="5"/>
<path d="M111.775 90.336V87.816C111.775 86.052 112.657 85.17 114.421 85.17H125.131C126.895 85.17 127.777 86.052 127.777 87.816V88.824C127.777 92.016 128.407 94.2 129.667 95.376C130.927 96.552 133.237 97.14 136.597 97.14H142.519C145.795 97.14 148.063 96.51 149.323 95.25C150.667 93.99 151.339 91.638 151.339 88.194V86.682C151.339 84.246 150.331 82.398 148.315 81.138C146.383 79.794 143.947 78.996 141.007 78.744C138.067 78.492 134.875 78.03 131.431 77.358C128.071 76.602 124.921 75.678 121.981 74.586C119.041 73.41 116.563 71.184 114.547 67.908C112.615 64.548 111.649 60.264 111.649 55.056V50.646C111.649 44.094 113.497 39.012 117.193 35.4C120.889 31.788 126.013 29.982 132.565 29.982H145.165C151.801 29.982 156.967 31.788 160.663 35.4C164.359 39.012 166.207 44.094 166.207 50.646V53.04C166.207 54.804 165.325 55.686 163.561 55.686H152.851C151.087 55.686 150.205 54.804 150.205 53.04V52.284C150.205 49.008 149.575 46.782 148.315 45.606C147.055 44.43 144.745 43.842 141.385 43.842H136.471C133.027 43.842 130.675 44.514 129.415 45.858C128.239 47.118 127.651 49.638 127.651 53.418V55.812C127.651 59.76 131.095 62.028 137.983 62.616C145.123 63.204 151.465 64.632 157.009 66.9C159.949 68.16 162.385 70.428 164.317 73.704C166.333 76.896 167.341 81.012 167.341 86.052V90.336C167.341 96.888 165.493 101.97 161.797 105.582C158.101 109.194 152.977 111 146.425 111H132.691C126.139 111 121.015 109.194 117.319 105.582C113.623 101.97 111.775 96.888 111.775 90.336ZM206.787 111H196.203C194.355 111 193.431 110.118 193.431 108.354V45.228C193.431 44.304 192.969 43.842 192.045 43.842H177.681C175.917 43.842 175.035 42.96 175.035 41.196V32.628C175.035 30.864 175.917 29.982 177.681 29.982H225.309C227.073 29.982 227.955 30.864 227.955 32.628V41.196C227.955 42.96 227.073 43.842 225.309 43.842H210.945C209.937 43.842 209.433 44.304 209.433 45.228V108.354C209.433 110.118 208.551 111 206.787 111ZM281.424 111H240.222C238.458 111 237.576 110.118 237.576 108.354V32.628C237.576 30.864 238.458 29.982 240.222 29.982H281.424C283.104 29.982 283.944 30.864 283.944 32.628V41.196C283.944 42.96 283.104 43.842 281.424 43.842H255.09C254.082 43.842 253.578 44.304 253.578 45.228V61.608C253.578 62.532 254.082 62.994 255.09 62.994H276.636C278.4 62.994 279.282 63.876 279.282 65.64V74.208C279.282 75.972 278.4 76.854 276.636 76.854H255.09C254.082 76.854 253.578 77.316 253.578 78.24V95.754C253.578 96.678 254.082 97.14 255.09 97.14H281.424C283.104 97.14 283.944 98.022 283.944 99.786V108.354C283.944 110.118 283.104 111 281.424 111ZM341.717 111H300.515C298.751 111 297.869 110.118 297.869 108.354V32.628C297.869 30.864 298.751 29.982 300.515 29.982H341.717C343.397 29.982 344.237 30.864 344.237 32.628V41.196C344.237 42.96 343.397 43.842 341.717 43.842H315.383C314.375 43.842 313.871 44.304 313.871 45.228V61.608C313.871 62.532 314.375 62.994 315.383 62.994H336.929C338.693 62.994 339.575 63.876 339.575 65.64V74.208C339.575 75.972 338.693 76.854 336.929 76.854H315.383C314.375 76.854 313.871 77.316 313.871 78.24V95.754C313.871 96.678 314.375 97.14 315.383 97.14H341.717C343.397 97.14 344.237 98.022 344.237 99.786V108.354C344.237 110.118 343.397 111 341.717 111ZM402.262 111H360.808C359.044 111 358.162 110.118 358.162 108.354V32.628C358.162 30.864 359.044 29.982 360.808 29.982H371.518C373.282 29.982 374.164 30.864 374.164 32.628V95.628C374.164 96.552 374.668 97.014 375.676 97.014H402.262C403.942 97.014 404.782 97.938 404.782 99.786V108.354C404.782 110.118 403.942 111 402.262 111Z" fill="white"/>
<path d="M129.667 95.376L128.985 96.1071L128.985 96.1071L129.667 95.376ZM149.323 95.25L148.639 94.5205L148.628 94.5315L148.616 94.5429L149.323 95.25ZM148.315 81.138L147.744 81.9589L147.764 81.973L147.785 81.986L148.315 81.138ZM141.007 78.744L141.093 77.7477L141.093 77.7477L141.007 78.744ZM131.431 77.358L131.212 78.3336L131.226 78.3367L131.24 78.3395L131.431 77.358ZM121.981 74.586L121.61 75.5145L121.621 75.5191L121.633 75.5234L121.981 74.586ZM114.547 67.908L113.68 68.4065L113.688 68.4194L113.696 68.4321L114.547 67.908ZM117.193 35.4L117.892 36.1152L117.892 36.1152L117.193 35.4ZM160.663 35.4L159.964 36.1152L159.964 36.1152L160.663 35.4ZM148.315 45.606L148.998 44.8749L148.998 44.8749L148.315 45.606ZM129.415 45.858L128.686 45.1741L128.684 45.1757L129.415 45.858ZM137.983 62.616L137.898 63.6124L137.901 63.6126L137.983 62.616ZM157.009 66.9L157.403 65.9809L157.396 65.9776L157.388 65.9744L157.009 66.9ZM164.317 73.704L163.456 74.212L163.464 74.2251L163.472 74.238L164.317 73.704ZM117.319 105.582L116.62 106.297L116.62 106.297L117.319 105.582ZM112.775 90.336V87.816H110.775V90.336H112.775ZM112.775 87.816C112.775 87.0881 112.957 86.7259 113.144 86.5386C113.331 86.3513 113.693 86.17 114.421 86.17V84.17C113.385 84.17 112.424 84.4297 111.73 85.1244C111.035 85.8191 110.775 86.7799 110.775 87.816H112.775ZM114.421 86.17H125.131V84.17H114.421V86.17ZM125.131 86.17C125.859 86.17 126.221 86.3513 126.409 86.5386C126.596 86.7259 126.777 87.0881 126.777 87.816H128.777C128.777 86.7799 128.518 85.8191 127.823 85.1244C127.128 84.4297 126.167 84.17 125.131 84.17V86.17ZM126.777 87.816V88.824H128.777V87.816H126.777ZM126.777 88.824C126.777 92.0782 127.406 94.6332 128.985 96.1071L130.35 94.6449C129.409 93.7668 128.777 91.9538 128.777 88.824H126.777ZM128.985 96.1071C130.541 97.5592 133.193 98.14 136.597 98.14V96.14C133.281 96.14 131.314 95.5448 130.35 94.6449L128.985 96.1071ZM136.597 98.14H142.519V96.14H136.597V98.14ZM142.519 98.14C145.859 98.14 148.477 97.5103 150.03 95.9571L148.616 94.5429C147.649 95.5097 145.731 96.14 142.519 96.14V98.14ZM150.007 95.9795C151.67 94.4207 152.339 91.6968 152.339 88.194H150.339C150.339 91.5792 149.664 93.5593 148.639 94.5205L150.007 95.9795ZM152.339 88.194V86.682H150.339V88.194H152.339ZM152.339 86.682C152.339 83.9116 151.162 81.7382 148.845 80.29L147.785 81.986C149.5 83.0578 150.339 84.5804 150.339 86.682H152.339ZM148.886 80.3171C146.778 78.8507 144.163 78.0109 141.093 77.7477L140.922 79.7403C143.731 79.9811 145.988 80.7373 147.744 81.9589L148.886 80.3171ZM141.093 77.7477C138.194 77.4992 135.038 77.0429 131.623 76.3765L131.24 78.3395C134.712 79.0171 137.94 79.4848 140.922 79.7403L141.093 77.7477ZM131.651 76.3824C128.33 75.6353 125.224 74.7235 122.329 73.6486L121.633 75.5234C124.619 76.6324 127.812 77.5687 131.212 78.3336L131.651 76.3824ZM122.353 73.6575C119.652 72.5772 117.327 70.5172 115.399 67.3839L113.696 68.4321C115.799 71.8508 118.431 74.2428 121.61 75.5145L122.353 73.6575ZM115.414 67.4095C113.594 64.2446 112.649 60.147 112.649 55.056H110.649C110.649 60.381 111.636 64.8514 113.68 68.4065L115.414 67.4095ZM112.649 55.056V50.646H110.649V55.056H112.649ZM112.649 50.646C112.649 44.2871 114.437 39.4918 117.892 36.1152L116.494 34.6848C112.557 38.5322 110.649 43.9009 110.649 50.646H112.649ZM117.892 36.1152C121.355 32.7313 126.201 30.982 132.565 30.982V28.982C125.825 28.982 120.424 30.8447 116.494 34.6848L117.892 36.1152ZM132.565 30.982H145.165V28.982H132.565V30.982ZM145.165 30.982C151.617 30.982 156.504 32.7335 159.964 36.1152L161.362 34.6848C157.43 30.8425 151.985 28.982 145.165 28.982V30.982ZM159.964 36.1152C163.419 39.4918 165.207 44.2871 165.207 50.646H167.207C167.207 43.9009 165.299 38.5322 161.362 34.6848L159.964 36.1152ZM165.207 50.646V53.04H167.207V50.646H165.207ZM165.207 53.04C165.207 53.7679 165.026 54.1301 164.839 54.3174C164.651 54.5047 164.289 54.686 163.561 54.686V56.686C164.597 56.686 165.558 56.4263 166.253 55.7316C166.948 55.0369 167.207 54.0761 167.207 53.04H165.207ZM163.561 54.686H152.851V56.686H163.561V54.686ZM152.851 54.686C152.123 54.686 151.761 54.5047 151.574 54.3174C151.387 54.1301 151.205 53.7679 151.205 53.04H149.205C149.205 54.0761 149.465 55.0369 150.16 55.7316C150.854 56.4263 151.815 56.686 152.851 56.686V54.686ZM151.205 53.04V52.284H149.205V53.04H151.205ZM151.205 52.284C151.205 48.9553 150.58 46.3522 148.998 44.8749L147.633 46.337C148.57 47.2118 149.205 49.0607 149.205 52.284H151.205ZM148.998 44.8749C147.442 43.4228 144.789 42.842 141.385 42.842V44.842C144.701 44.842 146.669 45.4372 147.633 46.337L148.998 44.8749ZM141.385 42.842H136.471V44.842H141.385V42.842ZM136.471 42.842C132.968 42.842 130.245 43.5112 128.686 45.1741L130.145 46.5419C131.106 45.5167 133.086 44.842 136.471 44.842V42.842ZM128.684 45.1757C127.932 45.982 127.434 47.1144 127.118 48.4658C126.801 49.8258 126.651 51.4831 126.651 53.418H128.651C128.651 51.5729 128.795 50.0802 129.066 48.9202C129.339 47.7515 129.723 46.994 130.146 46.5403L128.684 45.1757ZM126.651 53.418V55.812H128.651V53.418H126.651ZM126.651 55.812C126.651 58.1399 127.696 60.0001 129.684 61.3092C131.61 62.5771 134.387 63.3126 137.898 63.6124L138.068 61.6196C134.691 61.3314 132.303 60.6389 130.784 59.6388C129.328 58.6799 128.651 57.4321 128.651 55.812H126.651ZM137.901 63.6126C144.959 64.1938 151.198 65.603 156.631 67.8255L157.388 65.9744C151.733 63.661 145.288 62.2142 138.065 61.6194L137.901 63.6126ZM156.615 67.8191C159.325 68.9804 161.611 71.0836 163.456 74.212L165.179 73.196C163.16 69.7724 160.574 67.3396 157.403 65.9809L156.615 67.8191ZM163.472 74.238C165.358 77.225 166.341 81.1393 166.341 86.052H168.341C168.341 80.8847 167.308 76.567 165.163 73.17L163.472 74.238ZM166.341 86.052V90.336H168.341V86.052H166.341ZM166.341 90.336C166.341 96.6949 164.553 101.49 161.098 104.867L162.496 106.297C166.433 102.45 168.341 97.0811 168.341 90.336H166.341ZM161.098 104.867C157.636 108.251 152.789 110 146.425 110V112C153.165 112 158.567 110.137 162.496 106.297L161.098 104.867ZM146.425 110H132.691V112H146.425V110ZM132.691 110C126.327 110 121.481 108.251 118.018 104.867L116.62 106.297C120.55 110.137 125.951 112 132.691 112V110ZM118.018 104.867C114.563 101.49 112.775 96.6949 112.775 90.336H110.775C110.775 97.0811 112.683 102.45 116.62 106.297L118.018 104.867ZM206.787 110H196.203V112H206.787V110ZM196.203 110C195.422 110 195.022 109.813 194.815 109.615C194.616 109.426 194.431 109.07 194.431 108.354H192.431C192.431 109.402 192.708 110.369 193.434 111.062C194.151 111.746 195.136 112 196.203 112V110ZM194.431 108.354V45.228H192.431V108.354H194.431ZM194.431 45.228C194.431 44.6119 194.276 43.9661 193.792 43.4814C193.307 42.9967 192.661 42.842 192.045 42.842V44.842C192.353 44.842 192.4 44.9183 192.377 44.8956C192.355 44.8729 192.431 44.9201 192.431 45.228H194.431ZM192.045 42.842H177.681V44.842H192.045V42.842ZM177.681 42.842C176.953 42.842 176.591 42.6607 176.404 42.4734C176.216 42.2861 176.035 41.9239 176.035 41.196H174.035C174.035 42.2321 174.295 43.1929 174.989 43.8876C175.684 44.5823 176.645 44.842 177.681 44.842V42.842ZM176.035 41.196V32.628H174.035V41.196H176.035ZM176.035 32.628C176.035 31.9001 176.216 31.5379 176.404 31.3506C176.591 31.1633 176.953 30.982 177.681 30.982V28.982C176.645 28.982 175.684 29.2417 174.989 29.9364C174.295 30.6311 174.035 31.5919 174.035 32.628H176.035ZM177.681 30.982H225.309V28.982H177.681V30.982ZM225.309 30.982C226.037 30.982 226.399 31.1633 226.586 31.3506C226.774 31.5379 226.955 31.9001 226.955 32.628H228.955C228.955 31.5919 228.695 30.6311 228.001 29.9364C227.306 29.2417 226.345 28.982 225.309 28.982V30.982ZM226.955 32.628V41.196H228.955V32.628H226.955ZM226.955 41.196C226.955 41.9239 226.774 42.2861 226.586 42.4734C226.399 42.6607 226.037 42.842 225.309 42.842V44.842C226.345 44.842 227.306 44.5823 228.001 43.8876C228.695 43.1929 228.955 42.2321 228.955 41.196H226.955ZM225.309 42.842H210.945V44.842H225.309V42.842ZM210.945 42.842C210.307 42.842 209.643 42.9863 209.135 43.4513C208.612 43.9315 208.433 44.5884 208.433 45.228H210.433C210.433 45.0853 210.453 45.0033 210.467 44.9634C210.474 44.9442 210.48 44.9346 210.482 44.9311C210.485 44.9278 210.486 44.9266 210.487 44.9256C210.487 44.9255 210.507 44.9059 210.576 44.885C210.648 44.8628 210.766 44.842 210.945 44.842V42.842ZM208.433 45.228V108.354H210.433V45.228H208.433ZM208.433 108.354C208.433 109.082 208.252 109.444 208.064 109.631C207.877 109.819 207.515 110 206.787 110V112C207.823 112 208.784 111.74 209.479 111.046C210.173 110.351 210.433 109.39 210.433 108.354H208.433ZM281.424 110H240.222V112H281.424V110ZM240.222 110C239.495 110 239.132 109.819 238.945 109.631C238.758 109.444 238.576 109.082 238.576 108.354H236.576C236.576 109.39 236.836 110.351 237.531 111.046C238.225 111.74 239.186 112 240.222 112V110ZM238.576 108.354V32.628H236.576V108.354H238.576ZM238.576 32.628C238.576 31.9001 238.758 31.5379 238.945 31.3506C239.132 31.1633 239.495 30.982 240.222 30.982V28.982C239.186 28.982 238.225 29.2417 237.531 29.9364C236.836 30.6311 236.576 31.5919 236.576 32.628H238.576ZM240.222 30.982H281.424V28.982H240.222V30.982ZM281.424 30.982C282.097 30.982 282.422 31.1562 282.59 31.3332C282.767 31.5192 282.944 31.8883 282.944 32.628H284.944C284.944 31.6037 284.701 30.6498 284.039 29.9538C283.367 29.2488 282.431 28.982 281.424 28.982V30.982ZM282.944 32.628V41.196H284.944V32.628H282.944ZM282.944 41.196C282.944 41.9357 282.767 42.3048 282.59 42.4908C282.422 42.6678 282.097 42.842 281.424 42.842V44.842C282.431 44.842 283.367 44.5752 284.039 43.8702C284.701 43.1742 284.944 42.2203 284.944 41.196H282.944ZM281.424 42.842H255.09V44.842H281.424V42.842ZM255.09 42.842C254.453 42.842 253.788 42.9863 253.281 43.4513C252.757 43.9315 252.578 44.5884 252.578 45.228H254.578C254.578 45.0853 254.598 45.0033 254.613 44.9634C254.62 44.9442 254.625 44.9346 254.628 44.9311C254.63 44.9278 254.631 44.9266 254.632 44.9256C254.632 44.9255 254.652 44.9059 254.721 44.885C254.794 44.8628 254.912 44.842 255.09 44.842V42.842ZM252.578 45.228V61.608H254.578V45.228H252.578ZM252.578 61.608C252.578 62.2476 252.757 62.9045 253.281 63.3847C253.788 63.8497 254.453 63.994 255.09 63.994V61.994C254.912 61.994 254.794 61.9731 254.721 61.951C254.652 61.93 254.632 61.9105 254.632 61.9103C254.631 61.9094 254.63 61.9082 254.628 61.9049C254.625 61.9014 254.62 61.8918 254.613 61.8726C254.598 61.8327 254.578 61.7507 254.578 61.608H252.578ZM255.09 63.994H276.636V61.994H255.09V63.994ZM276.636 63.994C277.364 63.994 277.726 64.1753 277.914 64.3626C278.101 64.5499 278.282 64.9121 278.282 65.64H280.282C280.282 64.6039 280.023 63.6431 279.328 62.9484C278.633 62.2537 277.673 61.994 276.636 61.994V63.994ZM278.282 65.64V74.208H280.282V65.64H278.282ZM278.282 74.208C278.282 74.9359 278.101 75.2981 277.914 75.4854C277.726 75.6727 277.364 75.854 276.636 75.854V77.854C277.673 77.854 278.633 77.5943 279.328 76.8996C280.023 76.2049 280.282 75.2441 280.282 74.208H278.282ZM276.636 75.854H255.09V77.854H276.636V75.854ZM255.09 75.854C254.453 75.854 253.788 75.9983 253.281 76.4633C252.757 76.9435 252.578 77.6004 252.578 78.24H254.578C254.578 78.0973 254.598 78.0153 254.613 77.9754C254.62 77.9562 254.625 77.9466 254.628 77.9431C254.63 77.9398 254.631 77.9386 254.632 77.9377C254.632 77.9375 254.652 77.9179 254.721 77.897C254.794 77.8748 254.912 77.854 255.09 77.854V75.854ZM252.578 78.24V95.754H254.578V78.24H252.578ZM252.578 95.754C252.578 96.3936 252.757 97.0505 253.281 97.5307C253.788 97.9957 254.453 98.14 255.09 98.14V96.14C254.912 96.14 254.794 96.1191 254.721 96.097C254.652 96.076 254.632 96.0565 254.632 96.0563C254.631 96.0554 254.63 96.0542 254.628 96.0509C254.625 96.0474 254.62 96.0378 254.613 96.0186C254.598 95.9787 254.578 95.8967 254.578 95.754H252.578ZM255.09 98.14H281.424V96.14H255.09V98.14ZM281.424 98.14C282.097 98.14 282.422 98.3142 282.59 98.4912C282.767 98.6772 282.944 99.0463 282.944 99.786H284.944C284.944 98.7617 284.701 97.8078 284.039 97.1118C283.367 96.4068 282.431 96.14 281.424 96.14V98.14ZM282.944 99.786V108.354H284.944V99.786H282.944ZM282.944 108.354C282.944 109.094 282.767 109.463 282.59 109.649C282.422 109.826 282.097 110 281.424 110V112C282.431 112 283.367 111.733 284.039 111.028C284.701 110.332 284.944 109.378 284.944 108.354H282.944ZM341.717 110H300.515V112H341.717V110ZM300.515 110C299.787 110 299.425 109.819 299.238 109.631C299.051 109.444 298.869 109.082 298.869 108.354H296.869C296.869 109.39 297.129 110.351 297.824 111.046C298.518 111.74 299.479 112 300.515 112V110ZM298.869 108.354V32.628H296.869V108.354H298.869ZM298.869 32.628C298.869 31.9001 299.051 31.5379 299.238 31.3506C299.425 31.1633 299.787 30.982 300.515 30.982V28.982C299.479 28.982 298.518 29.2417 297.824 29.9364C297.129 30.6311 296.869 31.5919 296.869 32.628H298.869ZM300.515 30.982H341.717V28.982H300.515V30.982ZM341.717 30.982C342.39 30.982 342.715 31.1562 342.883 31.3332C343.06 31.5192 343.237 31.8883 343.237 32.628H345.237C345.237 31.6037 344.994 30.6498 344.331 29.9538C343.66 29.2488 342.724 28.982 341.717 28.982V30.982ZM343.237 32.628V41.196H345.237V32.628H343.237ZM343.237 41.196C343.237 41.9357 343.06 42.3048 342.883 42.4908C342.715 42.6678 342.39 42.842 341.717 42.842V44.842C342.724 44.842 343.66 44.5752 344.331 43.8702C344.994 43.1742 345.237 42.2203 345.237 41.196H343.237ZM341.717 42.842H315.383V44.842H341.717V42.842ZM315.383 42.842C314.746 42.842 314.081 42.9863 313.574 43.4513C313.05 43.9315 312.871 44.5884 312.871 45.228H314.871C314.871 45.0853 314.891 45.0033 314.906 44.9634C314.913 44.9442 314.918 44.9346 314.921 44.9311C314.923 44.9278 314.924 44.9266 314.925 44.9256C314.925 44.9255 314.945 44.9059 315.014 44.885C315.086 44.8628 315.205 44.842 315.383 44.842V42.842ZM312.871 45.228V61.608H314.871V45.228H312.871ZM312.871 61.608C312.871 62.2476 313.05 62.9045 313.574 63.3847C314.081 63.8497 314.746 63.994 315.383 63.994V61.994C315.205 61.994 315.086 61.9731 315.014 61.951C314.945 61.93 314.925 61.9105 314.925 61.9103C314.924 61.9094 314.923 61.9082 314.921 61.9049C314.918 61.9014 314.913 61.8918 314.906 61.8726C314.891 61.8327 314.871 61.7507 314.871 61.608H312.871ZM315.383 63.994H336.929V61.994H315.383V63.994ZM336.929 63.994C337.657 63.994 338.019 64.1753 338.207 64.3626C338.394 64.5499 338.575 64.9121 338.575 65.64H340.575C340.575 64.6039 340.316 63.6431 339.621 62.9484C338.926 62.2537 337.966 61.994 336.929 61.994V63.994ZM338.575 65.64V74.208H340.575V65.64H338.575ZM338.575 74.208C338.575 74.9359 338.394 75.2981 338.207 75.4854C338.019 75.6727 337.657 75.854 336.929 75.854V77.854C337.966 77.854 338.926 77.5943 339.621 76.8996C340.316 76.2049 340.575 75.2441 340.575 74.208H338.575ZM336.929 75.854H315.383V77.854H336.929V75.854ZM315.383 75.854C314.746 75.854 314.081 75.9983 313.574 76.4633C313.05 76.9435 312.871 77.6004 312.871 78.24H314.871C314.871 78.0973 314.891 78.0153 314.906 77.9754C314.913 77.9562 314.918 77.9466 314.921 77.9431C314.923 77.9398 314.924 77.9386 314.925 77.9377C314.925 77.9375 314.945 77.9179 315.014 77.897C315.086 77.8748 315.205 77.854 315.383 77.854V75.854ZM312.871 78.24V95.754H314.871V78.24H312.871ZM312.871 95.754C312.871 96.3936 313.05 97.0505 313.574 97.5307C314.081 97.9957 314.746 98.14 315.383 98.14V96.14C315.205 96.14 315.086 96.1191 315.014 96.097C314.945 96.076 314.925 96.0565 314.925 96.0563C314.924 96.0554 314.923 96.0542 314.921 96.0509C314.918 96.0474 314.913 96.0378 314.906 96.0186C314.891 95.9787 314.871 95.8967 314.871 95.754H312.871ZM315.383 98.14H341.717V96.14H315.383V98.14ZM341.717 98.14C342.39 98.14 342.715 98.3142 342.883 98.4912C343.06 98.6772 343.237 99.0463 343.237 99.786H345.237C345.237 98.7617 344.994 97.8078 344.331 97.1118C343.66 96.4068 342.724 96.14 341.717 96.14V98.14ZM343.237 99.786V108.354H345.237V99.786H343.237ZM343.237 108.354C343.237 109.094 343.06 109.463 342.883 109.649C342.715 109.826 342.39 110 341.717 110V112C342.724 112 343.66 111.733 344.331 111.028C344.994 110.332 345.237 109.378 345.237 108.354H343.237ZM402.262 110H360.808V112H402.262V110ZM360.808 110C360.08 110 359.718 109.819 359.531 109.631C359.344 109.444 359.162 109.082 359.162 108.354H357.162C357.162 109.39 357.422 110.351 358.117 111.046C358.811 111.74 359.772 112 360.808 112V110ZM359.162 108.354V32.628H357.162V108.354H359.162ZM359.162 32.628C359.162 31.9001 359.344 31.5379 359.531 31.3506C359.718 31.1633 360.08 30.982 360.808 30.982V28.982C359.772 28.982 358.811 29.2417 358.117 29.9364C357.422 30.6311 357.162 31.5919 357.162 32.628H359.162ZM360.808 30.982H371.518V28.982H360.808V30.982ZM371.518 30.982C372.246 30.982 372.608 31.1633 372.796 31.3506C372.983 31.5379 373.164 31.9001 373.164 32.628H375.164C375.164 31.5919 374.905 30.6311 374.21 29.9364C373.515 29.2417 372.554 28.982 371.518 28.982V30.982ZM373.164 32.628V95.628H375.164V32.628H373.164ZM373.164 95.628C373.164 96.2676 373.343 96.9245 373.867 97.4047C374.374 97.8697 375.039 98.014 375.676 98.014V96.014C375.498 96.014 375.379 95.9931 375.307 95.971C375.238 95.95 375.218 95.9305 375.218 95.9303C375.217 95.9294 375.216 95.9282 375.214 95.9249C375.211 95.9214 375.206 95.9118 375.199 95.8926C375.184 95.8527 375.164 95.7707 375.164 95.628H373.164ZM375.676 98.014H402.262V96.014H375.676V98.014ZM402.262 98.014C402.922 98.014 403.241 98.1911 403.412 98.3797C403.6 98.5863 403.782 98.9938 403.782 99.786H405.782C405.782 98.7302 405.544 97.7517 404.892 97.0343C404.224 96.2989 403.282 96.014 402.262 96.014V98.014ZM403.782 99.786V108.354H405.782V99.786H403.782ZM403.782 108.354C403.782 109.094 403.605 109.463 403.428 109.649C403.26 109.826 402.935 110 402.262 110V112C403.269 112 404.205 111.733 404.876 111.028C405.539 110.332 405.782 109.378 405.782 108.354H403.782Z" fill="black"/>
</svg>
