<svg width="444" height="150" viewBox="0 0 444 150" fill="none" xmlns="http://www.w3.org/2000/svg">
<rect x="2.5" y="2.5" width="439" height="145" rx="32.5" fill="#3399FF" stroke="black" stroke-width="5"/>
<path d="M80.244 111H62.604C60.756 111 59.706 110.118 59.454 108.354L45.972 32.628C45.72 30.864 46.602 29.982 48.618 29.982H61.722C63.654 29.982 64.662 30.864 64.746 32.628L72.054 94.746H72.936L85.032 32.25C85.284 30.738 86.166 29.982 87.678 29.982H101.79C103.386 29.982 104.31 30.696 104.562 32.124L116.91 94.746H117.918L125.1 32.754C125.184 30.906 126.192 29.982 128.124 29.982H141.228C143.244 29.982 144.126 30.906 143.874 32.754L130.266 108.354C130.014 110.118 129.048 111 127.368 111H109.602C107.838 111 106.83 110.118 106.578 108.354L95.238 49.26H94.734L83.268 108.354C82.932 110.118 81.924 111 80.244 111ZM162.351 111H150.255C148.743 111 148.239 110.118 148.743 108.354L168.651 32.628C169.239 30.864 170.499 29.982 172.431 29.982H189.189C191.289 29.982 192.549 30.864 192.969 32.628L212.877 108.354C213.381 110.118 212.877 111 211.365 111H199.269C198.345 111 197.715 110.832 197.379 110.496C197.043 110.076 196.791 109.362 196.623 108.354L193.095 94.494H168.525L164.997 108.354C164.829 109.362 164.535 110.076 164.115 110.496C163.779 110.832 163.191 111 162.351 111ZM180.621 45.228L171.549 81.642H190.197L181.125 45.228H180.621ZM249.119 111H238.535C236.687 111 235.763 110.118 235.763 108.354V45.228C235.763 44.304 235.301 43.842 234.377 43.842H220.013C218.249 43.842 217.367 42.96 217.367 41.196V32.628C217.367 30.864 218.249 29.982 220.013 29.982H267.641C269.405 29.982 270.287 30.864 270.287 32.628V41.196C270.287 42.96 269.405 43.842 267.641 43.842H253.277C252.269 43.842 251.765 44.304 251.765 45.228V108.354C251.765 110.118 250.883 111 249.119 111ZM323.757 111H282.555C280.791 111 279.909 110.118 279.909 108.354V32.628C279.909 30.864 280.791 29.982 282.555 29.982H323.757C325.437 29.982 326.277 30.864 326.277 32.628V41.196C326.277 42.96 325.437 43.842 323.757 43.842H297.423C296.415 43.842 295.911 44.304 295.911 45.228V61.608C295.911 62.532 296.415 62.994 297.423 62.994H318.969C320.733 62.994 321.615 63.876 321.615 65.64V74.208C321.615 75.972 320.733 76.854 318.969 76.854H297.423C296.415 76.854 295.911 77.316 295.911 78.24V95.754C295.911 96.678 296.415 97.14 297.423 97.14H323.757C325.437 97.14 326.277 98.022 326.277 99.786V108.354C326.277 110.118 325.437 111 323.757 111ZM353.558 111H342.848C341.084 111 340.202 110.118 340.202 108.354V32.628C340.202 30.864 341.084 29.982 342.848 29.982H372.836C379.388 29.982 384.512 31.788 388.208 35.4C391.904 39.012 393.752 44.094 393.752 50.646V60.474C393.752 69.966 390.014 76.266 382.538 79.374V79.878L396.02 107.976C396.776 109.992 396.062 111 393.878 111H383.672C382.16 111 381.068 110.832 380.396 110.496C379.724 110.16 379.178 109.446 378.758 108.354L366.158 81.138H357.716C356.708 81.138 356.204 81.6 356.204 82.524V108.354C356.204 110.118 355.322 111 353.558 111ZM357.59 68.286H369.938C372.626 68.286 374.6 67.74 375.86 66.648C377.12 65.472 377.75 63.624 377.75 61.104V51.276C377.75 48.672 377.12 46.782 375.86 45.606C374.6 44.43 372.626 43.842 369.938 43.842H357.59C356.666 43.842 356.204 44.304 356.204 45.228V66.9C356.204 67.824 356.666 68.286 357.59 68.286Z" fill="white"/>
<path d="M59.454 108.354L60.444 108.213L60.4416 108.196L60.4386 108.179L59.454 108.354ZM45.972 32.628L44.9821 32.7694L44.9845 32.7864L44.9875 32.8033L45.972 32.628ZM64.746 32.628L63.7472 32.6756L63.7488 32.7103L63.7529 32.7448L64.746 32.628ZM72.054 94.746L71.0609 94.8628L71.1648 95.746H72.054V94.746ZM72.936 94.746V95.746H73.761L73.9178 94.936L72.936 94.746ZM85.032 32.25L86.0138 32.44L86.0163 32.4272L86.0184 32.4144L85.032 32.25ZM104.562 32.124L103.577 32.2978L103.579 32.3076L103.581 32.3175L104.562 32.124ZM116.91 94.746L115.929 94.9395L116.088 95.746H116.91V94.746ZM117.918 94.746V95.746H118.809L118.911 94.8611L117.918 94.746ZM125.1 32.754L126.093 32.8691L126.097 32.8343L126.099 32.7994L125.1 32.754ZM143.874 32.754L144.858 32.9311L144.862 32.9102L144.865 32.8891L143.874 32.754ZM130.266 108.354L129.282 108.177L129.279 108.195L129.276 108.213L130.266 108.354ZM106.578 108.354L107.568 108.213L107.565 108.189L107.56 108.166L106.578 108.354ZM95.238 49.26L96.2201 49.0715L96.0644 48.26H95.238V49.26ZM94.734 49.26V48.26H93.9094L93.7523 49.0695L94.734 49.26ZM83.268 108.354L82.2863 108.164L82.2857 108.167L83.268 108.354ZM80.244 110H62.604V112H80.244V110ZM62.604 110C61.8332 110 61.3644 109.817 61.0737 109.573C60.788 109.333 60.5459 108.926 60.444 108.213L58.4641 108.495C58.6142 109.546 59.0231 110.462 59.7873 111.104C60.5467 111.742 61.5268 112 62.604 112V110ZM60.4386 108.179L46.9565 32.4527L44.9875 32.8033L58.4695 108.529L60.4386 108.179ZM46.962 32.4866C46.8603 31.775 47.0177 31.4845 47.1516 31.3506C47.3176 31.1846 47.7186 30.982 48.618 30.982V28.982C47.5014 28.982 46.4534 29.2204 45.7374 29.9364C44.9894 30.6844 44.8317 31.717 44.9821 32.7694L46.962 32.4866ZM48.618 30.982H61.722V28.982H48.618V30.982ZM61.722 30.982C62.5513 30.982 63.013 31.1725 63.2685 31.3961C63.5087 31.6063 63.7138 31.9748 63.7472 32.6756L65.7449 32.5804C65.6943 31.5172 65.3533 30.5627 64.5855 29.8909C63.833 29.2325 62.8248 28.982 61.722 28.982V30.982ZM63.7529 32.7448L71.0609 94.8628L73.0472 94.6292L65.7392 32.5112L63.7529 32.7448ZM72.054 95.746H72.936V93.746H72.054V95.746ZM73.9178 94.936L86.0138 32.44L84.0503 32.06L71.9543 94.556L73.9178 94.936ZM86.0184 32.4144C86.1183 31.8152 86.3207 31.4905 86.5333 31.3083C86.7442 31.1275 87.0874 30.982 87.678 30.982V28.982C86.7567 28.982 85.9028 29.2145 85.2317 29.7897C84.5624 30.3635 84.1978 31.1728 84.0456 32.0856L86.0184 32.4144ZM87.678 30.982H101.79V28.982H87.678V30.982ZM101.79 30.982C102.447 30.982 102.836 31.1291 103.069 31.3088C103.289 31.4791 103.484 31.7671 103.577 32.2978L105.547 31.9502C105.388 31.0529 104.995 30.2699 104.291 29.7262C103.6 29.1919 102.729 28.982 101.79 28.982V30.982ZM103.581 32.3175L115.929 94.9395L117.891 94.5525L105.543 31.9305L103.581 32.3175ZM116.91 95.746H117.918V93.746H116.91V95.746ZM118.911 94.8611L126.093 32.8691L124.107 32.6389L116.925 94.6309L118.911 94.8611ZM126.099 32.7994C126.133 32.0439 126.347 31.6396 126.595 31.4122C126.85 31.1779 127.305 30.982 128.124 30.982V28.982C127.011 28.982 125.996 29.2481 125.243 29.9378C124.483 30.6343 124.151 31.6161 124.101 32.7086L126.099 32.7994ZM128.124 30.982H141.228V28.982H128.124V30.982ZM141.228 30.982C142.117 30.982 142.511 31.1902 142.678 31.3655C142.826 31.5202 142.988 31.8526 142.883 32.6189L144.865 32.8891C145.012 31.8074 144.859 30.7537 144.125 29.9845C143.41 29.2358 142.355 28.982 141.228 28.982V30.982ZM142.89 32.5768L129.282 108.177L131.25 108.531L144.858 32.9311L142.89 32.5768ZM129.276 108.213C129.171 108.948 128.937 109.364 128.678 109.6C128.427 109.829 128.032 110 127.368 110V112C128.384 112 129.312 111.73 130.027 111.077C130.734 110.431 131.109 109.524 131.256 108.495L129.276 108.213ZM127.368 110H109.602V112H127.368V110ZM109.602 110C108.884 110 108.452 109.823 108.182 109.586C107.91 109.348 107.671 108.937 107.568 108.213L105.588 108.495C105.737 109.535 106.128 110.447 106.865 111.091C107.602 111.736 108.556 112 109.602 112V110ZM107.56 108.166L96.2201 49.0715L94.256 49.4485L105.596 108.542L107.56 108.166ZM95.238 48.26H94.734V50.26H95.238V48.26ZM93.7523 49.0695L82.2863 108.164L84.2497 108.544L95.7157 49.4505L93.7523 49.0695ZM82.2857 108.167C82.1453 108.904 81.8882 109.335 81.6015 109.586C81.3227 109.83 80.9055 110 80.244 110V112C81.2625 112 82.1894 111.729 82.9185 111.091C83.6399 110.46 84.0548 109.568 84.2504 108.541L82.2857 108.167ZM148.743 108.354L149.704 108.629L149.707 108.619L149.71 108.608L148.743 108.354ZM168.651 32.628L167.702 32.3118L167.692 32.3425L167.684 32.3737L168.651 32.628ZM192.969 32.628L191.996 32.8596L191.999 32.871L192.002 32.8823L192.969 32.628ZM212.877 108.354L211.91 108.608L211.912 108.619L211.915 108.629L212.877 108.354ZM197.379 110.496L196.598 111.121L196.632 111.164L196.672 111.203L197.379 110.496ZM196.623 108.354L197.609 108.19L197.602 108.148L197.592 108.107L196.623 108.354ZM193.095 94.494L194.064 94.2473L193.872 93.494H193.095V94.494ZM168.525 94.494V93.494H167.747L167.556 94.2473L168.525 94.494ZM164.997 108.354L164.028 108.107L164.017 108.148L164.01 108.19L164.997 108.354ZM164.115 110.496L164.822 111.203L164.822 111.203L164.115 110.496ZM180.621 45.228V44.228H179.839L179.65 44.9863L180.621 45.228ZM171.549 81.642L170.578 81.4003L170.269 82.642H171.549V81.642ZM190.197 81.642V82.642H191.476L191.167 81.4003L190.197 81.642ZM181.125 45.228L182.095 44.9863L181.906 44.228H181.125V45.228ZM162.351 110H150.255V112H162.351V110ZM150.255 110C149.966 110 149.798 109.957 149.711 109.918C149.638 109.887 149.621 109.86 149.611 109.842C149.567 109.765 149.472 109.443 149.704 108.629L147.781 108.079C147.51 109.029 147.415 110.03 147.875 110.835C148.383 111.724 149.331 112 150.255 112V110ZM149.71 108.608L169.618 32.8823L167.684 32.3737L147.776 108.1L149.71 108.608ZM169.599 32.9442C169.84 32.2222 170.19 31.7567 170.61 31.4627C171.033 31.1664 171.617 30.982 172.431 30.982V28.982C171.312 28.982 170.3 29.2386 169.463 29.8243C168.623 30.4123 168.049 31.2698 167.702 32.3118L169.599 32.9442ZM172.431 30.982H189.189V28.982H172.431V30.982ZM189.189 30.982C190.107 30.982 190.725 31.1754 191.135 31.4627C191.53 31.7389 191.832 32.1707 191.996 32.8596L193.942 32.3964C193.686 31.3213 193.148 30.4301 192.282 29.8243C191.433 29.2296 190.371 28.982 189.189 28.982V30.982ZM192.002 32.8823L211.91 108.608L213.844 108.1L193.936 32.3737L192.002 32.8823ZM211.915 108.629C212.148 109.443 212.053 109.765 212.009 109.842C211.998 109.86 211.981 109.887 211.909 109.918C211.821 109.957 211.653 110 211.365 110V112C212.288 112 213.237 111.724 213.745 110.835C214.205 110.03 214.11 109.029 213.838 108.079L211.915 108.629ZM211.365 110H199.269V112H211.365V110ZM199.269 110C198.39 110 198.121 109.824 198.086 109.789L196.672 111.203C197.308 111.84 198.3 112 199.269 112V110ZM198.16 109.871C197.989 109.658 197.77 109.156 197.609 108.19L195.636 108.518C195.811 109.568 196.097 110.494 196.598 111.121L198.16 109.871ZM197.592 108.107L194.064 94.2473L192.126 94.7407L195.654 108.601L197.592 108.107ZM193.095 93.494H168.525V95.494H193.095V93.494ZM167.556 94.2473L164.028 108.107L165.966 108.601L169.494 94.7407L167.556 94.2473ZM164.01 108.19C163.855 109.124 163.608 109.589 163.408 109.789L164.822 111.203C165.462 110.563 165.803 109.6 165.983 108.518L164.01 108.19ZM163.408 109.789C163.36 109.837 163.113 110 162.351 110V112C163.268 112 164.198 111.827 164.822 111.203L163.408 109.789ZM179.65 44.9863L170.578 81.4003L172.519 81.8837L181.591 45.4697L179.65 44.9863ZM171.549 82.642H190.197V80.642H171.549V82.642ZM191.167 81.4003L182.095 44.9863L180.154 45.4697L189.226 81.8837L191.167 81.4003ZM181.125 44.228H180.621V46.228H181.125V44.228ZM249.119 110H238.535V112H249.119V110ZM238.535 110C237.754 110 237.354 109.813 237.147 109.615C236.949 109.426 236.763 109.07 236.763 108.354H234.763C234.763 109.402 235.04 110.369 235.766 111.062C236.483 111.746 237.469 112 238.535 112V110ZM236.763 108.354V45.228H234.763V108.354H236.763ZM236.763 45.228C236.763 44.6119 236.609 43.9661 236.124 43.4814C235.639 42.9967 234.994 42.842 234.377 42.842V44.842C234.685 44.842 234.733 44.9183 234.71 44.8956C234.687 44.8729 234.763 44.9201 234.763 45.228H236.763ZM234.377 42.842H220.013V44.842H234.377V42.842ZM220.013 42.842C219.286 42.842 218.923 42.6607 218.736 42.4734C218.549 42.2861 218.367 41.9239 218.367 41.196H216.367C216.367 42.2321 216.627 43.1929 217.322 43.8876C218.017 44.5823 218.977 44.842 220.013 44.842V42.842ZM218.367 41.196V32.628H216.367V41.196H218.367ZM218.367 32.628C218.367 31.9001 218.549 31.5379 218.736 31.3506C218.923 31.1633 219.286 30.982 220.013 30.982V28.982C218.977 28.982 218.017 29.2417 217.322 29.9364C216.627 30.6311 216.367 31.5919 216.367 32.628H218.367ZM220.013 30.982H267.641V28.982H220.013V30.982ZM267.641 30.982C268.369 30.982 268.732 31.1633 268.919 31.3506C269.106 31.5379 269.287 31.9001 269.287 32.628H271.287C271.287 31.5919 271.028 30.6311 270.333 29.9364C269.638 29.2417 268.678 28.982 267.641 28.982V30.982ZM269.287 32.628V41.196H271.287V32.628H269.287ZM269.287 41.196C269.287 41.9239 269.106 42.2861 268.919 42.4734C268.732 42.6607 268.369 42.842 267.641 42.842V44.842C268.678 44.842 269.638 44.5823 270.333 43.8876C271.028 43.1929 271.287 42.2321 271.287 41.196H269.287ZM267.641 42.842H253.277V44.842H267.641V42.842ZM253.277 42.842C252.64 42.842 251.975 42.9863 251.468 43.4513C250.944 43.9315 250.765 44.5884 250.765 45.228H252.765C252.765 45.0853 252.785 45.0033 252.8 44.9634C252.807 44.9442 252.812 44.9346 252.815 44.9311C252.817 44.9278 252.818 44.9266 252.819 44.9256C252.819 44.9255 252.84 44.9059 252.908 44.885C252.981 44.8628 253.099 44.842 253.277 44.842V42.842ZM250.765 45.228V108.354H252.765V45.228H250.765ZM250.765 108.354C250.765 109.082 250.584 109.444 250.397 109.631C250.21 109.819 249.847 110 249.119 110V112C250.156 112 251.116 111.74 251.811 111.046C252.506 110.351 252.765 109.39 252.765 108.354H250.765ZM323.757 110H282.555V112H323.757V110ZM282.555 110C281.827 110 281.465 109.819 281.277 109.631C281.09 109.444 280.909 109.082 280.909 108.354H278.909C278.909 109.39 279.168 110.351 279.863 111.046C280.558 111.74 281.519 112 282.555 112V110ZM280.909 108.354V32.628H278.909V108.354H280.909ZM280.909 32.628C280.909 31.9001 281.09 31.5379 281.277 31.3506C281.465 31.1633 281.827 30.982 282.555 30.982V28.982C281.519 28.982 280.558 29.2417 279.863 29.9364C279.168 30.6311 278.909 31.5919 278.909 32.628H280.909ZM282.555 30.982H323.757V28.982H282.555V30.982ZM323.757 30.982C324.43 30.982 324.754 31.1562 324.923 31.3332C325.1 31.5192 325.277 31.8883 325.277 32.628H327.277C327.277 31.6037 327.034 30.6498 326.371 29.9538C325.699 29.2488 324.764 28.982 323.757 28.982V30.982ZM325.277 32.628V41.196H327.277V32.628H325.277ZM325.277 41.196C325.277 41.9357 325.1 42.3048 324.923 42.4908C324.754 42.6678 324.43 42.842 323.757 42.842V44.842C324.764 44.842 325.699 44.5752 326.371 43.8702C327.034 43.1742 327.277 42.2203 327.277 41.196H325.277ZM323.757 42.842H297.423V44.842H323.757V42.842ZM297.423 42.842C296.785 42.842 296.12 42.9863 295.613 43.4513C295.089 43.9315 294.911 44.5884 294.911 45.228H296.911C296.911 45.0853 296.931 45.0033 296.945 44.9634C296.952 44.9442 296.958 44.9346 296.96 44.9311C296.962 44.9278 296.963 44.9266 296.964 44.9256C296.965 44.9255 296.985 44.9059 297.053 44.885C297.126 44.8628 297.244 44.842 297.423 44.842V42.842ZM294.911 45.228V61.608H296.911V45.228H294.911ZM294.911 61.608C294.911 62.2476 295.089 62.9045 295.613 63.3847C296.12 63.8497 296.785 63.994 297.423 63.994V61.994C297.244 61.994 297.126 61.9731 297.053 61.951C296.985 61.93 296.965 61.9105 296.964 61.9103C296.963 61.9094 296.962 61.9082 296.96 61.9049C296.958 61.9014 296.952 61.8918 296.945 61.8726C296.931 61.8327 296.911 61.7507 296.911 61.608H294.911ZM297.423 63.994H318.969V61.994H297.423V63.994ZM318.969 63.994C319.697 63.994 320.059 64.1753 320.246 64.3626C320.433 64.5499 320.615 64.9121 320.615 65.64H322.615C322.615 64.6039 322.355 63.6431 321.66 62.9484C320.966 62.2537 320.005 61.994 318.969 61.994V63.994ZM320.615 65.64V74.208H322.615V65.64H320.615ZM320.615 74.208C320.615 74.9359 320.433 75.2981 320.246 75.4854C320.059 75.6727 319.697 75.854 318.969 75.854V77.854C320.005 77.854 320.966 77.5943 321.66 76.8996C322.355 76.2049 322.615 75.2441 322.615 74.208H320.615ZM318.969 75.854H297.423V77.854H318.969V75.854ZM297.423 75.854C296.785 75.854 296.12 75.9983 295.613 76.4633C295.089 76.9435 294.911 77.6004 294.911 78.24H296.911C296.911 78.0973 296.931 78.0153 296.945 77.9754C296.952 77.9562 296.958 77.9466 296.96 77.9431C296.962 77.9398 296.963 77.9386 296.964 77.9377C296.965 77.9375 296.985 77.9179 297.053 77.897C297.126 77.8748 297.244 77.854 297.423 77.854V75.854ZM294.911 78.24V95.754H296.911V78.24H294.911ZM294.911 95.754C294.911 96.3936 295.089 97.0505 295.613 97.5307C296.12 97.9957 296.785 98.14 297.423 98.14V96.14C297.244 96.14 297.126 96.1191 297.053 96.097C296.985 96.076 296.965 96.0565 296.964 96.0563C296.963 96.0554 296.962 96.0542 296.96 96.0509C296.958 96.0474 296.952 96.0378 296.945 96.0186C296.931 95.9787 296.911 95.8967 296.911 95.754H294.911ZM297.423 98.14H323.757V96.14H297.423V98.14ZM323.757 98.14C324.43 98.14 324.754 98.3142 324.923 98.4912C325.1 98.6772 325.277 99.0463 325.277 99.786H327.277C327.277 98.7617 327.034 97.8078 326.371 97.1118C325.699 96.4068 324.764 96.14 323.757 96.14V98.14ZM325.277 99.786V108.354H327.277V99.786H325.277ZM325.277 108.354C325.277 109.094 325.1 109.463 324.923 109.649C324.754 109.826 324.43 110 323.757 110V112C324.764 112 325.699 111.733 326.371 111.028C327.034 110.332 327.277 109.378 327.277 108.354H325.277ZM382.538 79.374L382.154 78.4506L381.538 78.7068V79.374H382.538ZM382.538 79.878H381.538V80.1055L381.636 80.3106L382.538 79.878ZM396.02 107.976L396.956 107.625L396.94 107.583L396.921 107.543L396.02 107.976ZM380.396 110.496L379.949 111.39L379.949 111.39L380.396 110.496ZM378.758 108.354L379.691 107.995L379.679 107.964L379.665 107.934L378.758 108.354ZM366.158 81.138L367.065 80.7179L366.797 80.138H366.158V81.138ZM375.86 66.648L376.515 67.4037L376.529 67.3916L376.542 67.3791L375.86 66.648ZM375.86 45.606L376.542 44.8749L376.542 44.8749L375.86 45.606ZM353.558 110H342.848V112H353.558V110ZM342.848 110C342.12 110 341.758 109.819 341.57 109.631C341.383 109.444 341.202 109.082 341.202 108.354H339.202C339.202 109.39 339.461 110.351 340.156 111.046C340.851 111.74 341.812 112 342.848 112V110ZM341.202 108.354V32.628H339.202V108.354H341.202ZM341.202 32.628C341.202 31.9001 341.383 31.5379 341.57 31.3506C341.758 31.1633 342.12 30.982 342.848 30.982V28.982C341.812 28.982 340.851 29.2417 340.156 29.9364C339.461 30.6311 339.202 31.5919 339.202 32.628H341.202ZM342.848 30.982H372.836V28.982H342.848V30.982ZM372.836 30.982C379.2 30.982 384.046 32.7313 387.509 36.1152L388.907 34.6848C384.977 30.8447 379.576 28.982 372.836 28.982V30.982ZM387.509 36.1152C390.964 39.4918 392.752 44.2871 392.752 50.646H394.752C394.752 43.9009 392.844 38.5322 388.907 34.6848L387.509 36.1152ZM392.752 50.646V60.474H394.752V50.646H392.752ZM392.752 60.474C392.752 65.0924 391.842 68.8515 390.088 71.8077C388.341 74.7527 385.715 76.9702 382.154 78.4506L382.922 80.2974C386.837 78.6698 389.818 76.1833 391.808 72.8283C393.792 69.4845 394.752 65.3476 394.752 60.474H392.752ZM381.538 79.374V79.878H383.538V79.374H381.538ZM381.636 80.3106L395.118 108.409L396.921 107.543L383.439 79.4454L381.636 80.3106ZM395.083 108.327C395.43 109.253 395.293 109.584 395.235 109.666C395.172 109.755 394.888 110 393.878 110V112C395.051 112 396.217 111.741 396.867 110.822C397.523 109.896 397.365 108.715 396.956 107.625L395.083 108.327ZM393.878 110H383.672V112H393.878V110ZM383.672 110C382.188 110 381.295 109.828 380.843 109.602L379.949 111.39C380.84 111.836 382.131 112 383.672 112V110ZM380.843 109.602C380.49 109.425 380.069 108.979 379.691 107.995L377.824 108.713C378.286 109.913 378.957 110.895 379.949 111.39L380.843 109.602ZM379.665 107.934L367.065 80.7179L365.25 81.5581L377.85 108.774L379.665 107.934ZM366.158 80.138H357.716V82.138H366.158V80.138ZM357.716 80.138C357.078 80.138 356.413 80.2823 355.906 80.7473C355.382 81.2275 355.204 81.8844 355.204 82.524H357.204C357.204 82.3813 357.223 82.2993 357.238 82.2594C357.245 82.2402 357.251 82.2306 357.253 82.2271C357.255 82.2238 357.256 82.2226 357.257 82.2217C357.258 82.2215 357.278 82.2019 357.346 82.181C357.419 82.1588 357.537 82.138 357.716 82.138V80.138ZM355.204 82.524V108.354H357.204V82.524H355.204ZM355.204 108.354C355.204 109.082 355.022 109.444 354.835 109.631C354.648 109.819 354.286 110 353.558 110V112C354.594 112 355.555 111.74 356.249 111.046C356.944 110.351 357.204 109.39 357.204 108.354H355.204ZM357.59 69.286H369.938V67.286H357.59V69.286ZM369.938 69.286C372.728 69.286 374.99 68.7249 376.515 67.4037L375.205 65.8923C374.209 66.7551 372.524 67.286 369.938 67.286V69.286ZM376.542 67.3791C378.083 65.9408 378.75 63.7719 378.75 61.104H376.75C376.75 63.4761 376.156 65.0031 375.177 65.9169L376.542 67.3791ZM378.75 61.104V51.276H376.75V61.104H378.75ZM378.75 51.276C378.75 48.5358 378.089 46.3186 376.542 44.8749L375.177 46.337C376.151 47.2454 376.75 48.8081 376.75 51.276H378.75ZM376.542 44.8749C375.017 43.4513 372.743 42.842 369.938 42.842V44.842C372.509 44.842 374.183 45.4087 375.177 46.337L376.542 44.8749ZM369.938 42.842H357.59V44.842H369.938V42.842ZM357.59 42.842C356.974 42.842 356.328 42.9967 355.843 43.4814C355.358 43.9661 355.204 44.6119 355.204 45.228H357.204C357.204 44.9201 357.28 44.8729 357.257 44.8956C357.235 44.9183 357.282 44.842 357.59 44.842V42.842ZM355.204 45.228V66.9H357.204V45.228H355.204ZM355.204 66.9C355.204 67.5161 355.358 68.1619 355.843 68.6466C356.328 69.1313 356.974 69.286 357.59 69.286V67.286C357.282 67.286 357.235 67.2097 357.257 67.2324C357.28 67.2551 357.204 67.2079 357.204 66.9H355.204Z" fill="black"/>
</svg>
